  0
SECTION
  2
HEADER
  9
$ACADVER
  1
AC1009
  9
$FILLMODE
 70
 0
  9
$SPLFRAME
 70
 1
  9
$EXTMIN
 10
0
 20
0
 30
0.0
  9
$EXTMAX
 10
1058.33
 20
1058.33
 30
0.0
  0
ENDSEC
  0
SECTION
  2
TABLES
  0
TABLE
  2
LAYER
 70
1
  0
LAYER
  2
0
 70
     0
 62
     7
  6
CONTINUOUS
  0
ENDTAB
  0
ENDSEC
  0
SECTION
  2
ENTITIES
  0
LINE
  8
0
 62
     0
 10
340.734
 20
129.021
 30
0.0
 11
340.929
 21
129.015
 31
0.0
  0
LINE
  8
0
 62
     0
 10
340.929
 20
129.015
 30
0.0
 11
341.125
 21
128.991
 31
0.0
  0
LINE
  8
0
 62
     0
 10
341.125
 20
128.991
 30
0.0
 11
341.318
 21
128.953
 31
0.0
  0
LINE
  8
0
 62
     0
 10
341.318
 20
128.953
 30
0.0
 11
341.507
 21
128.899
 31
0.0
  0
LINE
  8
0
 62
     0
 10
341.507
 20
128.899
 30
0.0
 11
341.69
 21
128.831
 31
0.0
  0
LINE
  8
0
 62
     0
 10
341.69
 20
128.831
 30
0.0
 11
341.868
 21
128.749
 31
0.0
  0
LINE
  8
0
 62
     0
 10
341.868
 20
128.749
 30
0.0
 11
342.04
 21
128.654
 31
0.0
  0
LINE
  8
0
 62
     0
 10
342.04
 20
128.654
 30
0.0
 11
342.203
 21
128.545
 31
0.0
  0
LINE
  8
0
 62
     0
 10
342.203
 20
128.545
 30
0.0
 11
342.357
 21
128.423
 31
0.0
  0
LINE
  8
0
 62
     0
 10
342.357
 20
128.423
 30
0.0
 11
342.502
 21
128.29
 31
0.0
  0
LINE
  8
0
 62
     0
 10
342.502
 20
128.29
 30
0.0
 11
342.634
 21
128.145
 31
0.0
  0
LINE
  8
0
 62
     0
 10
342.634
 20
128.145
 30
0.0
 11
342.757
 21
127.991
 31
0.0
  0
LINE
  8
0
 62
     0
 10
342.757
 20
127.991
 30
0.0
 11
342.865
 21
127.828
 31
0.0
  0
LINE
  8
0
 62
     0
 10
342.865
 20
127.828
 30
0.0
 11
342.962
 21
127.656
 31
0.0
  0
LINE
  8
0
 62
     0
 10
342.962
 20
127.656
 30
0.0
 11
343.043
 21
127.478
 31
0.0
  0
LINE
  8
0
 62
     0
 10
343.043
 20
127.478
 30
0.0
 11
343.111
 21
127.294
 31
0.0
  0
LINE
  8
0
 62
     0
 10
343.111
 20
127.294
 30
0.0
 11
343.165
 21
127.105
 31
0.0
  0
LINE
  8
0
 62
     0
 10
343.165
 20
127.105
 30
0.0
 11
343.203
 21
126.913
 31
0.0
  0
LINE
  8
0
 62
     0
 10
343.203
 20
126.913
 30
0.0
 11
343.225
 21
126.717
 31
0.0
  0
LINE
  8
0
 62
     0
 10
343.225
 20
126.717
 30
0.0
 11
343.233
 21
126.522
 31
0.0
  0
LINE
  8
0
 62
     0
 10
343.233
 20
126.522
 30
0.0
 11
343.233
 21
2.69544
 31
0.0
  0
LINE
  8
0
 62
     0
 10
343.233
 20
2.69544
 30
0.0
 11
343.225
 21
2.49976
 31
0.0
  0
LINE
  8
0
 62
     0
 10
343.225
 20
2.49976
 30
0.0
 11
343.203
 21
2.30408
 31
0.0
  0
LINE
  8
0
 62
     0
 10
343.203
 20
2.30408
 30
0.0
 11
343.165
 21
2.11253
 31
0.0
  0
LINE
  8
0
 62
     0
 10
343.165
 20
2.11253
 30
0.0
 11
343.111
 21
1.92374
 31
0.0
  0
LINE
  8
0
 62
     0
 10
343.111
 20
1.92374
 30
0.0
 11
343.043
 21
1.73909
 31
0.0
  0
LINE
  8
0
 62
     0
 10
343.043
 20
1.73909
 30
0.0
 11
342.962
 21
1.56132
 31
0.0
  0
LINE
  8
0
 62
     0
 10
342.962
 20
1.56132
 30
0.0
 11
342.865
 21
1.38906
 31
0.0
  0
LINE
  8
0
 62
     0
 10
342.865
 20
1.38906
 30
0.0
 11
342.757
 21
1.22645
 31
0.0
  0
LINE
  8
0
 62
     0
 10
342.757
 20
1.22645
 30
0.0
 11
342.634
 21
1.07211
 31
0.0
  0
LINE
  8
0
 62
     0
 10
342.634
 20
1.07211
 30
0.0
 11
342.502
 21
0.928797
 31
0.0
  0
LINE
  8
0
 62
     0
 10
342.502
 20
0.928797
 30
0.0
 11
342.357
 21
0.79375
 31
0.0
  0
LINE
  8
0
 62
     0
 10
342.357
 20
0.79375
 30
0.0
 11
342.203
 21
0.673862
 31
0.0
  0
LINE
  8
0
 62
     0
 10
342.203
 20
0.673862
 30
0.0
 11
342.04
 21
0.563619
 31
0.0
  0
LINE
  8
0
 62
     0
 10
342.04
 20
0.563619
 30
0.0
 11
341.868
 21
0.468535
 31
0.0
  0
LINE
  8
0
 62
     0
 10
341.868
 20
0.468535
 30
0.0
 11
341.69
 21
0.385851
 31
0.0
  0
LINE
  8
0
 62
     0
 10
341.69
 20
0.385851
 30
0.0
 11
341.507
 21
0.318327
 31
0.0
  0
LINE
  8
0
 62
     0
 10
341.507
 20
0.318327
 30
0.0
 11
341.318
 21
0.264583
 31
0.0
  0
LINE
  8
0
 62
     0
 10
341.318
 20
0.264583
 30
0.0
 11
341.125
 21
0.225998
 31
0.0
  0
LINE
  8
0
 62
     0
 10
341.125
 20
0.225998
 30
0.0
 11
340.929
 21
0.202572
 31
0.0
  0
LINE
  8
0
 62
     0
 10
340.929
 20
0.202572
 30
0.0
 11
340.734
 21
0.195682
 31
0.0
  0
LINE
  8
0
 62
     0
 10
340.734
 20
0.195682
 30
0.0
 11
2.59485
 21
0.195682
 31
0.0
  0
LINE
  8
0
 62
     0
 10
2.59485
 20
0.195682
 30
0.0
 11
2.39916
 21
0.202572
 31
0.0
  0
LINE
  8
0
 62
     0
 10
2.39916
 20
0.202572
 30
0.0
 11
2.20348
 21
0.225998
 31
0.0
  0
LINE
  8
0
 62
     0
 10
2.20348
 20
0.225998
 30
0.0
 11
2.01194
 21
0.264583
 31
0.0
  0
LINE
  8
0
 62
     0
 10
2.01194
 20
0.264583
 30
0.0
 11
1.82315
 21
0.318327
 31
0.0
  0
LINE
  8
0
 62
     0
 10
1.82315
 20
0.318327
 30
0.0
 11
1.63849
 21
0.385851
 31
0.0
  0
LINE
  8
0
 62
     0
 10
1.63849
 20
0.385851
 30
0.0
 11
1.46072
 21
0.468535
 31
0.0
  0
LINE
  8
0
 62
     0
 10
1.46072
 20
0.468535
 30
0.0
 11
1.28846
 21
0.563619
 31
0.0
  0
LINE
  8
0
 62
     0
 10
1.28846
 20
0.563619
 30
0.0
 11
1.12586
 21
0.673862
 31
0.0
  0
LINE
  8
0
 62
     0
 10
1.12586
 20
0.673862
 30
0.0
 11
0.971518
 21
0.79375
 31
0.0
  0
LINE
  8
0
 62
     0
 10
0.971518
 20
0.79375
 30
0.0
 11
0.826823
 21
0.928797
 31
0.0
  0
LINE
  8
0
 62
     0
 10
0.826823
 20
0.928797
 30
0.0
 11
0.693152
 21
1.07211
 31
0.0
  0
LINE
  8
0
 62
     0
 10
0.693152
 20
1.07211
 30
0.0
 11
0.571885
 21
1.22645
 31
0.0
  0
LINE
  8
0
 62
     0
 10
0.571885
 20
1.22645
 30
0.0
 11
0.463021
 21
1.38906
 31
0.0
  0
LINE
  8
0
 62
     0
 10
0.463021
 20
1.38906
 30
0.0
 11
0.367937
 21
1.56132
 31
0.0
  0
LINE
  8
0
 62
     0
 10
0.367937
 20
1.56132
 30
0.0
 11
0.285254
 21
1.73909
 31
0.0
  0
LINE
  8
0
 62
     0
 10
0.285254
 20
1.73909
 30
0.0
 11
0.21773
 21
1.92374
 31
0.0
  0
LINE
  8
0
 62
     0
 10
0.21773
 20
1.92374
 30
0.0
 11
0.163987
 21
2.11253
 31
0.0
  0
LINE
  8
0
 62
     0
 10
0.163987
 20
2.11253
 30
0.0
 11
0.125402
 21
2.30408
 31
0.0
  0
LINE
  8
0
 62
     0
 10
0.125402
 20
2.30408
 30
0.0
 11
0.101975
 21
2.49976
 31
0.0
  0
LINE
  8
0
 62
     0
 10
0.101975
 20
2.49976
 30
0.0
 11
0.0950846
 21
2.69544
 31
0.0
  0
LINE
  8
0
 62
     0
 10
0.0950846
 20
2.69544
 30
0.0
 11
0.0950846
 21
126.522
 31
0.0
  0
LINE
  8
0
 62
     0
 10
0.0950846
 20
126.522
 30
0.0
 11
0.101975
 21
126.717
 31
0.0
  0
LINE
  8
0
 62
     0
 10
0.101975
 20
126.717
 30
0.0
 11
0.125402
 21
126.913
 31
0.0
  0
LINE
  8
0
 62
     0
 10
0.125402
 20
126.913
 30
0.0
 11
0.163987
 21
127.105
 31
0.0
  0
LINE
  8
0
 62
     0
 10
0.163987
 20
127.105
 30
0.0
 11
0.21773
 21
127.294
 31
0.0
  0
LINE
  8
0
 62
     0
 10
0.21773
 20
127.294
 30
0.0
 11
0.285254
 21
127.478
 31
0.0
  0
LINE
  8
0
 62
     0
 10
0.285254
 20
127.478
 30
0.0
 11
0.367937
 21
127.656
 31
0.0
  0
LINE
  8
0
 62
     0
 10
0.367937
 20
127.656
 30
0.0
 11
0.463021
 21
127.828
 31
0.0
  0
LINE
  8
0
 62
     0
 10
0.463021
 20
127.828
 30
0.0
 11
0.571885
 21
127.991
 31
0.0
  0
LINE
  8
0
 62
     0
 10
0.571885
 20
127.991
 30
0.0
 11
0.693152
 21
128.145
 31
0.0
  0
LINE
  8
0
 62
     0
 10
0.693152
 20
128.145
 30
0.0
 11
0.826823
 21
128.29
 31
0.0
  0
LINE
  8
0
 62
     0
 10
0.826823
 20
128.29
 30
0.0
 11
0.971518
 21
128.423
 31
0.0
  0
LINE
  8
0
 62
     0
 10
0.971518
 20
128.423
 30
0.0
 11
1.12586
 21
128.545
 31
0.0
  0
LINE
  8
0
 62
     0
 10
1.12586
 20
128.545
 30
0.0
 11
1.28846
 21
128.654
 31
0.0
  0
LINE
  8
0
 62
     0
 10
1.28846
 20
128.654
 30
0.0
 11
1.46072
 21
128.749
 31
0.0
  0
LINE
  8
0
 62
     0
 10
1.46072
 20
128.749
 30
0.0
 11
1.63849
 21
128.831
 31
0.0
  0
LINE
  8
0
 62
     0
 10
1.63849
 20
128.831
 30
0.0
 11
1.82315
 21
128.899
 31
0.0
  0
LINE
  8
0
 62
     0
 10
1.82315
 20
128.899
 30
0.0
 11
2.01194
 21
128.953
 31
0.0
  0
LINE
  8
0
 62
     0
 10
2.01194
 20
128.953
 30
0.0
 11
2.20348
 21
128.991
 31
0.0
  0
LINE
  8
0
 62
     0
 10
2.20348
 20
128.991
 30
0.0
 11
2.39916
 21
129.015
 31
0.0
  0
LINE
  8
0
 62
     0
 10
2.39916
 20
129.015
 30
0.0
 11
2.59485
 21
129.021
 31
0.0
  0
LINE
  8
0
 62
     0
 10
2.59485
 20
129.021
 30
0.0
 11
340.734
 21
129.021
 31
0.0
  0
LINE
  8
0
 62
     0
 10
281.346
 20
19.2209
 30
0.0
 11
281.346
 21
18.2218
 31
0.0
  0
LINE
  8
0
 62
     0
 10
281.346
 20
18.2218
 30
0.0
 11
280.545
 21
18.2218
 31
0.0
  0
LINE
  8
0
 62
     0
 10
280.545
 20
18.2218
 30
0.0
 11
280.545
 21
15.1226
 31
0.0
  0
LINE
  8
0
 62
     0
 10
280.545
 20
15.1226
 30
0.0
 11
281.346
 21
15.1226
 31
0.0
  0
LINE
  8
0
 62
     0
 10
281.346
 20
15.1226
 30
0.0
 11
281.346
 21
9.32106
 31
0.0
  0
LINE
  8
0
 62
     0
 10
281.346
 20
9.32106
 30
0.0
 11
280.545
 21
9.32106
 31
0.0
  0
LINE
  8
0
 62
     0
 10
280.545
 20
9.32106
 30
0.0
 11
280.545
 21
6.22184
 31
0.0
  0
LINE
  8
0
 62
     0
 10
280.545
 20
6.22184
 30
0.0
 11
281.346
 21
6.22184
 31
0.0
  0
LINE
  8
0
 62
     0
 10
281.346
 20
6.22184
 30
0.0
 11
281.346
 21
5.22139
 31
0.0
  0
LINE
  8
0
 62
     0
 10
281.346
 20
5.22139
 30
0.0
 11
295.345
 21
5.22139
 31
0.0
  0
LINE
  8
0
 62
     0
 10
295.345
 20
5.22139
 30
0.0
 11
295.345
 21
6.22184
 31
0.0
  0
LINE
  8
0
 62
     0
 10
295.345
 20
6.22184
 30
0.0
 11
296.146
 21
6.22184
 31
0.0
  0
LINE
  8
0
 62
     0
 10
296.146
 20
6.22184
 30
0.0
 11
296.146
 21
9.32106
 31
0.0
  0
LINE
  8
0
 62
     0
 10
296.146
 20
9.32106
 30
0.0
 11
295.345
 21
9.32106
 31
0.0
  0
LINE
  8
0
 62
     0
 10
295.345
 20
9.32106
 30
0.0
 11
295.345
 21
15.1226
 31
0.0
  0
LINE
  8
0
 62
     0
 10
295.345
 20
15.1226
 30
0.0
 11
296.146
 21
15.1226
 31
0.0
  0
LINE
  8
0
 62
     0
 10
296.146
 20
15.1226
 30
0.0
 11
296.146
 21
18.2218
 31
0.0
  0
LINE
  8
0
 62
     0
 10
296.146
 20
18.2218
 30
0.0
 11
295.345
 21
18.2218
 31
0.0
  0
LINE
  8
0
 62
     0
 10
295.345
 20
18.2218
 30
0.0
 11
295.345
 21
19.2209
 31
0.0
  0
LINE
  8
0
 62
     0
 10
295.345
 20
19.2209
 30
0.0
 11
281.346
 21
19.2209
 31
0.0
  0
LINE
  8
0
 62
     0
 10
300.396
 20
19.2209
 30
0.0
 11
300.396
 21
18.2218
 31
0.0
  0
LINE
  8
0
 62
     0
 10
300.396
 20
18.2218
 30
0.0
 11
299.595
 21
18.2218
 31
0.0
  0
LINE
  8
0
 62
     0
 10
299.595
 20
18.2218
 30
0.0
 11
299.595
 21
15.1226
 31
0.0
  0
LINE
  8
0
 62
     0
 10
299.595
 20
15.1226
 30
0.0
 11
300.396
 21
15.1226
 31
0.0
  0
LINE
  8
0
 62
     0
 10
300.396
 20
15.1226
 30
0.0
 11
300.396
 21
9.32106
 31
0.0
  0
LINE
  8
0
 62
     0
 10
300.396
 20
9.32106
 30
0.0
 11
299.595
 21
9.32106
 31
0.0
  0
LINE
  8
0
 62
     0
 10
299.595
 20
9.32106
 30
0.0
 11
299.595
 21
6.22184
 31
0.0
  0
LINE
  8
0
 62
     0
 10
299.595
 20
6.22184
 30
0.0
 11
300.396
 21
6.22184
 31
0.0
  0
LINE
  8
0
 62
     0
 10
300.396
 20
6.22184
 30
0.0
 11
300.396
 21
5.22139
 31
0.0
  0
LINE
  8
0
 62
     0
 10
300.396
 20
5.22139
 30
0.0
 11
314.395
 21
5.22139
 31
0.0
  0
LINE
  8
0
 62
     0
 10
314.395
 20
5.22139
 30
0.0
 11
314.395
 21
6.22184
 31
0.0
  0
LINE
  8
0
 62
     0
 10
314.395
 20
6.22184
 30
0.0
 11
315.196
 21
6.22184
 31
0.0
  0
LINE
  8
0
 62
     0
 10
315.196
 20
6.22184
 30
0.0
 11
315.196
 21
9.32106
 31
0.0
  0
LINE
  8
0
 62
     0
 10
315.196
 20
9.32106
 30
0.0
 11
314.395
 21
9.32106
 31
0.0
  0
LINE
  8
0
 62
     0
 10
314.395
 20
9.32106
 30
0.0
 11
314.395
 21
15.1226
 31
0.0
  0
LINE
  8
0
 62
     0
 10
314.395
 20
15.1226
 30
0.0
 11
315.196
 21
15.1226
 31
0.0
  0
LINE
  8
0
 62
     0
 10
315.196
 20
15.1226
 30
0.0
 11
315.196
 21
18.2218
 31
0.0
  0
LINE
  8
0
 62
     0
 10
315.196
 20
18.2218
 30
0.0
 11
314.395
 21
18.2218
 31
0.0
  0
LINE
  8
0
 62
     0
 10
314.395
 20
18.2218
 30
0.0
 11
314.395
 21
19.2209
 31
0.0
  0
LINE
  8
0
 62
     0
 10
314.395
 20
19.2209
 30
0.0
 11
300.396
 21
19.2209
 31
0.0
  0
LINE
  8
0
 62
     0
 10
319.446
 20
19.2209
 30
0.0
 11
319.446
 21
18.2218
 31
0.0
  0
LINE
  8
0
 62
     0
 10
319.446
 20
18.2218
 30
0.0
 11
318.645
 21
18.2218
 31
0.0
  0
LINE
  8
0
 62
     0
 10
318.645
 20
18.2218
 30
0.0
 11
318.645
 21
15.1226
 31
0.0
  0
LINE
  8
0
 62
     0
 10
318.645
 20
15.1226
 30
0.0
 11
319.446
 21
15.1226
 31
0.0
  0
LINE
  8
0
 62
     0
 10
319.446
 20
15.1226
 30
0.0
 11
319.446
 21
9.32106
 31
0.0
  0
LINE
  8
0
 62
     0
 10
319.446
 20
9.32106
 30
0.0
 11
318.645
 21
9.32106
 31
0.0
  0
LINE
  8
0
 62
     0
 10
318.645
 20
9.32106
 30
0.0
 11
318.645
 21
6.22184
 31
0.0
  0
LINE
  8
0
 62
     0
 10
318.645
 20
6.22184
 30
0.0
 11
319.446
 21
6.22184
 31
0.0
  0
LINE
  8
0
 62
     0
 10
319.446
 20
6.22184
 30
0.0
 11
319.446
 21
5.22139
 31
0.0
  0
LINE
  8
0
 62
     0
 10
319.446
 20
5.22139
 30
0.0
 11
333.445
 21
5.22139
 31
0.0
  0
LINE
  8
0
 62
     0
 10
333.445
 20
5.22139
 30
0.0
 11
333.445
 21
6.22184
 31
0.0
  0
LINE
  8
0
 62
     0
 10
333.445
 20
6.22184
 30
0.0
 11
334.246
 21
6.22184
 31
0.0
  0
LINE
  8
0
 62
     0
 10
334.246
 20
6.22184
 30
0.0
 11
334.246
 21
9.32106
 31
0.0
  0
LINE
  8
0
 62
     0
 10
334.246
 20
9.32106
 30
0.0
 11
333.445
 21
9.32106
 31
0.0
  0
LINE
  8
0
 62
     0
 10
333.445
 20
9.32106
 30
0.0
 11
333.445
 21
15.1226
 31
0.0
  0
LINE
  8
0
 62
     0
 10
333.445
 20
15.1226
 30
0.0
 11
334.246
 21
15.1226
 31
0.0
  0
LINE
  8
0
 62
     0
 10
334.246
 20
15.1226
 30
0.0
 11
334.246
 21
18.2218
 31
0.0
  0
LINE
  8
0
 62
     0
 10
334.246
 20
18.2218
 30
0.0
 11
333.445
 21
18.2218
 31
0.0
  0
LINE
  8
0
 62
     0
 10
333.445
 20
18.2218
 30
0.0
 11
333.445
 21
19.2209
 31
0.0
  0
LINE
  8
0
 62
     0
 10
333.445
 20
19.2209
 30
0.0
 11
319.446
 21
19.2209
 31
0.0
  0
LINE
  8
0
 62
     0
 10
150.377
 20
23.9848
 30
0.0
 11
150.377
 21
22.9843
 31
0.0
  0
LINE
  8
0
 62
     0
 10
150.377
 20
22.9843
 30
0.0
 11
149.576
 21
22.9843
 31
0.0
  0
LINE
  8
0
 62
     0
 10
149.576
 20
22.9843
 30
0.0
 11
149.576
 21
19.8837
 31
0.0
  0
LINE
  8
0
 62
     0
 10
149.576
 20
19.8837
 30
0.0
 11
150.377
 21
19.8837
 31
0.0
  0
LINE
  8
0
 62
     0
 10
150.377
 20
19.8837
 30
0.0
 11
150.377
 21
19.2843
 31
0.0
  0
LINE
  8
0
 62
     0
 10
150.377
 20
19.2843
 30
0.0
 11
110.751
 21
19.2843
 31
0.0
  0
LINE
  8
0
 62
     0
 10
110.751
 20
19.2843
 30
0.0
 11
110.751
 21
22.5144
 31
0.0
  0
LINE
  8
0
 62
     0
 10
110.751
 20
22.5144
 30
0.0
 11
109.026
 21
22.5144
 31
0.0
  0
LINE
  8
0
 62
     0
 10
109.026
 20
22.5144
 30
0.0
 11
109.026
 21
23.4335
 31
0.0
  0
LINE
  8
0
 62
     0
 10
109.026
 20
23.4335
 30
0.0
 11
105.726
 21
23.4335
 31
0.0
  0
LINE
  8
0
 62
     0
 10
105.726
 20
23.4335
 30
0.0
 11
105.726
 21
22.5144
 31
0.0
  0
LINE
  8
0
 62
     0
 10
105.726
 20
22.5144
 30
0.0
 11
104.002
 21
22.5144
 31
0.0
  0
LINE
  8
0
 62
     0
 10
104.002
 20
22.5144
 30
0.0
 11
104.002
 21
19.2843
 31
0.0
  0
LINE
  8
0
 62
     0
 10
104.002
 20
19.2843
 30
0.0
 11
103.177
 21
19.2843
 31
0.0
  0
LINE
  8
0
 62
     0
 10
103.177
 20
19.2843
 30
0.0
 11
103.177
 21
16.4841
 31
0.0
  0
LINE
  8
0
 62
     0
 10
103.177
 20
16.4841
 30
0.0
 11
104.002
 21
16.4841
 31
0.0
  0
LINE
  8
0
 62
     0
 10
104.002
 20
16.4841
 30
0.0
 11
104.002
 21
10.214
 31
0.0
  0
LINE
  8
0
 62
     0
 10
104.002
 20
10.214
 30
0.0
 11
105.726
 21
10.214
 31
0.0
  0
LINE
  8
0
 62
     0
 10
105.726
 20
10.214
 30
0.0
 11
105.726
 21
9.23424
 31
0.0
  0
LINE
  8
0
 62
     0
 10
105.726
 20
9.23424
 30
0.0
 11
109.026
 21
9.23424
 31
0.0
  0
LINE
  8
0
 62
     0
 10
109.026
 20
9.23424
 30
0.0
 11
109.026
 21
10.214
 31
0.0
  0
LINE
  8
0
 62
     0
 10
109.026
 20
10.214
 30
0.0
 11
110.751
 21
10.214
 31
0.0
  0
LINE
  8
0
 62
     0
 10
110.751
 20
10.214
 30
0.0
 11
110.751
 21
14.6844
 31
0.0
  0
LINE
  8
0
 62
     0
 10
110.751
 20
14.6844
 30
0.0
 11
150.377
 21
14.6844
 31
0.0
  0
LINE
  8
0
 62
     0
 10
150.377
 20
14.6844
 30
0.0
 11
150.377
 21
14.0836
 31
0.0
  0
LINE
  8
0
 62
     0
 10
150.377
 20
14.0836
 30
0.0
 11
149.576
 21
14.0836
 31
0.0
  0
LINE
  8
0
 62
     0
 10
149.576
 20
14.0836
 30
0.0
 11
149.576
 21
10.9843
 31
0.0
  0
LINE
  8
0
 62
     0
 10
149.576
 20
10.9843
 30
0.0
 11
150.377
 21
10.9843
 31
0.0
  0
LINE
  8
0
 62
     0
 10
150.377
 20
10.9843
 30
0.0
 11
150.377
 21
9.98389
 31
0.0
  0
LINE
  8
0
 62
     0
 10
150.377
 20
9.98389
 30
0.0
 11
164.376
 21
9.98389
 31
0.0
  0
LINE
  8
0
 62
     0
 10
164.376
 20
9.98389
 30
0.0
 11
164.376
 21
10.9843
 31
0.0
  0
LINE
  8
0
 62
     0
 10
164.376
 20
10.9843
 30
0.0
 11
165.177
 21
10.9843
 31
0.0
  0
LINE
  8
0
 62
     0
 10
165.177
 20
10.9843
 30
0.0
 11
165.177
 21
14.0836
 31
0.0
  0
LINE
  8
0
 62
     0
 10
165.177
 20
14.0836
 30
0.0
 11
164.376
 21
14.0836
 31
0.0
  0
LINE
  8
0
 62
     0
 10
164.376
 20
14.0836
 30
0.0
 11
164.376
 21
14.6844
 31
0.0
  0
LINE
  8
0
 62
     0
 10
164.376
 20
14.6844
 30
0.0
 11
204.002
 21
14.6844
 31
0.0
  0
LINE
  8
0
 62
     0
 10
204.002
 20
14.6844
 30
0.0
 11
204.002
 21
10.214
 31
0.0
  0
LINE
  8
0
 62
     0
 10
204.002
 20
10.214
 30
0.0
 11
205.726
 21
10.214
 31
0.0
  0
LINE
  8
0
 62
     0
 10
205.726
 20
10.214
 30
0.0
 11
205.726
 21
9.23424
 31
0.0
  0
LINE
  8
0
 62
     0
 10
205.726
 20
9.23424
 30
0.0
 11
209.026
 21
9.23424
 31
0.0
  0
LINE
  8
0
 62
     0
 10
209.026
 20
9.23424
 30
0.0
 11
209.026
 21
10.214
 31
0.0
  0
LINE
  8
0
 62
     0
 10
209.026
 20
10.214
 30
0.0
 11
210.752
 21
10.214
 31
0.0
  0
LINE
  8
0
 62
     0
 10
210.752
 20
10.214
 30
0.0
 11
210.752
 21
16.4841
 31
0.0
  0
LINE
  8
0
 62
     0
 10
210.752
 20
16.4841
 30
0.0
 11
211.577
 21
16.4841
 31
0.0
  0
LINE
  8
0
 62
     0
 10
211.577
 20
16.4841
 30
0.0
 11
211.577
 21
19.2843
 31
0.0
  0
LINE
  8
0
 62
     0
 10
211.577
 20
19.2843
 30
0.0
 11
210.752
 21
19.2843
 31
0.0
  0
LINE
  8
0
 62
     0
 10
210.752
 20
19.2843
 30
0.0
 11
210.752
 21
22.5144
 31
0.0
  0
LINE
  8
0
 62
     0
 10
210.752
 20
22.5144
 30
0.0
 11
209.026
 21
22.5144
 31
0.0
  0
LINE
  8
0
 62
     0
 10
209.026
 20
22.5144
 30
0.0
 11
209.026
 21
23.4335
 31
0.0
  0
LINE
  8
0
 62
     0
 10
209.026
 20
23.4335
 30
0.0
 11
205.726
 21
23.4335
 31
0.0
  0
LINE
  8
0
 62
     0
 10
205.726
 20
23.4335
 30
0.0
 11
205.726
 21
22.5144
 31
0.0
  0
LINE
  8
0
 62
     0
 10
205.726
 20
22.5144
 30
0.0
 11
204.002
 21
22.5144
 31
0.0
  0
LINE
  8
0
 62
     0
 10
204.002
 20
22.5144
 30
0.0
 11
204.002
 21
19.2843
 31
0.0
  0
LINE
  8
0
 62
     0
 10
204.002
 20
19.2843
 30
0.0
 11
164.376
 21
19.2843
 31
0.0
  0
LINE
  8
0
 62
     0
 10
164.376
 20
19.2843
 30
0.0
 11
164.376
 21
19.8837
 31
0.0
  0
LINE
  8
0
 62
     0
 10
164.376
 20
19.8837
 30
0.0
 11
165.177
 21
19.8837
 31
0.0
  0
LINE
  8
0
 62
     0
 10
165.177
 20
19.8837
 30
0.0
 11
165.177
 21
22.9843
 31
0.0
  0
LINE
  8
0
 62
     0
 10
165.177
 20
22.9843
 30
0.0
 11
164.376
 21
22.9843
 31
0.0
  0
LINE
  8
0
 62
     0
 10
164.376
 20
22.9843
 30
0.0
 11
164.376
 21
23.9848
 31
0.0
  0
LINE
  8
0
 62
     0
 10
164.376
 20
23.9848
 30
0.0
 11
150.377
 21
23.9848
 31
0.0
  0
LINE
  8
0
 62
     0
 10
5.11941
 20
23.9848
 30
0.0
 11
5.11941
 21
22.9843
 31
0.0
  0
LINE
  8
0
 62
     0
 10
5.11941
 20
22.9843
 30
0.0
 11
4.32015
 21
22.9843
 31
0.0
  0
LINE
  8
0
 62
     0
 10
4.32015
 20
22.9843
 30
0.0
 11
4.32015
 21
19.8837
 31
0.0
  0
LINE
  8
0
 62
     0
 10
4.32015
 20
19.8837
 30
0.0
 11
5.11941
 21
19.8837
 31
0.0
  0
LINE
  8
0
 62
     0
 10
5.11941
 20
19.8837
 30
0.0
 11
5.11941
 21
14.0836
 31
0.0
  0
LINE
  8
0
 62
     0
 10
5.11941
 20
14.0836
 30
0.0
 11
4.32015
 21
14.0836
 31
0.0
  0
LINE
  8
0
 62
     0
 10
4.32015
 20
14.0836
 30
0.0
 11
4.32015
 21
10.9843
 31
0.0
  0
LINE
  8
0
 62
     0
 10
4.32015
 20
10.9843
 30
0.0
 11
5.11941
 21
10.9843
 31
0.0
  0
LINE
  8
0
 62
     0
 10
5.11941
 20
10.9843
 30
0.0
 11
5.11941
 21
9.98389
 31
0.0
  0
LINE
  8
0
 62
     0
 10
5.11941
 20
9.98389
 30
0.0
 11
19.1203
 21
9.98389
 31
0.0
  0
LINE
  8
0
 62
     0
 10
19.1203
 20
9.98389
 30
0.0
 11
19.1203
 21
10.9843
 31
0.0
  0
LINE
  8
0
 62
     0
 10
19.1203
 20
10.9843
 30
0.0
 11
19.9209
 21
10.9843
 31
0.0
  0
LINE
  8
0
 62
     0
 10
19.9209
 20
10.9843
 30
0.0
 11
19.9209
 21
14.0836
 31
0.0
  0
LINE
  8
0
 62
     0
 10
19.9209
 20
14.0836
 30
0.0
 11
19.1203
 21
14.0836
 31
0.0
  0
LINE
  8
0
 62
     0
 10
19.1203
 20
14.0836
 30
0.0
 11
19.1203
 21
19.8837
 31
0.0
  0
LINE
  8
0
 62
     0
 10
19.1203
 20
19.8837
 30
0.0
 11
19.9209
 21
19.8837
 31
0.0
  0
LINE
  8
0
 62
     0
 10
19.9209
 20
19.8837
 30
0.0
 11
19.9209
 21
22.9843
 31
0.0
  0
LINE
  8
0
 62
     0
 10
19.9209
 20
22.9843
 30
0.0
 11
19.1203
 21
22.9843
 31
0.0
  0
LINE
  8
0
 62
     0
 10
19.1203
 20
22.9843
 30
0.0
 11
19.1203
 21
23.9848
 31
0.0
  0
LINE
  8
0
 62
     0
 10
19.1203
 20
23.9848
 30
0.0
 11
5.11941
 21
23.9848
 31
0.0
  0
LINE
  8
0
 62
     0
 10
31.3132
 20
23.9848
 30
0.0
 11
31.3132
 21
22.9843
 31
0.0
  0
LINE
  8
0
 62
     0
 10
31.3132
 20
22.9843
 30
0.0
 11
30.5139
 21
22.9843
 31
0.0
  0
LINE
  8
0
 62
     0
 10
30.5139
 20
22.9843
 30
0.0
 11
30.5139
 21
19.8837
 31
0.0
  0
LINE
  8
0
 62
     0
 10
30.5139
 20
19.8837
 30
0.0
 11
31.3132
 21
19.8837
 31
0.0
  0
LINE
  8
0
 62
     0
 10
31.3132
 20
19.8837
 30
0.0
 11
31.3132
 21
14.0836
 31
0.0
  0
LINE
  8
0
 62
     0
 10
31.3132
 20
14.0836
 30
0.0
 11
30.5139
 21
14.0836
 31
0.0
  0
LINE
  8
0
 62
     0
 10
30.5139
 20
14.0836
 30
0.0
 11
30.5139
 21
10.9843
 31
0.0
  0
LINE
  8
0
 62
     0
 10
30.5139
 20
10.9843
 30
0.0
 11
31.3132
 21
10.9843
 31
0.0
  0
LINE
  8
0
 62
     0
 10
31.3132
 20
10.9843
 30
0.0
 11
31.3132
 21
9.98389
 31
0.0
  0
LINE
  8
0
 62
     0
 10
31.3132
 20
9.98389
 30
0.0
 11
45.314
 21
9.98389
 31
0.0
  0
LINE
  8
0
 62
     0
 10
45.314
 20
9.98389
 30
0.0
 11
45.314
 21
10.9843
 31
0.0
  0
LINE
  8
0
 62
     0
 10
45.314
 20
10.9843
 30
0.0
 11
46.1133
 21
10.9843
 31
0.0
  0
LINE
  8
0
 62
     0
 10
46.1133
 20
10.9843
 30
0.0
 11
46.1133
 21
14.0836
 31
0.0
  0
LINE
  8
0
 62
     0
 10
46.1133
 20
14.0836
 30
0.0
 11
45.314
 21
14.0836
 31
0.0
  0
LINE
  8
0
 62
     0
 10
45.314
 20
14.0836
 30
0.0
 11
45.314
 21
19.8837
 31
0.0
  0
LINE
  8
0
 62
     0
 10
45.314
 20
19.8837
 30
0.0
 11
46.1133
 21
19.8837
 31
0.0
  0
LINE
  8
0
 62
     0
 10
46.1133
 20
19.8837
 30
0.0
 11
46.1133
 21
22.9843
 31
0.0
  0
LINE
  8
0
 62
     0
 10
46.1133
 20
22.9843
 30
0.0
 11
45.314
 21
22.9843
 31
0.0
  0
LINE
  8
0
 62
     0
 10
45.314
 20
22.9843
 30
0.0
 11
45.314
 21
23.9848
 31
0.0
  0
LINE
  8
0
 62
     0
 10
45.314
 20
23.9848
 30
0.0
 11
31.3132
 21
23.9848
 31
0.0
  0
LINE
  8
0
 62
     0
 10
55.1272
 20
23.9848
 30
0.0
 11
55.1272
 21
22.9843
 31
0.0
  0
LINE
  8
0
 62
     0
 10
55.1272
 20
22.9843
 30
0.0
 11
54.3264
 21
22.9843
 31
0.0
  0
LINE
  8
0
 62
     0
 10
54.3264
 20
22.9843
 30
0.0
 11
54.3264
 21
19.8837
 31
0.0
  0
LINE
  8
0
 62
     0
 10
54.3264
 20
19.8837
 30
0.0
 11
55.1272
 21
19.8837
 31
0.0
  0
LINE
  8
0
 62
     0
 10
55.1272
 20
19.8837
 30
0.0
 11
55.1272
 21
14.0836
 31
0.0
  0
LINE
  8
0
 62
     0
 10
55.1272
 20
14.0836
 30
0.0
 11
54.3264
 21
14.0836
 31
0.0
  0
LINE
  8
0
 62
     0
 10
54.3264
 20
14.0836
 30
0.0
 11
54.3264
 21
10.9843
 31
0.0
  0
LINE
  8
0
 62
     0
 10
54.3264
 20
10.9843
 30
0.0
 11
55.1272
 21
10.9843
 31
0.0
  0
LINE
  8
0
 62
     0
 10
55.1272
 20
10.9843
 30
0.0
 11
55.1272
 21
9.98389
 31
0.0
  0
LINE
  8
0
 62
     0
 10
55.1272
 20
9.98389
 30
0.0
 11
69.1265
 21
9.98389
 31
0.0
  0
LINE
  8
0
 62
     0
 10
69.1265
 20
9.98389
 30
0.0
 11
69.1265
 21
10.9843
 31
0.0
  0
LINE
  8
0
 62
     0
 10
69.1265
 20
10.9843
 30
0.0
 11
69.9273
 21
10.9843
 31
0.0
  0
LINE
  8
0
 62
     0
 10
69.9273
 20
10.9843
 30
0.0
 11
69.9273
 21
14.0836
 31
0.0
  0
LINE
  8
0
 62
     0
 10
69.9273
 20
14.0836
 30
0.0
 11
69.1265
 21
14.0836
 31
0.0
  0
LINE
  8
0
 62
     0
 10
69.1265
 20
14.0836
 30
0.0
 11
69.1265
 21
19.8837
 31
0.0
  0
LINE
  8
0
 62
     0
 10
69.1265
 20
19.8837
 30
0.0
 11
69.9273
 21
19.8837
 31
0.0
  0
LINE
  8
0
 62
     0
 10
69.9273
 20
19.8837
 30
0.0
 11
69.9273
 21
22.9843
 31
0.0
  0
LINE
  8
0
 62
     0
 10
69.9273
 20
22.9843
 30
0.0
 11
69.1265
 21
22.9843
 31
0.0
  0
LINE
  8
0
 62
     0
 10
69.1265
 20
22.9843
 30
0.0
 11
69.1265
 21
23.9848
 31
0.0
  0
LINE
  8
0
 62
     0
 10
69.1265
 20
23.9848
 30
0.0
 11
55.1272
 21
23.9848
 31
0.0
  0
LINE
  8
0
 62
     0
 10
78.9383
 20
23.9848
 30
0.0
 11
78.9383
 21
22.9843
 31
0.0
  0
LINE
  8
0
 62
     0
 10
78.9383
 20
22.9843
 30
0.0
 11
78.1389
 21
22.9843
 31
0.0
  0
LINE
  8
0
 62
     0
 10
78.1389
 20
22.9843
 30
0.0
 11
78.1389
 21
19.8837
 31
0.0
  0
LINE
  8
0
 62
     0
 10
78.1389
 20
19.8837
 30
0.0
 11
78.9383
 21
19.8837
 31
0.0
  0
LINE
  8
0
 62
     0
 10
78.9383
 20
19.8837
 30
0.0
 11
78.9383
 21
14.0836
 31
0.0
  0
LINE
  8
0
 62
     0
 10
78.9383
 20
14.0836
 30
0.0
 11
78.1389
 21
14.0836
 31
0.0
  0
LINE
  8
0
 62
     0
 10
78.1389
 20
14.0836
 30
0.0
 11
78.1389
 21
10.9843
 31
0.0
  0
LINE
  8
0
 62
     0
 10
78.1389
 20
10.9843
 30
0.0
 11
78.9383
 21
10.9843
 31
0.0
  0
LINE
  8
0
 62
     0
 10
78.9383
 20
10.9843
 30
0.0
 11
78.9383
 21
9.98389
 31
0.0
  0
LINE
  8
0
 62
     0
 10
78.9383
 20
9.98389
 30
0.0
 11
92.939
 21
9.98389
 31
0.0
  0
LINE
  8
0
 62
     0
 10
92.939
 20
9.98389
 30
0.0
 11
92.939
 21
10.9843
 31
0.0
  0
LINE
  8
0
 62
     0
 10
92.939
 20
10.9843
 30
0.0
 11
93.7383
 21
10.9843
 31
0.0
  0
LINE
  8
0
 62
     0
 10
93.7383
 20
10.9843
 30
0.0
 11
93.7383
 21
14.0836
 31
0.0
  0
LINE
  8
0
 62
     0
 10
93.7383
 20
14.0836
 30
0.0
 11
92.939
 21
14.0836
 31
0.0
  0
LINE
  8
0
 62
     0
 10
92.939
 20
14.0836
 30
0.0
 11
92.939
 21
19.8837
 31
0.0
  0
LINE
  8
0
 62
     0
 10
92.939
 20
19.8837
 30
0.0
 11
93.7383
 21
19.8837
 31
0.0
  0
LINE
  8
0
 62
     0
 10
93.7383
 20
19.8837
 30
0.0
 11
93.7383
 21
22.9843
 31
0.0
  0
LINE
  8
0
 62
     0
 10
93.7383
 20
22.9843
 30
0.0
 11
92.939
 21
22.9843
 31
0.0
  0
LINE
  8
0
 62
     0
 10
92.939
 20
22.9843
 30
0.0
 11
92.939
 21
23.9848
 31
0.0
  0
LINE
  8
0
 62
     0
 10
92.939
 20
23.9848
 30
0.0
 11
78.9383
 21
23.9848
 31
0.0
  0
LINE
  8
0
 62
     0
 10
219.432
 20
23.9848
 30
0.0
 11
219.432
 21
22.9843
 31
0.0
  0
LINE
  8
0
 62
     0
 10
219.432
 20
22.9843
 30
0.0
 11
218.633
 21
22.9843
 31
0.0
  0
LINE
  8
0
 62
     0
 10
218.633
 20
22.9843
 30
0.0
 11
218.633
 21
19.8837
 31
0.0
  0
LINE
  8
0
 62
     0
 10
218.633
 20
19.8837
 30
0.0
 11
219.432
 21
19.8837
 31
0.0
  0
LINE
  8
0
 62
     0
 10
219.432
 20
19.8837
 30
0.0
 11
219.432
 21
14.0836
 31
0.0
  0
LINE
  8
0
 62
     0
 10
219.432
 20
14.0836
 30
0.0
 11
218.633
 21
14.0836
 31
0.0
  0
LINE
  8
0
 62
     0
 10
218.633
 20
14.0836
 30
0.0
 11
218.633
 21
10.9843
 31
0.0
  0
LINE
  8
0
 62
     0
 10
218.633
 20
10.9843
 30
0.0
 11
219.432
 21
10.9843
 31
0.0
  0
LINE
  8
0
 62
     0
 10
219.432
 20
10.9843
 30
0.0
 11
219.432
 21
9.98389
 31
0.0
  0
LINE
  8
0
 62
     0
 10
219.432
 20
9.98389
 30
0.0
 11
233.433
 21
9.98389
 31
0.0
  0
LINE
  8
0
 62
     0
 10
233.433
 20
9.98389
 30
0.0
 11
233.433
 21
10.9843
 31
0.0
  0
LINE
  8
0
 62
     0
 10
233.433
 20
10.9843
 30
0.0
 11
234.232
 21
10.9843
 31
0.0
  0
LINE
  8
0
 62
     0
 10
234.232
 20
10.9843
 30
0.0
 11
234.232
 21
14.0836
 31
0.0
  0
LINE
  8
0
 62
     0
 10
234.232
 20
14.0836
 30
0.0
 11
233.433
 21
14.0836
 31
0.0
  0
LINE
  8
0
 62
     0
 10
233.433
 20
14.0836
 30
0.0
 11
233.433
 21
19.8837
 31
0.0
  0
LINE
  8
0
 62
     0
 10
233.433
 20
19.8837
 30
0.0
 11
234.232
 21
19.8837
 31
0.0
  0
LINE
  8
0
 62
     0
 10
234.232
 20
19.8837
 30
0.0
 11
234.232
 21
22.9843
 31
0.0
  0
LINE
  8
0
 62
     0
 10
234.232
 20
22.9843
 30
0.0
 11
233.433
 21
22.9843
 31
0.0
  0
LINE
  8
0
 62
     0
 10
233.433
 20
22.9843
 30
0.0
 11
233.433
 21
23.9848
 31
0.0
  0
LINE
  8
0
 62
     0
 10
233.433
 20
23.9848
 30
0.0
 11
219.432
 21
23.9848
 31
0.0
  0
LINE
  8
0
 62
     0
 10
238.482
 20
23.9848
 30
0.0
 11
238.482
 21
22.9843
 31
0.0
  0
LINE
  8
0
 62
     0
 10
238.482
 20
22.9843
 30
0.0
 11
237.683
 21
22.9843
 31
0.0
  0
LINE
  8
0
 62
     0
 10
237.683
 20
22.9843
 30
0.0
 11
237.683
 21
19.8837
 31
0.0
  0
LINE
  8
0
 62
     0
 10
237.683
 20
19.8837
 30
0.0
 11
238.482
 21
19.8837
 31
0.0
  0
LINE
  8
0
 62
     0
 10
238.482
 20
19.8837
 30
0.0
 11
238.482
 21
14.0836
 31
0.0
  0
LINE
  8
0
 62
     0
 10
238.482
 20
14.0836
 30
0.0
 11
237.683
 21
14.0836
 31
0.0
  0
LINE
  8
0
 62
     0
 10
237.683
 20
14.0836
 30
0.0
 11
237.683
 21
10.9843
 31
0.0
  0
LINE
  8
0
 62
     0
 10
237.683
 20
10.9843
 30
0.0
 11
238.482
 21
10.9843
 31
0.0
  0
LINE
  8
0
 62
     0
 10
238.482
 20
10.9843
 30
0.0
 11
238.482
 21
9.98389
 31
0.0
  0
LINE
  8
0
 62
     0
 10
238.482
 20
9.98389
 30
0.0
 11
252.483
 21
9.98389
 31
0.0
  0
LINE
  8
0
 62
     0
 10
252.483
 20
9.98389
 30
0.0
 11
252.483
 21
10.9843
 31
0.0
  0
LINE
  8
0
 62
     0
 10
252.483
 20
10.9843
 30
0.0
 11
253.282
 21
10.9843
 31
0.0
  0
LINE
  8
0
 62
     0
 10
253.282
 20
10.9843
 30
0.0
 11
253.282
 21
14.0836
 31
0.0
  0
LINE
  8
0
 62
     0
 10
253.282
 20
14.0836
 30
0.0
 11
252.483
 21
14.0836
 31
0.0
  0
LINE
  8
0
 62
     0
 10
252.483
 20
14.0836
 30
0.0
 11
252.483
 21
19.8837
 31
0.0
  0
LINE
  8
0
 62
     0
 10
252.483
 20
19.8837
 30
0.0
 11
253.282
 21
19.8837
 31
0.0
  0
LINE
  8
0
 62
     0
 10
253.282
 20
19.8837
 30
0.0
 11
253.282
 21
22.9843
 31
0.0
  0
LINE
  8
0
 62
     0
 10
253.282
 20
22.9843
 30
0.0
 11
252.483
 21
22.9843
 31
0.0
  0
LINE
  8
0
 62
     0
 10
252.483
 20
22.9843
 30
0.0
 11
252.483
 21
23.9848
 31
0.0
  0
LINE
  8
0
 62
     0
 10
252.483
 20
23.9848
 30
0.0
 11
238.482
 21
23.9848
 31
0.0
  0
LINE
  8
0
 62
     0
 10
257.532
 20
23.9848
 30
0.0
 11
257.532
 21
22.9843
 31
0.0
  0
LINE
  8
0
 62
     0
 10
257.532
 20
22.9843
 30
0.0
 11
256.733
 21
22.9843
 31
0.0
  0
LINE
  8
0
 62
     0
 10
256.733
 20
22.9843
 30
0.0
 11
256.733
 21
19.8837
 31
0.0
  0
LINE
  8
0
 62
     0
 10
256.733
 20
19.8837
 30
0.0
 11
257.532
 21
19.8837
 31
0.0
  0
LINE
  8
0
 62
     0
 10
257.532
 20
19.8837
 30
0.0
 11
257.532
 21
14.0836
 31
0.0
  0
LINE
  8
0
 62
     0
 10
257.532
 20
14.0836
 30
0.0
 11
256.733
 21
14.0836
 31
0.0
  0
LINE
  8
0
 62
     0
 10
256.733
 20
14.0836
 30
0.0
 11
256.733
 21
10.9843
 31
0.0
  0
LINE
  8
0
 62
     0
 10
256.733
 20
10.9843
 30
0.0
 11
257.532
 21
10.9843
 31
0.0
  0
LINE
  8
0
 62
     0
 10
257.532
 20
10.9843
 30
0.0
 11
257.532
 21
9.98389
 31
0.0
  0
LINE
  8
0
 62
     0
 10
257.532
 20
9.98389
 30
0.0
 11
271.533
 21
9.98389
 31
0.0
  0
LINE
  8
0
 62
     0
 10
271.533
 20
9.98389
 30
0.0
 11
271.533
 21
10.9843
 31
0.0
  0
LINE
  8
0
 62
     0
 10
271.533
 20
10.9843
 30
0.0
 11
272.332
 21
10.9843
 31
0.0
  0
LINE
  8
0
 62
     0
 10
272.332
 20
10.9843
 30
0.0
 11
272.332
 21
14.0836
 31
0.0
  0
LINE
  8
0
 62
     0
 10
272.332
 20
14.0836
 30
0.0
 11
271.533
 21
14.0836
 31
0.0
  0
LINE
  8
0
 62
     0
 10
271.533
 20
14.0836
 30
0.0
 11
271.533
 21
19.8837
 31
0.0
  0
LINE
  8
0
 62
     0
 10
271.533
 20
19.8837
 30
0.0
 11
272.332
 21
19.8837
 31
0.0
  0
LINE
  8
0
 62
     0
 10
272.332
 20
19.8837
 30
0.0
 11
272.332
 21
22.9843
 31
0.0
  0
LINE
  8
0
 62
     0
 10
272.332
 20
22.9843
 30
0.0
 11
271.533
 21
22.9843
 31
0.0
  0
LINE
  8
0
 62
     0
 10
271.533
 20
22.9843
 30
0.0
 11
271.533
 21
23.9848
 31
0.0
  0
LINE
  8
0
 62
     0
 10
271.533
 20
23.9848
 30
0.0
 11
257.532
 21
23.9848
 31
0.0
  0
LINE
  8
0
 62
     0
 10
300.396
 20
38.2707
 30
0.0
 11
300.396
 21
37.2717
 31
0.0
  0
LINE
  8
0
 62
     0
 10
300.396
 20
37.2717
 30
0.0
 11
299.595
 21
37.2717
 31
0.0
  0
LINE
  8
0
 62
     0
 10
299.595
 20
37.2717
 30
0.0
 11
299.595
 21
34.1712
 31
0.0
  0
LINE
  8
0
 62
     0
 10
299.595
 20
34.1712
 30
0.0
 11
300.396
 21
34.1712
 31
0.0
  0
LINE
  8
0
 62
     0
 10
300.396
 20
34.1712
 30
0.0
 11
300.396
 21
28.3711
 31
0.0
  0
LINE
  8
0
 62
     0
 10
300.396
 20
28.3711
 30
0.0
 11
299.595
 21
28.3711
 31
0.0
  0
LINE
  8
0
 62
     0
 10
299.595
 20
28.3711
 30
0.0
 11
299.595
 21
25.2718
 31
0.0
  0
LINE
  8
0
 62
     0
 10
299.595
 20
25.2718
 30
0.0
 11
300.396
 21
25.2718
 31
0.0
  0
LINE
  8
0
 62
     0
 10
300.396
 20
25.2718
 30
0.0
 11
300.396
 21
24.2714
 31
0.0
  0
LINE
  8
0
 62
     0
 10
300.396
 20
24.2714
 30
0.0
 11
314.395
 21
24.2714
 31
0.0
  0
LINE
  8
0
 62
     0
 10
314.395
 20
24.2714
 30
0.0
 11
314.395
 21
25.2718
 31
0.0
  0
LINE
  8
0
 62
     0
 10
314.395
 20
25.2718
 30
0.0
 11
315.196
 21
25.2718
 31
0.0
  0
LINE
  8
0
 62
     0
 10
315.196
 20
25.2718
 30
0.0
 11
315.196
 21
28.3711
 31
0.0
  0
LINE
  8
0
 62
     0
 10
315.196
 20
28.3711
 30
0.0
 11
314.395
 21
28.3711
 31
0.0
  0
LINE
  8
0
 62
     0
 10
314.395
 20
28.3711
 30
0.0
 11
314.395
 21
34.1712
 31
0.0
  0
LINE
  8
0
 62
     0
 10
314.395
 20
34.1712
 30
0.0
 11
315.196
 21
34.1712
 31
0.0
  0
LINE
  8
0
 62
     0
 10
315.196
 20
34.1712
 30
0.0
 11
315.196
 21
37.2717
 31
0.0
  0
LINE
  8
0
 62
     0
 10
315.196
 20
37.2717
 30
0.0
 11
314.395
 21
37.2717
 31
0.0
  0
LINE
  8
0
 62
     0
 10
314.395
 20
37.2717
 30
0.0
 11
314.395
 21
38.2707
 31
0.0
  0
LINE
  8
0
 62
     0
 10
314.395
 20
38.2707
 30
0.0
 11
300.396
 21
38.2707
 31
0.0
  0
LINE
  8
0
 62
     0
 10
38.457
 20
43.0347
 30
0.0
 11
38.457
 21
42.0342
 31
0.0
  0
LINE
  8
0
 62
     0
 10
38.457
 20
42.0342
 30
0.0
 11
37.6576
 21
42.0342
 31
0.0
  0
LINE
  8
0
 62
     0
 10
37.6576
 20
42.0342
 30
0.0
 11
37.6576
 21
38.9336
 31
0.0
  0
LINE
  8
0
 62
     0
 10
37.6576
 20
38.9336
 30
0.0
 11
38.457
 21
38.9336
 31
0.0
  0
LINE
  8
0
 62
     0
 10
38.457
 20
38.9336
 30
0.0
 11
38.457
 21
38.3342
 31
0.0
  0
LINE
  8
0
 62
     0
 10
38.457
 20
38.3342
 30
0.0
 11
36.9327
 21
38.3342
 31
0.0
  0
LINE
  8
0
 62
     0
 10
36.9327
 20
38.3342
 30
0.0
 11
36.9327
 21
41.5643
 31
0.0
  0
LINE
  8
0
 62
     0
 10
36.9327
 20
41.5643
 30
0.0
 11
35.2075
 21
41.5643
 31
0.0
  0
LINE
  8
0
 62
     0
 10
35.2075
 20
41.5643
 30
0.0
 11
35.2075
 21
42.4836
 31
0.0
  0
LINE
  8
0
 62
     0
 10
35.2075
 20
42.4836
 30
0.0
 11
31.9071
 21
42.4836
 31
0.0
  0
LINE
  8
0
 62
     0
 10
31.9071
 20
42.4836
 30
0.0
 11
31.9071
 21
41.5643
 31
0.0
  0
LINE
  8
0
 62
     0
 10
31.9071
 20
41.5643
 30
0.0
 11
30.1832
 21
41.5643
 31
0.0
  0
LINE
  8
0
 62
     0
 10
30.1832
 20
41.5643
 30
0.0
 11
30.1832
 21
38.3342
 31
0.0
  0
LINE
  8
0
 62
     0
 10
30.1832
 20
38.3342
 30
0.0
 11
29.3577
 21
38.3342
 31
0.0
  0
LINE
  8
0
 62
     0
 10
29.3577
 20
38.3342
 30
0.0
 11
29.3577
 21
35.5342
 31
0.0
  0
LINE
  8
0
 62
     0
 10
29.3577
 20
35.5342
 30
0.0
 11
30.1832
 21
35.5342
 31
0.0
  0
LINE
  8
0
 62
     0
 10
30.1832
 20
35.5342
 30
0.0
 11
30.1832
 21
29.264
 31
0.0
  0
LINE
  8
0
 62
     0
 10
30.1832
 20
29.264
 30
0.0
 11
31.9071
 21
29.264
 31
0.0
  0
LINE
  8
0
 62
     0
 10
31.9071
 20
29.264
 30
0.0
 11
31.9071
 21
28.2842
 31
0.0
  0
LINE
  8
0
 62
     0
 10
31.9071
 20
28.2842
 30
0.0
 11
35.2075
 21
28.2842
 31
0.0
  0
LINE
  8
0
 62
     0
 10
35.2075
 20
28.2842
 30
0.0
 11
35.2075
 21
29.264
 31
0.0
  0
LINE
  8
0
 62
     0
 10
35.2075
 20
29.264
 30
0.0
 11
36.9327
 21
29.264
 31
0.0
  0
LINE
  8
0
 62
     0
 10
36.9327
 20
29.264
 30
0.0
 11
36.9327
 21
33.7344
 31
0.0
  0
LINE
  8
0
 62
     0
 10
36.9327
 20
33.7344
 30
0.0
 11
38.457
 21
33.7344
 31
0.0
  0
LINE
  8
0
 62
     0
 10
38.457
 20
33.7344
 30
0.0
 11
38.457
 21
33.1336
 31
0.0
  0
LINE
  8
0
 62
     0
 10
38.457
 20
33.1336
 30
0.0
 11
37.6576
 21
33.1336
 31
0.0
  0
LINE
  8
0
 62
     0
 10
37.6576
 20
33.1336
 30
0.0
 11
37.6576
 21
30.0343
 31
0.0
  0
LINE
  8
0
 62
     0
 10
37.6576
 20
30.0343
 30
0.0
 11
38.457
 21
30.0343
 31
0.0
  0
LINE
  8
0
 62
     0
 10
38.457
 20
30.0343
 30
0.0
 11
38.457
 21
29.0339
 31
0.0
  0
LINE
  8
0
 62
     0
 10
38.457
 20
29.0339
 30
0.0
 11
52.4577
 21
29.0339
 31
0.0
  0
LINE
  8
0
 62
     0
 10
52.4577
 20
29.0339
 30
0.0
 11
52.4577
 21
30.0343
 31
0.0
  0
LINE
  8
0
 62
     0
 10
52.4577
 20
30.0343
 30
0.0
 11
53.2571
 21
30.0343
 31
0.0
  0
LINE
  8
0
 62
     0
 10
53.2571
 20
30.0343
 30
0.0
 11
53.2571
 21
33.1336
 31
0.0
  0
LINE
  8
0
 62
     0
 10
53.2571
 20
33.1336
 30
0.0
 11
52.4577
 21
33.1336
 31
0.0
  0
LINE
  8
0
 62
     0
 10
52.4577
 20
33.1336
 30
0.0
 11
52.4577
 21
33.7344
 31
0.0
  0
LINE
  8
0
 62
     0
 10
52.4577
 20
33.7344
 30
0.0
 11
53.9821
 21
33.7344
 31
0.0
  0
LINE
  8
0
 62
     0
 10
53.9821
 20
33.7344
 30
0.0
 11
53.9821
 21
29.264
 31
0.0
  0
LINE
  8
0
 62
     0
 10
53.9821
 20
29.264
 30
0.0
 11
55.7071
 21
29.264
 31
0.0
  0
LINE
  8
0
 62
     0
 10
55.7071
 20
29.264
 30
0.0
 11
55.7071
 21
28.2842
 31
0.0
  0
LINE
  8
0
 62
     0
 10
55.7071
 20
28.2842
 30
0.0
 11
59.0077
 21
28.2842
 31
0.0
  0
LINE
  8
0
 62
     0
 10
59.0077
 20
28.2842
 30
0.0
 11
59.0077
 21
29.264
 31
0.0
  0
LINE
  8
0
 62
     0
 10
59.0077
 20
29.264
 30
0.0
 11
60.7328
 21
29.264
 31
0.0
  0
LINE
  8
0
 62
     0
 10
60.7328
 20
29.264
 30
0.0
 11
60.7328
 21
35.5342
 31
0.0
  0
LINE
  8
0
 62
     0
 10
60.7328
 20
35.5342
 30
0.0
 11
61.5569
 21
35.5342
 31
0.0
  0
LINE
  8
0
 62
     0
 10
61.5569
 20
35.5342
 30
0.0
 11
61.5569
 21
38.3342
 31
0.0
  0
LINE
  8
0
 62
     0
 10
61.5569
 20
38.3342
 30
0.0
 11
60.7328
 21
38.3342
 31
0.0
  0
LINE
  8
0
 62
     0
 10
60.7328
 20
38.3342
 30
0.0
 11
60.7328
 21
41.5643
 31
0.0
  0
LINE
  8
0
 62
     0
 10
60.7328
 20
41.5643
 30
0.0
 11
59.0077
 21
41.5643
 31
0.0
  0
LINE
  8
0
 62
     0
 10
59.0077
 20
41.5643
 30
0.0
 11
59.0077
 21
42.4836
 31
0.0
  0
LINE
  8
0
 62
     0
 10
59.0077
 20
42.4836
 30
0.0
 11
55.7071
 21
42.4836
 31
0.0
  0
LINE
  8
0
 62
     0
 10
55.7071
 20
42.4836
 30
0.0
 11
55.7071
 21
41.5643
 31
0.0
  0
LINE
  8
0
 62
     0
 10
55.7071
 20
41.5643
 30
0.0
 11
53.9821
 21
41.5643
 31
0.0
  0
LINE
  8
0
 62
     0
 10
53.9821
 20
41.5643
 30
0.0
 11
53.9821
 21
38.3342
 31
0.0
  0
LINE
  8
0
 62
     0
 10
53.9821
 20
38.3342
 30
0.0
 11
52.4577
 21
38.3342
 31
0.0
  0
LINE
  8
0
 62
     0
 10
52.4577
 20
38.3342
 30
0.0
 11
52.4577
 21
38.9336
 31
0.0
  0
LINE
  8
0
 62
     0
 10
52.4577
 20
38.9336
 30
0.0
 11
53.2571
 21
38.9336
 31
0.0
  0
LINE
  8
0
 62
     0
 10
53.2571
 20
38.9336
 30
0.0
 11
53.2571
 21
42.0342
 31
0.0
  0
LINE
  8
0
 62
     0
 10
53.2571
 20
42.0342
 30
0.0
 11
52.4577
 21
42.0342
 31
0.0
  0
LINE
  8
0
 62
     0
 10
52.4577
 20
42.0342
 30
0.0
 11
52.4577
 21
43.0347
 31
0.0
  0
LINE
  8
0
 62
     0
 10
52.4577
 20
43.0347
 30
0.0
 11
38.457
 21
43.0347
 31
0.0
  0
LINE
  8
0
 62
     0
 10
267.057
 20
43.0347
 30
0.0
 11
267.057
 21
42.0342
 31
0.0
  0
LINE
  8
0
 62
     0
 10
267.057
 20
42.0342
 30
0.0
 11
266.258
 21
42.0342
 31
0.0
  0
LINE
  8
0
 62
     0
 10
266.258
 20
42.0342
 30
0.0
 11
266.258
 21
38.9336
 31
0.0
  0
LINE
  8
0
 62
     0
 10
266.258
 20
38.9336
 30
0.0
 11
267.057
 21
38.9336
 31
0.0
  0
LINE
  8
0
 62
     0
 10
267.057
 20
38.9336
 30
0.0
 11
267.057
 21
38.3342
 31
0.0
  0
LINE
  8
0
 62
     0
 10
267.057
 20
38.3342
 30
0.0
 11
265.533
 21
38.3342
 31
0.0
  0
LINE
  8
0
 62
     0
 10
265.533
 20
38.3342
 30
0.0
 11
265.533
 21
41.5643
 31
0.0
  0
LINE
  8
0
 62
     0
 10
265.533
 20
41.5643
 30
0.0
 11
263.808
 21
41.5643
 31
0.0
  0
LINE
  8
0
 62
     0
 10
263.808
 20
41.5643
 30
0.0
 11
263.808
 21
42.4836
 31
0.0
  0
LINE
  8
0
 62
     0
 10
263.808
 20
42.4836
 30
0.0
 11
260.507
 21
42.4836
 31
0.0
  0
LINE
  8
0
 62
     0
 10
260.507
 20
42.4836
 30
0.0
 11
260.507
 21
41.5643
 31
0.0
  0
LINE
  8
0
 62
     0
 10
260.507
 20
41.5643
 30
0.0
 11
258.783
 21
41.5643
 31
0.0
  0
LINE
  8
0
 62
     0
 10
258.783
 20
41.5643
 30
0.0
 11
258.783
 21
38.3342
 31
0.0
  0
LINE
  8
0
 62
     0
 10
258.783
 20
38.3342
 30
0.0
 11
257.958
 21
38.3342
 31
0.0
  0
LINE
  8
0
 62
     0
 10
257.958
 20
38.3342
 30
0.0
 11
257.958
 21
35.5342
 31
0.0
  0
LINE
  8
0
 62
     0
 10
257.958
 20
35.5342
 30
0.0
 11
258.783
 21
35.5342
 31
0.0
  0
LINE
  8
0
 62
     0
 10
258.783
 20
35.5342
 30
0.0
 11
258.783
 21
29.264
 31
0.0
  0
LINE
  8
0
 62
     0
 10
258.783
 20
29.264
 30
0.0
 11
260.507
 21
29.264
 31
0.0
  0
LINE
  8
0
 62
     0
 10
260.507
 20
29.264
 30
0.0
 11
260.507
 21
28.2842
 31
0.0
  0
LINE
  8
0
 62
     0
 10
260.507
 20
28.2842
 30
0.0
 11
263.808
 21
28.2842
 31
0.0
  0
LINE
  8
0
 62
     0
 10
263.808
 20
28.2842
 30
0.0
 11
263.808
 21
29.264
 31
0.0
  0
LINE
  8
0
 62
     0
 10
263.808
 20
29.264
 30
0.0
 11
265.533
 21
29.264
 31
0.0
  0
LINE
  8
0
 62
     0
 10
265.533
 20
29.264
 30
0.0
 11
265.533
 21
33.7344
 31
0.0
  0
LINE
  8
0
 62
     0
 10
265.533
 20
33.7344
 30
0.0
 11
267.057
 21
33.7344
 31
0.0
  0
LINE
  8
0
 62
     0
 10
267.057
 20
33.7344
 30
0.0
 11
267.057
 21
33.1336
 31
0.0
  0
LINE
  8
0
 62
     0
 10
267.057
 20
33.1336
 30
0.0
 11
266.258
 21
33.1336
 31
0.0
  0
LINE
  8
0
 62
     0
 10
266.258
 20
33.1336
 30
0.0
 11
266.258
 21
30.0343
 31
0.0
  0
LINE
  8
0
 62
     0
 10
266.258
 20
30.0343
 30
0.0
 11
267.057
 21
30.0343
 31
0.0
  0
LINE
  8
0
 62
     0
 10
267.057
 20
30.0343
 30
0.0
 11
267.057
 21
29.0339
 31
0.0
  0
LINE
  8
0
 62
     0
 10
267.057
 20
29.0339
 30
0.0
 11
281.058
 21
29.0339
 31
0.0
  0
LINE
  8
0
 62
     0
 10
281.058
 20
29.0339
 30
0.0
 11
281.058
 21
30.0343
 31
0.0
  0
LINE
  8
0
 62
     0
 10
281.058
 20
30.0343
 30
0.0
 11
281.857
 21
30.0343
 31
0.0
  0
LINE
  8
0
 62
     0
 10
281.857
 20
30.0343
 30
0.0
 11
281.857
 21
33.1336
 31
0.0
  0
LINE
  8
0
 62
     0
 10
281.857
 20
33.1336
 30
0.0
 11
281.058
 21
33.1336
 31
0.0
  0
LINE
  8
0
 62
     0
 10
281.058
 20
33.1336
 30
0.0
 11
281.058
 21
33.7344
 31
0.0
  0
LINE
  8
0
 62
     0
 10
281.058
 20
33.7344
 30
0.0
 11
282.582
 21
33.7344
 31
0.0
  0
LINE
  8
0
 62
     0
 10
282.582
 20
33.7344
 30
0.0
 11
282.582
 21
29.264
 31
0.0
  0
LINE
  8
0
 62
     0
 10
282.582
 20
29.264
 30
0.0
 11
284.307
 21
29.264
 31
0.0
  0
LINE
  8
0
 62
     0
 10
284.307
 20
29.264
 30
0.0
 11
284.307
 21
28.2842
 31
0.0
  0
LINE
  8
0
 62
     0
 10
284.307
 20
28.2842
 30
0.0
 11
287.608
 21
28.2842
 31
0.0
  0
LINE
  8
0
 62
     0
 10
287.608
 20
28.2842
 30
0.0
 11
287.608
 21
29.264
 31
0.0
  0
LINE
  8
0
 62
     0
 10
287.608
 20
29.264
 30
0.0
 11
289.333
 21
29.264
 31
0.0
  0
LINE
  8
0
 62
     0
 10
289.333
 20
29.264
 30
0.0
 11
289.333
 21
35.5342
 31
0.0
  0
LINE
  8
0
 62
     0
 10
289.333
 20
35.5342
 30
0.0
 11
290.157
 21
35.5342
 31
0.0
  0
LINE
  8
0
 62
     0
 10
290.157
 20
35.5342
 30
0.0
 11
290.157
 21
38.3342
 31
0.0
  0
LINE
  8
0
 62
     0
 10
290.157
 20
38.3342
 30
0.0
 11
289.333
 21
38.3342
 31
0.0
  0
LINE
  8
0
 62
     0
 10
289.333
 20
38.3342
 30
0.0
 11
289.333
 21
41.5643
 31
0.0
  0
LINE
  8
0
 62
     0
 10
289.333
 20
41.5643
 30
0.0
 11
287.608
 21
41.5643
 31
0.0
  0
LINE
  8
0
 62
     0
 10
287.608
 20
41.5643
 30
0.0
 11
287.608
 21
42.4836
 31
0.0
  0
LINE
  8
0
 62
     0
 10
287.608
 20
42.4836
 30
0.0
 11
284.307
 21
42.4836
 31
0.0
  0
LINE
  8
0
 62
     0
 10
284.307
 20
42.4836
 30
0.0
 11
284.307
 21
41.5643
 31
0.0
  0
LINE
  8
0
 62
     0
 10
284.307
 20
41.5643
 30
0.0
 11
282.582
 21
41.5643
 31
0.0
  0
LINE
  8
0
 62
     0
 10
282.582
 20
41.5643
 30
0.0
 11
282.582
 21
38.3342
 31
0.0
  0
LINE
  8
0
 62
     0
 10
282.582
 20
38.3342
 30
0.0
 11
281.058
 21
38.3342
 31
0.0
  0
LINE
  8
0
 62
     0
 10
281.058
 20
38.3342
 30
0.0
 11
281.058
 21
38.9336
 31
0.0
  0
LINE
  8
0
 62
     0
 10
281.058
 20
38.9336
 30
0.0
 11
281.857
 21
38.9336
 31
0.0
  0
LINE
  8
0
 62
     0
 10
281.857
 20
38.9336
 30
0.0
 11
281.857
 21
42.0342
 31
0.0
  0
LINE
  8
0
 62
     0
 10
281.857
 20
42.0342
 30
0.0
 11
281.058
 21
42.0342
 31
0.0
  0
LINE
  8
0
 62
     0
 10
281.058
 20
42.0342
 30
0.0
 11
281.058
 21
43.0347
 31
0.0
  0
LINE
  8
0
 62
     0
 10
281.058
 20
43.0347
 30
0.0
 11
267.057
 21
43.0347
 31
0.0
  0
LINE
  8
0
 62
     0
 10
5.11941
 20
43.0347
 30
0.0
 11
5.11941
 21
42.0342
 31
0.0
  0
LINE
  8
0
 62
     0
 10
5.11941
 20
42.0342
 30
0.0
 11
4.32015
 21
42.0342
 31
0.0
  0
LINE
  8
0
 62
     0
 10
4.32015
 20
42.0342
 30
0.0
 11
4.32015
 21
38.9336
 31
0.0
  0
LINE
  8
0
 62
     0
 10
4.32015
 20
38.9336
 30
0.0
 11
5.11941
 21
38.9336
 31
0.0
  0
LINE
  8
0
 62
     0
 10
5.11941
 20
38.9336
 30
0.0
 11
5.11941
 21
33.1336
 31
0.0
  0
LINE
  8
0
 62
     0
 10
5.11941
 20
33.1336
 30
0.0
 11
4.32015
 21
33.1336
 31
0.0
  0
LINE
  8
0
 62
     0
 10
4.32015
 20
33.1336
 30
0.0
 11
4.32015
 21
30.0343
 31
0.0
  0
LINE
  8
0
 62
     0
 10
4.32015
 20
30.0343
 30
0.0
 11
5.11941
 21
30.0343
 31
0.0
  0
LINE
  8
0
 62
     0
 10
5.11941
 20
30.0343
 30
0.0
 11
5.11941
 21
29.0339
 31
0.0
  0
LINE
  8
0
 62
     0
 10
5.11941
 20
29.0339
 30
0.0
 11
19.1203
 21
29.0339
 31
0.0
  0
LINE
  8
0
 62
     0
 10
19.1203
 20
29.0339
 30
0.0
 11
19.1203
 21
30.0343
 31
0.0
  0
LINE
  8
0
 62
     0
 10
19.1203
 20
30.0343
 30
0.0
 11
19.9209
 21
30.0343
 31
0.0
  0
LINE
  8
0
 62
     0
 10
19.9209
 20
30.0343
 30
0.0
 11
19.9209
 21
33.1336
 31
0.0
  0
LINE
  8
0
 62
     0
 10
19.9209
 20
33.1336
 30
0.0
 11
19.1203
 21
33.1336
 31
0.0
  0
LINE
  8
0
 62
     0
 10
19.1203
 20
33.1336
 30
0.0
 11
19.1203
 21
38.9336
 31
0.0
  0
LINE
  8
0
 62
     0
 10
19.1203
 20
38.9336
 30
0.0
 11
19.9209
 21
38.9336
 31
0.0
  0
LINE
  8
0
 62
     0
 10
19.9209
 20
38.9336
 30
0.0
 11
19.9209
 21
42.0342
 31
0.0
  0
LINE
  8
0
 62
     0
 10
19.9209
 20
42.0342
 30
0.0
 11
19.1203
 21
42.0342
 31
0.0
  0
LINE
  8
0
 62
     0
 10
19.1203
 20
42.0342
 30
0.0
 11
19.1203
 21
43.0347
 31
0.0
  0
LINE
  8
0
 62
     0
 10
19.1203
 20
43.0347
 30
0.0
 11
5.11941
 21
43.0347
 31
0.0
  0
LINE
  8
0
 62
     0
 10
67.032
 20
43.0347
 30
0.0
 11
67.032
 21
42.0342
 31
0.0
  0
LINE
  8
0
 62
     0
 10
67.032
 20
42.0342
 30
0.0
 11
66.2326
 21
42.0342
 31
0.0
  0
LINE
  8
0
 62
     0
 10
66.2326
 20
42.0342
 30
0.0
 11
66.2326
 21
38.9336
 31
0.0
  0
LINE
  8
0
 62
     0
 10
66.2326
 20
38.9336
 30
0.0
 11
67.032
 21
38.9336
 31
0.0
  0
LINE
  8
0
 62
     0
 10
67.032
 20
38.9336
 30
0.0
 11
67.032
 21
33.1336
 31
0.0
  0
LINE
  8
0
 62
     0
 10
67.032
 20
33.1336
 30
0.0
 11
66.2326
 21
33.1336
 31
0.0
  0
LINE
  8
0
 62
     0
 10
66.2326
 20
33.1336
 30
0.0
 11
66.2326
 21
30.0343
 31
0.0
  0
LINE
  8
0
 62
     0
 10
66.2326
 20
30.0343
 30
0.0
 11
67.032
 21
30.0343
 31
0.0
  0
LINE
  8
0
 62
     0
 10
67.032
 20
30.0343
 30
0.0
 11
67.032
 21
29.0339
 31
0.0
  0
LINE
  8
0
 62
     0
 10
67.032
 20
29.0339
 30
0.0
 11
81.0327
 21
29.0339
 31
0.0
  0
LINE
  8
0
 62
     0
 10
81.0327
 20
29.0339
 30
0.0
 11
81.0327
 21
30.0343
 31
0.0
  0
LINE
  8
0
 62
     0
 10
81.0327
 20
30.0343
 30
0.0
 11
81.8321
 21
30.0343
 31
0.0
  0
LINE
  8
0
 62
     0
 10
81.8321
 20
30.0343
 30
0.0
 11
81.8321
 21
33.1336
 31
0.0
  0
LINE
  8
0
 62
     0
 10
81.8321
 20
33.1336
 30
0.0
 11
81.0327
 21
33.1336
 31
0.0
  0
LINE
  8
0
 62
     0
 10
81.0327
 20
33.1336
 30
0.0
 11
81.0327
 21
38.9336
 31
0.0
  0
LINE
  8
0
 62
     0
 10
81.0327
 20
38.9336
 30
0.0
 11
81.8321
 21
38.9336
 31
0.0
  0
LINE
  8
0
 62
     0
 10
81.8321
 20
38.9336
 30
0.0
 11
81.8321
 21
42.0342
 31
0.0
  0
LINE
  8
0
 62
     0
 10
81.8321
 20
42.0342
 30
0.0
 11
81.0327
 21
42.0342
 31
0.0
  0
LINE
  8
0
 62
     0
 10
81.0327
 20
42.0342
 30
0.0
 11
81.0327
 21
43.0347
 31
0.0
  0
LINE
  8
0
 62
     0
 10
81.0327
 20
43.0347
 30
0.0
 11
67.032
 21
43.0347
 31
0.0
  0
LINE
  8
0
 62
     0
 10
86.082
 20
43.0347
 30
0.0
 11
86.082
 21
42.0342
 31
0.0
  0
LINE
  8
0
 62
     0
 10
86.082
 20
42.0342
 30
0.0
 11
85.2826
 21
42.0342
 31
0.0
  0
LINE
  8
0
 62
     0
 10
85.2826
 20
42.0342
 30
0.0
 11
85.2826
 21
38.9336
 31
0.0
  0
LINE
  8
0
 62
     0
 10
85.2826
 20
38.9336
 30
0.0
 11
86.082
 21
38.9336
 31
0.0
  0
LINE
  8
0
 62
     0
 10
86.082
 20
38.9336
 30
0.0
 11
86.082
 21
33.1336
 31
0.0
  0
LINE
  8
0
 62
     0
 10
86.082
 20
33.1336
 30
0.0
 11
85.2826
 21
33.1336
 31
0.0
  0
LINE
  8
0
 62
     0
 10
85.2826
 20
33.1336
 30
0.0
 11
85.2826
 21
30.0343
 31
0.0
  0
LINE
  8
0
 62
     0
 10
85.2826
 20
30.0343
 30
0.0
 11
86.082
 21
30.0343
 31
0.0
  0
LINE
  8
0
 62
     0
 10
86.082
 20
30.0343
 30
0.0
 11
86.082
 21
29.0339
 31
0.0
  0
LINE
  8
0
 62
     0
 10
86.082
 20
29.0339
 30
0.0
 11
100.083
 21
29.0339
 31
0.0
  0
LINE
  8
0
 62
     0
 10
100.083
 20
29.0339
 30
0.0
 11
100.083
 21
30.0343
 31
0.0
  0
LINE
  8
0
 62
     0
 10
100.083
 20
30.0343
 30
0.0
 11
100.882
 21
30.0343
 31
0.0
  0
LINE
  8
0
 62
     0
 10
100.882
 20
30.0343
 30
0.0
 11
100.882
 21
33.1336
 31
0.0
  0
LINE
  8
0
 62
     0
 10
100.882
 20
33.1336
 30
0.0
 11
100.083
 21
33.1336
 31
0.0
  0
LINE
  8
0
 62
     0
 10
100.083
 20
33.1336
 30
0.0
 11
100.083
 21
38.9336
 31
0.0
  0
LINE
  8
0
 62
     0
 10
100.083
 20
38.9336
 30
0.0
 11
100.882
 21
38.9336
 31
0.0
  0
LINE
  8
0
 62
     0
 10
100.882
 20
38.9336
 30
0.0
 11
100.882
 21
42.0342
 31
0.0
  0
LINE
  8
0
 62
     0
 10
100.882
 20
42.0342
 30
0.0
 11
100.083
 21
42.0342
 31
0.0
  0
LINE
  8
0
 62
     0
 10
100.083
 20
42.0342
 30
0.0
 11
100.083
 21
43.0347
 31
0.0
  0
LINE
  8
0
 62
     0
 10
100.083
 20
43.0347
 30
0.0
 11
86.082
 21
43.0347
 31
0.0
  0
LINE
  8
0
 62
     0
 10
105.132
 20
43.0347
 30
0.0
 11
105.132
 21
42.0342
 31
0.0
  0
LINE
  8
0
 62
     0
 10
105.132
 20
42.0342
 30
0.0
 11
104.333
 21
42.0342
 31
0.0
  0
LINE
  8
0
 62
     0
 10
104.333
 20
42.0342
 30
0.0
 11
104.333
 21
38.9336
 31
0.0
  0
LINE
  8
0
 62
     0
 10
104.333
 20
38.9336
 30
0.0
 11
105.132
 21
38.9336
 31
0.0
  0
LINE
  8
0
 62
     0
 10
105.132
 20
38.9336
 30
0.0
 11
105.132
 21
33.1336
 31
0.0
  0
LINE
  8
0
 62
     0
 10
105.132
 20
33.1336
 30
0.0
 11
104.333
 21
33.1336
 31
0.0
  0
LINE
  8
0
 62
     0
 10
104.333
 20
33.1336
 30
0.0
 11
104.333
 21
30.0343
 31
0.0
  0
LINE
  8
0
 62
     0
 10
104.333
 20
30.0343
 30
0.0
 11
105.132
 21
30.0343
 31
0.0
  0
LINE
  8
0
 62
     0
 10
105.132
 20
30.0343
 30
0.0
 11
105.132
 21
29.0339
 31
0.0
  0
LINE
  8
0
 62
     0
 10
105.132
 20
29.0339
 30
0.0
 11
119.133
 21
29.0339
 31
0.0
  0
LINE
  8
0
 62
     0
 10
119.133
 20
29.0339
 30
0.0
 11
119.133
 21
30.0343
 31
0.0
  0
LINE
  8
0
 62
     0
 10
119.133
 20
30.0343
 30
0.0
 11
119.932
 21
30.0343
 31
0.0
  0
LINE
  8
0
 62
     0
 10
119.932
 20
30.0343
 30
0.0
 11
119.932
 21
33.1336
 31
0.0
  0
LINE
  8
0
 62
     0
 10
119.932
 20
33.1336
 30
0.0
 11
119.133
 21
33.1336
 31
0.0
  0
LINE
  8
0
 62
     0
 10
119.133
 20
33.1336
 30
0.0
 11
119.133
 21
38.9336
 31
0.0
  0
LINE
  8
0
 62
     0
 10
119.133
 20
38.9336
 30
0.0
 11
119.932
 21
38.9336
 31
0.0
  0
LINE
  8
0
 62
     0
 10
119.932
 20
38.9336
 30
0.0
 11
119.932
 21
42.0342
 31
0.0
  0
LINE
  8
0
 62
     0
 10
119.932
 20
42.0342
 30
0.0
 11
119.133
 21
42.0342
 31
0.0
  0
LINE
  8
0
 62
     0
 10
119.133
 20
42.0342
 30
0.0
 11
119.133
 21
43.0347
 31
0.0
  0
LINE
  8
0
 62
     0
 10
119.133
 20
43.0347
 30
0.0
 11
105.132
 21
43.0347
 31
0.0
  0
LINE
  8
0
 62
     0
 10
124.182
 20
43.0347
 30
0.0
 11
124.182
 21
42.0342
 31
0.0
  0
LINE
  8
0
 62
     0
 10
124.182
 20
42.0342
 30
0.0
 11
123.383
 21
42.0342
 31
0.0
  0
LINE
  8
0
 62
     0
 10
123.383
 20
42.0342
 30
0.0
 11
123.383
 21
38.9336
 31
0.0
  0
LINE
  8
0
 62
     0
 10
123.383
 20
38.9336
 30
0.0
 11
124.182
 21
38.9336
 31
0.0
  0
LINE
  8
0
 62
     0
 10
124.182
 20
38.9336
 30
0.0
 11
124.182
 21
33.1336
 31
0.0
  0
LINE
  8
0
 62
     0
 10
124.182
 20
33.1336
 30
0.0
 11
123.383
 21
33.1336
 31
0.0
  0
LINE
  8
0
 62
     0
 10
123.383
 20
33.1336
 30
0.0
 11
123.383
 21
30.0343
 31
0.0
  0
LINE
  8
0
 62
     0
 10
123.383
 20
30.0343
 30
0.0
 11
124.182
 21
30.0343
 31
0.0
  0
LINE
  8
0
 62
     0
 10
124.182
 20
30.0343
 30
0.0
 11
124.182
 21
29.0339
 31
0.0
  0
LINE
  8
0
 62
     0
 10
124.182
 20
29.0339
 30
0.0
 11
138.183
 21
29.0339
 31
0.0
  0
LINE
  8
0
 62
     0
 10
138.183
 20
29.0339
 30
0.0
 11
138.183
 21
30.0343
 31
0.0
  0
LINE
  8
0
 62
     0
 10
138.183
 20
30.0343
 30
0.0
 11
138.982
 21
30.0343
 31
0.0
  0
LINE
  8
0
 62
     0
 10
138.982
 20
30.0343
 30
0.0
 11
138.982
 21
33.1336
 31
0.0
  0
LINE
  8
0
 62
     0
 10
138.982
 20
33.1336
 30
0.0
 11
138.183
 21
33.1336
 31
0.0
  0
LINE
  8
0
 62
     0
 10
138.183
 20
33.1336
 30
0.0
 11
138.183
 21
38.9336
 31
0.0
  0
LINE
  8
0
 62
     0
 10
138.183
 20
38.9336
 30
0.0
 11
138.982
 21
38.9336
 31
0.0
  0
LINE
  8
0
 62
     0
 10
138.982
 20
38.9336
 30
0.0
 11
138.982
 21
42.0342
 31
0.0
  0
LINE
  8
0
 62
     0
 10
138.982
 20
42.0342
 30
0.0
 11
138.183
 21
42.0342
 31
0.0
  0
LINE
  8
0
 62
     0
 10
138.183
 20
42.0342
 30
0.0
 11
138.183
 21
43.0347
 31
0.0
  0
LINE
  8
0
 62
     0
 10
138.183
 20
43.0347
 30
0.0
 11
124.182
 21
43.0347
 31
0.0
  0
LINE
  8
0
 62
     0
 10
143.232
 20
43.0347
 30
0.0
 11
143.232
 21
42.0342
 31
0.0
  0
LINE
  8
0
 62
     0
 10
143.232
 20
42.0342
 30
0.0
 11
142.433
 21
42.0342
 31
0.0
  0
LINE
  8
0
 62
     0
 10
142.433
 20
42.0342
 30
0.0
 11
142.433
 21
38.9336
 31
0.0
  0
LINE
  8
0
 62
     0
 10
142.433
 20
38.9336
 30
0.0
 11
143.232
 21
38.9336
 31
0.0
  0
LINE
  8
0
 62
     0
 10
143.232
 20
38.9336
 30
0.0
 11
143.232
 21
33.1336
 31
0.0
  0
LINE
  8
0
 62
     0
 10
143.232
 20
33.1336
 30
0.0
 11
142.433
 21
33.1336
 31
0.0
  0
LINE
  8
0
 62
     0
 10
142.433
 20
33.1336
 30
0.0
 11
142.433
 21
30.0343
 31
0.0
  0
LINE
  8
0
 62
     0
 10
142.433
 20
30.0343
 30
0.0
 11
143.232
 21
30.0343
 31
0.0
  0
LINE
  8
0
 62
     0
 10
143.232
 20
30.0343
 30
0.0
 11
143.232
 21
29.0339
 31
0.0
  0
LINE
  8
0
 62
     0
 10
143.232
 20
29.0339
 30
0.0
 11
157.233
 21
29.0339
 31
0.0
  0
LINE
  8
0
 62
     0
 10
157.233
 20
29.0339
 30
0.0
 11
157.233
 21
30.0343
 31
0.0
  0
LINE
  8
0
 62
     0
 10
157.233
 20
30.0343
 30
0.0
 11
158.032
 21
30.0343
 31
0.0
  0
LINE
  8
0
 62
     0
 10
158.032
 20
30.0343
 30
0.0
 11
158.032
 21
33.1336
 31
0.0
  0
LINE
  8
0
 62
     0
 10
158.032
 20
33.1336
 30
0.0
 11
157.233
 21
33.1336
 31
0.0
  0
LINE
  8
0
 62
     0
 10
157.233
 20
33.1336
 30
0.0
 11
157.233
 21
38.9336
 31
0.0
  0
LINE
  8
0
 62
     0
 10
157.233
 20
38.9336
 30
0.0
 11
158.032
 21
38.9336
 31
0.0
  0
LINE
  8
0
 62
     0
 10
158.032
 20
38.9336
 30
0.0
 11
158.032
 21
42.0342
 31
0.0
  0
LINE
  8
0
 62
     0
 10
158.032
 20
42.0342
 30
0.0
 11
157.233
 21
42.0342
 31
0.0
  0
LINE
  8
0
 62
     0
 10
157.233
 20
42.0342
 30
0.0
 11
157.233
 21
43.0347
 31
0.0
  0
LINE
  8
0
 62
     0
 10
157.233
 20
43.0347
 30
0.0
 11
143.232
 21
43.0347
 31
0.0
  0
LINE
  8
0
 62
     0
 10
162.282
 20
43.0347
 30
0.0
 11
162.282
 21
42.0342
 31
0.0
  0
LINE
  8
0
 62
     0
 10
162.282
 20
42.0342
 30
0.0
 11
161.483
 21
42.0342
 31
0.0
  0
LINE
  8
0
 62
     0
 10
161.483
 20
42.0342
 30
0.0
 11
161.483
 21
38.9336
 31
0.0
  0
LINE
  8
0
 62
     0
 10
161.483
 20
38.9336
 30
0.0
 11
162.282
 21
38.9336
 31
0.0
  0
LINE
  8
0
 62
     0
 10
162.282
 20
38.9336
 30
0.0
 11
162.282
 21
33.1336
 31
0.0
  0
LINE
  8
0
 62
     0
 10
162.282
 20
33.1336
 30
0.0
 11
161.483
 21
33.1336
 31
0.0
  0
LINE
  8
0
 62
     0
 10
161.483
 20
33.1336
 30
0.0
 11
161.483
 21
30.0343
 31
0.0
  0
LINE
  8
0
 62
     0
 10
161.483
 20
30.0343
 30
0.0
 11
162.282
 21
30.0343
 31
0.0
  0
LINE
  8
0
 62
     0
 10
162.282
 20
30.0343
 30
0.0
 11
162.282
 21
29.0339
 31
0.0
  0
LINE
  8
0
 62
     0
 10
162.282
 20
29.0339
 30
0.0
 11
176.283
 21
29.0339
 31
0.0
  0
LINE
  8
0
 62
     0
 10
176.283
 20
29.0339
 30
0.0
 11
176.283
 21
30.0343
 31
0.0
  0
LINE
  8
0
 62
     0
 10
176.283
 20
30.0343
 30
0.0
 11
177.082
 21
30.0343
 31
0.0
  0
LINE
  8
0
 62
     0
 10
177.082
 20
30.0343
 30
0.0
 11
177.082
 21
33.1336
 31
0.0
  0
LINE
  8
0
 62
     0
 10
177.082
 20
33.1336
 30
0.0
 11
176.283
 21
33.1336
 31
0.0
  0
LINE
  8
0
 62
     0
 10
176.283
 20
33.1336
 30
0.0
 11
176.283
 21
38.9336
 31
0.0
  0
LINE
  8
0
 62
     0
 10
176.283
 20
38.9336
 30
0.0
 11
177.082
 21
38.9336
 31
0.0
  0
LINE
  8
0
 62
     0
 10
177.082
 20
38.9336
 30
0.0
 11
177.082
 21
42.0342
 31
0.0
  0
LINE
  8
0
 62
     0
 10
177.082
 20
42.0342
 30
0.0
 11
176.283
 21
42.0342
 31
0.0
  0
LINE
  8
0
 62
     0
 10
176.283
 20
42.0342
 30
0.0
 11
176.283
 21
43.0347
 31
0.0
  0
LINE
  8
0
 62
     0
 10
176.283
 20
43.0347
 30
0.0
 11
162.282
 21
43.0347
 31
0.0
  0
LINE
  8
0
 62
     0
 10
181.332
 20
43.0347
 30
0.0
 11
181.332
 21
42.0342
 31
0.0
  0
LINE
  8
0
 62
     0
 10
181.332
 20
42.0342
 30
0.0
 11
180.533
 21
42.0342
 31
0.0
  0
LINE
  8
0
 62
     0
 10
180.533
 20
42.0342
 30
0.0
 11
180.533
 21
38.9336
 31
0.0
  0
LINE
  8
0
 62
     0
 10
180.533
 20
38.9336
 30
0.0
 11
181.332
 21
38.9336
 31
0.0
  0
LINE
  8
0
 62
     0
 10
181.332
 20
38.9336
 30
0.0
 11
181.332
 21
33.1336
 31
0.0
  0
LINE
  8
0
 62
     0
 10
181.332
 20
33.1336
 30
0.0
 11
180.533
 21
33.1336
 31
0.0
  0
LINE
  8
0
 62
     0
 10
180.533
 20
33.1336
 30
0.0
 11
180.533
 21
30.0343
 31
0.0
  0
LINE
  8
0
 62
     0
 10
180.533
 20
30.0343
 30
0.0
 11
181.332
 21
30.0343
 31
0.0
  0
LINE
  8
0
 62
     0
 10
181.332
 20
30.0343
 30
0.0
 11
181.332
 21
29.0339
 31
0.0
  0
LINE
  8
0
 62
     0
 10
181.332
 20
29.0339
 30
0.0
 11
195.333
 21
29.0339
 31
0.0
  0
LINE
  8
0
 62
     0
 10
195.333
 20
29.0339
 30
0.0
 11
195.333
 21
30.0343
 31
0.0
  0
LINE
  8
0
 62
     0
 10
195.333
 20
30.0343
 30
0.0
 11
196.132
 21
30.0343
 31
0.0
  0
LINE
  8
0
 62
     0
 10
196.132
 20
30.0343
 30
0.0
 11
196.132
 21
33.1336
 31
0.0
  0
LINE
  8
0
 62
     0
 10
196.132
 20
33.1336
 30
0.0
 11
195.333
 21
33.1336
 31
0.0
  0
LINE
  8
0
 62
     0
 10
195.333
 20
33.1336
 30
0.0
 11
195.333
 21
38.9336
 31
0.0
  0
LINE
  8
0
 62
     0
 10
195.333
 20
38.9336
 30
0.0
 11
196.132
 21
38.9336
 31
0.0
  0
LINE
  8
0
 62
     0
 10
196.132
 20
38.9336
 30
0.0
 11
196.132
 21
42.0342
 31
0.0
  0
LINE
  8
0
 62
     0
 10
196.132
 20
42.0342
 30
0.0
 11
195.333
 21
42.0342
 31
0.0
  0
LINE
  8
0
 62
     0
 10
195.333
 20
42.0342
 30
0.0
 11
195.333
 21
43.0347
 31
0.0
  0
LINE
  8
0
 62
     0
 10
195.333
 20
43.0347
 30
0.0
 11
181.332
 21
43.0347
 31
0.0
  0
LINE
  8
0
 62
     0
 10
200.382
 20
43.0347
 30
0.0
 11
200.382
 21
42.0342
 31
0.0
  0
LINE
  8
0
 62
     0
 10
200.382
 20
42.0342
 30
0.0
 11
199.583
 21
42.0342
 31
0.0
  0
LINE
  8
0
 62
     0
 10
199.583
 20
42.0342
 30
0.0
 11
199.583
 21
38.9336
 31
0.0
  0
LINE
  8
0
 62
     0
 10
199.583
 20
38.9336
 30
0.0
 11
200.382
 21
38.9336
 31
0.0
  0
LINE
  8
0
 62
     0
 10
200.382
 20
38.9336
 30
0.0
 11
200.382
 21
33.1336
 31
0.0
  0
LINE
  8
0
 62
     0
 10
200.382
 20
33.1336
 30
0.0
 11
199.583
 21
33.1336
 31
0.0
  0
LINE
  8
0
 62
     0
 10
199.583
 20
33.1336
 30
0.0
 11
199.583
 21
30.0343
 31
0.0
  0
LINE
  8
0
 62
     0
 10
199.583
 20
30.0343
 30
0.0
 11
200.382
 21
30.0343
 31
0.0
  0
LINE
  8
0
 62
     0
 10
200.382
 20
30.0343
 30
0.0
 11
200.382
 21
29.0339
 31
0.0
  0
LINE
  8
0
 62
     0
 10
200.382
 20
29.0339
 30
0.0
 11
214.383
 21
29.0339
 31
0.0
  0
LINE
  8
0
 62
     0
 10
214.383
 20
29.0339
 30
0.0
 11
214.383
 21
30.0343
 31
0.0
  0
LINE
  8
0
 62
     0
 10
214.383
 20
30.0343
 30
0.0
 11
215.182
 21
30.0343
 31
0.0
  0
LINE
  8
0
 62
     0
 10
215.182
 20
30.0343
 30
0.0
 11
215.182
 21
33.1336
 31
0.0
  0
LINE
  8
0
 62
     0
 10
215.182
 20
33.1336
 30
0.0
 11
214.383
 21
33.1336
 31
0.0
  0
LINE
  8
0
 62
     0
 10
214.383
 20
33.1336
 30
0.0
 11
214.383
 21
38.9336
 31
0.0
  0
LINE
  8
0
 62
     0
 10
214.383
 20
38.9336
 30
0.0
 11
215.182
 21
38.9336
 31
0.0
  0
LINE
  8
0
 62
     0
 10
215.182
 20
38.9336
 30
0.0
 11
215.182
 21
42.0342
 31
0.0
  0
LINE
  8
0
 62
     0
 10
215.182
 20
42.0342
 30
0.0
 11
214.383
 21
42.0342
 31
0.0
  0
LINE
  8
0
 62
     0
 10
214.383
 20
42.0342
 30
0.0
 11
214.383
 21
43.0347
 31
0.0
  0
LINE
  8
0
 62
     0
 10
214.383
 20
43.0347
 30
0.0
 11
200.382
 21
43.0347
 31
0.0
  0
LINE
  8
0
 62
     0
 10
219.432
 20
43.0347
 30
0.0
 11
219.432
 21
42.0342
 31
0.0
  0
LINE
  8
0
 62
     0
 10
219.432
 20
42.0342
 30
0.0
 11
218.633
 21
42.0342
 31
0.0
  0
LINE
  8
0
 62
     0
 10
218.633
 20
42.0342
 30
0.0
 11
218.633
 21
38.9336
 31
0.0
  0
LINE
  8
0
 62
     0
 10
218.633
 20
38.9336
 30
0.0
 11
219.432
 21
38.9336
 31
0.0
  0
LINE
  8
0
 62
     0
 10
219.432
 20
38.9336
 30
0.0
 11
219.432
 21
33.1336
 31
0.0
  0
LINE
  8
0
 62
     0
 10
219.432
 20
33.1336
 30
0.0
 11
218.633
 21
33.1336
 31
0.0
  0
LINE
  8
0
 62
     0
 10
218.633
 20
33.1336
 30
0.0
 11
218.633
 21
30.0343
 31
0.0
  0
LINE
  8
0
 62
     0
 10
218.633
 20
30.0343
 30
0.0
 11
219.432
 21
30.0343
 31
0.0
  0
LINE
  8
0
 62
     0
 10
219.432
 20
30.0343
 30
0.0
 11
219.432
 21
29.0339
 31
0.0
  0
LINE
  8
0
 62
     0
 10
219.432
 20
29.0339
 30
0.0
 11
233.433
 21
29.0339
 31
0.0
  0
LINE
  8
0
 62
     0
 10
233.433
 20
29.0339
 30
0.0
 11
233.433
 21
30.0343
 31
0.0
  0
LINE
  8
0
 62
     0
 10
233.433
 20
30.0343
 30
0.0
 11
234.232
 21
30.0343
 31
0.0
  0
LINE
  8
0
 62
     0
 10
234.232
 20
30.0343
 30
0.0
 11
234.232
 21
33.1336
 31
0.0
  0
LINE
  8
0
 62
     0
 10
234.232
 20
33.1336
 30
0.0
 11
233.433
 21
33.1336
 31
0.0
  0
LINE
  8
0
 62
     0
 10
233.433
 20
33.1336
 30
0.0
 11
233.433
 21
38.9336
 31
0.0
  0
LINE
  8
0
 62
     0
 10
233.433
 20
38.9336
 30
0.0
 11
234.232
 21
38.9336
 31
0.0
  0
LINE
  8
0
 62
     0
 10
234.232
 20
38.9336
 30
0.0
 11
234.232
 21
42.0342
 31
0.0
  0
LINE
  8
0
 62
     0
 10
234.232
 20
42.0342
 30
0.0
 11
233.433
 21
42.0342
 31
0.0
  0
LINE
  8
0
 62
     0
 10
233.433
 20
42.0342
 30
0.0
 11
233.433
 21
43.0347
 31
0.0
  0
LINE
  8
0
 62
     0
 10
233.433
 20
43.0347
 30
0.0
 11
219.432
 21
43.0347
 31
0.0
  0
LINE
  8
0
 62
     0
 10
238.482
 20
43.0347
 30
0.0
 11
238.482
 21
42.0342
 31
0.0
  0
LINE
  8
0
 62
     0
 10
238.482
 20
42.0342
 30
0.0
 11
237.683
 21
42.0342
 31
0.0
  0
LINE
  8
0
 62
     0
 10
237.683
 20
42.0342
 30
0.0
 11
237.683
 21
38.9336
 31
0.0
  0
LINE
  8
0
 62
     0
 10
237.683
 20
38.9336
 30
0.0
 11
238.482
 21
38.9336
 31
0.0
  0
LINE
  8
0
 62
     0
 10
238.482
 20
38.9336
 30
0.0
 11
238.482
 21
33.1336
 31
0.0
  0
LINE
  8
0
 62
     0
 10
238.482
 20
33.1336
 30
0.0
 11
237.683
 21
33.1336
 31
0.0
  0
LINE
  8
0
 62
     0
 10
237.683
 20
33.1336
 30
0.0
 11
237.683
 21
30.0343
 31
0.0
  0
LINE
  8
0
 62
     0
 10
237.683
 20
30.0343
 30
0.0
 11
238.482
 21
30.0343
 31
0.0
  0
LINE
  8
0
 62
     0
 10
238.482
 20
30.0343
 30
0.0
 11
238.482
 21
29.0339
 31
0.0
  0
LINE
  8
0
 62
     0
 10
238.482
 20
29.0339
 30
0.0
 11
252.483
 21
29.0339
 31
0.0
  0
LINE
  8
0
 62
     0
 10
252.483
 20
29.0339
 30
0.0
 11
252.483
 21
30.0343
 31
0.0
  0
LINE
  8
0
 62
     0
 10
252.483
 20
30.0343
 30
0.0
 11
253.282
 21
30.0343
 31
0.0
  0
LINE
  8
0
 62
     0
 10
253.282
 20
30.0343
 30
0.0
 11
253.282
 21
33.1336
 31
0.0
  0
LINE
  8
0
 62
     0
 10
253.282
 20
33.1336
 30
0.0
 11
252.483
 21
33.1336
 31
0.0
  0
LINE
  8
0
 62
     0
 10
252.483
 20
33.1336
 30
0.0
 11
252.483
 21
38.9336
 31
0.0
  0
LINE
  8
0
 62
     0
 10
252.483
 20
38.9336
 30
0.0
 11
253.282
 21
38.9336
 31
0.0
  0
LINE
  8
0
 62
     0
 10
253.282
 20
38.9336
 30
0.0
 11
253.282
 21
42.0342
 31
0.0
  0
LINE
  8
0
 62
     0
 10
253.282
 20
42.0342
 30
0.0
 11
252.483
 21
42.0342
 31
0.0
  0
LINE
  8
0
 62
     0
 10
252.483
 20
42.0342
 30
0.0
 11
252.483
 21
43.0347
 31
0.0
  0
LINE
  8
0
 62
     0
 10
252.483
 20
43.0347
 30
0.0
 11
238.482
 21
43.0347
 31
0.0
  0
LINE
  8
0
 62
     0
 10
324.207
 20
43.0347
 30
0.0
 11
324.207
 21
42.0342
 31
0.0
  0
LINE
  8
0
 62
     0
 10
324.207
 20
42.0342
 30
0.0
 11
323.408
 21
42.0342
 31
0.0
  0
LINE
  8
0
 62
     0
 10
323.408
 20
42.0342
 30
0.0
 11
323.408
 21
38.9336
 31
0.0
  0
LINE
  8
0
 62
     0
 10
323.408
 20
38.9336
 30
0.0
 11
324.207
 21
38.9336
 31
0.0
  0
LINE
  8
0
 62
     0
 10
324.207
 20
38.9336
 30
0.0
 11
324.207
 21
33.1336
 31
0.0
  0
LINE
  8
0
 62
     0
 10
324.207
 20
33.1336
 30
0.0
 11
323.408
 21
33.1336
 31
0.0
  0
LINE
  8
0
 62
     0
 10
323.408
 20
33.1336
 30
0.0
 11
323.408
 21
30.0343
 31
0.0
  0
LINE
  8
0
 62
     0
 10
323.408
 20
30.0343
 30
0.0
 11
324.207
 21
30.0343
 31
0.0
  0
LINE
  8
0
 62
     0
 10
324.207
 20
30.0343
 30
0.0
 11
324.207
 21
29.0339
 31
0.0
  0
LINE
  8
0
 62
     0
 10
324.207
 20
29.0339
 30
0.0
 11
338.208
 21
29.0339
 31
0.0
  0
LINE
  8
0
 62
     0
 10
338.208
 20
29.0339
 30
0.0
 11
338.208
 21
30.0343
 31
0.0
  0
LINE
  8
0
 62
     0
 10
338.208
 20
30.0343
 30
0.0
 11
339.007
 21
30.0343
 31
0.0
  0
LINE
  8
0
 62
     0
 10
339.007
 20
30.0343
 30
0.0
 11
339.007
 21
33.1336
 31
0.0
  0
LINE
  8
0
 62
     0
 10
339.007
 20
33.1336
 30
0.0
 11
338.208
 21
33.1336
 31
0.0
  0
LINE
  8
0
 62
     0
 10
338.208
 20
33.1336
 30
0.0
 11
338.208
 21
38.9336
 31
0.0
  0
LINE
  8
0
 62
     0
 10
338.208
 20
38.9336
 30
0.0
 11
339.007
 21
38.9336
 31
0.0
  0
LINE
  8
0
 62
     0
 10
339.007
 20
38.9336
 30
0.0
 11
339.007
 21
42.0342
 31
0.0
  0
LINE
  8
0
 62
     0
 10
339.007
 20
42.0342
 30
0.0
 11
338.208
 21
42.0342
 31
0.0
  0
LINE
  8
0
 62
     0
 10
338.208
 20
42.0342
 30
0.0
 11
338.208
 21
43.0347
 31
0.0
  0
LINE
  8
0
 62
     0
 10
338.208
 20
43.0347
 30
0.0
 11
324.207
 21
43.0347
 31
0.0
  0
LINE
  8
0
 62
     0
 10
283.727
 20
62.0847
 30
0.0
 11
283.727
 21
61.0842
 31
0.0
  0
LINE
  8
0
 62
     0
 10
283.727
 20
61.0842
 30
0.0
 11
282.926
 21
61.0842
 31
0.0
  0
LINE
  8
0
 62
     0
 10
282.926
 20
61.0842
 30
0.0
 11
282.926
 21
57.9836
 31
0.0
  0
LINE
  8
0
 62
     0
 10
282.926
 20
57.9836
 30
0.0
 11
283.727
 21
57.9836
 31
0.0
  0
LINE
  8
0
 62
     0
 10
283.727
 20
57.9836
 30
0.0
 11
283.727
 21
57.3842
 31
0.0
  0
LINE
  8
0
 62
     0
 10
283.727
 20
57.3842
 30
0.0
 11
282.201
 21
57.3842
 31
0.0
  0
LINE
  8
0
 62
     0
 10
282.201
 20
57.3842
 30
0.0
 11
282.201
 21
60.6143
 31
0.0
  0
LINE
  8
0
 62
     0
 10
282.201
 20
60.6143
 30
0.0
 11
280.476
 21
60.6143
 31
0.0
  0
LINE
  8
0
 62
     0
 10
280.476
 20
60.6143
 30
0.0
 11
280.476
 21
61.5336
 31
0.0
  0
LINE
  8
0
 62
     0
 10
280.476
 20
61.5336
 30
0.0
 11
277.176
 21
61.5336
 31
0.0
  0
LINE
  8
0
 62
     0
 10
277.176
 20
61.5336
 30
0.0
 11
277.176
 21
60.6143
 31
0.0
  0
LINE
  8
0
 62
     0
 10
277.176
 20
60.6143
 30
0.0
 11
275.452
 21
60.6143
 31
0.0
  0
LINE
  8
0
 62
     0
 10
275.452
 20
60.6143
 30
0.0
 11
275.452
 21
57.3842
 31
0.0
  0
LINE
  8
0
 62
     0
 10
275.452
 20
57.3842
 30
0.0
 11
274.627
 21
57.3842
 31
0.0
  0
LINE
  8
0
 62
     0
 10
274.627
 20
57.3842
 30
0.0
 11
274.627
 21
54.5842
 31
0.0
  0
LINE
  8
0
 62
     0
 10
274.627
 20
54.5842
 30
0.0
 11
275.452
 21
54.5842
 31
0.0
  0
LINE
  8
0
 62
     0
 10
275.452
 20
54.5842
 30
0.0
 11
275.452
 21
48.314
 31
0.0
  0
LINE
  8
0
 62
     0
 10
275.452
 20
48.314
 30
0.0
 11
277.176
 21
48.314
 31
0.0
  0
LINE
  8
0
 62
     0
 10
277.176
 20
48.314
 30
0.0
 11
277.176
 21
47.3343
 31
0.0
  0
LINE
  8
0
 62
     0
 10
277.176
 20
47.3343
 30
0.0
 11
280.476
 21
47.3343
 31
0.0
  0
LINE
  8
0
 62
     0
 10
280.476
 20
47.3343
 30
0.0
 11
280.476
 21
48.314
 31
0.0
  0
LINE
  8
0
 62
     0
 10
280.476
 20
48.314
 30
0.0
 11
282.201
 21
48.314
 31
0.0
  0
LINE
  8
0
 62
     0
 10
282.201
 20
48.314
 30
0.0
 11
282.201
 21
52.7844
 31
0.0
  0
LINE
  8
0
 62
     0
 10
282.201
 20
52.7844
 30
0.0
 11
283.727
 21
52.7844
 31
0.0
  0
LINE
  8
0
 62
     0
 10
283.727
 20
52.7844
 30
0.0
 11
283.727
 21
52.1836
 31
0.0
  0
LINE
  8
0
 62
     0
 10
283.727
 20
52.1836
 30
0.0
 11
282.926
 21
52.1836
 31
0.0
  0
LINE
  8
0
 62
     0
 10
282.926
 20
52.1836
 30
0.0
 11
282.926
 21
49.0844
 31
0.0
  0
LINE
  8
0
 62
     0
 10
282.926
 20
49.0844
 30
0.0
 11
283.727
 21
49.0844
 31
0.0
  0
LINE
  8
0
 62
     0
 10
283.727
 20
49.0844
 30
0.0
 11
283.727
 21
48.084
 31
0.0
  0
LINE
  8
0
 62
     0
 10
283.727
 20
48.084
 30
0.0
 11
297.726
 21
48.084
 31
0.0
  0
LINE
  8
0
 62
     0
 10
297.726
 20
48.084
 30
0.0
 11
297.726
 21
49.0844
 31
0.0
  0
LINE
  8
0
 62
     0
 10
297.726
 20
49.0844
 30
0.0
 11
298.527
 21
49.0844
 31
0.0
  0
LINE
  8
0
 62
     0
 10
298.527
 20
49.0844
 30
0.0
 11
298.527
 21
52.1836
 31
0.0
  0
LINE
  8
0
 62
     0
 10
298.527
 20
52.1836
 30
0.0
 11
297.726
 21
52.1836
 31
0.0
  0
LINE
  8
0
 62
     0
 10
297.726
 20
52.1836
 30
0.0
 11
297.726
 21
52.7844
 31
0.0
  0
LINE
  8
0
 62
     0
 10
297.726
 20
52.7844
 30
0.0
 11
299.252
 21
52.7844
 31
0.0
  0
LINE
  8
0
 62
     0
 10
299.252
 20
52.7844
 30
0.0
 11
299.252
 21
48.314
 31
0.0
  0
LINE
  8
0
 62
     0
 10
299.252
 20
48.314
 30
0.0
 11
300.976
 21
48.314
 31
0.0
  0
LINE
  8
0
 62
     0
 10
300.976
 20
48.314
 30
0.0
 11
300.976
 21
47.3343
 31
0.0
  0
LINE
  8
0
 62
     0
 10
300.976
 20
47.3343
 30
0.0
 11
304.276
 21
47.3343
 31
0.0
  0
LINE
  8
0
 62
     0
 10
304.276
 20
47.3343
 30
0.0
 11
304.276
 21
48.314
 31
0.0
  0
LINE
  8
0
 62
     0
 10
304.276
 20
48.314
 30
0.0
 11
306.002
 21
48.314
 31
0.0
  0
LINE
  8
0
 62
     0
 10
306.002
 20
48.314
 30
0.0
 11
306.002
 21
54.5842
 31
0.0
  0
LINE
  8
0
 62
     0
 10
306.002
 20
54.5842
 30
0.0
 11
306.827
 21
54.5842
 31
0.0
  0
LINE
  8
0
 62
     0
 10
306.827
 20
54.5842
 30
0.0
 11
306.827
 21
57.3842
 31
0.0
  0
LINE
  8
0
 62
     0
 10
306.827
 20
57.3842
 30
0.0
 11
306.002
 21
57.3842
 31
0.0
  0
LINE
  8
0
 62
     0
 10
306.002
 20
57.3842
 30
0.0
 11
306.002
 21
60.6143
 31
0.0
  0
LINE
  8
0
 62
     0
 10
306.002
 20
60.6143
 30
0.0
 11
304.276
 21
60.6143
 31
0.0
  0
LINE
  8
0
 62
     0
 10
304.276
 20
60.6143
 30
0.0
 11
304.276
 21
61.5336
 31
0.0
  0
LINE
  8
0
 62
     0
 10
304.276
 20
61.5336
 30
0.0
 11
300.976
 21
61.5336
 31
0.0
  0
LINE
  8
0
 62
     0
 10
300.976
 20
61.5336
 30
0.0
 11
300.976
 21
60.6143
 31
0.0
  0
LINE
  8
0
 62
     0
 10
300.976
 20
60.6143
 30
0.0
 11
299.252
 21
60.6143
 31
0.0
  0
LINE
  8
0
 62
     0
 10
299.252
 20
60.6143
 30
0.0
 11
299.252
 21
57.3842
 31
0.0
  0
LINE
  8
0
 62
     0
 10
299.252
 20
57.3842
 30
0.0
 11
297.726
 21
57.3842
 31
0.0
  0
LINE
  8
0
 62
     0
 10
297.726
 20
57.3842
 30
0.0
 11
297.726
 21
57.9836
 31
0.0
  0
LINE
  8
0
 62
     0
 10
297.726
 20
57.9836
 30
0.0
 11
298.527
 21
57.9836
 31
0.0
  0
LINE
  8
0
 62
     0
 10
298.527
 20
57.9836
 30
0.0
 11
298.527
 21
61.0842
 31
0.0
  0
LINE
  8
0
 62
     0
 10
298.527
 20
61.0842
 30
0.0
 11
297.726
 21
61.0842
 31
0.0
  0
LINE
  8
0
 62
     0
 10
297.726
 20
61.0842
 30
0.0
 11
297.726
 21
62.0847
 31
0.0
  0
LINE
  8
0
 62
     0
 10
297.726
 20
62.0847
 30
0.0
 11
283.727
 21
62.0847
 31
0.0
  0
LINE
  8
0
 62
     0
 10
5.11941
 20
62.0847
 30
0.0
 11
5.11941
 21
61.0842
 31
0.0
  0
LINE
  8
0
 62
     0
 10
5.11941
 20
61.0842
 30
0.0
 11
4.32015
 21
61.0842
 31
0.0
  0
LINE
  8
0
 62
     0
 10
4.32015
 20
61.0842
 30
0.0
 11
4.32015
 21
57.9836
 31
0.0
  0
LINE
  8
0
 62
     0
 10
4.32015
 20
57.9836
 30
0.0
 11
5.11941
 21
57.9836
 31
0.0
  0
LINE
  8
0
 62
     0
 10
5.11941
 20
57.9836
 30
0.0
 11
5.11941
 21
52.1836
 31
0.0
  0
LINE
  8
0
 62
     0
 10
5.11941
 20
52.1836
 30
0.0
 11
4.32015
 21
52.1836
 31
0.0
  0
LINE
  8
0
 62
     0
 10
4.32015
 20
52.1836
 30
0.0
 11
4.32015
 21
49.0844
 31
0.0
  0
LINE
  8
0
 62
     0
 10
4.32015
 20
49.0844
 30
0.0
 11
5.11941
 21
49.0844
 31
0.0
  0
LINE
  8
0
 62
     0
 10
5.11941
 20
49.0844
 30
0.0
 11
5.11941
 21
48.084
 31
0.0
  0
LINE
  8
0
 62
     0
 10
5.11941
 20
48.084
 30
0.0
 11
19.1203
 21
48.084
 31
0.0
  0
LINE
  8
0
 62
     0
 10
19.1203
 20
48.084
 30
0.0
 11
19.1203
 21
49.0844
 31
0.0
  0
LINE
  8
0
 62
     0
 10
19.1203
 20
49.0844
 30
0.0
 11
19.9209
 21
49.0844
 31
0.0
  0
LINE
  8
0
 62
     0
 10
19.9209
 20
49.0844
 30
0.0
 11
19.9209
 21
52.1836
 31
0.0
  0
LINE
  8
0
 62
     0
 10
19.9209
 20
52.1836
 30
0.0
 11
19.1203
 21
52.1836
 31
0.0
  0
LINE
  8
0
 62
     0
 10
19.1203
 20
52.1836
 30
0.0
 11
19.1203
 21
57.9836
 31
0.0
  0
LINE
  8
0
 62
     0
 10
19.1203
 20
57.9836
 30
0.0
 11
19.9209
 21
57.9836
 31
0.0
  0
LINE
  8
0
 62
     0
 10
19.9209
 20
57.9836
 30
0.0
 11
19.9209
 21
61.0842
 31
0.0
  0
LINE
  8
0
 62
     0
 10
19.9209
 20
61.0842
 30
0.0
 11
19.1203
 21
61.0842
 31
0.0
  0
LINE
  8
0
 62
     0
 10
19.1203
 20
61.0842
 30
0.0
 11
19.1203
 21
62.0847
 31
0.0
  0
LINE
  8
0
 62
     0
 10
19.1203
 20
62.0847
 30
0.0
 11
5.11941
 21
62.0847
 31
0.0
  0
LINE
  8
0
 62
     0
 10
36.0772
 20
62.0847
 30
0.0
 11
36.0772
 21
61.0842
 31
0.0
  0
LINE
  8
0
 62
     0
 10
36.0772
 20
61.0842
 30
0.0
 11
35.2764
 21
61.0842
 31
0.0
  0
LINE
  8
0
 62
     0
 10
35.2764
 20
61.0842
 30
0.0
 11
35.2764
 21
57.9836
 31
0.0
  0
LINE
  8
0
 62
     0
 10
35.2764
 20
57.9836
 30
0.0
 11
36.0772
 21
57.9836
 31
0.0
  0
LINE
  8
0
 62
     0
 10
36.0772
 20
57.9836
 30
0.0
 11
36.0772
 21
52.1836
 31
0.0
  0
LINE
  8
0
 62
     0
 10
36.0772
 20
52.1836
 30
0.0
 11
35.2764
 21
52.1836
 31
0.0
  0
LINE
  8
0
 62
     0
 10
35.2764
 20
52.1836
 30
0.0
 11
35.2764
 21
49.0844
 31
0.0
  0
LINE
  8
0
 62
     0
 10
35.2764
 20
49.0844
 30
0.0
 11
36.0772
 21
49.0844
 31
0.0
  0
LINE
  8
0
 62
     0
 10
36.0772
 20
49.0844
 30
0.0
 11
36.0772
 21
48.084
 31
0.0
  0
LINE
  8
0
 62
     0
 10
36.0772
 20
48.084
 30
0.0
 11
50.0765
 21
48.084
 31
0.0
  0
LINE
  8
0
 62
     0
 10
50.0765
 20
48.084
 30
0.0
 11
50.0765
 21
49.0844
 31
0.0
  0
LINE
  8
0
 62
     0
 10
50.0765
 20
49.0844
 30
0.0
 11
50.8773
 21
49.0844
 31
0.0
  0
LINE
  8
0
 62
     0
 10
50.8773
 20
49.0844
 30
0.0
 11
50.8773
 21
52.1836
 31
0.0
  0
LINE
  8
0
 62
     0
 10
50.8773
 20
52.1836
 30
0.0
 11
50.0765
 21
52.1836
 31
0.0
  0
LINE
  8
0
 62
     0
 10
50.0765
 20
52.1836
 30
0.0
 11
50.0765
 21
57.9836
 31
0.0
  0
LINE
  8
0
 62
     0
 10
50.0765
 20
57.9836
 30
0.0
 11
50.8773
 21
57.9836
 31
0.0
  0
LINE
  8
0
 62
     0
 10
50.8773
 20
57.9836
 30
0.0
 11
50.8773
 21
61.0842
 31
0.0
  0
LINE
  8
0
 62
     0
 10
50.8773
 20
61.0842
 30
0.0
 11
50.0765
 21
61.0842
 31
0.0
  0
LINE
  8
0
 62
     0
 10
50.0765
 20
61.0842
 30
0.0
 11
50.0765
 21
62.0847
 31
0.0
  0
LINE
  8
0
 62
     0
 10
50.0765
 20
62.0847
 30
0.0
 11
36.0772
 21
62.0847
 31
0.0
  0
LINE
  8
0
 62
     0
 10
62.2709
 20
62.0847
 30
0.0
 11
62.2709
 21
61.0842
 31
0.0
  0
LINE
  8
0
 62
     0
 10
62.2709
 20
61.0842
 30
0.0
 11
61.4701
 21
61.0842
 31
0.0
  0
LINE
  8
0
 62
     0
 10
61.4701
 20
61.0842
 30
0.0
 11
61.4701
 21
57.9836
 31
0.0
  0
LINE
  8
0
 62
     0
 10
61.4701
 20
57.9836
 30
0.0
 11
62.2709
 21
57.9836
 31
0.0
  0
LINE
  8
0
 62
     0
 10
62.2709
 20
57.9836
 30
0.0
 11
62.2709
 21
52.1836
 31
0.0
  0
LINE
  8
0
 62
     0
 10
62.2709
 20
52.1836
 30
0.0
 11
61.4701
 21
52.1836
 31
0.0
  0
LINE
  8
0
 62
     0
 10
61.4701
 20
52.1836
 30
0.0
 11
61.4701
 21
49.0844
 31
0.0
  0
LINE
  8
0
 62
     0
 10
61.4701
 20
49.0844
 30
0.0
 11
62.2709
 21
49.0844
 31
0.0
  0
LINE
  8
0
 62
     0
 10
62.2709
 20
49.0844
 30
0.0
 11
62.2709
 21
48.084
 31
0.0
  0
LINE
  8
0
 62
     0
 10
62.2709
 20
48.084
 30
0.0
 11
76.2702
 21
48.084
 31
0.0
  0
LINE
  8
0
 62
     0
 10
76.2702
 20
48.084
 30
0.0
 11
76.2702
 21
49.0844
 31
0.0
  0
LINE
  8
0
 62
     0
 10
76.2702
 20
49.0844
 30
0.0
 11
77.071
 21
49.0844
 31
0.0
  0
LINE
  8
0
 62
     0
 10
77.071
 20
49.0844
 30
0.0
 11
77.071
 21
52.1836
 31
0.0
  0
LINE
  8
0
 62
     0
 10
77.071
 20
52.1836
 30
0.0
 11
76.2702
 21
52.1836
 31
0.0
  0
LINE
  8
0
 62
     0
 10
76.2702
 20
52.1836
 30
0.0
 11
76.2702
 21
57.9836
 31
0.0
  0
LINE
  8
0
 62
     0
 10
76.2702
 20
57.9836
 30
0.0
 11
77.071
 21
57.9836
 31
0.0
  0
LINE
  8
0
 62
     0
 10
77.071
 20
57.9836
 30
0.0
 11
77.071
 21
61.0842
 31
0.0
  0
LINE
  8
0
 62
     0
 10
77.071
 20
61.0842
 30
0.0
 11
76.2702
 21
61.0842
 31
0.0
  0
LINE
  8
0
 62
     0
 10
76.2702
 20
61.0842
 30
0.0
 11
76.2702
 21
62.0847
 31
0.0
  0
LINE
  8
0
 62
     0
 10
76.2702
 20
62.0847
 30
0.0
 11
62.2709
 21
62.0847
 31
0.0
  0
LINE
  8
0
 62
     0
 10
81.3209
 20
62.0847
 30
0.0
 11
81.3209
 21
61.0842
 31
0.0
  0
LINE
  8
0
 62
     0
 10
81.3209
 20
61.0842
 30
0.0
 11
80.5201
 21
61.0842
 31
0.0
  0
LINE
  8
0
 62
     0
 10
80.5201
 20
61.0842
 30
0.0
 11
80.5201
 21
57.9836
 31
0.0
  0
LINE
  8
0
 62
     0
 10
80.5201
 20
57.9836
 30
0.0
 11
81.3209
 21
57.9836
 31
0.0
  0
LINE
  8
0
 62
     0
 10
81.3209
 20
57.9836
 30
0.0
 11
81.3209
 21
52.1836
 31
0.0
  0
LINE
  8
0
 62
     0
 10
81.3209
 20
52.1836
 30
0.0
 11
80.5201
 21
52.1836
 31
0.0
  0
LINE
  8
0
 62
     0
 10
80.5201
 20
52.1836
 30
0.0
 11
80.5201
 21
49.0844
 31
0.0
  0
LINE
  8
0
 62
     0
 10
80.5201
 20
49.0844
 30
0.0
 11
81.3209
 21
49.0844
 31
0.0
  0
LINE
  8
0
 62
     0
 10
81.3209
 20
49.0844
 30
0.0
 11
81.3209
 21
48.084
 31
0.0
  0
LINE
  8
0
 62
     0
 10
81.3209
 20
48.084
 30
0.0
 11
95.3202
 21
48.084
 31
0.0
  0
LINE
  8
0
 62
     0
 10
95.3202
 20
48.084
 30
0.0
 11
95.3202
 21
49.0844
 31
0.0
  0
LINE
  8
0
 62
     0
 10
95.3202
 20
49.0844
 30
0.0
 11
96.121
 21
49.0844
 31
0.0
  0
LINE
  8
0
 62
     0
 10
96.121
 20
49.0844
 30
0.0
 11
96.121
 21
52.1836
 31
0.0
  0
LINE
  8
0
 62
     0
 10
96.121
 20
52.1836
 30
0.0
 11
95.3202
 21
52.1836
 31
0.0
  0
LINE
  8
0
 62
     0
 10
95.3202
 20
52.1836
 30
0.0
 11
95.3202
 21
57.9836
 31
0.0
  0
LINE
  8
0
 62
     0
 10
95.3202
 20
57.9836
 30
0.0
 11
96.121
 21
57.9836
 31
0.0
  0
LINE
  8
0
 62
     0
 10
96.121
 20
57.9836
 30
0.0
 11
96.121
 21
61.0842
 31
0.0
  0
LINE
  8
0
 62
     0
 10
96.121
 20
61.0842
 30
0.0
 11
95.3202
 21
61.0842
 31
0.0
  0
LINE
  8
0
 62
     0
 10
95.3202
 20
61.0842
 30
0.0
 11
95.3202
 21
62.0847
 31
0.0
  0
LINE
  8
0
 62
     0
 10
95.3202
 20
62.0847
 30
0.0
 11
81.3209
 21
62.0847
 31
0.0
  0
LINE
  8
0
 62
     0
 10
100.371
 20
62.0847
 30
0.0
 11
100.371
 21
61.0842
 31
0.0
  0
LINE
  8
0
 62
     0
 10
100.371
 20
61.0842
 30
0.0
 11
99.5701
 21
61.0842
 31
0.0
  0
LINE
  8
0
 62
     0
 10
99.5701
 20
61.0842
 30
0.0
 11
99.5701
 21
57.9836
 31
0.0
  0
LINE
  8
0
 62
     0
 10
99.5701
 20
57.9836
 30
0.0
 11
100.371
 21
57.9836
 31
0.0
  0
LINE
  8
0
 62
     0
 10
100.371
 20
57.9836
 30
0.0
 11
100.371
 21
52.1836
 31
0.0
  0
LINE
  8
0
 62
     0
 10
100.371
 20
52.1836
 30
0.0
 11
99.5701
 21
52.1836
 31
0.0
  0
LINE
  8
0
 62
     0
 10
99.5701
 20
52.1836
 30
0.0
 11
99.5701
 21
49.0844
 31
0.0
  0
LINE
  8
0
 62
     0
 10
99.5701
 20
49.0844
 30
0.0
 11
100.371
 21
49.0844
 31
0.0
  0
LINE
  8
0
 62
     0
 10
100.371
 20
49.0844
 30
0.0
 11
100.371
 21
48.084
 31
0.0
  0
LINE
  8
0
 62
     0
 10
100.371
 20
48.084
 30
0.0
 11
114.37
 21
48.084
 31
0.0
  0
LINE
  8
0
 62
     0
 10
114.37
 20
48.084
 30
0.0
 11
114.37
 21
49.0844
 31
0.0
  0
LINE
  8
0
 62
     0
 10
114.37
 20
49.0844
 30
0.0
 11
115.171
 21
49.0844
 31
0.0
  0
LINE
  8
0
 62
     0
 10
115.171
 20
49.0844
 30
0.0
 11
115.171
 21
52.1836
 31
0.0
  0
LINE
  8
0
 62
     0
 10
115.171
 20
52.1836
 30
0.0
 11
114.37
 21
52.1836
 31
0.0
  0
LINE
  8
0
 62
     0
 10
114.37
 20
52.1836
 30
0.0
 11
114.37
 21
57.9836
 31
0.0
  0
LINE
  8
0
 62
     0
 10
114.37
 20
57.9836
 30
0.0
 11
115.171
 21
57.9836
 31
0.0
  0
LINE
  8
0
 62
     0
 10
115.171
 20
57.9836
 30
0.0
 11
115.171
 21
61.0842
 31
0.0
  0
LINE
  8
0
 62
     0
 10
115.171
 20
61.0842
 30
0.0
 11
114.37
 21
61.0842
 31
0.0
  0
LINE
  8
0
 62
     0
 10
114.37
 20
61.0842
 30
0.0
 11
114.37
 21
62.0847
 31
0.0
  0
LINE
  8
0
 62
     0
 10
114.37
 20
62.0847
 30
0.0
 11
100.371
 21
62.0847
 31
0.0
  0
LINE
  8
0
 62
     0
 10
119.421
 20
62.0847
 30
0.0
 11
119.421
 21
61.0842
 31
0.0
  0
LINE
  8
0
 62
     0
 10
119.421
 20
61.0842
 30
0.0
 11
118.62
 21
61.0842
 31
0.0
  0
LINE
  8
0
 62
     0
 10
118.62
 20
61.0842
 30
0.0
 11
118.62
 21
57.9836
 31
0.0
  0
LINE
  8
0
 62
     0
 10
118.62
 20
57.9836
 30
0.0
 11
119.421
 21
57.9836
 31
0.0
  0
LINE
  8
0
 62
     0
 10
119.421
 20
57.9836
 30
0.0
 11
119.421
 21
52.1836
 31
0.0
  0
LINE
  8
0
 62
     0
 10
119.421
 20
52.1836
 30
0.0
 11
118.62
 21
52.1836
 31
0.0
  0
LINE
  8
0
 62
     0
 10
118.62
 20
52.1836
 30
0.0
 11
118.62
 21
49.0844
 31
0.0
  0
LINE
  8
0
 62
     0
 10
118.62
 20
49.0844
 30
0.0
 11
119.421
 21
49.0844
 31
0.0
  0
LINE
  8
0
 62
     0
 10
119.421
 20
49.0844
 30
0.0
 11
119.421
 21
48.084
 31
0.0
  0
LINE
  8
0
 62
     0
 10
119.421
 20
48.084
 30
0.0
 11
133.42
 21
48.084
 31
0.0
  0
LINE
  8
0
 62
     0
 10
133.42
 20
48.084
 30
0.0
 11
133.42
 21
49.0844
 31
0.0
  0
LINE
  8
0
 62
     0
 10
133.42
 20
49.0844
 30
0.0
 11
134.221
 21
49.0844
 31
0.0
  0
LINE
  8
0
 62
     0
 10
134.221
 20
49.0844
 30
0.0
 11
134.221
 21
52.1836
 31
0.0
  0
LINE
  8
0
 62
     0
 10
134.221
 20
52.1836
 30
0.0
 11
133.42
 21
52.1836
 31
0.0
  0
LINE
  8
0
 62
     0
 10
133.42
 20
52.1836
 30
0.0
 11
133.42
 21
57.9836
 31
0.0
  0
LINE
  8
0
 62
     0
 10
133.42
 20
57.9836
 30
0.0
 11
134.221
 21
57.9836
 31
0.0
  0
LINE
  8
0
 62
     0
 10
134.221
 20
57.9836
 30
0.0
 11
134.221
 21
61.0842
 31
0.0
  0
LINE
  8
0
 62
     0
 10
134.221
 20
61.0842
 30
0.0
 11
133.42
 21
61.0842
 31
0.0
  0
LINE
  8
0
 62
     0
 10
133.42
 20
61.0842
 30
0.0
 11
133.42
 21
62.0847
 31
0.0
  0
LINE
  8
0
 62
     0
 10
133.42
 20
62.0847
 30
0.0
 11
119.421
 21
62.0847
 31
0.0
  0
LINE
  8
0
 62
     0
 10
138.471
 20
62.0847
 30
0.0
 11
138.471
 21
61.0842
 31
0.0
  0
LINE
  8
0
 62
     0
 10
138.471
 20
61.0842
 30
0.0
 11
137.67
 21
61.0842
 31
0.0
  0
LINE
  8
0
 62
     0
 10
137.67
 20
61.0842
 30
0.0
 11
137.67
 21
57.9836
 31
0.0
  0
LINE
  8
0
 62
     0
 10
137.67
 20
57.9836
 30
0.0
 11
138.471
 21
57.9836
 31
0.0
  0
LINE
  8
0
 62
     0
 10
138.471
 20
57.9836
 30
0.0
 11
138.471
 21
52.1836
 31
0.0
  0
LINE
  8
0
 62
     0
 10
138.471
 20
52.1836
 30
0.0
 11
137.67
 21
52.1836
 31
0.0
  0
LINE
  8
0
 62
     0
 10
137.67
 20
52.1836
 30
0.0
 11
137.67
 21
49.0844
 31
0.0
  0
LINE
  8
0
 62
     0
 10
137.67
 20
49.0844
 30
0.0
 11
138.471
 21
49.0844
 31
0.0
  0
LINE
  8
0
 62
     0
 10
138.471
 20
49.0844
 30
0.0
 11
138.471
 21
48.084
 31
0.0
  0
LINE
  8
0
 62
     0
 10
138.471
 20
48.084
 30
0.0
 11
152.47
 21
48.084
 31
0.0
  0
LINE
  8
0
 62
     0
 10
152.47
 20
48.084
 30
0.0
 11
152.47
 21
49.0844
 31
0.0
  0
LINE
  8
0
 62
     0
 10
152.47
 20
49.0844
 30
0.0
 11
153.271
 21
49.0844
 31
0.0
  0
LINE
  8
0
 62
     0
 10
153.271
 20
49.0844
 30
0.0
 11
153.271
 21
52.1836
 31
0.0
  0
LINE
  8
0
 62
     0
 10
153.271
 20
52.1836
 30
0.0
 11
152.47
 21
52.1836
 31
0.0
  0
LINE
  8
0
 62
     0
 10
152.47
 20
52.1836
 30
0.0
 11
152.47
 21
57.9836
 31
0.0
  0
LINE
  8
0
 62
     0
 10
152.47
 20
57.9836
 30
0.0
 11
153.271
 21
57.9836
 31
0.0
  0
LINE
  8
0
 62
     0
 10
153.271
 20
57.9836
 30
0.0
 11
153.271
 21
61.0842
 31
0.0
  0
LINE
  8
0
 62
     0
 10
153.271
 20
61.0842
 30
0.0
 11
152.47
 21
61.0842
 31
0.0
  0
LINE
  8
0
 62
     0
 10
152.47
 20
61.0842
 30
0.0
 11
152.47
 21
62.0847
 31
0.0
  0
LINE
  8
0
 62
     0
 10
152.47
 20
62.0847
 30
0.0
 11
138.471
 21
62.0847
 31
0.0
  0
LINE
  8
0
 62
     0
 10
157.521
 20
62.0847
 30
0.0
 11
157.521
 21
61.0842
 31
0.0
  0
LINE
  8
0
 62
     0
 10
157.521
 20
61.0842
 30
0.0
 11
156.72
 21
61.0842
 31
0.0
  0
LINE
  8
0
 62
     0
 10
156.72
 20
61.0842
 30
0.0
 11
156.72
 21
57.9836
 31
0.0
  0
LINE
  8
0
 62
     0
 10
156.72
 20
57.9836
 30
0.0
 11
157.521
 21
57.9836
 31
0.0
  0
LINE
  8
0
 62
     0
 10
157.521
 20
57.9836
 30
0.0
 11
157.521
 21
52.1836
 31
0.0
  0
LINE
  8
0
 62
     0
 10
157.521
 20
52.1836
 30
0.0
 11
156.72
 21
52.1836
 31
0.0
  0
LINE
  8
0
 62
     0
 10
156.72
 20
52.1836
 30
0.0
 11
156.72
 21
49.0844
 31
0.0
  0
LINE
  8
0
 62
     0
 10
156.72
 20
49.0844
 30
0.0
 11
157.521
 21
49.0844
 31
0.0
  0
LINE
  8
0
 62
     0
 10
157.521
 20
49.0844
 30
0.0
 11
157.521
 21
48.084
 31
0.0
  0
LINE
  8
0
 62
     0
 10
157.521
 20
48.084
 30
0.0
 11
171.52
 21
48.084
 31
0.0
  0
LINE
  8
0
 62
     0
 10
171.52
 20
48.084
 30
0.0
 11
171.52
 21
49.0844
 31
0.0
  0
LINE
  8
0
 62
     0
 10
171.52
 20
49.0844
 30
0.0
 11
172.321
 21
49.0844
 31
0.0
  0
LINE
  8
0
 62
     0
 10
172.321
 20
49.0844
 30
0.0
 11
172.321
 21
52.1836
 31
0.0
  0
LINE
  8
0
 62
     0
 10
172.321
 20
52.1836
 30
0.0
 11
171.52
 21
52.1836
 31
0.0
  0
LINE
  8
0
 62
     0
 10
171.52
 20
52.1836
 30
0.0
 11
171.52
 21
57.9836
 31
0.0
  0
LINE
  8
0
 62
     0
 10
171.52
 20
57.9836
 30
0.0
 11
172.321
 21
57.9836
 31
0.0
  0
LINE
  8
0
 62
     0
 10
172.321
 20
57.9836
 30
0.0
 11
172.321
 21
61.0842
 31
0.0
  0
LINE
  8
0
 62
     0
 10
172.321
 20
61.0842
 30
0.0
 11
171.52
 21
61.0842
 31
0.0
  0
LINE
  8
0
 62
     0
 10
171.52
 20
61.0842
 30
0.0
 11
171.52
 21
62.0847
 31
0.0
  0
LINE
  8
0
 62
     0
 10
171.52
 20
62.0847
 30
0.0
 11
157.521
 21
62.0847
 31
0.0
  0
LINE
  8
0
 62
     0
 10
176.571
 20
62.0847
 30
0.0
 11
176.571
 21
61.0842
 31
0.0
  0
LINE
  8
0
 62
     0
 10
176.571
 20
61.0842
 30
0.0
 11
175.77
 21
61.0842
 31
0.0
  0
LINE
  8
0
 62
     0
 10
175.77
 20
61.0842
 30
0.0
 11
175.77
 21
57.9836
 31
0.0
  0
LINE
  8
0
 62
     0
 10
175.77
 20
57.9836
 30
0.0
 11
176.571
 21
57.9836
 31
0.0
  0
LINE
  8
0
 62
     0
 10
176.571
 20
57.9836
 30
0.0
 11
176.571
 21
52.1836
 31
0.0
  0
LINE
  8
0
 62
     0
 10
176.571
 20
52.1836
 30
0.0
 11
175.77
 21
52.1836
 31
0.0
  0
LINE
  8
0
 62
     0
 10
175.77
 20
52.1836
 30
0.0
 11
175.77
 21
49.0844
 31
0.0
  0
LINE
  8
0
 62
     0
 10
175.77
 20
49.0844
 30
0.0
 11
176.571
 21
49.0844
 31
0.0
  0
LINE
  8
0
 62
     0
 10
176.571
 20
49.0844
 30
0.0
 11
176.571
 21
48.084
 31
0.0
  0
LINE
  8
0
 62
     0
 10
176.571
 20
48.084
 30
0.0
 11
190.57
 21
48.084
 31
0.0
  0
LINE
  8
0
 62
     0
 10
190.57
 20
48.084
 30
0.0
 11
190.57
 21
49.0844
 31
0.0
  0
LINE
  8
0
 62
     0
 10
190.57
 20
49.0844
 30
0.0
 11
191.371
 21
49.0844
 31
0.0
  0
LINE
  8
0
 62
     0
 10
191.371
 20
49.0844
 30
0.0
 11
191.371
 21
52.1836
 31
0.0
  0
LINE
  8
0
 62
     0
 10
191.371
 20
52.1836
 30
0.0
 11
190.57
 21
52.1836
 31
0.0
  0
LINE
  8
0
 62
     0
 10
190.57
 20
52.1836
 30
0.0
 11
190.57
 21
57.9836
 31
0.0
  0
LINE
  8
0
 62
     0
 10
190.57
 20
57.9836
 30
0.0
 11
191.371
 21
57.9836
 31
0.0
  0
LINE
  8
0
 62
     0
 10
191.371
 20
57.9836
 30
0.0
 11
191.371
 21
61.0842
 31
0.0
  0
LINE
  8
0
 62
     0
 10
191.371
 20
61.0842
 30
0.0
 11
190.57
 21
61.0842
 31
0.0
  0
LINE
  8
0
 62
     0
 10
190.57
 20
61.0842
 30
0.0
 11
190.57
 21
62.0847
 31
0.0
  0
LINE
  8
0
 62
     0
 10
190.57
 20
62.0847
 30
0.0
 11
176.571
 21
62.0847
 31
0.0
  0
LINE
  8
0
 62
     0
 10
195.621
 20
62.0847
 30
0.0
 11
195.621
 21
61.0842
 31
0.0
  0
LINE
  8
0
 62
     0
 10
195.621
 20
61.0842
 30
0.0
 11
194.82
 21
61.0842
 31
0.0
  0
LINE
  8
0
 62
     0
 10
194.82
 20
61.0842
 30
0.0
 11
194.82
 21
57.9836
 31
0.0
  0
LINE
  8
0
 62
     0
 10
194.82
 20
57.9836
 30
0.0
 11
195.621
 21
57.9836
 31
0.0
  0
LINE
  8
0
 62
     0
 10
195.621
 20
57.9836
 30
0.0
 11
195.621
 21
52.1836
 31
0.0
  0
LINE
  8
0
 62
     0
 10
195.621
 20
52.1836
 30
0.0
 11
194.82
 21
52.1836
 31
0.0
  0
LINE
  8
0
 62
     0
 10
194.82
 20
52.1836
 30
0.0
 11
194.82
 21
49.0844
 31
0.0
  0
LINE
  8
0
 62
     0
 10
194.82
 20
49.0844
 30
0.0
 11
195.621
 21
49.0844
 31
0.0
  0
LINE
  8
0
 62
     0
 10
195.621
 20
49.0844
 30
0.0
 11
195.621
 21
48.084
 31
0.0
  0
LINE
  8
0
 62
     0
 10
195.621
 20
48.084
 30
0.0
 11
209.62
 21
48.084
 31
0.0
  0
LINE
  8
0
 62
     0
 10
209.62
 20
48.084
 30
0.0
 11
209.62
 21
49.0844
 31
0.0
  0
LINE
  8
0
 62
     0
 10
209.62
 20
49.0844
 30
0.0
 11
210.421
 21
49.0844
 31
0.0
  0
LINE
  8
0
 62
     0
 10
210.421
 20
49.0844
 30
0.0
 11
210.421
 21
52.1836
 31
0.0
  0
LINE
  8
0
 62
     0
 10
210.421
 20
52.1836
 30
0.0
 11
209.62
 21
52.1836
 31
0.0
  0
LINE
  8
0
 62
     0
 10
209.62
 20
52.1836
 30
0.0
 11
209.62
 21
57.9836
 31
0.0
  0
LINE
  8
0
 62
     0
 10
209.62
 20
57.9836
 30
0.0
 11
210.421
 21
57.9836
 31
0.0
  0
LINE
  8
0
 62
     0
 10
210.421
 20
57.9836
 30
0.0
 11
210.421
 21
61.0842
 31
0.0
  0
LINE
  8
0
 62
     0
 10
210.421
 20
61.0842
 30
0.0
 11
209.62
 21
61.0842
 31
0.0
  0
LINE
  8
0
 62
     0
 10
209.62
 20
61.0842
 30
0.0
 11
209.62
 21
62.0847
 31
0.0
  0
LINE
  8
0
 62
     0
 10
209.62
 20
62.0847
 30
0.0
 11
195.621
 21
62.0847
 31
0.0
  0
LINE
  8
0
 62
     0
 10
214.671
 20
62.0847
 30
0.0
 11
214.671
 21
61.0842
 31
0.0
  0
LINE
  8
0
 62
     0
 10
214.671
 20
61.0842
 30
0.0
 11
213.87
 21
61.0842
 31
0.0
  0
LINE
  8
0
 62
     0
 10
213.87
 20
61.0842
 30
0.0
 11
213.87
 21
57.9836
 31
0.0
  0
LINE
  8
0
 62
     0
 10
213.87
 20
57.9836
 30
0.0
 11
214.671
 21
57.9836
 31
0.0
  0
LINE
  8
0
 62
     0
 10
214.671
 20
57.9836
 30
0.0
 11
214.671
 21
52.1836
 31
0.0
  0
LINE
  8
0
 62
     0
 10
214.671
 20
52.1836
 30
0.0
 11
213.87
 21
52.1836
 31
0.0
  0
LINE
  8
0
 62
     0
 10
213.87
 20
52.1836
 30
0.0
 11
213.87
 21
49.0844
 31
0.0
  0
LINE
  8
0
 62
     0
 10
213.87
 20
49.0844
 30
0.0
 11
214.671
 21
49.0844
 31
0.0
  0
LINE
  8
0
 62
     0
 10
214.671
 20
49.0844
 30
0.0
 11
214.671
 21
48.084
 31
0.0
  0
LINE
  8
0
 62
     0
 10
214.671
 20
48.084
 30
0.0
 11
228.67
 21
48.084
 31
0.0
  0
LINE
  8
0
 62
     0
 10
228.67
 20
48.084
 30
0.0
 11
228.67
 21
49.0844
 31
0.0
  0
LINE
  8
0
 62
     0
 10
228.67
 20
49.0844
 30
0.0
 11
229.471
 21
49.0844
 31
0.0
  0
LINE
  8
0
 62
     0
 10
229.471
 20
49.0844
 30
0.0
 11
229.471
 21
52.1836
 31
0.0
  0
LINE
  8
0
 62
     0
 10
229.471
 20
52.1836
 30
0.0
 11
228.67
 21
52.1836
 31
0.0
  0
LINE
  8
0
 62
     0
 10
228.67
 20
52.1836
 30
0.0
 11
228.67
 21
57.9836
 31
0.0
  0
LINE
  8
0
 62
     0
 10
228.67
 20
57.9836
 30
0.0
 11
229.471
 21
57.9836
 31
0.0
  0
LINE
  8
0
 62
     0
 10
229.471
 20
57.9836
 30
0.0
 11
229.471
 21
61.0842
 31
0.0
  0
LINE
  8
0
 62
     0
 10
229.471
 20
61.0842
 30
0.0
 11
228.67
 21
61.0842
 31
0.0
  0
LINE
  8
0
 62
     0
 10
228.67
 20
61.0842
 30
0.0
 11
228.67
 21
62.0847
 31
0.0
  0
LINE
  8
0
 62
     0
 10
228.67
 20
62.0847
 30
0.0
 11
214.671
 21
62.0847
 31
0.0
  0
LINE
  8
0
 62
     0
 10
233.721
 20
62.0847
 30
0.0
 11
233.721
 21
61.0842
 31
0.0
  0
LINE
  8
0
 62
     0
 10
233.721
 20
61.0842
 30
0.0
 11
232.92
 21
61.0842
 31
0.0
  0
LINE
  8
0
 62
     0
 10
232.92
 20
61.0842
 30
0.0
 11
232.92
 21
57.9836
 31
0.0
  0
LINE
  8
0
 62
     0
 10
232.92
 20
57.9836
 30
0.0
 11
233.721
 21
57.9836
 31
0.0
  0
LINE
  8
0
 62
     0
 10
233.721
 20
57.9836
 30
0.0
 11
233.721
 21
52.1836
 31
0.0
  0
LINE
  8
0
 62
     0
 10
233.721
 20
52.1836
 30
0.0
 11
232.92
 21
52.1836
 31
0.0
  0
LINE
  8
0
 62
     0
 10
232.92
 20
52.1836
 30
0.0
 11
232.92
 21
49.0844
 31
0.0
  0
LINE
  8
0
 62
     0
 10
232.92
 20
49.0844
 30
0.0
 11
233.721
 21
49.0844
 31
0.0
  0
LINE
  8
0
 62
     0
 10
233.721
 20
49.0844
 30
0.0
 11
233.721
 21
48.084
 31
0.0
  0
LINE
  8
0
 62
     0
 10
233.721
 20
48.084
 30
0.0
 11
247.72
 21
48.084
 31
0.0
  0
LINE
  8
0
 62
     0
 10
247.72
 20
48.084
 30
0.0
 11
247.72
 21
49.0844
 31
0.0
  0
LINE
  8
0
 62
     0
 10
247.72
 20
49.0844
 30
0.0
 11
248.521
 21
49.0844
 31
0.0
  0
LINE
  8
0
 62
     0
 10
248.521
 20
49.0844
 30
0.0
 11
248.521
 21
52.1836
 31
0.0
  0
LINE
  8
0
 62
     0
 10
248.521
 20
52.1836
 30
0.0
 11
247.72
 21
52.1836
 31
0.0
  0
LINE
  8
0
 62
     0
 10
247.72
 20
52.1836
 30
0.0
 11
247.72
 21
57.9836
 31
0.0
  0
LINE
  8
0
 62
     0
 10
247.72
 20
57.9836
 30
0.0
 11
248.521
 21
57.9836
 31
0.0
  0
LINE
  8
0
 62
     0
 10
248.521
 20
57.9836
 30
0.0
 11
248.521
 21
61.0842
 31
0.0
  0
LINE
  8
0
 62
     0
 10
248.521
 20
61.0842
 30
0.0
 11
247.72
 21
61.0842
 31
0.0
  0
LINE
  8
0
 62
     0
 10
247.72
 20
61.0842
 30
0.0
 11
247.72
 21
62.0847
 31
0.0
  0
LINE
  8
0
 62
     0
 10
247.72
 20
62.0847
 30
0.0
 11
233.721
 21
62.0847
 31
0.0
  0
LINE
  8
0
 62
     0
 10
252.771
 20
62.0847
 30
0.0
 11
252.771
 21
61.0842
 31
0.0
  0
LINE
  8
0
 62
     0
 10
252.771
 20
61.0842
 30
0.0
 11
251.97
 21
61.0842
 31
0.0
  0
LINE
  8
0
 62
     0
 10
251.97
 20
61.0842
 30
0.0
 11
251.97
 21
57.9836
 31
0.0
  0
LINE
  8
0
 62
     0
 10
251.97
 20
57.9836
 30
0.0
 11
252.771
 21
57.9836
 31
0.0
  0
LINE
  8
0
 62
     0
 10
252.771
 20
57.9836
 30
0.0
 11
252.771
 21
52.1836
 31
0.0
  0
LINE
  8
0
 62
     0
 10
252.771
 20
52.1836
 30
0.0
 11
251.97
 21
52.1836
 31
0.0
  0
LINE
  8
0
 62
     0
 10
251.97
 20
52.1836
 30
0.0
 11
251.97
 21
49.0844
 31
0.0
  0
LINE
  8
0
 62
     0
 10
251.97
 20
49.0844
 30
0.0
 11
252.771
 21
49.0844
 31
0.0
  0
LINE
  8
0
 62
     0
 10
252.771
 20
49.0844
 30
0.0
 11
252.771
 21
48.084
 31
0.0
  0
LINE
  8
0
 62
     0
 10
252.771
 20
48.084
 30
0.0
 11
266.77
 21
48.084
 31
0.0
  0
LINE
  8
0
 62
     0
 10
266.77
 20
48.084
 30
0.0
 11
266.77
 21
49.0844
 31
0.0
  0
LINE
  8
0
 62
     0
 10
266.77
 20
49.0844
 30
0.0
 11
267.571
 21
49.0844
 31
0.0
  0
LINE
  8
0
 62
     0
 10
267.571
 20
49.0844
 30
0.0
 11
267.571
 21
52.1836
 31
0.0
  0
LINE
  8
0
 62
     0
 10
267.571
 20
52.1836
 30
0.0
 11
266.77
 21
52.1836
 31
0.0
  0
LINE
  8
0
 62
     0
 10
266.77
 20
52.1836
 30
0.0
 11
266.77
 21
57.9836
 31
0.0
  0
LINE
  8
0
 62
     0
 10
266.77
 20
57.9836
 30
0.0
 11
267.571
 21
57.9836
 31
0.0
  0
LINE
  8
0
 62
     0
 10
267.571
 20
57.9836
 30
0.0
 11
267.571
 21
61.0842
 31
0.0
  0
LINE
  8
0
 62
     0
 10
267.571
 20
61.0842
 30
0.0
 11
266.77
 21
61.0842
 31
0.0
  0
LINE
  8
0
 62
     0
 10
266.77
 20
61.0842
 30
0.0
 11
266.77
 21
62.0847
 31
0.0
  0
LINE
  8
0
 62
     0
 10
266.77
 20
62.0847
 30
0.0
 11
252.771
 21
62.0847
 31
0.0
  0
LINE
  8
0
 62
     0
 10
324.207
 20
62.0847
 30
0.0
 11
324.207
 21
61.0842
 31
0.0
  0
LINE
  8
0
 62
     0
 10
324.207
 20
61.0842
 30
0.0
 11
323.408
 21
61.0842
 31
0.0
  0
LINE
  8
0
 62
     0
 10
323.408
 20
61.0842
 30
0.0
 11
323.408
 21
57.9836
 31
0.0
  0
LINE
  8
0
 62
     0
 10
323.408
 20
57.9836
 30
0.0
 11
324.207
 21
57.9836
 31
0.0
  0
LINE
  8
0
 62
     0
 10
324.207
 20
57.9836
 30
0.0
 11
324.207
 21
52.1836
 31
0.0
  0
LINE
  8
0
 62
     0
 10
324.207
 20
52.1836
 30
0.0
 11
323.408
 21
52.1836
 31
0.0
  0
LINE
  8
0
 62
     0
 10
323.408
 20
52.1836
 30
0.0
 11
323.408
 21
49.0844
 31
0.0
  0
LINE
  8
0
 62
     0
 10
323.408
 20
49.0844
 30
0.0
 11
324.207
 21
49.0844
 31
0.0
  0
LINE
  8
0
 62
     0
 10
324.207
 20
49.0844
 30
0.0
 11
324.207
 21
48.084
 31
0.0
  0
LINE
  8
0
 62
     0
 10
324.207
 20
48.084
 30
0.0
 11
338.208
 21
48.084
 31
0.0
  0
LINE
  8
0
 62
     0
 10
338.208
 20
48.084
 30
0.0
 11
338.208
 21
49.0844
 31
0.0
  0
LINE
  8
0
 62
     0
 10
338.208
 20
49.0844
 30
0.0
 11
339.007
 21
49.0844
 31
0.0
  0
LINE
  8
0
 62
     0
 10
339.007
 20
49.0844
 30
0.0
 11
339.007
 21
52.1836
 31
0.0
  0
LINE
  8
0
 62
     0
 10
339.007
 20
52.1836
 30
0.0
 11
338.208
 21
52.1836
 31
0.0
  0
LINE
  8
0
 62
     0
 10
338.208
 20
52.1836
 30
0.0
 11
338.208
 21
57.9836
 31
0.0
  0
LINE
  8
0
 62
     0
 10
338.208
 20
57.9836
 30
0.0
 11
339.007
 21
57.9836
 31
0.0
  0
LINE
  8
0
 62
     0
 10
339.007
 20
57.9836
 30
0.0
 11
339.007
 21
61.0842
 31
0.0
  0
LINE
  8
0
 62
     0
 10
339.007
 20
61.0842
 30
0.0
 11
338.208
 21
61.0842
 31
0.0
  0
LINE
  8
0
 62
     0
 10
338.208
 20
61.0842
 30
0.0
 11
338.208
 21
62.0847
 31
0.0
  0
LINE
  8
0
 62
     0
 10
338.208
 20
62.0847
 30
0.0
 11
324.207
 21
62.0847
 31
0.0
  0
LINE
  8
0
 62
     0
 10
5.11941
 20
81.1347
 30
0.0
 11
5.11941
 21
80.1342
 31
0.0
  0
LINE
  8
0
 62
     0
 10
5.11941
 20
80.1342
 30
0.0
 11
4.32015
 21
80.1342
 31
0.0
  0
LINE
  8
0
 62
     0
 10
4.32015
 20
80.1342
 30
0.0
 11
4.32015
 21
77.0336
 31
0.0
  0
LINE
  8
0
 62
     0
 10
4.32015
 20
77.0336
 30
0.0
 11
5.11941
 21
77.0336
 31
0.0
  0
LINE
  8
0
 62
     0
 10
5.11941
 20
77.0336
 30
0.0
 11
5.11941
 21
71.2336
 31
0.0
  0
LINE
  8
0
 62
     0
 10
5.11941
 20
71.2336
 30
0.0
 11
4.32015
 21
71.2336
 31
0.0
  0
LINE
  8
0
 62
     0
 10
4.32015
 20
71.2336
 30
0.0
 11
4.32015
 21
68.1344
 31
0.0
  0
LINE
  8
0
 62
     0
 10
4.32015
 20
68.1344
 30
0.0
 11
5.11941
 21
68.1344
 31
0.0
  0
LINE
  8
0
 62
     0
 10
5.11941
 20
68.1344
 30
0.0
 11
5.11941
 21
67.134
 31
0.0
  0
LINE
  8
0
 62
     0
 10
5.11941
 20
67.134
 30
0.0
 11
19.1203
 21
67.134
 31
0.0
  0
LINE
  8
0
 62
     0
 10
19.1203
 20
67.134
 30
0.0
 11
19.1203
 21
68.1344
 31
0.0
  0
LINE
  8
0
 62
     0
 10
19.1203
 20
68.1344
 30
0.0
 11
19.9209
 21
68.1344
 31
0.0
  0
LINE
  8
0
 62
     0
 10
19.9209
 20
68.1344
 30
0.0
 11
19.9209
 21
71.2336
 31
0.0
  0
LINE
  8
0
 62
     0
 10
19.9209
 20
71.2336
 30
0.0
 11
19.1203
 21
71.2336
 31
0.0
  0
LINE
  8
0
 62
     0
 10
19.1203
 20
71.2336
 30
0.0
 11
19.1203
 21
77.0336
 31
0.0
  0
LINE
  8
0
 62
     0
 10
19.1203
 20
77.0336
 30
0.0
 11
19.9209
 21
77.0336
 31
0.0
  0
LINE
  8
0
 62
     0
 10
19.9209
 20
77.0336
 30
0.0
 11
19.9209
 21
80.1342
 31
0.0
  0
LINE
  8
0
 62
     0
 10
19.9209
 20
80.1342
 30
0.0
 11
19.1203
 21
80.1342
 31
0.0
  0
LINE
  8
0
 62
     0
 10
19.1203
 20
80.1342
 30
0.0
 11
19.1203
 21
81.1347
 31
0.0
  0
LINE
  8
0
 62
     0
 10
19.1203
 20
81.1347
 30
0.0
 11
5.11941
 21
81.1347
 31
0.0
  0
LINE
  8
0
 62
     0
 10
33.6958
 20
81.1347
 30
0.0
 11
33.6958
 21
80.1342
 31
0.0
  0
LINE
  8
0
 62
     0
 10
33.6958
 20
80.1342
 30
0.0
 11
32.8952
 21
80.1342
 31
0.0
  0
LINE
  8
0
 62
     0
 10
32.8952
 20
80.1342
 30
0.0
 11
32.8952
 21
77.0336
 31
0.0
  0
LINE
  8
0
 62
     0
 10
32.8952
 20
77.0336
 30
0.0
 11
33.6958
 21
77.0336
 31
0.0
  0
LINE
  8
0
 62
     0
 10
33.6958
 20
77.0336
 30
0.0
 11
33.6958
 21
71.2336
 31
0.0
  0
LINE
  8
0
 62
     0
 10
33.6958
 20
71.2336
 30
0.0
 11
32.8952
 21
71.2336
 31
0.0
  0
LINE
  8
0
 62
     0
 10
32.8952
 20
71.2336
 30
0.0
 11
32.8952
 21
68.1344
 31
0.0
  0
LINE
  8
0
 62
     0
 10
32.8952
 20
68.1344
 30
0.0
 11
33.6958
 21
68.1344
 31
0.0
  0
LINE
  8
0
 62
     0
 10
33.6958
 20
68.1344
 30
0.0
 11
33.6958
 21
67.134
 31
0.0
  0
LINE
  8
0
 62
     0
 10
33.6958
 20
67.134
 30
0.0
 11
47.6952
 21
67.134
 31
0.0
  0
LINE
  8
0
 62
     0
 10
47.6952
 20
67.134
 30
0.0
 11
47.6952
 21
68.1344
 31
0.0
  0
LINE
  8
0
 62
     0
 10
47.6952
 20
68.1344
 30
0.0
 11
48.496
 21
68.1344
 31
0.0
  0
LINE
  8
0
 62
     0
 10
48.496
 20
68.1344
 30
0.0
 11
48.496
 21
71.2336
 31
0.0
  0
LINE
  8
0
 62
     0
 10
48.496
 20
71.2336
 30
0.0
 11
47.6952
 21
71.2336
 31
0.0
  0
LINE
  8
0
 62
     0
 10
47.6952
 20
71.2336
 30
0.0
 11
47.6952
 21
77.0336
 31
0.0
  0
LINE
  8
0
 62
     0
 10
47.6952
 20
77.0336
 30
0.0
 11
48.496
 21
77.0336
 31
0.0
  0
LINE
  8
0
 62
     0
 10
48.496
 20
77.0336
 30
0.0
 11
48.496
 21
80.1342
 31
0.0
  0
LINE
  8
0
 62
     0
 10
48.496
 20
80.1342
 30
0.0
 11
47.6952
 21
80.1342
 31
0.0
  0
LINE
  8
0
 62
     0
 10
47.6952
 20
80.1342
 30
0.0
 11
47.6952
 21
81.1347
 31
0.0
  0
LINE
  8
0
 62
     0
 10
47.6952
 20
81.1347
 30
0.0
 11
33.6958
 21
81.1347
 31
0.0
  0
LINE
  8
0
 62
     0
 10
57.507
 20
81.1347
 30
0.0
 11
57.507
 21
80.1342
 31
0.0
  0
LINE
  8
0
 62
     0
 10
57.507
 20
80.1342
 30
0.0
 11
56.7076
 21
80.1342
 31
0.0
  0
LINE
  8
0
 62
     0
 10
56.7076
 20
80.1342
 30
0.0
 11
56.7076
 21
77.0336
 31
0.0
  0
LINE
  8
0
 62
     0
 10
56.7076
 20
77.0336
 30
0.0
 11
57.507
 21
77.0336
 31
0.0
  0
LINE
  8
0
 62
     0
 10
57.507
 20
77.0336
 30
0.0
 11
57.507
 21
71.2336
 31
0.0
  0
LINE
  8
0
 62
     0
 10
57.507
 20
71.2336
 30
0.0
 11
56.7076
 21
71.2336
 31
0.0
  0
LINE
  8
0
 62
     0
 10
56.7076
 20
71.2336
 30
0.0
 11
56.7076
 21
68.1344
 31
0.0
  0
LINE
  8
0
 62
     0
 10
56.7076
 20
68.1344
 30
0.0
 11
57.507
 21
68.1344
 31
0.0
  0
LINE
  8
0
 62
     0
 10
57.507
 20
68.1344
 30
0.0
 11
57.507
 21
67.134
 31
0.0
  0
LINE
  8
0
 62
     0
 10
57.507
 20
67.134
 30
0.0
 11
71.5077
 21
67.134
 31
0.0
  0
LINE
  8
0
 62
     0
 10
71.5077
 20
67.134
 30
0.0
 11
71.5077
 21
68.1344
 31
0.0
  0
LINE
  8
0
 62
     0
 10
71.5077
 20
68.1344
 30
0.0
 11
72.3071
 21
68.1344
 31
0.0
  0
LINE
  8
0
 62
     0
 10
72.3071
 20
68.1344
 30
0.0
 11
72.3071
 21
71.2336
 31
0.0
  0
LINE
  8
0
 62
     0
 10
72.3071
 20
71.2336
 30
0.0
 11
71.5077
 21
71.2336
 31
0.0
  0
LINE
  8
0
 62
     0
 10
71.5077
 20
71.2336
 30
0.0
 11
71.5077
 21
77.0336
 31
0.0
  0
LINE
  8
0
 62
     0
 10
71.5077
 20
77.0336
 30
0.0
 11
72.3071
 21
77.0336
 31
0.0
  0
LINE
  8
0
 62
     0
 10
72.3071
 20
77.0336
 30
0.0
 11
72.3071
 21
80.1342
 31
0.0
  0
LINE
  8
0
 62
     0
 10
72.3071
 20
80.1342
 30
0.0
 11
71.5077
 21
80.1342
 31
0.0
  0
LINE
  8
0
 62
     0
 10
71.5077
 20
80.1342
 30
0.0
 11
71.5077
 21
81.1347
 31
0.0
  0
LINE
  8
0
 62
     0
 10
71.5077
 20
81.1347
 30
0.0
 11
57.507
 21
81.1347
 31
0.0
  0
LINE
  8
0
 62
     0
 10
76.557
 20
81.1347
 30
0.0
 11
76.557
 21
80.1342
 31
0.0
  0
LINE
  8
0
 62
     0
 10
76.557
 20
80.1342
 30
0.0
 11
75.7576
 21
80.1342
 31
0.0
  0
LINE
  8
0
 62
     0
 10
75.7576
 20
80.1342
 30
0.0
 11
75.7576
 21
77.0336
 31
0.0
  0
LINE
  8
0
 62
     0
 10
75.7576
 20
77.0336
 30
0.0
 11
76.557
 21
77.0336
 31
0.0
  0
LINE
  8
0
 62
     0
 10
76.557
 20
77.0336
 30
0.0
 11
76.557
 21
71.2336
 31
0.0
  0
LINE
  8
0
 62
     0
 10
76.557
 20
71.2336
 30
0.0
 11
75.7576
 21
71.2336
 31
0.0
  0
LINE
  8
0
 62
     0
 10
75.7576
 20
71.2336
 30
0.0
 11
75.7576
 21
68.1344
 31
0.0
  0
LINE
  8
0
 62
     0
 10
75.7576
 20
68.1344
 30
0.0
 11
76.557
 21
68.1344
 31
0.0
  0
LINE
  8
0
 62
     0
 10
76.557
 20
68.1344
 30
0.0
 11
76.557
 21
67.134
 31
0.0
  0
LINE
  8
0
 62
     0
 10
76.557
 20
67.134
 30
0.0
 11
90.5577
 21
67.134
 31
0.0
  0
LINE
  8
0
 62
     0
 10
90.5577
 20
67.134
 30
0.0
 11
90.5577
 21
68.1344
 31
0.0
  0
LINE
  8
0
 62
     0
 10
90.5577
 20
68.1344
 30
0.0
 11
91.3571
 21
68.1344
 31
0.0
  0
LINE
  8
0
 62
     0
 10
91.3571
 20
68.1344
 30
0.0
 11
91.3571
 21
71.2336
 31
0.0
  0
LINE
  8
0
 62
     0
 10
91.3571
 20
71.2336
 30
0.0
 11
90.5577
 21
71.2336
 31
0.0
  0
LINE
  8
0
 62
     0
 10
90.5577
 20
71.2336
 30
0.0
 11
90.5577
 21
77.0336
 31
0.0
  0
LINE
  8
0
 62
     0
 10
90.5577
 20
77.0336
 30
0.0
 11
91.3571
 21
77.0336
 31
0.0
  0
LINE
  8
0
 62
     0
 10
91.3571
 20
77.0336
 30
0.0
 11
91.3571
 21
80.1342
 31
0.0
  0
LINE
  8
0
 62
     0
 10
91.3571
 20
80.1342
 30
0.0
 11
90.5577
 21
80.1342
 31
0.0
  0
LINE
  8
0
 62
     0
 10
90.5577
 20
80.1342
 30
0.0
 11
90.5577
 21
81.1347
 31
0.0
  0
LINE
  8
0
 62
     0
 10
90.5577
 20
81.1347
 30
0.0
 11
76.557
 21
81.1347
 31
0.0
  0
LINE
  8
0
 62
     0
 10
95.607
 20
81.1347
 30
0.0
 11
95.607
 21
80.1342
 31
0.0
  0
LINE
  8
0
 62
     0
 10
95.607
 20
80.1342
 30
0.0
 11
94.8076
 21
80.1342
 31
0.0
  0
LINE
  8
0
 62
     0
 10
94.8076
 20
80.1342
 30
0.0
 11
94.8076
 21
77.0336
 31
0.0
  0
LINE
  8
0
 62
     0
 10
94.8076
 20
77.0336
 30
0.0
 11
95.607
 21
77.0336
 31
0.0
  0
LINE
  8
0
 62
     0
 10
95.607
 20
77.0336
 30
0.0
 11
95.607
 21
71.2336
 31
0.0
  0
LINE
  8
0
 62
     0
 10
95.607
 20
71.2336
 30
0.0
 11
94.8076
 21
71.2336
 31
0.0
  0
LINE
  8
0
 62
     0
 10
94.8076
 20
71.2336
 30
0.0
 11
94.8076
 21
68.1344
 31
0.0
  0
LINE
  8
0
 62
     0
 10
94.8076
 20
68.1344
 30
0.0
 11
95.607
 21
68.1344
 31
0.0
  0
LINE
  8
0
 62
     0
 10
95.607
 20
68.1344
 30
0.0
 11
95.607
 21
67.134
 31
0.0
  0
LINE
  8
0
 62
     0
 10
95.607
 20
67.134
 30
0.0
 11
109.608
 21
67.134
 31
0.0
  0
LINE
  8
0
 62
     0
 10
109.608
 20
67.134
 30
0.0
 11
109.608
 21
68.1344
 31
0.0
  0
LINE
  8
0
 62
     0
 10
109.608
 20
68.1344
 30
0.0
 11
110.407
 21
68.1344
 31
0.0
  0
LINE
  8
0
 62
     0
 10
110.407
 20
68.1344
 30
0.0
 11
110.407
 21
71.2336
 31
0.0
  0
LINE
  8
0
 62
     0
 10
110.407
 20
71.2336
 30
0.0
 11
109.608
 21
71.2336
 31
0.0
  0
LINE
  8
0
 62
     0
 10
109.608
 20
71.2336
 30
0.0
 11
109.608
 21
77.0336
 31
0.0
  0
LINE
  8
0
 62
     0
 10
109.608
 20
77.0336
 30
0.0
 11
110.407
 21
77.0336
 31
0.0
  0
LINE
  8
0
 62
     0
 10
110.407
 20
77.0336
 30
0.0
 11
110.407
 21
80.1342
 31
0.0
  0
LINE
  8
0
 62
     0
 10
110.407
 20
80.1342
 30
0.0
 11
109.608
 21
80.1342
 31
0.0
  0
LINE
  8
0
 62
     0
 10
109.608
 20
80.1342
 30
0.0
 11
109.608
 21
81.1347
 31
0.0
  0
LINE
  8
0
 62
     0
 10
109.608
 20
81.1347
 30
0.0
 11
95.607
 21
81.1347
 31
0.0
  0
LINE
  8
0
 62
     0
 10
114.657
 20
81.1347
 30
0.0
 11
114.657
 21
80.1342
 31
0.0
  0
LINE
  8
0
 62
     0
 10
114.657
 20
80.1342
 30
0.0
 11
113.858
 21
80.1342
 31
0.0
  0
LINE
  8
0
 62
     0
 10
113.858
 20
80.1342
 30
0.0
 11
113.858
 21
77.0336
 31
0.0
  0
LINE
  8
0
 62
     0
 10
113.858
 20
77.0336
 30
0.0
 11
114.657
 21
77.0336
 31
0.0
  0
LINE
  8
0
 62
     0
 10
114.657
 20
77.0336
 30
0.0
 11
114.657
 21
71.2336
 31
0.0
  0
LINE
  8
0
 62
     0
 10
114.657
 20
71.2336
 30
0.0
 11
113.858
 21
71.2336
 31
0.0
  0
LINE
  8
0
 62
     0
 10
113.858
 20
71.2336
 30
0.0
 11
113.858
 21
68.1344
 31
0.0
  0
LINE
  8
0
 62
     0
 10
113.858
 20
68.1344
 30
0.0
 11
114.657
 21
68.1344
 31
0.0
  0
LINE
  8
0
 62
     0
 10
114.657
 20
68.1344
 30
0.0
 11
114.657
 21
67.134
 31
0.0
  0
LINE
  8
0
 62
     0
 10
114.657
 20
67.134
 30
0.0
 11
128.658
 21
67.134
 31
0.0
  0
LINE
  8
0
 62
     0
 10
128.658
 20
67.134
 30
0.0
 11
128.658
 21
68.1344
 31
0.0
  0
LINE
  8
0
 62
     0
 10
128.658
 20
68.1344
 30
0.0
 11
129.457
 21
68.1344
 31
0.0
  0
LINE
  8
0
 62
     0
 10
129.457
 20
68.1344
 30
0.0
 11
129.457
 21
71.2336
 31
0.0
  0
LINE
  8
0
 62
     0
 10
129.457
 20
71.2336
 30
0.0
 11
128.658
 21
71.2336
 31
0.0
  0
LINE
  8
0
 62
     0
 10
128.658
 20
71.2336
 30
0.0
 11
128.658
 21
77.0336
 31
0.0
  0
LINE
  8
0
 62
     0
 10
128.658
 20
77.0336
 30
0.0
 11
129.457
 21
77.0336
 31
0.0
  0
LINE
  8
0
 62
     0
 10
129.457
 20
77.0336
 30
0.0
 11
129.457
 21
80.1342
 31
0.0
  0
LINE
  8
0
 62
     0
 10
129.457
 20
80.1342
 30
0.0
 11
128.658
 21
80.1342
 31
0.0
  0
LINE
  8
0
 62
     0
 10
128.658
 20
80.1342
 30
0.0
 11
128.658
 21
81.1347
 31
0.0
  0
LINE
  8
0
 62
     0
 10
128.658
 20
81.1347
 30
0.0
 11
114.657
 21
81.1347
 31
0.0
  0
LINE
  8
0
 62
     0
 10
133.707
 20
81.1347
 30
0.0
 11
133.707
 21
80.1342
 31
0.0
  0
LINE
  8
0
 62
     0
 10
133.707
 20
80.1342
 30
0.0
 11
132.908
 21
80.1342
 31
0.0
  0
LINE
  8
0
 62
     0
 10
132.908
 20
80.1342
 30
0.0
 11
132.908
 21
77.0336
 31
0.0
  0
LINE
  8
0
 62
     0
 10
132.908
 20
77.0336
 30
0.0
 11
133.707
 21
77.0336
 31
0.0
  0
LINE
  8
0
 62
     0
 10
133.707
 20
77.0336
 30
0.0
 11
133.707
 21
71.2336
 31
0.0
  0
LINE
  8
0
 62
     0
 10
133.707
 20
71.2336
 30
0.0
 11
132.908
 21
71.2336
 31
0.0
  0
LINE
  8
0
 62
     0
 10
132.908
 20
71.2336
 30
0.0
 11
132.908
 21
68.1344
 31
0.0
  0
LINE
  8
0
 62
     0
 10
132.908
 20
68.1344
 30
0.0
 11
133.707
 21
68.1344
 31
0.0
  0
LINE
  8
0
 62
     0
 10
133.707
 20
68.1344
 30
0.0
 11
133.707
 21
67.134
 31
0.0
  0
LINE
  8
0
 62
     0
 10
133.707
 20
67.134
 30
0.0
 11
147.708
 21
67.134
 31
0.0
  0
LINE
  8
0
 62
     0
 10
147.708
 20
67.134
 30
0.0
 11
147.708
 21
68.1344
 31
0.0
  0
LINE
  8
0
 62
     0
 10
147.708
 20
68.1344
 30
0.0
 11
148.507
 21
68.1344
 31
0.0
  0
LINE
  8
0
 62
     0
 10
148.507
 20
68.1344
 30
0.0
 11
148.507
 21
71.2336
 31
0.0
  0
LINE
  8
0
 62
     0
 10
148.507
 20
71.2336
 30
0.0
 11
147.708
 21
71.2336
 31
0.0
  0
LINE
  8
0
 62
     0
 10
147.708
 20
71.2336
 30
0.0
 11
147.708
 21
77.0336
 31
0.0
  0
LINE
  8
0
 62
     0
 10
147.708
 20
77.0336
 30
0.0
 11
148.507
 21
77.0336
 31
0.0
  0
LINE
  8
0
 62
     0
 10
148.507
 20
77.0336
 30
0.0
 11
148.507
 21
80.1342
 31
0.0
  0
LINE
  8
0
 62
     0
 10
148.507
 20
80.1342
 30
0.0
 11
147.708
 21
80.1342
 31
0.0
  0
LINE
  8
0
 62
     0
 10
147.708
 20
80.1342
 30
0.0
 11
147.708
 21
81.1347
 31
0.0
  0
LINE
  8
0
 62
     0
 10
147.708
 20
81.1347
 30
0.0
 11
133.707
 21
81.1347
 31
0.0
  0
LINE
  8
0
 62
     0
 10
152.757
 20
81.1347
 30
0.0
 11
152.757
 21
80.1342
 31
0.0
  0
LINE
  8
0
 62
     0
 10
152.757
 20
80.1342
 30
0.0
 11
151.958
 21
80.1342
 31
0.0
  0
LINE
  8
0
 62
     0
 10
151.958
 20
80.1342
 30
0.0
 11
151.958
 21
77.0336
 31
0.0
  0
LINE
  8
0
 62
     0
 10
151.958
 20
77.0336
 30
0.0
 11
152.757
 21
77.0336
 31
0.0
  0
LINE
  8
0
 62
     0
 10
152.757
 20
77.0336
 30
0.0
 11
152.757
 21
71.2336
 31
0.0
  0
LINE
  8
0
 62
     0
 10
152.757
 20
71.2336
 30
0.0
 11
151.958
 21
71.2336
 31
0.0
  0
LINE
  8
0
 62
     0
 10
151.958
 20
71.2336
 30
0.0
 11
151.958
 21
68.1344
 31
0.0
  0
LINE
  8
0
 62
     0
 10
151.958
 20
68.1344
 30
0.0
 11
152.757
 21
68.1344
 31
0.0
  0
LINE
  8
0
 62
     0
 10
152.757
 20
68.1344
 30
0.0
 11
152.757
 21
67.134
 31
0.0
  0
LINE
  8
0
 62
     0
 10
152.757
 20
67.134
 30
0.0
 11
166.758
 21
67.134
 31
0.0
  0
LINE
  8
0
 62
     0
 10
166.758
 20
67.134
 30
0.0
 11
166.758
 21
68.1344
 31
0.0
  0
LINE
  8
0
 62
     0
 10
166.758
 20
68.1344
 30
0.0
 11
167.557
 21
68.1344
 31
0.0
  0
LINE
  8
0
 62
     0
 10
167.557
 20
68.1344
 30
0.0
 11
167.557
 21
71.2336
 31
0.0
  0
LINE
  8
0
 62
     0
 10
167.557
 20
71.2336
 30
0.0
 11
166.758
 21
71.2336
 31
0.0
  0
LINE
  8
0
 62
     0
 10
166.758
 20
71.2336
 30
0.0
 11
166.758
 21
77.0336
 31
0.0
  0
LINE
  8
0
 62
     0
 10
166.758
 20
77.0336
 30
0.0
 11
167.557
 21
77.0336
 31
0.0
  0
LINE
  8
0
 62
     0
 10
167.557
 20
77.0336
 30
0.0
 11
167.557
 21
80.1342
 31
0.0
  0
LINE
  8
0
 62
     0
 10
167.557
 20
80.1342
 30
0.0
 11
166.758
 21
80.1342
 31
0.0
  0
LINE
  8
0
 62
     0
 10
166.758
 20
80.1342
 30
0.0
 11
166.758
 21
81.1347
 31
0.0
  0
LINE
  8
0
 62
     0
 10
166.758
 20
81.1347
 30
0.0
 11
152.757
 21
81.1347
 31
0.0
  0
LINE
  8
0
 62
     0
 10
171.807
 20
81.1347
 30
0.0
 11
171.807
 21
80.1342
 31
0.0
  0
LINE
  8
0
 62
     0
 10
171.807
 20
80.1342
 30
0.0
 11
171.008
 21
80.1342
 31
0.0
  0
LINE
  8
0
 62
     0
 10
171.008
 20
80.1342
 30
0.0
 11
171.008
 21
77.0336
 31
0.0
  0
LINE
  8
0
 62
     0
 10
171.008
 20
77.0336
 30
0.0
 11
171.807
 21
77.0336
 31
0.0
  0
LINE
  8
0
 62
     0
 10
171.807
 20
77.0336
 30
0.0
 11
171.807
 21
71.2336
 31
0.0
  0
LINE
  8
0
 62
     0
 10
171.807
 20
71.2336
 30
0.0
 11
171.008
 21
71.2336
 31
0.0
  0
LINE
  8
0
 62
     0
 10
171.008
 20
71.2336
 30
0.0
 11
171.008
 21
68.1344
 31
0.0
  0
LINE
  8
0
 62
     0
 10
171.008
 20
68.1344
 30
0.0
 11
171.807
 21
68.1344
 31
0.0
  0
LINE
  8
0
 62
     0
 10
171.807
 20
68.1344
 30
0.0
 11
171.807
 21
67.134
 31
0.0
  0
LINE
  8
0
 62
     0
 10
171.807
 20
67.134
 30
0.0
 11
185.808
 21
67.134
 31
0.0
  0
LINE
  8
0
 62
     0
 10
185.808
 20
67.134
 30
0.0
 11
185.808
 21
68.1344
 31
0.0
  0
LINE
  8
0
 62
     0
 10
185.808
 20
68.1344
 30
0.0
 11
186.607
 21
68.1344
 31
0.0
  0
LINE
  8
0
 62
     0
 10
186.607
 20
68.1344
 30
0.0
 11
186.607
 21
71.2336
 31
0.0
  0
LINE
  8
0
 62
     0
 10
186.607
 20
71.2336
 30
0.0
 11
185.808
 21
71.2336
 31
0.0
  0
LINE
  8
0
 62
     0
 10
185.808
 20
71.2336
 30
0.0
 11
185.808
 21
77.0336
 31
0.0
  0
LINE
  8
0
 62
     0
 10
185.808
 20
77.0336
 30
0.0
 11
186.607
 21
77.0336
 31
0.0
  0
LINE
  8
0
 62
     0
 10
186.607
 20
77.0336
 30
0.0
 11
186.607
 21
80.1342
 31
0.0
  0
LINE
  8
0
 62
     0
 10
186.607
 20
80.1342
 30
0.0
 11
185.808
 21
80.1342
 31
0.0
  0
LINE
  8
0
 62
     0
 10
185.808
 20
80.1342
 30
0.0
 11
185.808
 21
81.1347
 31
0.0
  0
LINE
  8
0
 62
     0
 10
185.808
 20
81.1347
 30
0.0
 11
171.807
 21
81.1347
 31
0.0
  0
LINE
  8
0
 62
     0
 10
190.857
 20
81.1347
 30
0.0
 11
190.857
 21
80.1342
 31
0.0
  0
LINE
  8
0
 62
     0
 10
190.857
 20
80.1342
 30
0.0
 11
190.058
 21
80.1342
 31
0.0
  0
LINE
  8
0
 62
     0
 10
190.058
 20
80.1342
 30
0.0
 11
190.058
 21
77.0336
 31
0.0
  0
LINE
  8
0
 62
     0
 10
190.058
 20
77.0336
 30
0.0
 11
190.857
 21
77.0336
 31
0.0
  0
LINE
  8
0
 62
     0
 10
190.857
 20
77.0336
 30
0.0
 11
190.857
 21
71.2336
 31
0.0
  0
LINE
  8
0
 62
     0
 10
190.857
 20
71.2336
 30
0.0
 11
190.058
 21
71.2336
 31
0.0
  0
LINE
  8
0
 62
     0
 10
190.058
 20
71.2336
 30
0.0
 11
190.058
 21
68.1344
 31
0.0
  0
LINE
  8
0
 62
     0
 10
190.058
 20
68.1344
 30
0.0
 11
190.857
 21
68.1344
 31
0.0
  0
LINE
  8
0
 62
     0
 10
190.857
 20
68.1344
 30
0.0
 11
190.857
 21
67.134
 31
0.0
  0
LINE
  8
0
 62
     0
 10
190.857
 20
67.134
 30
0.0
 11
204.858
 21
67.134
 31
0.0
  0
LINE
  8
0
 62
     0
 10
204.858
 20
67.134
 30
0.0
 11
204.858
 21
68.1344
 31
0.0
  0
LINE
  8
0
 62
     0
 10
204.858
 20
68.1344
 30
0.0
 11
205.657
 21
68.1344
 31
0.0
  0
LINE
  8
0
 62
     0
 10
205.657
 20
68.1344
 30
0.0
 11
205.657
 21
71.2336
 31
0.0
  0
LINE
  8
0
 62
     0
 10
205.657
 20
71.2336
 30
0.0
 11
204.858
 21
71.2336
 31
0.0
  0
LINE
  8
0
 62
     0
 10
204.858
 20
71.2336
 30
0.0
 11
204.858
 21
77.0336
 31
0.0
  0
LINE
  8
0
 62
     0
 10
204.858
 20
77.0336
 30
0.0
 11
205.657
 21
77.0336
 31
0.0
  0
LINE
  8
0
 62
     0
 10
205.657
 20
77.0336
 30
0.0
 11
205.657
 21
80.1342
 31
0.0
  0
LINE
  8
0
 62
     0
 10
205.657
 20
80.1342
 30
0.0
 11
204.858
 21
80.1342
 31
0.0
  0
LINE
  8
0
 62
     0
 10
204.858
 20
80.1342
 30
0.0
 11
204.858
 21
81.1347
 31
0.0
  0
LINE
  8
0
 62
     0
 10
204.858
 20
81.1347
 30
0.0
 11
190.857
 21
81.1347
 31
0.0
  0
LINE
  8
0
 62
     0
 10
209.907
 20
81.1347
 30
0.0
 11
209.907
 21
80.1342
 31
0.0
  0
LINE
  8
0
 62
     0
 10
209.907
 20
80.1342
 30
0.0
 11
209.108
 21
80.1342
 31
0.0
  0
LINE
  8
0
 62
     0
 10
209.108
 20
80.1342
 30
0.0
 11
209.108
 21
77.0336
 31
0.0
  0
LINE
  8
0
 62
     0
 10
209.108
 20
77.0336
 30
0.0
 11
209.907
 21
77.0336
 31
0.0
  0
LINE
  8
0
 62
     0
 10
209.907
 20
77.0336
 30
0.0
 11
209.907
 21
71.2336
 31
0.0
  0
LINE
  8
0
 62
     0
 10
209.907
 20
71.2336
 30
0.0
 11
209.108
 21
71.2336
 31
0.0
  0
LINE
  8
0
 62
     0
 10
209.108
 20
71.2336
 30
0.0
 11
209.108
 21
68.1344
 31
0.0
  0
LINE
  8
0
 62
     0
 10
209.108
 20
68.1344
 30
0.0
 11
209.907
 21
68.1344
 31
0.0
  0
LINE
  8
0
 62
     0
 10
209.907
 20
68.1344
 30
0.0
 11
209.907
 21
67.134
 31
0.0
  0
LINE
  8
0
 62
     0
 10
209.907
 20
67.134
 30
0.0
 11
223.908
 21
67.134
 31
0.0
  0
LINE
  8
0
 62
     0
 10
223.908
 20
67.134
 30
0.0
 11
223.908
 21
68.1344
 31
0.0
  0
LINE
  8
0
 62
     0
 10
223.908
 20
68.1344
 30
0.0
 11
224.707
 21
68.1344
 31
0.0
  0
LINE
  8
0
 62
     0
 10
224.707
 20
68.1344
 30
0.0
 11
224.707
 21
71.2336
 31
0.0
  0
LINE
  8
0
 62
     0
 10
224.707
 20
71.2336
 30
0.0
 11
223.908
 21
71.2336
 31
0.0
  0
LINE
  8
0
 62
     0
 10
223.908
 20
71.2336
 30
0.0
 11
223.908
 21
77.0336
 31
0.0
  0
LINE
  8
0
 62
     0
 10
223.908
 20
77.0336
 30
0.0
 11
224.707
 21
77.0336
 31
0.0
  0
LINE
  8
0
 62
     0
 10
224.707
 20
77.0336
 30
0.0
 11
224.707
 21
80.1342
 31
0.0
  0
LINE
  8
0
 62
     0
 10
224.707
 20
80.1342
 30
0.0
 11
223.908
 21
80.1342
 31
0.0
  0
LINE
  8
0
 62
     0
 10
223.908
 20
80.1342
 30
0.0
 11
223.908
 21
81.1347
 31
0.0
  0
LINE
  8
0
 62
     0
 10
223.908
 20
81.1347
 30
0.0
 11
209.907
 21
81.1347
 31
0.0
  0
LINE
  8
0
 62
     0
 10
228.957
 20
81.1347
 30
0.0
 11
228.957
 21
80.1342
 31
0.0
  0
LINE
  8
0
 62
     0
 10
228.957
 20
80.1342
 30
0.0
 11
228.158
 21
80.1342
 31
0.0
  0
LINE
  8
0
 62
     0
 10
228.158
 20
80.1342
 30
0.0
 11
228.158
 21
77.0336
 31
0.0
  0
LINE
  8
0
 62
     0
 10
228.158
 20
77.0336
 30
0.0
 11
228.957
 21
77.0336
 31
0.0
  0
LINE
  8
0
 62
     0
 10
228.957
 20
77.0336
 30
0.0
 11
228.957
 21
71.2336
 31
0.0
  0
LINE
  8
0
 62
     0
 10
228.957
 20
71.2336
 30
0.0
 11
228.158
 21
71.2336
 31
0.0
  0
LINE
  8
0
 62
     0
 10
228.158
 20
71.2336
 30
0.0
 11
228.158
 21
68.1344
 31
0.0
  0
LINE
  8
0
 62
     0
 10
228.158
 20
68.1344
 30
0.0
 11
228.957
 21
68.1344
 31
0.0
  0
LINE
  8
0
 62
     0
 10
228.957
 20
68.1344
 30
0.0
 11
228.957
 21
67.134
 31
0.0
  0
LINE
  8
0
 62
     0
 10
228.957
 20
67.134
 30
0.0
 11
242.958
 21
67.134
 31
0.0
  0
LINE
  8
0
 62
     0
 10
242.958
 20
67.134
 30
0.0
 11
242.958
 21
68.1344
 31
0.0
  0
LINE
  8
0
 62
     0
 10
242.958
 20
68.1344
 30
0.0
 11
243.757
 21
68.1344
 31
0.0
  0
LINE
  8
0
 62
     0
 10
243.757
 20
68.1344
 30
0.0
 11
243.757
 21
71.2336
 31
0.0
  0
LINE
  8
0
 62
     0
 10
243.757
 20
71.2336
 30
0.0
 11
242.958
 21
71.2336
 31
0.0
  0
LINE
  8
0
 62
     0
 10
242.958
 20
71.2336
 30
0.0
 11
242.958
 21
77.0336
 31
0.0
  0
LINE
  8
0
 62
     0
 10
242.958
 20
77.0336
 30
0.0
 11
243.757
 21
77.0336
 31
0.0
  0
LINE
  8
0
 62
     0
 10
243.757
 20
77.0336
 30
0.0
 11
243.757
 21
80.1342
 31
0.0
  0
LINE
  8
0
 62
     0
 10
243.757
 20
80.1342
 30
0.0
 11
242.958
 21
80.1342
 31
0.0
  0
LINE
  8
0
 62
     0
 10
242.958
 20
80.1342
 30
0.0
 11
242.958
 21
81.1347
 31
0.0
  0
LINE
  8
0
 62
     0
 10
242.958
 20
81.1347
 30
0.0
 11
228.957
 21
81.1347
 31
0.0
  0
LINE
  8
0
 62
     0
 10
248.007
 20
81.1347
 30
0.0
 11
248.007
 21
80.1342
 31
0.0
  0
LINE
  8
0
 62
     0
 10
248.007
 20
80.1342
 30
0.0
 11
247.208
 21
80.1342
 31
0.0
  0
LINE
  8
0
 62
     0
 10
247.208
 20
80.1342
 30
0.0
 11
247.208
 21
77.0336
 31
0.0
  0
LINE
  8
0
 62
     0
 10
247.208
 20
77.0336
 30
0.0
 11
248.007
 21
77.0336
 31
0.0
  0
LINE
  8
0
 62
     0
 10
248.007
 20
77.0336
 30
0.0
 11
248.007
 21
71.2336
 31
0.0
  0
LINE
  8
0
 62
     0
 10
248.007
 20
71.2336
 30
0.0
 11
247.208
 21
71.2336
 31
0.0
  0
LINE
  8
0
 62
     0
 10
247.208
 20
71.2336
 30
0.0
 11
247.208
 21
68.1344
 31
0.0
  0
LINE
  8
0
 62
     0
 10
247.208
 20
68.1344
 30
0.0
 11
248.007
 21
68.1344
 31
0.0
  0
LINE
  8
0
 62
     0
 10
248.007
 20
68.1344
 30
0.0
 11
248.007
 21
67.134
 31
0.0
  0
LINE
  8
0
 62
     0
 10
248.007
 20
67.134
 30
0.0
 11
262.008
 21
67.134
 31
0.0
  0
LINE
  8
0
 62
     0
 10
262.008
 20
67.134
 30
0.0
 11
262.008
 21
68.1344
 31
0.0
  0
LINE
  8
0
 62
     0
 10
262.008
 20
68.1344
 30
0.0
 11
262.807
 21
68.1344
 31
0.0
  0
LINE
  8
0
 62
     0
 10
262.807
 20
68.1344
 30
0.0
 11
262.807
 21
71.2336
 31
0.0
  0
LINE
  8
0
 62
     0
 10
262.807
 20
71.2336
 30
0.0
 11
262.008
 21
71.2336
 31
0.0
  0
LINE
  8
0
 62
     0
 10
262.008
 20
71.2336
 30
0.0
 11
262.008
 21
77.0336
 31
0.0
  0
LINE
  8
0
 62
     0
 10
262.008
 20
77.0336
 30
0.0
 11
262.807
 21
77.0336
 31
0.0
  0
LINE
  8
0
 62
     0
 10
262.807
 20
77.0336
 30
0.0
 11
262.807
 21
80.1342
 31
0.0
  0
LINE
  8
0
 62
     0
 10
262.807
 20
80.1342
 30
0.0
 11
262.008
 21
80.1342
 31
0.0
  0
LINE
  8
0
 62
     0
 10
262.008
 20
80.1342
 30
0.0
 11
262.008
 21
81.1347
 31
0.0
  0
LINE
  8
0
 62
     0
 10
262.008
 20
81.1347
 30
0.0
 11
248.007
 21
81.1347
 31
0.0
  0
LINE
  8
0
 62
     0
 10
267.057
 20
81.1347
 30
0.0
 11
267.057
 21
80.1342
 31
0.0
  0
LINE
  8
0
 62
     0
 10
267.057
 20
80.1342
 30
0.0
 11
266.258
 21
80.1342
 31
0.0
  0
LINE
  8
0
 62
     0
 10
266.258
 20
80.1342
 30
0.0
 11
266.258
 21
77.0336
 31
0.0
  0
LINE
  8
0
 62
     0
 10
266.258
 20
77.0336
 30
0.0
 11
267.057
 21
77.0336
 31
0.0
  0
LINE
  8
0
 62
     0
 10
267.057
 20
77.0336
 30
0.0
 11
267.057
 21
71.2336
 31
0.0
  0
LINE
  8
0
 62
     0
 10
267.057
 20
71.2336
 30
0.0
 11
266.258
 21
71.2336
 31
0.0
  0
LINE
  8
0
 62
     0
 10
266.258
 20
71.2336
 30
0.0
 11
266.258
 21
68.1344
 31
0.0
  0
LINE
  8
0
 62
     0
 10
266.258
 20
68.1344
 30
0.0
 11
267.057
 21
68.1344
 31
0.0
  0
LINE
  8
0
 62
     0
 10
267.057
 20
68.1344
 30
0.0
 11
267.057
 21
67.134
 31
0.0
  0
LINE
  8
0
 62
     0
 10
267.057
 20
67.134
 30
0.0
 11
281.058
 21
67.134
 31
0.0
  0
LINE
  8
0
 62
     0
 10
281.058
 20
67.134
 30
0.0
 11
281.058
 21
68.1344
 31
0.0
  0
LINE
  8
0
 62
     0
 10
281.058
 20
68.1344
 30
0.0
 11
281.857
 21
68.1344
 31
0.0
  0
LINE
  8
0
 62
     0
 10
281.857
 20
68.1344
 30
0.0
 11
281.857
 21
71.2336
 31
0.0
  0
LINE
  8
0
 62
     0
 10
281.857
 20
71.2336
 30
0.0
 11
281.058
 21
71.2336
 31
0.0
  0
LINE
  8
0
 62
     0
 10
281.058
 20
71.2336
 30
0.0
 11
281.058
 21
77.0336
 31
0.0
  0
LINE
  8
0
 62
     0
 10
281.058
 20
77.0336
 30
0.0
 11
281.857
 21
77.0336
 31
0.0
  0
LINE
  8
0
 62
     0
 10
281.857
 20
77.0336
 30
0.0
 11
281.857
 21
80.1342
 31
0.0
  0
LINE
  8
0
 62
     0
 10
281.857
 20
80.1342
 30
0.0
 11
281.058
 21
80.1342
 31
0.0
  0
LINE
  8
0
 62
     0
 10
281.058
 20
80.1342
 30
0.0
 11
281.058
 21
81.1347
 31
0.0
  0
LINE
  8
0
 62
     0
 10
281.058
 20
81.1347
 30
0.0
 11
267.057
 21
81.1347
 31
0.0
  0
LINE
  8
0
 62
     0
 10
290.871
 20
81.1347
 30
0.0
 11
290.871
 21
80.1342
 31
0.0
  0
LINE
  8
0
 62
     0
 10
290.871
 20
80.1342
 30
0.0
 11
290.07
 21
80.1342
 31
0.0
  0
LINE
  8
0
 62
     0
 10
290.07
 20
80.1342
 30
0.0
 11
290.07
 21
77.0336
 31
0.0
  0
LINE
  8
0
 62
     0
 10
290.07
 20
77.0336
 30
0.0
 11
290.871
 21
77.0336
 31
0.0
  0
LINE
  8
0
 62
     0
 10
290.871
 20
77.0336
 30
0.0
 11
290.871
 21
71.2336
 31
0.0
  0
LINE
  8
0
 62
     0
 10
290.871
 20
71.2336
 30
0.0
 11
290.07
 21
71.2336
 31
0.0
  0
LINE
  8
0
 62
     0
 10
290.07
 20
71.2336
 30
0.0
 11
290.07
 21
68.1344
 31
0.0
  0
LINE
  8
0
 62
     0
 10
290.07
 20
68.1344
 30
0.0
 11
290.871
 21
68.1344
 31
0.0
  0
LINE
  8
0
 62
     0
 10
290.871
 20
68.1344
 30
0.0
 11
290.871
 21
67.134
 31
0.0
  0
LINE
  8
0
 62
     0
 10
290.871
 20
67.134
 30
0.0
 11
304.87
 21
67.134
 31
0.0
  0
LINE
  8
0
 62
     0
 10
304.87
 20
67.134
 30
0.0
 11
304.87
 21
68.1344
 31
0.0
  0
LINE
  8
0
 62
     0
 10
304.87
 20
68.1344
 30
0.0
 11
305.671
 21
68.1344
 31
0.0
  0
LINE
  8
0
 62
     0
 10
305.671
 20
68.1344
 30
0.0
 11
305.671
 21
71.2336
 31
0.0
  0
LINE
  8
0
 62
     0
 10
305.671
 20
71.2336
 30
0.0
 11
304.87
 21
71.2336
 31
0.0
  0
LINE
  8
0
 62
     0
 10
304.87
 20
71.2336
 30
0.0
 11
304.87
 21
77.0336
 31
0.0
  0
LINE
  8
0
 62
     0
 10
304.87
 20
77.0336
 30
0.0
 11
305.671
 21
77.0336
 31
0.0
  0
LINE
  8
0
 62
     0
 10
305.671
 20
77.0336
 30
0.0
 11
305.671
 21
80.1342
 31
0.0
  0
LINE
  8
0
 62
     0
 10
305.671
 20
80.1342
 30
0.0
 11
304.87
 21
80.1342
 31
0.0
  0
LINE
  8
0
 62
     0
 10
304.87
 20
80.1342
 30
0.0
 11
304.87
 21
81.1347
 31
0.0
  0
LINE
  8
0
 62
     0
 10
304.87
 20
81.1347
 30
0.0
 11
290.871
 21
81.1347
 31
0.0
  0
LINE
  8
0
 62
     0
 10
324.207
 20
81.1347
 30
0.0
 11
324.207
 21
80.1342
 31
0.0
  0
LINE
  8
0
 62
     0
 10
324.207
 20
80.1342
 30
0.0
 11
323.408
 21
80.1342
 31
0.0
  0
LINE
  8
0
 62
     0
 10
323.408
 20
80.1342
 30
0.0
 11
323.408
 21
77.0336
 31
0.0
  0
LINE
  8
0
 62
     0
 10
323.408
 20
77.0336
 30
0.0
 11
324.207
 21
77.0336
 31
0.0
  0
LINE
  8
0
 62
     0
 10
324.207
 20
77.0336
 30
0.0
 11
324.207
 21
71.2336
 31
0.0
  0
LINE
  8
0
 62
     0
 10
324.207
 20
71.2336
 30
0.0
 11
323.408
 21
71.2336
 31
0.0
  0
LINE
  8
0
 62
     0
 10
323.408
 20
71.2336
 30
0.0
 11
323.408
 21
68.1344
 31
0.0
  0
LINE
  8
0
 62
     0
 10
323.408
 20
68.1344
 30
0.0
 11
324.207
 21
68.1344
 31
0.0
  0
LINE
  8
0
 62
     0
 10
324.207
 20
68.1344
 30
0.0
 11
324.207
 21
67.134
 31
0.0
  0
LINE
  8
0
 62
     0
 10
324.207
 20
67.134
 30
0.0
 11
338.208
 21
67.134
 31
0.0
  0
LINE
  8
0
 62
     0
 10
338.208
 20
67.134
 30
0.0
 11
338.208
 21
68.1344
 31
0.0
  0
LINE
  8
0
 62
     0
 10
338.208
 20
68.1344
 30
0.0
 11
339.007
 21
68.1344
 31
0.0
  0
LINE
  8
0
 62
     0
 10
339.007
 20
68.1344
 30
0.0
 11
339.007
 21
71.2336
 31
0.0
  0
LINE
  8
0
 62
     0
 10
339.007
 20
71.2336
 30
0.0
 11
338.208
 21
71.2336
 31
0.0
  0
LINE
  8
0
 62
     0
 10
338.208
 20
71.2336
 30
0.0
 11
338.208
 21
77.0336
 31
0.0
  0
LINE
  8
0
 62
     0
 10
338.208
 20
77.0336
 30
0.0
 11
339.007
 21
77.0336
 31
0.0
  0
LINE
  8
0
 62
     0
 10
339.007
 20
77.0336
 30
0.0
 11
339.007
 21
80.1342
 31
0.0
  0
LINE
  8
0
 62
     0
 10
339.007
 20
80.1342
 30
0.0
 11
338.208
 21
80.1342
 31
0.0
  0
LINE
  8
0
 62
     0
 10
338.208
 20
80.1342
 30
0.0
 11
338.208
 21
81.1347
 31
0.0
  0
LINE
  8
0
 62
     0
 10
338.208
 20
81.1347
 30
0.0
 11
324.207
 21
81.1347
 31
0.0
  0
LINE
  8
0
 62
     0
 10
286.107
 20
100.185
 30
0.0
 11
286.107
 21
99.1842
 31
0.0
  0
LINE
  8
0
 62
     0
 10
286.107
 20
99.1842
 30
0.0
 11
285.308
 21
99.1842
 31
0.0
  0
LINE
  8
0
 62
     0
 10
285.308
 20
99.1842
 30
0.0
 11
285.308
 21
96.0836
 31
0.0
  0
LINE
  8
0
 62
     0
 10
285.308
 20
96.0836
 30
0.0
 11
286.107
 21
96.0836
 31
0.0
  0
LINE
  8
0
 62
     0
 10
286.107
 20
96.0836
 30
0.0
 11
286.107
 21
95.4842
 31
0.0
  0
LINE
  8
0
 62
     0
 10
286.107
 20
95.4842
 30
0.0
 11
284.583
 21
95.4842
 31
0.0
  0
LINE
  8
0
 62
     0
 10
284.583
 20
95.4842
 30
0.0
 11
284.583
 21
98.7143
 31
0.0
  0
LINE
  8
0
 62
     0
 10
284.583
 20
98.7143
 30
0.0
 11
282.858
 21
98.7143
 31
0.0
  0
LINE
  8
0
 62
     0
 10
282.858
 20
98.7143
 30
0.0
 11
282.858
 21
99.6336
 31
0.0
  0
LINE
  8
0
 62
     0
 10
282.858
 20
99.6336
 30
0.0
 11
279.557
 21
99.6336
 31
0.0
  0
LINE
  8
0
 62
     0
 10
279.557
 20
99.6336
 30
0.0
 11
279.557
 21
98.7143
 31
0.0
  0
LINE
  8
0
 62
     0
 10
279.557
 20
98.7143
 30
0.0
 11
277.833
 21
98.7143
 31
0.0
  0
LINE
  8
0
 62
     0
 10
277.833
 20
98.7143
 30
0.0
 11
277.833
 21
95.4842
 31
0.0
  0
LINE
  8
0
 62
     0
 10
277.833
 20
95.4842
 30
0.0
 11
277.008
 21
95.4842
 31
0.0
  0
LINE
  8
0
 62
     0
 10
277.008
 20
95.4842
 30
0.0
 11
277.008
 21
92.6842
 31
0.0
  0
LINE
  8
0
 62
     0
 10
277.008
 20
92.6842
 30
0.0
 11
277.833
 21
92.6842
 31
0.0
  0
LINE
  8
0
 62
     0
 10
277.833
 20
92.6842
 30
0.0
 11
277.833
 21
86.414
 31
0.0
  0
LINE
  8
0
 62
     0
 10
277.833
 20
86.414
 30
0.0
 11
279.557
 21
86.414
 31
0.0
  0
LINE
  8
0
 62
     0
 10
279.557
 20
86.414
 30
0.0
 11
279.557
 21
85.4343
 31
0.0
  0
LINE
  8
0
 62
     0
 10
279.557
 20
85.4343
 30
0.0
 11
282.858
 21
85.4343
 31
0.0
  0
LINE
  8
0
 62
     0
 10
282.858
 20
85.4343
 30
0.0
 11
282.858
 21
86.414
 31
0.0
  0
LINE
  8
0
 62
     0
 10
282.858
 20
86.414
 30
0.0
 11
284.583
 21
86.414
 31
0.0
  0
LINE
  8
0
 62
     0
 10
284.583
 20
86.414
 30
0.0
 11
284.583
 21
90.8844
 31
0.0
  0
LINE
  8
0
 62
     0
 10
284.583
 20
90.8844
 30
0.0
 11
286.107
 21
90.8844
 31
0.0
  0
LINE
  8
0
 62
     0
 10
286.107
 20
90.8844
 30
0.0
 11
286.107
 21
90.2836
 31
0.0
  0
LINE
  8
0
 62
     0
 10
286.107
 20
90.2836
 30
0.0
 11
285.308
 21
90.2836
 31
0.0
  0
LINE
  8
0
 62
     0
 10
285.308
 20
90.2836
 30
0.0
 11
285.308
 21
87.1844
 31
0.0
  0
LINE
  8
0
 62
     0
 10
285.308
 20
87.1844
 30
0.0
 11
286.107
 21
87.1844
 31
0.0
  0
LINE
  8
0
 62
     0
 10
286.107
 20
87.1844
 30
0.0
 11
286.107
 21
86.184
 31
0.0
  0
LINE
  8
0
 62
     0
 10
286.107
 20
86.184
 30
0.0
 11
300.108
 21
86.184
 31
0.0
  0
LINE
  8
0
 62
     0
 10
300.108
 20
86.184
 30
0.0
 11
300.108
 21
87.1844
 31
0.0
  0
LINE
  8
0
 62
     0
 10
300.108
 20
87.1844
 30
0.0
 11
300.907
 21
87.1844
 31
0.0
  0
LINE
  8
0
 62
     0
 10
300.907
 20
87.1844
 30
0.0
 11
300.907
 21
90.2836
 31
0.0
  0
LINE
  8
0
 62
     0
 10
300.907
 20
90.2836
 30
0.0
 11
300.108
 21
90.2836
 31
0.0
  0
LINE
  8
0
 62
     0
 10
300.108
 20
90.2836
 30
0.0
 11
300.108
 21
90.8844
 31
0.0
  0
LINE
  8
0
 62
     0
 10
300.108
 20
90.8844
 30
0.0
 11
301.632
 21
90.8844
 31
0.0
  0
LINE
  8
0
 62
     0
 10
301.632
 20
90.8844
 30
0.0
 11
301.632
 21
86.414
 31
0.0
  0
LINE
  8
0
 62
     0
 10
301.632
 20
86.414
 30
0.0
 11
303.357
 21
86.414
 31
0.0
  0
LINE
  8
0
 62
     0
 10
303.357
 20
86.414
 30
0.0
 11
303.357
 21
85.4343
 31
0.0
  0
LINE
  8
0
 62
     0
 10
303.357
 20
85.4343
 30
0.0
 11
306.658
 21
85.4343
 31
0.0
  0
LINE
  8
0
 62
     0
 10
306.658
 20
85.4343
 30
0.0
 11
306.658
 21
86.414
 31
0.0
  0
LINE
  8
0
 62
     0
 10
306.658
 20
86.414
 30
0.0
 11
308.383
 21
86.414
 31
0.0
  0
LINE
  8
0
 62
     0
 10
308.383
 20
86.414
 30
0.0
 11
308.383
 21
92.6842
 31
0.0
  0
LINE
  8
0
 62
     0
 10
308.383
 20
92.6842
 30
0.0
 11
309.207
 21
92.6842
 31
0.0
  0
LINE
  8
0
 62
     0
 10
309.207
 20
92.6842
 30
0.0
 11
309.207
 21
95.4842
 31
0.0
  0
LINE
  8
0
 62
     0
 10
309.207
 20
95.4842
 30
0.0
 11
308.383
 21
95.4842
 31
0.0
  0
LINE
  8
0
 62
     0
 10
308.383
 20
95.4842
 30
0.0
 11
308.383
 21
98.7143
 31
0.0
  0
LINE
  8
0
 62
     0
 10
308.383
 20
98.7143
 30
0.0
 11
306.658
 21
98.7143
 31
0.0
  0
LINE
  8
0
 62
     0
 10
306.658
 20
98.7143
 30
0.0
 11
306.658
 21
99.6336
 31
0.0
  0
LINE
  8
0
 62
     0
 10
306.658
 20
99.6336
 30
0.0
 11
303.357
 21
99.6336
 31
0.0
  0
LINE
  8
0
 62
     0
 10
303.357
 20
99.6336
 30
0.0
 11
303.357
 21
98.7143
 31
0.0
  0
LINE
  8
0
 62
     0
 10
303.357
 20
98.7143
 30
0.0
 11
301.632
 21
98.7143
 31
0.0
  0
LINE
  8
0
 62
     0
 10
301.632
 20
98.7143
 30
0.0
 11
301.632
 21
95.4842
 31
0.0
  0
LINE
  8
0
 62
     0
 10
301.632
 20
95.4842
 30
0.0
 11
300.108
 21
95.4842
 31
0.0
  0
LINE
  8
0
 62
     0
 10
300.108
 20
95.4842
 30
0.0
 11
300.108
 21
96.0836
 31
0.0
  0
LINE
  8
0
 62
     0
 10
300.108
 20
96.0836
 30
0.0
 11
300.907
 21
96.0836
 31
0.0
  0
LINE
  8
0
 62
     0
 10
300.907
 20
96.0836
 30
0.0
 11
300.907
 21
99.1842
 31
0.0
  0
LINE
  8
0
 62
     0
 10
300.907
 20
99.1842
 30
0.0
 11
300.108
 21
99.1842
 31
0.0
  0
LINE
  8
0
 62
     0
 10
300.108
 20
99.1842
 30
0.0
 11
300.108
 21
100.185
 31
0.0
  0
LINE
  8
0
 62
     0
 10
300.108
 20
100.185
 30
0.0
 11
286.107
 21
100.185
 31
0.0
  0
LINE
  8
0
 62
     0
 10
5.11941
 20
100.185
 30
0.0
 11
5.11941
 21
99.1842
 31
0.0
  0
LINE
  8
0
 62
     0
 10
5.11941
 20
99.1842
 30
0.0
 11
4.32015
 21
99.1842
 31
0.0
  0
LINE
  8
0
 62
     0
 10
4.32015
 20
99.1842
 30
0.0
 11
4.32015
 21
96.0836
 31
0.0
  0
LINE
  8
0
 62
     0
 10
4.32015
 20
96.0836
 30
0.0
 11
5.11941
 21
96.0836
 31
0.0
  0
LINE
  8
0
 62
     0
 10
5.11941
 20
96.0836
 30
0.0
 11
5.11941
 21
90.2836
 31
0.0
  0
LINE
  8
0
 62
     0
 10
5.11941
 20
90.2836
 30
0.0
 11
4.32015
 21
90.2836
 31
0.0
  0
LINE
  8
0
 62
     0
 10
4.32015
 20
90.2836
 30
0.0
 11
4.32015
 21
87.1844
 31
0.0
  0
LINE
  8
0
 62
     0
 10
4.32015
 20
87.1844
 30
0.0
 11
5.11941
 21
87.1844
 31
0.0
  0
LINE
  8
0
 62
     0
 10
5.11941
 20
87.1844
 30
0.0
 11
5.11941
 21
86.184
 31
0.0
  0
LINE
  8
0
 62
     0
 10
5.11941
 20
86.184
 30
0.0
 11
19.1203
 21
86.184
 31
0.0
  0
LINE
  8
0
 62
     0
 10
19.1203
 20
86.184
 30
0.0
 11
19.1203
 21
87.1844
 31
0.0
  0
LINE
  8
0
 62
     0
 10
19.1203
 20
87.1844
 30
0.0
 11
19.9209
 21
87.1844
 31
0.0
  0
LINE
  8
0
 62
     0
 10
19.9209
 20
87.1844
 30
0.0
 11
19.9209
 21
90.2836
 31
0.0
  0
LINE
  8
0
 62
     0
 10
19.9209
 20
90.2836
 30
0.0
 11
19.1203
 21
90.2836
 31
0.0
  0
LINE
  8
0
 62
     0
 10
19.1203
 20
90.2836
 30
0.0
 11
19.1203
 21
96.0836
 31
0.0
  0
LINE
  8
0
 62
     0
 10
19.1203
 20
96.0836
 30
0.0
 11
19.9209
 21
96.0836
 31
0.0
  0
LINE
  8
0
 62
     0
 10
19.9209
 20
96.0836
 30
0.0
 11
19.9209
 21
99.1842
 31
0.0
  0
LINE
  8
0
 62
     0
 10
19.9209
 20
99.1842
 30
0.0
 11
19.1203
 21
99.1842
 31
0.0
  0
LINE
  8
0
 62
     0
 10
19.1203
 20
99.1842
 30
0.0
 11
19.1203
 21
100.185
 31
0.0
  0
LINE
  8
0
 62
     0
 10
19.1203
 20
100.185
 30
0.0
 11
5.11941
 21
100.185
 31
0.0
  0
LINE
  8
0
 62
     0
 10
28.9319
 20
100.185
 30
0.0
 11
28.9319
 21
99.1842
 31
0.0
  0
LINE
  8
0
 62
     0
 10
28.9319
 20
99.1842
 30
0.0
 11
28.1327
 21
99.1842
 31
0.0
  0
LINE
  8
0
 62
     0
 10
28.1327
 20
99.1842
 30
0.0
 11
28.1327
 21
96.0836
 31
0.0
  0
LINE
  8
0
 62
     0
 10
28.1327
 20
96.0836
 30
0.0
 11
28.9319
 21
96.0836
 31
0.0
  0
LINE
  8
0
 62
     0
 10
28.9319
 20
96.0836
 30
0.0
 11
28.9319
 21
90.2836
 31
0.0
  0
LINE
  8
0
 62
     0
 10
28.9319
 20
90.2836
 30
0.0
 11
28.1327
 21
90.2836
 31
0.0
  0
LINE
  8
0
 62
     0
 10
28.1327
 20
90.2836
 30
0.0
 11
28.1327
 21
87.1844
 31
0.0
  0
LINE
  8
0
 62
     0
 10
28.1327
 20
87.1844
 30
0.0
 11
28.9319
 21
87.1844
 31
0.0
  0
LINE
  8
0
 62
     0
 10
28.9319
 20
87.1844
 30
0.0
 11
28.9319
 21
86.184
 31
0.0
  0
LINE
  8
0
 62
     0
 10
28.9319
 20
86.184
 30
0.0
 11
42.9327
 21
86.184
 31
0.0
  0
LINE
  8
0
 62
     0
 10
42.9327
 20
86.184
 30
0.0
 11
42.9327
 21
87.1844
 31
0.0
  0
LINE
  8
0
 62
     0
 10
42.9327
 20
87.1844
 30
0.0
 11
43.7321
 21
87.1844
 31
0.0
  0
LINE
  8
0
 62
     0
 10
43.7321
 20
87.1844
 30
0.0
 11
43.7321
 21
90.2836
 31
0.0
  0
LINE
  8
0
 62
     0
 10
43.7321
 20
90.2836
 30
0.0
 11
42.9327
 21
90.2836
 31
0.0
  0
LINE
  8
0
 62
     0
 10
42.9327
 20
90.2836
 30
0.0
 11
42.9327
 21
96.0836
 31
0.0
  0
LINE
  8
0
 62
     0
 10
42.9327
 20
96.0836
 30
0.0
 11
43.7321
 21
96.0836
 31
0.0
  0
LINE
  8
0
 62
     0
 10
43.7321
 20
96.0836
 30
0.0
 11
43.7321
 21
99.1842
 31
0.0
  0
LINE
  8
0
 62
     0
 10
43.7321
 20
99.1842
 30
0.0
 11
42.9327
 21
99.1842
 31
0.0
  0
LINE
  8
0
 62
     0
 10
42.9327
 20
99.1842
 30
0.0
 11
42.9327
 21
100.185
 31
0.0
  0
LINE
  8
0
 62
     0
 10
42.9327
 20
100.185
 30
0.0
 11
28.9319
 21
100.185
 31
0.0
  0
LINE
  8
0
 62
     0
 10
47.982
 20
100.185
 30
0.0
 11
47.982
 21
99.1842
 31
0.0
  0
LINE
  8
0
 62
     0
 10
47.982
 20
99.1842
 30
0.0
 11
47.1826
 21
99.1842
 31
0.0
  0
LINE
  8
0
 62
     0
 10
47.1826
 20
99.1842
 30
0.0
 11
47.1826
 21
96.0836
 31
0.0
  0
LINE
  8
0
 62
     0
 10
47.1826
 20
96.0836
 30
0.0
 11
47.982
 21
96.0836
 31
0.0
  0
LINE
  8
0
 62
     0
 10
47.982
 20
96.0836
 30
0.0
 11
47.982
 21
90.2836
 31
0.0
  0
LINE
  8
0
 62
     0
 10
47.982
 20
90.2836
 30
0.0
 11
47.1826
 21
90.2836
 31
0.0
  0
LINE
  8
0
 62
     0
 10
47.1826
 20
90.2836
 30
0.0
 11
47.1826
 21
87.1844
 31
0.0
  0
LINE
  8
0
 62
     0
 10
47.1826
 20
87.1844
 30
0.0
 11
47.982
 21
87.1844
 31
0.0
  0
LINE
  8
0
 62
     0
 10
47.982
 20
87.1844
 30
0.0
 11
47.982
 21
86.184
 31
0.0
  0
LINE
  8
0
 62
     0
 10
47.982
 20
86.184
 30
0.0
 11
61.9827
 21
86.184
 31
0.0
  0
LINE
  8
0
 62
     0
 10
61.9827
 20
86.184
 30
0.0
 11
61.9827
 21
87.1844
 31
0.0
  0
LINE
  8
0
 62
     0
 10
61.9827
 20
87.1844
 30
0.0
 11
62.7821
 21
87.1844
 31
0.0
  0
LINE
  8
0
 62
     0
 10
62.7821
 20
87.1844
 30
0.0
 11
62.7821
 21
90.2836
 31
0.0
  0
LINE
  8
0
 62
     0
 10
62.7821
 20
90.2836
 30
0.0
 11
61.9827
 21
90.2836
 31
0.0
  0
LINE
  8
0
 62
     0
 10
61.9827
 20
90.2836
 30
0.0
 11
61.9827
 21
96.0836
 31
0.0
  0
LINE
  8
0
 62
     0
 10
61.9827
 20
96.0836
 30
0.0
 11
62.7821
 21
96.0836
 31
0.0
  0
LINE
  8
0
 62
     0
 10
62.7821
 20
96.0836
 30
0.0
 11
62.7821
 21
99.1842
 31
0.0
  0
LINE
  8
0
 62
     0
 10
62.7821
 20
99.1842
 30
0.0
 11
61.9827
 21
99.1842
 31
0.0
  0
LINE
  8
0
 62
     0
 10
61.9827
 20
99.1842
 30
0.0
 11
61.9827
 21
100.185
 31
0.0
  0
LINE
  8
0
 62
     0
 10
61.9827
 20
100.185
 30
0.0
 11
47.982
 21
100.185
 31
0.0
  0
LINE
  8
0
 62
     0
 10
67.032
 20
100.185
 30
0.0
 11
67.032
 21
99.1842
 31
0.0
  0
LINE
  8
0
 62
     0
 10
67.032
 20
99.1842
 30
0.0
 11
66.2326
 21
99.1842
 31
0.0
  0
LINE
  8
0
 62
     0
 10
66.2326
 20
99.1842
 30
0.0
 11
66.2326
 21
96.0836
 31
0.0
  0
LINE
  8
0
 62
     0
 10
66.2326
 20
96.0836
 30
0.0
 11
67.032
 21
96.0836
 31
0.0
  0
LINE
  8
0
 62
     0
 10
67.032
 20
96.0836
 30
0.0
 11
67.032
 21
90.2836
 31
0.0
  0
LINE
  8
0
 62
     0
 10
67.032
 20
90.2836
 30
0.0
 11
66.2326
 21
90.2836
 31
0.0
  0
LINE
  8
0
 62
     0
 10
66.2326
 20
90.2836
 30
0.0
 11
66.2326
 21
87.1844
 31
0.0
  0
LINE
  8
0
 62
     0
 10
66.2326
 20
87.1844
 30
0.0
 11
67.032
 21
87.1844
 31
0.0
  0
LINE
  8
0
 62
     0
 10
67.032
 20
87.1844
 30
0.0
 11
67.032
 21
86.184
 31
0.0
  0
LINE
  8
0
 62
     0
 10
67.032
 20
86.184
 30
0.0
 11
81.0327
 21
86.184
 31
0.0
  0
LINE
  8
0
 62
     0
 10
81.0327
 20
86.184
 30
0.0
 11
81.0327
 21
87.1844
 31
0.0
  0
LINE
  8
0
 62
     0
 10
81.0327
 20
87.1844
 30
0.0
 11
81.8321
 21
87.1844
 31
0.0
  0
LINE
  8
0
 62
     0
 10
81.8321
 20
87.1844
 30
0.0
 11
81.8321
 21
90.2836
 31
0.0
  0
LINE
  8
0
 62
     0
 10
81.8321
 20
90.2836
 30
0.0
 11
81.0327
 21
90.2836
 31
0.0
  0
LINE
  8
0
 62
     0
 10
81.0327
 20
90.2836
 30
0.0
 11
81.0327
 21
96.0836
 31
0.0
  0
LINE
  8
0
 62
     0
 10
81.0327
 20
96.0836
 30
0.0
 11
81.8321
 21
96.0836
 31
0.0
  0
LINE
  8
0
 62
     0
 10
81.8321
 20
96.0836
 30
0.0
 11
81.8321
 21
99.1842
 31
0.0
  0
LINE
  8
0
 62
     0
 10
81.8321
 20
99.1842
 30
0.0
 11
81.0327
 21
99.1842
 31
0.0
  0
LINE
  8
0
 62
     0
 10
81.0327
 20
99.1842
 30
0.0
 11
81.0327
 21
100.185
 31
0.0
  0
LINE
  8
0
 62
     0
 10
81.0327
 20
100.185
 30
0.0
 11
67.032
 21
100.185
 31
0.0
  0
LINE
  8
0
 62
     0
 10
86.082
 20
100.185
 30
0.0
 11
86.082
 21
99.1842
 31
0.0
  0
LINE
  8
0
 62
     0
 10
86.082
 20
99.1842
 30
0.0
 11
85.2826
 21
99.1842
 31
0.0
  0
LINE
  8
0
 62
     0
 10
85.2826
 20
99.1842
 30
0.0
 11
85.2826
 21
96.0836
 31
0.0
  0
LINE
  8
0
 62
     0
 10
85.2826
 20
96.0836
 30
0.0
 11
86.082
 21
96.0836
 31
0.0
  0
LINE
  8
0
 62
     0
 10
86.082
 20
96.0836
 30
0.0
 11
86.082
 21
90.2836
 31
0.0
  0
LINE
  8
0
 62
     0
 10
86.082
 20
90.2836
 30
0.0
 11
85.2826
 21
90.2836
 31
0.0
  0
LINE
  8
0
 62
     0
 10
85.2826
 20
90.2836
 30
0.0
 11
85.2826
 21
87.1844
 31
0.0
  0
LINE
  8
0
 62
     0
 10
85.2826
 20
87.1844
 30
0.0
 11
86.082
 21
87.1844
 31
0.0
  0
LINE
  8
0
 62
     0
 10
86.082
 20
87.1844
 30
0.0
 11
86.082
 21
86.184
 31
0.0
  0
LINE
  8
0
 62
     0
 10
86.082
 20
86.184
 30
0.0
 11
100.083
 21
86.184
 31
0.0
  0
LINE
  8
0
 62
     0
 10
100.083
 20
86.184
 30
0.0
 11
100.083
 21
87.1844
 31
0.0
  0
LINE
  8
0
 62
     0
 10
100.083
 20
87.1844
 30
0.0
 11
100.882
 21
87.1844
 31
0.0
  0
LINE
  8
0
 62
     0
 10
100.882
 20
87.1844
 30
0.0
 11
100.882
 21
90.2836
 31
0.0
  0
LINE
  8
0
 62
     0
 10
100.882
 20
90.2836
 30
0.0
 11
100.083
 21
90.2836
 31
0.0
  0
LINE
  8
0
 62
     0
 10
100.083
 20
90.2836
 30
0.0
 11
100.083
 21
96.0836
 31
0.0
  0
LINE
  8
0
 62
     0
 10
100.083
 20
96.0836
 30
0.0
 11
100.882
 21
96.0836
 31
0.0
  0
LINE
  8
0
 62
     0
 10
100.882
 20
96.0836
 30
0.0
 11
100.882
 21
99.1842
 31
0.0
  0
LINE
  8
0
 62
     0
 10
100.882
 20
99.1842
 30
0.0
 11
100.083
 21
99.1842
 31
0.0
  0
LINE
  8
0
 62
     0
 10
100.083
 20
99.1842
 30
0.0
 11
100.083
 21
100.185
 31
0.0
  0
LINE
  8
0
 62
     0
 10
100.083
 20
100.185
 30
0.0
 11
86.082
 21
100.185
 31
0.0
  0
LINE
  8
0
 62
     0
 10
105.132
 20
100.185
 30
0.0
 11
105.132
 21
99.1842
 31
0.0
  0
LINE
  8
0
 62
     0
 10
105.132
 20
99.1842
 30
0.0
 11
104.333
 21
99.1842
 31
0.0
  0
LINE
  8
0
 62
     0
 10
104.333
 20
99.1842
 30
0.0
 11
104.333
 21
96.0836
 31
0.0
  0
LINE
  8
0
 62
     0
 10
104.333
 20
96.0836
 30
0.0
 11
105.132
 21
96.0836
 31
0.0
  0
LINE
  8
0
 62
     0
 10
105.132
 20
96.0836
 30
0.0
 11
105.132
 21
90.2836
 31
0.0
  0
LINE
  8
0
 62
     0
 10
105.132
 20
90.2836
 30
0.0
 11
104.333
 21
90.2836
 31
0.0
  0
LINE
  8
0
 62
     0
 10
104.333
 20
90.2836
 30
0.0
 11
104.333
 21
87.1844
 31
0.0
  0
LINE
  8
0
 62
     0
 10
104.333
 20
87.1844
 30
0.0
 11
105.132
 21
87.1844
 31
0.0
  0
LINE
  8
0
 62
     0
 10
105.132
 20
87.1844
 30
0.0
 11
105.132
 21
86.184
 31
0.0
  0
LINE
  8
0
 62
     0
 10
105.132
 20
86.184
 30
0.0
 11
119.133
 21
86.184
 31
0.0
  0
LINE
  8
0
 62
     0
 10
119.133
 20
86.184
 30
0.0
 11
119.133
 21
87.1844
 31
0.0
  0
LINE
  8
0
 62
     0
 10
119.133
 20
87.1844
 30
0.0
 11
119.932
 21
87.1844
 31
0.0
  0
LINE
  8
0
 62
     0
 10
119.932
 20
87.1844
 30
0.0
 11
119.932
 21
90.2836
 31
0.0
  0
LINE
  8
0
 62
     0
 10
119.932
 20
90.2836
 30
0.0
 11
119.133
 21
90.2836
 31
0.0
  0
LINE
  8
0
 62
     0
 10
119.133
 20
90.2836
 30
0.0
 11
119.133
 21
96.0836
 31
0.0
  0
LINE
  8
0
 62
     0
 10
119.133
 20
96.0836
 30
0.0
 11
119.932
 21
96.0836
 31
0.0
  0
LINE
  8
0
 62
     0
 10
119.932
 20
96.0836
 30
0.0
 11
119.932
 21
99.1842
 31
0.0
  0
LINE
  8
0
 62
     0
 10
119.932
 20
99.1842
 30
0.0
 11
119.133
 21
99.1842
 31
0.0
  0
LINE
  8
0
 62
     0
 10
119.133
 20
99.1842
 30
0.0
 11
119.133
 21
100.185
 31
0.0
  0
LINE
  8
0
 62
     0
 10
119.133
 20
100.185
 30
0.0
 11
105.132
 21
100.185
 31
0.0
  0
LINE
  8
0
 62
     0
 10
124.182
 20
100.185
 30
0.0
 11
124.182
 21
99.1842
 31
0.0
  0
LINE
  8
0
 62
     0
 10
124.182
 20
99.1842
 30
0.0
 11
123.383
 21
99.1842
 31
0.0
  0
LINE
  8
0
 62
     0
 10
123.383
 20
99.1842
 30
0.0
 11
123.383
 21
96.0836
 31
0.0
  0
LINE
  8
0
 62
     0
 10
123.383
 20
96.0836
 30
0.0
 11
124.182
 21
96.0836
 31
0.0
  0
LINE
  8
0
 62
     0
 10
124.182
 20
96.0836
 30
0.0
 11
124.182
 21
90.2836
 31
0.0
  0
LINE
  8
0
 62
     0
 10
124.182
 20
90.2836
 30
0.0
 11
123.383
 21
90.2836
 31
0.0
  0
LINE
  8
0
 62
     0
 10
123.383
 20
90.2836
 30
0.0
 11
123.383
 21
87.1844
 31
0.0
  0
LINE
  8
0
 62
     0
 10
123.383
 20
87.1844
 30
0.0
 11
124.182
 21
87.1844
 31
0.0
  0
LINE
  8
0
 62
     0
 10
124.182
 20
87.1844
 30
0.0
 11
124.182
 21
86.184
 31
0.0
  0
LINE
  8
0
 62
     0
 10
124.182
 20
86.184
 30
0.0
 11
138.183
 21
86.184
 31
0.0
  0
LINE
  8
0
 62
     0
 10
138.183
 20
86.184
 30
0.0
 11
138.183
 21
87.1844
 31
0.0
  0
LINE
  8
0
 62
     0
 10
138.183
 20
87.1844
 30
0.0
 11
138.982
 21
87.1844
 31
0.0
  0
LINE
  8
0
 62
     0
 10
138.982
 20
87.1844
 30
0.0
 11
138.982
 21
90.2836
 31
0.0
  0
LINE
  8
0
 62
     0
 10
138.982
 20
90.2836
 30
0.0
 11
138.183
 21
90.2836
 31
0.0
  0
LINE
  8
0
 62
     0
 10
138.183
 20
90.2836
 30
0.0
 11
138.183
 21
96.0836
 31
0.0
  0
LINE
  8
0
 62
     0
 10
138.183
 20
96.0836
 30
0.0
 11
138.982
 21
96.0836
 31
0.0
  0
LINE
  8
0
 62
     0
 10
138.982
 20
96.0836
 30
0.0
 11
138.982
 21
99.1842
 31
0.0
  0
LINE
  8
0
 62
     0
 10
138.982
 20
99.1842
 30
0.0
 11
138.183
 21
99.1842
 31
0.0
  0
LINE
  8
0
 62
     0
 10
138.183
 20
99.1842
 30
0.0
 11
138.183
 21
100.185
 31
0.0
  0
LINE
  8
0
 62
     0
 10
138.183
 20
100.185
 30
0.0
 11
124.182
 21
100.185
 31
0.0
  0
LINE
  8
0
 62
     0
 10
143.232
 20
100.185
 30
0.0
 11
143.232
 21
99.1842
 31
0.0
  0
LINE
  8
0
 62
     0
 10
143.232
 20
99.1842
 30
0.0
 11
142.433
 21
99.1842
 31
0.0
  0
LINE
  8
0
 62
     0
 10
142.433
 20
99.1842
 30
0.0
 11
142.433
 21
96.0836
 31
0.0
  0
LINE
  8
0
 62
     0
 10
142.433
 20
96.0836
 30
0.0
 11
143.232
 21
96.0836
 31
0.0
  0
LINE
  8
0
 62
     0
 10
143.232
 20
96.0836
 30
0.0
 11
143.232
 21
90.2836
 31
0.0
  0
LINE
  8
0
 62
     0
 10
143.232
 20
90.2836
 30
0.0
 11
142.433
 21
90.2836
 31
0.0
  0
LINE
  8
0
 62
     0
 10
142.433
 20
90.2836
 30
0.0
 11
142.433
 21
87.1844
 31
0.0
  0
LINE
  8
0
 62
     0
 10
142.433
 20
87.1844
 30
0.0
 11
143.232
 21
87.1844
 31
0.0
  0
LINE
  8
0
 62
     0
 10
143.232
 20
87.1844
 30
0.0
 11
143.232
 21
86.184
 31
0.0
  0
LINE
  8
0
 62
     0
 10
143.232
 20
86.184
 30
0.0
 11
157.233
 21
86.184
 31
0.0
  0
LINE
  8
0
 62
     0
 10
157.233
 20
86.184
 30
0.0
 11
157.233
 21
87.1844
 31
0.0
  0
LINE
  8
0
 62
     0
 10
157.233
 20
87.1844
 30
0.0
 11
158.032
 21
87.1844
 31
0.0
  0
LINE
  8
0
 62
     0
 10
158.032
 20
87.1844
 30
0.0
 11
158.032
 21
90.2836
 31
0.0
  0
LINE
  8
0
 62
     0
 10
158.032
 20
90.2836
 30
0.0
 11
157.233
 21
90.2836
 31
0.0
  0
LINE
  8
0
 62
     0
 10
157.233
 20
90.2836
 30
0.0
 11
157.233
 21
96.0836
 31
0.0
  0
LINE
  8
0
 62
     0
 10
157.233
 20
96.0836
 30
0.0
 11
158.032
 21
96.0836
 31
0.0
  0
LINE
  8
0
 62
     0
 10
158.032
 20
96.0836
 30
0.0
 11
158.032
 21
99.1842
 31
0.0
  0
LINE
  8
0
 62
     0
 10
158.032
 20
99.1842
 30
0.0
 11
157.233
 21
99.1842
 31
0.0
  0
LINE
  8
0
 62
     0
 10
157.233
 20
99.1842
 30
0.0
 11
157.233
 21
100.185
 31
0.0
  0
LINE
  8
0
 62
     0
 10
157.233
 20
100.185
 30
0.0
 11
143.232
 21
100.185
 31
0.0
  0
LINE
  8
0
 62
     0
 10
162.282
 20
100.185
 30
0.0
 11
162.282
 21
99.1842
 31
0.0
  0
LINE
  8
0
 62
     0
 10
162.282
 20
99.1842
 30
0.0
 11
161.483
 21
99.1842
 31
0.0
  0
LINE
  8
0
 62
     0
 10
161.483
 20
99.1842
 30
0.0
 11
161.483
 21
96.0836
 31
0.0
  0
LINE
  8
0
 62
     0
 10
161.483
 20
96.0836
 30
0.0
 11
162.282
 21
96.0836
 31
0.0
  0
LINE
  8
0
 62
     0
 10
162.282
 20
96.0836
 30
0.0
 11
162.282
 21
90.2836
 31
0.0
  0
LINE
  8
0
 62
     0
 10
162.282
 20
90.2836
 30
0.0
 11
161.483
 21
90.2836
 31
0.0
  0
LINE
  8
0
 62
     0
 10
161.483
 20
90.2836
 30
0.0
 11
161.483
 21
87.1844
 31
0.0
  0
LINE
  8
0
 62
     0
 10
161.483
 20
87.1844
 30
0.0
 11
162.282
 21
87.1844
 31
0.0
  0
LINE
  8
0
 62
     0
 10
162.282
 20
87.1844
 30
0.0
 11
162.282
 21
86.184
 31
0.0
  0
LINE
  8
0
 62
     0
 10
162.282
 20
86.184
 30
0.0
 11
176.283
 21
86.184
 31
0.0
  0
LINE
  8
0
 62
     0
 10
176.283
 20
86.184
 30
0.0
 11
176.283
 21
87.1844
 31
0.0
  0
LINE
  8
0
 62
     0
 10
176.283
 20
87.1844
 30
0.0
 11
177.082
 21
87.1844
 31
0.0
  0
LINE
  8
0
 62
     0
 10
177.082
 20
87.1844
 30
0.0
 11
177.082
 21
90.2836
 31
0.0
  0
LINE
  8
0
 62
     0
 10
177.082
 20
90.2836
 30
0.0
 11
176.283
 21
90.2836
 31
0.0
  0
LINE
  8
0
 62
     0
 10
176.283
 20
90.2836
 30
0.0
 11
176.283
 21
96.0836
 31
0.0
  0
LINE
  8
0
 62
     0
 10
176.283
 20
96.0836
 30
0.0
 11
177.082
 21
96.0836
 31
0.0
  0
LINE
  8
0
 62
     0
 10
177.082
 20
96.0836
 30
0.0
 11
177.082
 21
99.1842
 31
0.0
  0
LINE
  8
0
 62
     0
 10
177.082
 20
99.1842
 30
0.0
 11
176.283
 21
99.1842
 31
0.0
  0
LINE
  8
0
 62
     0
 10
176.283
 20
99.1842
 30
0.0
 11
176.283
 21
100.185
 31
0.0
  0
LINE
  8
0
 62
     0
 10
176.283
 20
100.185
 30
0.0
 11
162.282
 21
100.185
 31
0.0
  0
LINE
  8
0
 62
     0
 10
181.332
 20
100.185
 30
0.0
 11
181.332
 21
99.1842
 31
0.0
  0
LINE
  8
0
 62
     0
 10
181.332
 20
99.1842
 30
0.0
 11
180.533
 21
99.1842
 31
0.0
  0
LINE
  8
0
 62
     0
 10
180.533
 20
99.1842
 30
0.0
 11
180.533
 21
96.0836
 31
0.0
  0
LINE
  8
0
 62
     0
 10
180.533
 20
96.0836
 30
0.0
 11
181.332
 21
96.0836
 31
0.0
  0
LINE
  8
0
 62
     0
 10
181.332
 20
96.0836
 30
0.0
 11
181.332
 21
90.2836
 31
0.0
  0
LINE
  8
0
 62
     0
 10
181.332
 20
90.2836
 30
0.0
 11
180.533
 21
90.2836
 31
0.0
  0
LINE
  8
0
 62
     0
 10
180.533
 20
90.2836
 30
0.0
 11
180.533
 21
87.1844
 31
0.0
  0
LINE
  8
0
 62
     0
 10
180.533
 20
87.1844
 30
0.0
 11
181.332
 21
87.1844
 31
0.0
  0
LINE
  8
0
 62
     0
 10
181.332
 20
87.1844
 30
0.0
 11
181.332
 21
86.184
 31
0.0
  0
LINE
  8
0
 62
     0
 10
181.332
 20
86.184
 30
0.0
 11
195.333
 21
86.184
 31
0.0
  0
LINE
  8
0
 62
     0
 10
195.333
 20
86.184
 30
0.0
 11
195.333
 21
87.1844
 31
0.0
  0
LINE
  8
0
 62
     0
 10
195.333
 20
87.1844
 30
0.0
 11
196.132
 21
87.1844
 31
0.0
  0
LINE
  8
0
 62
     0
 10
196.132
 20
87.1844
 30
0.0
 11
196.132
 21
90.2836
 31
0.0
  0
LINE
  8
0
 62
     0
 10
196.132
 20
90.2836
 30
0.0
 11
195.333
 21
90.2836
 31
0.0
  0
LINE
  8
0
 62
     0
 10
195.333
 20
90.2836
 30
0.0
 11
195.333
 21
96.0836
 31
0.0
  0
LINE
  8
0
 62
     0
 10
195.333
 20
96.0836
 30
0.0
 11
196.132
 21
96.0836
 31
0.0
  0
LINE
  8
0
 62
     0
 10
196.132
 20
96.0836
 30
0.0
 11
196.132
 21
99.1842
 31
0.0
  0
LINE
  8
0
 62
     0
 10
196.132
 20
99.1842
 30
0.0
 11
195.333
 21
99.1842
 31
0.0
  0
LINE
  8
0
 62
     0
 10
195.333
 20
99.1842
 30
0.0
 11
195.333
 21
100.185
 31
0.0
  0
LINE
  8
0
 62
     0
 10
195.333
 20
100.185
 30
0.0
 11
181.332
 21
100.185
 31
0.0
  0
LINE
  8
0
 62
     0
 10
200.382
 20
100.185
 30
0.0
 11
200.382
 21
99.1842
 31
0.0
  0
LINE
  8
0
 62
     0
 10
200.382
 20
99.1842
 30
0.0
 11
199.583
 21
99.1842
 31
0.0
  0
LINE
  8
0
 62
     0
 10
199.583
 20
99.1842
 30
0.0
 11
199.583
 21
96.0836
 31
0.0
  0
LINE
  8
0
 62
     0
 10
199.583
 20
96.0836
 30
0.0
 11
200.382
 21
96.0836
 31
0.0
  0
LINE
  8
0
 62
     0
 10
200.382
 20
96.0836
 30
0.0
 11
200.382
 21
90.2836
 31
0.0
  0
LINE
  8
0
 62
     0
 10
200.382
 20
90.2836
 30
0.0
 11
199.583
 21
90.2836
 31
0.0
  0
LINE
  8
0
 62
     0
 10
199.583
 20
90.2836
 30
0.0
 11
199.583
 21
87.1844
 31
0.0
  0
LINE
  8
0
 62
     0
 10
199.583
 20
87.1844
 30
0.0
 11
200.382
 21
87.1844
 31
0.0
  0
LINE
  8
0
 62
     0
 10
200.382
 20
87.1844
 30
0.0
 11
200.382
 21
86.184
 31
0.0
  0
LINE
  8
0
 62
     0
 10
200.382
 20
86.184
 30
0.0
 11
214.383
 21
86.184
 31
0.0
  0
LINE
  8
0
 62
     0
 10
214.383
 20
86.184
 30
0.0
 11
214.383
 21
87.1844
 31
0.0
  0
LINE
  8
0
 62
     0
 10
214.383
 20
87.1844
 30
0.0
 11
215.182
 21
87.1844
 31
0.0
  0
LINE
  8
0
 62
     0
 10
215.182
 20
87.1844
 30
0.0
 11
215.182
 21
90.2836
 31
0.0
  0
LINE
  8
0
 62
     0
 10
215.182
 20
90.2836
 30
0.0
 11
214.383
 21
90.2836
 31
0.0
  0
LINE
  8
0
 62
     0
 10
214.383
 20
90.2836
 30
0.0
 11
214.383
 21
96.0836
 31
0.0
  0
LINE
  8
0
 62
     0
 10
214.383
 20
96.0836
 30
0.0
 11
215.182
 21
96.0836
 31
0.0
  0
LINE
  8
0
 62
     0
 10
215.182
 20
96.0836
 30
0.0
 11
215.182
 21
99.1842
 31
0.0
  0
LINE
  8
0
 62
     0
 10
215.182
 20
99.1842
 30
0.0
 11
214.383
 21
99.1842
 31
0.0
  0
LINE
  8
0
 62
     0
 10
214.383
 20
99.1842
 30
0.0
 11
214.383
 21
100.185
 31
0.0
  0
LINE
  8
0
 62
     0
 10
214.383
 20
100.185
 30
0.0
 11
200.382
 21
100.185
 31
0.0
  0
LINE
  8
0
 62
     0
 10
219.432
 20
100.185
 30
0.0
 11
219.432
 21
99.1842
 31
0.0
  0
LINE
  8
0
 62
     0
 10
219.432
 20
99.1842
 30
0.0
 11
218.633
 21
99.1842
 31
0.0
  0
LINE
  8
0
 62
     0
 10
218.633
 20
99.1842
 30
0.0
 11
218.633
 21
96.0836
 31
0.0
  0
LINE
  8
0
 62
     0
 10
218.633
 20
96.0836
 30
0.0
 11
219.432
 21
96.0836
 31
0.0
  0
LINE
  8
0
 62
     0
 10
219.432
 20
96.0836
 30
0.0
 11
219.432
 21
90.2836
 31
0.0
  0
LINE
  8
0
 62
     0
 10
219.432
 20
90.2836
 30
0.0
 11
218.633
 21
90.2836
 31
0.0
  0
LINE
  8
0
 62
     0
 10
218.633
 20
90.2836
 30
0.0
 11
218.633
 21
87.1844
 31
0.0
  0
LINE
  8
0
 62
     0
 10
218.633
 20
87.1844
 30
0.0
 11
219.432
 21
87.1844
 31
0.0
  0
LINE
  8
0
 62
     0
 10
219.432
 20
87.1844
 30
0.0
 11
219.432
 21
86.184
 31
0.0
  0
LINE
  8
0
 62
     0
 10
219.432
 20
86.184
 30
0.0
 11
233.433
 21
86.184
 31
0.0
  0
LINE
  8
0
 62
     0
 10
233.433
 20
86.184
 30
0.0
 11
233.433
 21
87.1844
 31
0.0
  0
LINE
  8
0
 62
     0
 10
233.433
 20
87.1844
 30
0.0
 11
234.232
 21
87.1844
 31
0.0
  0
LINE
  8
0
 62
     0
 10
234.232
 20
87.1844
 30
0.0
 11
234.232
 21
90.2836
 31
0.0
  0
LINE
  8
0
 62
     0
 10
234.232
 20
90.2836
 30
0.0
 11
233.433
 21
90.2836
 31
0.0
  0
LINE
  8
0
 62
     0
 10
233.433
 20
90.2836
 30
0.0
 11
233.433
 21
96.0836
 31
0.0
  0
LINE
  8
0
 62
     0
 10
233.433
 20
96.0836
 30
0.0
 11
234.232
 21
96.0836
 31
0.0
  0
LINE
  8
0
 62
     0
 10
234.232
 20
96.0836
 30
0.0
 11
234.232
 21
99.1842
 31
0.0
  0
LINE
  8
0
 62
     0
 10
234.232
 20
99.1842
 30
0.0
 11
233.433
 21
99.1842
 31
0.0
  0
LINE
  8
0
 62
     0
 10
233.433
 20
99.1842
 30
0.0
 11
233.433
 21
100.185
 31
0.0
  0
LINE
  8
0
 62
     0
 10
233.433
 20
100.185
 30
0.0
 11
219.432
 21
100.185
 31
0.0
  0
LINE
  8
0
 62
     0
 10
238.482
 20
100.185
 30
0.0
 11
238.482
 21
99.1842
 31
0.0
  0
LINE
  8
0
 62
     0
 10
238.482
 20
99.1842
 30
0.0
 11
237.683
 21
99.1842
 31
0.0
  0
LINE
  8
0
 62
     0
 10
237.683
 20
99.1842
 30
0.0
 11
237.683
 21
96.0836
 31
0.0
  0
LINE
  8
0
 62
     0
 10
237.683
 20
96.0836
 30
0.0
 11
238.482
 21
96.0836
 31
0.0
  0
LINE
  8
0
 62
     0
 10
238.482
 20
96.0836
 30
0.0
 11
238.482
 21
90.2836
 31
0.0
  0
LINE
  8
0
 62
     0
 10
238.482
 20
90.2836
 30
0.0
 11
237.683
 21
90.2836
 31
0.0
  0
LINE
  8
0
 62
     0
 10
237.683
 20
90.2836
 30
0.0
 11
237.683
 21
87.1844
 31
0.0
  0
LINE
  8
0
 62
     0
 10
237.683
 20
87.1844
 30
0.0
 11
238.482
 21
87.1844
 31
0.0
  0
LINE
  8
0
 62
     0
 10
238.482
 20
87.1844
 30
0.0
 11
238.482
 21
86.184
 31
0.0
  0
LINE
  8
0
 62
     0
 10
238.482
 20
86.184
 30
0.0
 11
252.483
 21
86.184
 31
0.0
  0
LINE
  8
0
 62
     0
 10
252.483
 20
86.184
 30
0.0
 11
252.483
 21
87.1844
 31
0.0
  0
LINE
  8
0
 62
     0
 10
252.483
 20
87.1844
 30
0.0
 11
253.282
 21
87.1844
 31
0.0
  0
LINE
  8
0
 62
     0
 10
253.282
 20
87.1844
 30
0.0
 11
253.282
 21
90.2836
 31
0.0
  0
LINE
  8
0
 62
     0
 10
253.282
 20
90.2836
 30
0.0
 11
252.483
 21
90.2836
 31
0.0
  0
LINE
  8
0
 62
     0
 10
252.483
 20
90.2836
 30
0.0
 11
252.483
 21
96.0836
 31
0.0
  0
LINE
  8
0
 62
     0
 10
252.483
 20
96.0836
 30
0.0
 11
253.282
 21
96.0836
 31
0.0
  0
LINE
  8
0
 62
     0
 10
253.282
 20
96.0836
 30
0.0
 11
253.282
 21
99.1842
 31
0.0
  0
LINE
  8
0
 62
     0
 10
253.282
 20
99.1842
 30
0.0
 11
252.483
 21
99.1842
 31
0.0
  0
LINE
  8
0
 62
     0
 10
252.483
 20
99.1842
 30
0.0
 11
252.483
 21
100.185
 31
0.0
  0
LINE
  8
0
 62
     0
 10
252.483
 20
100.185
 30
0.0
 11
238.482
 21
100.185
 31
0.0
  0
LINE
  8
0
 62
     0
 10
257.532
 20
100.185
 30
0.0
 11
257.532
 21
99.1842
 31
0.0
  0
LINE
  8
0
 62
     0
 10
257.532
 20
99.1842
 30
0.0
 11
256.733
 21
99.1842
 31
0.0
  0
LINE
  8
0
 62
     0
 10
256.733
 20
99.1842
 30
0.0
 11
256.733
 21
96.0836
 31
0.0
  0
LINE
  8
0
 62
     0
 10
256.733
 20
96.0836
 30
0.0
 11
257.532
 21
96.0836
 31
0.0
  0
LINE
  8
0
 62
     0
 10
257.532
 20
96.0836
 30
0.0
 11
257.532
 21
90.2836
 31
0.0
  0
LINE
  8
0
 62
     0
 10
257.532
 20
90.2836
 30
0.0
 11
256.733
 21
90.2836
 31
0.0
  0
LINE
  8
0
 62
     0
 10
256.733
 20
90.2836
 30
0.0
 11
256.733
 21
87.1844
 31
0.0
  0
LINE
  8
0
 62
     0
 10
256.733
 20
87.1844
 30
0.0
 11
257.532
 21
87.1844
 31
0.0
  0
LINE
  8
0
 62
     0
 10
257.532
 20
87.1844
 30
0.0
 11
257.532
 21
86.184
 31
0.0
  0
LINE
  8
0
 62
     0
 10
257.532
 20
86.184
 30
0.0
 11
271.533
 21
86.184
 31
0.0
  0
LINE
  8
0
 62
     0
 10
271.533
 20
86.184
 30
0.0
 11
271.533
 21
87.1844
 31
0.0
  0
LINE
  8
0
 62
     0
 10
271.533
 20
87.1844
 30
0.0
 11
272.332
 21
87.1844
 31
0.0
  0
LINE
  8
0
 62
     0
 10
272.332
 20
87.1844
 30
0.0
 11
272.332
 21
90.2836
 31
0.0
  0
LINE
  8
0
 62
     0
 10
272.332
 20
90.2836
 30
0.0
 11
271.533
 21
90.2836
 31
0.0
  0
LINE
  8
0
 62
     0
 10
271.533
 20
90.2836
 30
0.0
 11
271.533
 21
96.0836
 31
0.0
  0
LINE
  8
0
 62
     0
 10
271.533
 20
96.0836
 30
0.0
 11
272.332
 21
96.0836
 31
0.0
  0
LINE
  8
0
 62
     0
 10
272.332
 20
96.0836
 30
0.0
 11
272.332
 21
99.1842
 31
0.0
  0
LINE
  8
0
 62
     0
 10
272.332
 20
99.1842
 30
0.0
 11
271.533
 21
99.1842
 31
0.0
  0
LINE
  8
0
 62
     0
 10
271.533
 20
99.1842
 30
0.0
 11
271.533
 21
100.185
 31
0.0
  0
LINE
  8
0
 62
     0
 10
271.533
 20
100.185
 30
0.0
 11
257.532
 21
100.185
 31
0.0
  0
LINE
  8
0
 62
     0
 10
324.207
 20
100.185
 30
0.0
 11
324.207
 21
99.1842
 31
0.0
  0
LINE
  8
0
 62
     0
 10
324.207
 20
99.1842
 30
0.0
 11
323.408
 21
99.1842
 31
0.0
  0
LINE
  8
0
 62
     0
 10
323.408
 20
99.1842
 30
0.0
 11
323.408
 21
96.0836
 31
0.0
  0
LINE
  8
0
 62
     0
 10
323.408
 20
96.0836
 30
0.0
 11
324.207
 21
96.0836
 31
0.0
  0
LINE
  8
0
 62
     0
 10
324.207
 20
96.0836
 30
0.0
 11
324.207
 21
90.2836
 31
0.0
  0
LINE
  8
0
 62
     0
 10
324.207
 20
90.2836
 30
0.0
 11
323.408
 21
90.2836
 31
0.0
  0
LINE
  8
0
 62
     0
 10
323.408
 20
90.2836
 30
0.0
 11
323.408
 21
87.1844
 31
0.0
  0
LINE
  8
0
 62
     0
 10
323.408
 20
87.1844
 30
0.0
 11
324.207
 21
87.1844
 31
0.0
  0
LINE
  8
0
 62
     0
 10
324.207
 20
87.1844
 30
0.0
 11
324.207
 21
86.184
 31
0.0
  0
LINE
  8
0
 62
     0
 10
324.207
 20
86.184
 30
0.0
 11
338.208
 21
86.184
 31
0.0
  0
LINE
  8
0
 62
     0
 10
338.208
 20
86.184
 30
0.0
 11
338.208
 21
87.1844
 31
0.0
  0
LINE
  8
0
 62
     0
 10
338.208
 20
87.1844
 30
0.0
 11
339.007
 21
87.1844
 31
0.0
  0
LINE
  8
0
 62
     0
 10
339.007
 20
87.1844
 30
0.0
 11
339.007
 21
90.2836
 31
0.0
  0
LINE
  8
0
 62
     0
 10
339.007
 20
90.2836
 30
0.0
 11
338.208
 21
90.2836
 31
0.0
  0
LINE
  8
0
 62
     0
 10
338.208
 20
90.2836
 30
0.0
 11
338.208
 21
96.0836
 31
0.0
  0
LINE
  8
0
 62
     0
 10
338.208
 20
96.0836
 30
0.0
 11
339.007
 21
96.0836
 31
0.0
  0
LINE
  8
0
 62
     0
 10
339.007
 20
96.0836
 30
0.0
 11
339.007
 21
99.1842
 31
0.0
  0
LINE
  8
0
 62
     0
 10
339.007
 20
99.1842
 30
0.0
 11
338.208
 21
99.1842
 31
0.0
  0
LINE
  8
0
 62
     0
 10
338.208
 20
99.1842
 30
0.0
 11
338.208
 21
100.185
 31
0.0
  0
LINE
  8
0
 62
     0
 10
338.208
 20
100.185
 30
0.0
 11
324.207
 21
100.185
 31
0.0
  0
LINE
  8
0
 62
     0
 10
5.11941
 20
123.997
 30
0.0
 11
5.11941
 21
122.997
 31
0.0
  0
LINE
  8
0
 62
     0
 10
5.11941
 20
122.997
 30
0.0
 11
4.32015
 21
122.997
 31
0.0
  0
LINE
  8
0
 62
     0
 10
4.32015
 20
122.997
 30
0.0
 11
4.32015
 21
119.898
 31
0.0
  0
LINE
  8
0
 62
     0
 10
4.32015
 20
119.898
 30
0.0
 11
5.11941
 21
119.898
 31
0.0
  0
LINE
  8
0
 62
     0
 10
5.11941
 20
119.898
 30
0.0
 11
5.11941
 21
114.098
 31
0.0
  0
LINE
  8
0
 62
     0
 10
5.11941
 20
114.098
 30
0.0
 11
4.32015
 21
114.098
 31
0.0
  0
LINE
  8
0
 62
     0
 10
4.32015
 20
114.098
 30
0.0
 11
4.32015
 21
110.997
 31
0.0
  0
LINE
  8
0
 62
     0
 10
4.32015
 20
110.997
 30
0.0
 11
5.11941
 21
110.997
 31
0.0
  0
LINE
  8
0
 62
     0
 10
5.11941
 20
110.997
 30
0.0
 11
5.11941
 21
109.996
 31
0.0
  0
LINE
  8
0
 62
     0
 10
5.11941
 20
109.996
 30
0.0
 11
19.1203
 21
109.996
 31
0.0
  0
LINE
  8
0
 62
     0
 10
19.1203
 20
109.996
 30
0.0
 11
19.1203
 21
110.997
 31
0.0
  0
LINE
  8
0
 62
     0
 10
19.1203
 20
110.997
 30
0.0
 11
19.9209
 21
110.997
 31
0.0
  0
LINE
  8
0
 62
     0
 10
19.9209
 20
110.997
 30
0.0
 11
19.9209
 21
114.098
 31
0.0
  0
LINE
  8
0
 62
     0
 10
19.9209
 20
114.098
 30
0.0
 11
19.1203
 21
114.098
 31
0.0
  0
LINE
  8
0
 62
     0
 10
19.1203
 20
114.098
 30
0.0
 11
19.1203
 21
119.898
 31
0.0
  0
LINE
  8
0
 62
     0
 10
19.1203
 20
119.898
 30
0.0
 11
19.9209
 21
119.898
 31
0.0
  0
LINE
  8
0
 62
     0
 10
19.9209
 20
119.898
 30
0.0
 11
19.9209
 21
122.997
 31
0.0
  0
LINE
  8
0
 62
     0
 10
19.9209
 20
122.997
 30
0.0
 11
19.1203
 21
122.997
 31
0.0
  0
LINE
  8
0
 62
     0
 10
19.1203
 20
122.997
 30
0.0
 11
19.1203
 21
123.997
 31
0.0
  0
LINE
  8
0
 62
     0
 10
19.1203
 20
123.997
 30
0.0
 11
5.11941
 21
123.997
 31
0.0
  0
LINE
  8
0
 62
     0
 10
28.9319
 20
123.997
 30
0.0
 11
28.9319
 21
122.997
 31
0.0
  0
LINE
  8
0
 62
     0
 10
28.9319
 20
122.997
 30
0.0
 11
28.1327
 21
122.997
 31
0.0
  0
LINE
  8
0
 62
     0
 10
28.1327
 20
122.997
 30
0.0
 11
28.1327
 21
119.898
 31
0.0
  0
LINE
  8
0
 62
     0
 10
28.1327
 20
119.898
 30
0.0
 11
28.9319
 21
119.898
 31
0.0
  0
LINE
  8
0
 62
     0
 10
28.9319
 20
119.898
 30
0.0
 11
28.9319
 21
114.098
 31
0.0
  0
LINE
  8
0
 62
     0
 10
28.9319
 20
114.098
 30
0.0
 11
28.1327
 21
114.098
 31
0.0
  0
LINE
  8
0
 62
     0
 10
28.1327
 20
114.098
 30
0.0
 11
28.1327
 21
110.997
 31
0.0
  0
LINE
  8
0
 62
     0
 10
28.1327
 20
110.997
 30
0.0
 11
28.9319
 21
110.997
 31
0.0
  0
LINE
  8
0
 62
     0
 10
28.9319
 20
110.997
 30
0.0
 11
28.9319
 21
109.996
 31
0.0
  0
LINE
  8
0
 62
     0
 10
28.9319
 20
109.996
 30
0.0
 11
42.9327
 21
109.996
 31
0.0
  0
LINE
  8
0
 62
     0
 10
42.9327
 20
109.996
 30
0.0
 11
42.9327
 21
110.997
 31
0.0
  0
LINE
  8
0
 62
     0
 10
42.9327
 20
110.997
 30
0.0
 11
43.7321
 21
110.997
 31
0.0
  0
LINE
  8
0
 62
     0
 10
43.7321
 20
110.997
 30
0.0
 11
43.7321
 21
114.098
 31
0.0
  0
LINE
  8
0
 62
     0
 10
43.7321
 20
114.098
 30
0.0
 11
42.9327
 21
114.098
 31
0.0
  0
LINE
  8
0
 62
     0
 10
42.9327
 20
114.098
 30
0.0
 11
42.9327
 21
119.898
 31
0.0
  0
LINE
  8
0
 62
     0
 10
42.9327
 20
119.898
 30
0.0
 11
43.7321
 21
119.898
 31
0.0
  0
LINE
  8
0
 62
     0
 10
43.7321
 20
119.898
 30
0.0
 11
43.7321
 21
122.997
 31
0.0
  0
LINE
  8
0
 62
     0
 10
43.7321
 20
122.997
 30
0.0
 11
42.9327
 21
122.997
 31
0.0
  0
LINE
  8
0
 62
     0
 10
42.9327
 20
122.997
 30
0.0
 11
42.9327
 21
123.997
 31
0.0
  0
LINE
  8
0
 62
     0
 10
42.9327
 20
123.997
 30
0.0
 11
28.9319
 21
123.997
 31
0.0
  0
LINE
  8
0
 62
     0
 10
52.7459
 20
123.997
 30
0.0
 11
52.7459
 21
122.997
 31
0.0
  0
LINE
  8
0
 62
     0
 10
52.7459
 20
122.997
 30
0.0
 11
51.9451
 21
122.997
 31
0.0
  0
LINE
  8
0
 62
     0
 10
51.9451
 20
122.997
 30
0.0
 11
51.9451
 21
119.898
 31
0.0
  0
LINE
  8
0
 62
     0
 10
51.9451
 20
119.898
 30
0.0
 11
52.7459
 21
119.898
 31
0.0
  0
LINE
  8
0
 62
     0
 10
52.7459
 20
119.898
 30
0.0
 11
52.7459
 21
114.098
 31
0.0
  0
LINE
  8
0
 62
     0
 10
52.7459
 20
114.098
 30
0.0
 11
51.9451
 21
114.098
 31
0.0
  0
LINE
  8
0
 62
     0
 10
51.9451
 20
114.098
 30
0.0
 11
51.9451
 21
110.997
 31
0.0
  0
LINE
  8
0
 62
     0
 10
51.9451
 20
110.997
 30
0.0
 11
52.7459
 21
110.997
 31
0.0
  0
LINE
  8
0
 62
     0
 10
52.7459
 20
110.997
 30
0.0
 11
52.7459
 21
109.996
 31
0.0
  0
LINE
  8
0
 62
     0
 10
52.7459
 20
109.996
 30
0.0
 11
66.7452
 21
109.996
 31
0.0
  0
LINE
  8
0
 62
     0
 10
66.7452
 20
109.996
 30
0.0
 11
66.7452
 21
110.997
 31
0.0
  0
LINE
  8
0
 62
     0
 10
66.7452
 20
110.997
 30
0.0
 11
67.546
 21
110.997
 31
0.0
  0
LINE
  8
0
 62
     0
 10
67.546
 20
110.997
 30
0.0
 11
67.546
 21
114.098
 31
0.0
  0
LINE
  8
0
 62
     0
 10
67.546
 20
114.098
 30
0.0
 11
66.7452
 21
114.098
 31
0.0
  0
LINE
  8
0
 62
     0
 10
66.7452
 20
114.098
 30
0.0
 11
66.7452
 21
119.898
 31
0.0
  0
LINE
  8
0
 62
     0
 10
66.7452
 20
119.898
 30
0.0
 11
67.546
 21
119.898
 31
0.0
  0
LINE
  8
0
 62
     0
 10
67.546
 20
119.898
 30
0.0
 11
67.546
 21
122.997
 31
0.0
  0
LINE
  8
0
 62
     0
 10
67.546
 20
122.997
 30
0.0
 11
66.7452
 21
122.997
 31
0.0
  0
LINE
  8
0
 62
     0
 10
66.7452
 20
122.997
 30
0.0
 11
66.7452
 21
123.997
 31
0.0
  0
LINE
  8
0
 62
     0
 10
66.7452
 20
123.997
 30
0.0
 11
52.7459
 21
123.997
 31
0.0
  0
LINE
  8
0
 62
     0
 10
71.7959
 20
123.997
 30
0.0
 11
71.7959
 21
122.997
 31
0.0
  0
LINE
  8
0
 62
     0
 10
71.7959
 20
122.997
 30
0.0
 11
70.9951
 21
122.997
 31
0.0
  0
LINE
  8
0
 62
     0
 10
70.9951
 20
122.997
 30
0.0
 11
70.9951
 21
119.898
 31
0.0
  0
LINE
  8
0
 62
     0
 10
70.9951
 20
119.898
 30
0.0
 11
71.7959
 21
119.898
 31
0.0
  0
LINE
  8
0
 62
     0
 10
71.7959
 20
119.898
 30
0.0
 11
71.7959
 21
114.098
 31
0.0
  0
LINE
  8
0
 62
     0
 10
71.7959
 20
114.098
 30
0.0
 11
70.9951
 21
114.098
 31
0.0
  0
LINE
  8
0
 62
     0
 10
70.9951
 20
114.098
 30
0.0
 11
70.9951
 21
110.997
 31
0.0
  0
LINE
  8
0
 62
     0
 10
70.9951
 20
110.997
 30
0.0
 11
71.7959
 21
110.997
 31
0.0
  0
LINE
  8
0
 62
     0
 10
71.7959
 20
110.997
 30
0.0
 11
71.7959
 21
109.996
 31
0.0
  0
LINE
  8
0
 62
     0
 10
71.7959
 20
109.996
 30
0.0
 11
85.7952
 21
109.996
 31
0.0
  0
LINE
  8
0
 62
     0
 10
85.7952
 20
109.996
 30
0.0
 11
85.7952
 21
110.997
 31
0.0
  0
LINE
  8
0
 62
     0
 10
85.7952
 20
110.997
 30
0.0
 11
86.596
 21
110.997
 31
0.0
  0
LINE
  8
0
 62
     0
 10
86.596
 20
110.997
 30
0.0
 11
86.596
 21
114.098
 31
0.0
  0
LINE
  8
0
 62
     0
 10
86.596
 20
114.098
 30
0.0
 11
85.7952
 21
114.098
 31
0.0
  0
LINE
  8
0
 62
     0
 10
85.7952
 20
114.098
 30
0.0
 11
85.7952
 21
119.898
 31
0.0
  0
LINE
  8
0
 62
     0
 10
85.7952
 20
119.898
 30
0.0
 11
86.596
 21
119.898
 31
0.0
  0
LINE
  8
0
 62
     0
 10
86.596
 20
119.898
 30
0.0
 11
86.596
 21
122.997
 31
0.0
  0
LINE
  8
0
 62
     0
 10
86.596
 20
122.997
 30
0.0
 11
85.7952
 21
122.997
 31
0.0
  0
LINE
  8
0
 62
     0
 10
85.7952
 20
122.997
 30
0.0
 11
85.7952
 21
123.997
 31
0.0
  0
LINE
  8
0
 62
     0
 10
85.7952
 20
123.997
 30
0.0
 11
71.7959
 21
123.997
 31
0.0
  0
LINE
  8
0
 62
     0
 10
90.8459
 20
123.997
 30
0.0
 11
90.8459
 21
122.997
 31
0.0
  0
LINE
  8
0
 62
     0
 10
90.8459
 20
122.997
 30
0.0
 11
90.0451
 21
122.997
 31
0.0
  0
LINE
  8
0
 62
     0
 10
90.0451
 20
122.997
 30
0.0
 11
90.0451
 21
119.898
 31
0.0
  0
LINE
  8
0
 62
     0
 10
90.0451
 20
119.898
 30
0.0
 11
90.8459
 21
119.898
 31
0.0
  0
LINE
  8
0
 62
     0
 10
90.8459
 20
119.898
 30
0.0
 11
90.8459
 21
114.098
 31
0.0
  0
LINE
  8
0
 62
     0
 10
90.8459
 20
114.098
 30
0.0
 11
90.0451
 21
114.098
 31
0.0
  0
LINE
  8
0
 62
     0
 10
90.0451
 20
114.098
 30
0.0
 11
90.0451
 21
110.997
 31
0.0
  0
LINE
  8
0
 62
     0
 10
90.0451
 20
110.997
 30
0.0
 11
90.8459
 21
110.997
 31
0.0
  0
LINE
  8
0
 62
     0
 10
90.8459
 20
110.997
 30
0.0
 11
90.8459
 21
109.996
 31
0.0
  0
LINE
  8
0
 62
     0
 10
90.8459
 20
109.996
 30
0.0
 11
104.845
 21
109.996
 31
0.0
  0
LINE
  8
0
 62
     0
 10
104.845
 20
109.996
 30
0.0
 11
104.845
 21
110.997
 31
0.0
  0
LINE
  8
0
 62
     0
 10
104.845
 20
110.997
 30
0.0
 11
105.646
 21
110.997
 31
0.0
  0
LINE
  8
0
 62
     0
 10
105.646
 20
110.997
 30
0.0
 11
105.646
 21
114.098
 31
0.0
  0
LINE
  8
0
 62
     0
 10
105.646
 20
114.098
 30
0.0
 11
104.845
 21
114.098
 31
0.0
  0
LINE
  8
0
 62
     0
 10
104.845
 20
114.098
 30
0.0
 11
104.845
 21
119.898
 31
0.0
  0
LINE
  8
0
 62
     0
 10
104.845
 20
119.898
 30
0.0
 11
105.646
 21
119.898
 31
0.0
  0
LINE
  8
0
 62
     0
 10
105.646
 20
119.898
 30
0.0
 11
105.646
 21
122.997
 31
0.0
  0
LINE
  8
0
 62
     0
 10
105.646
 20
122.997
 30
0.0
 11
104.845
 21
122.997
 31
0.0
  0
LINE
  8
0
 62
     0
 10
104.845
 20
122.997
 30
0.0
 11
104.845
 21
123.997
 31
0.0
  0
LINE
  8
0
 62
     0
 10
104.845
 20
123.997
 30
0.0
 11
90.8459
 21
123.997
 31
0.0
  0
LINE
  8
0
 62
     0
 10
109.896
 20
123.997
 30
0.0
 11
109.896
 21
122.997
 31
0.0
  0
LINE
  8
0
 62
     0
 10
109.896
 20
122.997
 30
0.0
 11
109.095
 21
122.997
 31
0.0
  0
LINE
  8
0
 62
     0
 10
109.095
 20
122.997
 30
0.0
 11
109.095
 21
119.898
 31
0.0
  0
LINE
  8
0
 62
     0
 10
109.095
 20
119.898
 30
0.0
 11
109.896
 21
119.898
 31
0.0
  0
LINE
  8
0
 62
     0
 10
109.896
 20
119.898
 30
0.0
 11
109.896
 21
114.098
 31
0.0
  0
LINE
  8
0
 62
     0
 10
109.896
 20
114.098
 30
0.0
 11
109.095
 21
114.098
 31
0.0
  0
LINE
  8
0
 62
     0
 10
109.095
 20
114.098
 30
0.0
 11
109.095
 21
110.997
 31
0.0
  0
LINE
  8
0
 62
     0
 10
109.095
 20
110.997
 30
0.0
 11
109.896
 21
110.997
 31
0.0
  0
LINE
  8
0
 62
     0
 10
109.896
 20
110.997
 30
0.0
 11
109.896
 21
109.996
 31
0.0
  0
LINE
  8
0
 62
     0
 10
109.896
 20
109.996
 30
0.0
 11
123.895
 21
109.996
 31
0.0
  0
LINE
  8
0
 62
     0
 10
123.895
 20
109.996
 30
0.0
 11
123.895
 21
110.997
 31
0.0
  0
LINE
  8
0
 62
     0
 10
123.895
 20
110.997
 30
0.0
 11
124.696
 21
110.997
 31
0.0
  0
LINE
  8
0
 62
     0
 10
124.696
 20
110.997
 30
0.0
 11
124.696
 21
114.098
 31
0.0
  0
LINE
  8
0
 62
     0
 10
124.696
 20
114.098
 30
0.0
 11
123.895
 21
114.098
 31
0.0
  0
LINE
  8
0
 62
     0
 10
123.895
 20
114.098
 30
0.0
 11
123.895
 21
119.898
 31
0.0
  0
LINE
  8
0
 62
     0
 10
123.895
 20
119.898
 30
0.0
 11
124.696
 21
119.898
 31
0.0
  0
LINE
  8
0
 62
     0
 10
124.696
 20
119.898
 30
0.0
 11
124.696
 21
122.997
 31
0.0
  0
LINE
  8
0
 62
     0
 10
124.696
 20
122.997
 30
0.0
 11
123.895
 21
122.997
 31
0.0
  0
LINE
  8
0
 62
     0
 10
123.895
 20
122.997
 30
0.0
 11
123.895
 21
123.997
 31
0.0
  0
LINE
  8
0
 62
     0
 10
123.895
 20
123.997
 30
0.0
 11
109.896
 21
123.997
 31
0.0
  0
LINE
  8
0
 62
     0
 10
133.707
 20
123.997
 30
0.0
 11
133.707
 21
122.997
 31
0.0
  0
LINE
  8
0
 62
     0
 10
133.707
 20
122.997
 30
0.0
 11
132.908
 21
122.997
 31
0.0
  0
LINE
  8
0
 62
     0
 10
132.908
 20
122.997
 30
0.0
 11
132.908
 21
119.898
 31
0.0
  0
LINE
  8
0
 62
     0
 10
132.908
 20
119.898
 30
0.0
 11
133.707
 21
119.898
 31
0.0
  0
LINE
  8
0
 62
     0
 10
133.707
 20
119.898
 30
0.0
 11
133.707
 21
114.098
 31
0.0
  0
LINE
  8
0
 62
     0
 10
133.707
 20
114.098
 30
0.0
 11
132.908
 21
114.098
 31
0.0
  0
LINE
  8
0
 62
     0
 10
132.908
 20
114.098
 30
0.0
 11
132.908
 21
110.997
 31
0.0
  0
LINE
  8
0
 62
     0
 10
132.908
 20
110.997
 30
0.0
 11
133.707
 21
110.997
 31
0.0
  0
LINE
  8
0
 62
     0
 10
133.707
 20
110.997
 30
0.0
 11
133.707
 21
109.996
 31
0.0
  0
LINE
  8
0
 62
     0
 10
133.707
 20
109.996
 30
0.0
 11
147.708
 21
109.996
 31
0.0
  0
LINE
  8
0
 62
     0
 10
147.708
 20
109.996
 30
0.0
 11
147.708
 21
110.997
 31
0.0
  0
LINE
  8
0
 62
     0
 10
147.708
 20
110.997
 30
0.0
 11
148.507
 21
110.997
 31
0.0
  0
LINE
  8
0
 62
     0
 10
148.507
 20
110.997
 30
0.0
 11
148.507
 21
114.098
 31
0.0
  0
LINE
  8
0
 62
     0
 10
148.507
 20
114.098
 30
0.0
 11
147.708
 21
114.098
 31
0.0
  0
LINE
  8
0
 62
     0
 10
147.708
 20
114.098
 30
0.0
 11
147.708
 21
119.898
 31
0.0
  0
LINE
  8
0
 62
     0
 10
147.708
 20
119.898
 30
0.0
 11
148.507
 21
119.898
 31
0.0
  0
LINE
  8
0
 62
     0
 10
148.507
 20
119.898
 30
0.0
 11
148.507
 21
122.997
 31
0.0
  0
LINE
  8
0
 62
     0
 10
148.507
 20
122.997
 30
0.0
 11
147.708
 21
122.997
 31
0.0
  0
LINE
  8
0
 62
     0
 10
147.708
 20
122.997
 30
0.0
 11
147.708
 21
123.997
 31
0.0
  0
LINE
  8
0
 62
     0
 10
147.708
 20
123.997
 30
0.0
 11
133.707
 21
123.997
 31
0.0
  0
LINE
  8
0
 62
     0
 10
152.757
 20
123.997
 30
0.0
 11
152.757
 21
122.997
 31
0.0
  0
LINE
  8
0
 62
     0
 10
152.757
 20
122.997
 30
0.0
 11
151.958
 21
122.997
 31
0.0
  0
LINE
  8
0
 62
     0
 10
151.958
 20
122.997
 30
0.0
 11
151.958
 21
119.898
 31
0.0
  0
LINE
  8
0
 62
     0
 10
151.958
 20
119.898
 30
0.0
 11
152.757
 21
119.898
 31
0.0
  0
LINE
  8
0
 62
     0
 10
152.757
 20
119.898
 30
0.0
 11
152.757
 21
114.098
 31
0.0
  0
LINE
  8
0
 62
     0
 10
152.757
 20
114.098
 30
0.0
 11
151.958
 21
114.098
 31
0.0
  0
LINE
  8
0
 62
     0
 10
151.958
 20
114.098
 30
0.0
 11
151.958
 21
110.997
 31
0.0
  0
LINE
  8
0
 62
     0
 10
151.958
 20
110.997
 30
0.0
 11
152.757
 21
110.997
 31
0.0
  0
LINE
  8
0
 62
     0
 10
152.757
 20
110.997
 30
0.0
 11
152.757
 21
109.996
 31
0.0
  0
LINE
  8
0
 62
     0
 10
152.757
 20
109.996
 30
0.0
 11
166.758
 21
109.996
 31
0.0
  0
LINE
  8
0
 62
     0
 10
166.758
 20
109.996
 30
0.0
 11
166.758
 21
110.997
 31
0.0
  0
LINE
  8
0
 62
     0
 10
166.758
 20
110.997
 30
0.0
 11
167.557
 21
110.997
 31
0.0
  0
LINE
  8
0
 62
     0
 10
167.557
 20
110.997
 30
0.0
 11
167.557
 21
114.098
 31
0.0
  0
LINE
  8
0
 62
     0
 10
167.557
 20
114.098
 30
0.0
 11
166.758
 21
114.098
 31
0.0
  0
LINE
  8
0
 62
     0
 10
166.758
 20
114.098
 30
0.0
 11
166.758
 21
119.898
 31
0.0
  0
LINE
  8
0
 62
     0
 10
166.758
 20
119.898
 30
0.0
 11
167.557
 21
119.898
 31
0.0
  0
LINE
  8
0
 62
     0
 10
167.557
 20
119.898
 30
0.0
 11
167.557
 21
122.997
 31
0.0
  0
LINE
  8
0
 62
     0
 10
167.557
 20
122.997
 30
0.0
 11
166.758
 21
122.997
 31
0.0
  0
LINE
  8
0
 62
     0
 10
166.758
 20
122.997
 30
0.0
 11
166.758
 21
123.997
 31
0.0
  0
LINE
  8
0
 62
     0
 10
166.758
 20
123.997
 30
0.0
 11
152.757
 21
123.997
 31
0.0
  0
LINE
  8
0
 62
     0
 10
171.807
 20
123.997
 30
0.0
 11
171.807
 21
122.997
 31
0.0
  0
LINE
  8
0
 62
     0
 10
171.807
 20
122.997
 30
0.0
 11
171.008
 21
122.997
 31
0.0
  0
LINE
  8
0
 62
     0
 10
171.008
 20
122.997
 30
0.0
 11
171.008
 21
119.898
 31
0.0
  0
LINE
  8
0
 62
     0
 10
171.008
 20
119.898
 30
0.0
 11
171.807
 21
119.898
 31
0.0
  0
LINE
  8
0
 62
     0
 10
171.807
 20
119.898
 30
0.0
 11
171.807
 21
114.098
 31
0.0
  0
LINE
  8
0
 62
     0
 10
171.807
 20
114.098
 30
0.0
 11
171.008
 21
114.098
 31
0.0
  0
LINE
  8
0
 62
     0
 10
171.008
 20
114.098
 30
0.0
 11
171.008
 21
110.997
 31
0.0
  0
LINE
  8
0
 62
     0
 10
171.008
 20
110.997
 30
0.0
 11
171.807
 21
110.997
 31
0.0
  0
LINE
  8
0
 62
     0
 10
171.807
 20
110.997
 30
0.0
 11
171.807
 21
109.996
 31
0.0
  0
LINE
  8
0
 62
     0
 10
171.807
 20
109.996
 30
0.0
 11
185.808
 21
109.996
 31
0.0
  0
LINE
  8
0
 62
     0
 10
185.808
 20
109.996
 30
0.0
 11
185.808
 21
110.997
 31
0.0
  0
LINE
  8
0
 62
     0
 10
185.808
 20
110.997
 30
0.0
 11
186.607
 21
110.997
 31
0.0
  0
LINE
  8
0
 62
     0
 10
186.607
 20
110.997
 30
0.0
 11
186.607
 21
114.098
 31
0.0
  0
LINE
  8
0
 62
     0
 10
186.607
 20
114.098
 30
0.0
 11
185.808
 21
114.098
 31
0.0
  0
LINE
  8
0
 62
     0
 10
185.808
 20
114.098
 30
0.0
 11
185.808
 21
119.898
 31
0.0
  0
LINE
  8
0
 62
     0
 10
185.808
 20
119.898
 30
0.0
 11
186.607
 21
119.898
 31
0.0
  0
LINE
  8
0
 62
     0
 10
186.607
 20
119.898
 30
0.0
 11
186.607
 21
122.997
 31
0.0
  0
LINE
  8
0
 62
     0
 10
186.607
 20
122.997
 30
0.0
 11
185.808
 21
122.997
 31
0.0
  0
LINE
  8
0
 62
     0
 10
185.808
 20
122.997
 30
0.0
 11
185.808
 21
123.997
 31
0.0
  0
LINE
  8
0
 62
     0
 10
185.808
 20
123.997
 30
0.0
 11
171.807
 21
123.997
 31
0.0
  0
LINE
  8
0
 62
     0
 10
190.857
 20
123.997
 30
0.0
 11
190.857
 21
122.997
 31
0.0
  0
LINE
  8
0
 62
     0
 10
190.857
 20
122.997
 30
0.0
 11
190.058
 21
122.997
 31
0.0
  0
LINE
  8
0
 62
     0
 10
190.058
 20
122.997
 30
0.0
 11
190.058
 21
119.898
 31
0.0
  0
LINE
  8
0
 62
     0
 10
190.058
 20
119.898
 30
0.0
 11
190.857
 21
119.898
 31
0.0
  0
LINE
  8
0
 62
     0
 10
190.857
 20
119.898
 30
0.0
 11
190.857
 21
114.098
 31
0.0
  0
LINE
  8
0
 62
     0
 10
190.857
 20
114.098
 30
0.0
 11
190.058
 21
114.098
 31
0.0
  0
LINE
  8
0
 62
     0
 10
190.058
 20
114.098
 30
0.0
 11
190.058
 21
110.997
 31
0.0
  0
LINE
  8
0
 62
     0
 10
190.058
 20
110.997
 30
0.0
 11
190.857
 21
110.997
 31
0.0
  0
LINE
  8
0
 62
     0
 10
190.857
 20
110.997
 30
0.0
 11
190.857
 21
109.996
 31
0.0
  0
LINE
  8
0
 62
     0
 10
190.857
 20
109.996
 30
0.0
 11
204.858
 21
109.996
 31
0.0
  0
LINE
  8
0
 62
     0
 10
204.858
 20
109.996
 30
0.0
 11
204.858
 21
110.997
 31
0.0
  0
LINE
  8
0
 62
     0
 10
204.858
 20
110.997
 30
0.0
 11
205.657
 21
110.997
 31
0.0
  0
LINE
  8
0
 62
     0
 10
205.657
 20
110.997
 30
0.0
 11
205.657
 21
114.098
 31
0.0
  0
LINE
  8
0
 62
     0
 10
205.657
 20
114.098
 30
0.0
 11
204.858
 21
114.098
 31
0.0
  0
LINE
  8
0
 62
     0
 10
204.858
 20
114.098
 30
0.0
 11
204.858
 21
119.898
 31
0.0
  0
LINE
  8
0
 62
     0
 10
204.858
 20
119.898
 30
0.0
 11
205.657
 21
119.898
 31
0.0
  0
LINE
  8
0
 62
     0
 10
205.657
 20
119.898
 30
0.0
 11
205.657
 21
122.997
 31
0.0
  0
LINE
  8
0
 62
     0
 10
205.657
 20
122.997
 30
0.0
 11
204.858
 21
122.997
 31
0.0
  0
LINE
  8
0
 62
     0
 10
204.858
 20
122.997
 30
0.0
 11
204.858
 21
123.997
 31
0.0
  0
LINE
  8
0
 62
     0
 10
204.858
 20
123.997
 30
0.0
 11
190.857
 21
123.997
 31
0.0
  0
LINE
  8
0
 62
     0
 10
214.671
 20
123.997
 30
0.0
 11
214.671
 21
122.997
 31
0.0
  0
LINE
  8
0
 62
     0
 10
214.671
 20
122.997
 30
0.0
 11
213.87
 21
122.997
 31
0.0
  0
LINE
  8
0
 62
     0
 10
213.87
 20
122.997
 30
0.0
 11
213.87
 21
119.898
 31
0.0
  0
LINE
  8
0
 62
     0
 10
213.87
 20
119.898
 30
0.0
 11
214.671
 21
119.898
 31
0.0
  0
LINE
  8
0
 62
     0
 10
214.671
 20
119.898
 30
0.0
 11
214.671
 21
114.098
 31
0.0
  0
LINE
  8
0
 62
     0
 10
214.671
 20
114.098
 30
0.0
 11
213.87
 21
114.098
 31
0.0
  0
LINE
  8
0
 62
     0
 10
213.87
 20
114.098
 30
0.0
 11
213.87
 21
110.997
 31
0.0
  0
LINE
  8
0
 62
     0
 10
213.87
 20
110.997
 30
0.0
 11
214.671
 21
110.997
 31
0.0
  0
LINE
  8
0
 62
     0
 10
214.671
 20
110.997
 30
0.0
 11
214.671
 21
109.996
 31
0.0
  0
LINE
  8
0
 62
     0
 10
214.671
 20
109.996
 30
0.0
 11
228.67
 21
109.996
 31
0.0
  0
LINE
  8
0
 62
     0
 10
228.67
 20
109.996
 30
0.0
 11
228.67
 21
110.997
 31
0.0
  0
LINE
  8
0
 62
     0
 10
228.67
 20
110.997
 30
0.0
 11
229.471
 21
110.997
 31
0.0
  0
LINE
  8
0
 62
     0
 10
229.471
 20
110.997
 30
0.0
 11
229.471
 21
114.098
 31
0.0
  0
LINE
  8
0
 62
     0
 10
229.471
 20
114.098
 30
0.0
 11
228.67
 21
114.098
 31
0.0
  0
LINE
  8
0
 62
     0
 10
228.67
 20
114.098
 30
0.0
 11
228.67
 21
119.898
 31
0.0
  0
LINE
  8
0
 62
     0
 10
228.67
 20
119.898
 30
0.0
 11
229.471
 21
119.898
 31
0.0
  0
LINE
  8
0
 62
     0
 10
229.471
 20
119.898
 30
0.0
 11
229.471
 21
122.997
 31
0.0
  0
LINE
  8
0
 62
     0
 10
229.471
 20
122.997
 30
0.0
 11
228.67
 21
122.997
 31
0.0
  0
LINE
  8
0
 62
     0
 10
228.67
 20
122.997
 30
0.0
 11
228.67
 21
123.997
 31
0.0
  0
LINE
  8
0
 62
     0
 10
228.67
 20
123.997
 30
0.0
 11
214.671
 21
123.997
 31
0.0
  0
LINE
  8
0
 62
     0
 10
233.721
 20
123.997
 30
0.0
 11
233.721
 21
122.997
 31
0.0
  0
LINE
  8
0
 62
     0
 10
233.721
 20
122.997
 30
0.0
 11
232.92
 21
122.997
 31
0.0
  0
LINE
  8
0
 62
     0
 10
232.92
 20
122.997
 30
0.0
 11
232.92
 21
119.898
 31
0.0
  0
LINE
  8
0
 62
     0
 10
232.92
 20
119.898
 30
0.0
 11
233.721
 21
119.898
 31
0.0
  0
LINE
  8
0
 62
     0
 10
233.721
 20
119.898
 30
0.0
 11
233.721
 21
114.098
 31
0.0
  0
LINE
  8
0
 62
     0
 10
233.721
 20
114.098
 30
0.0
 11
232.92
 21
114.098
 31
0.0
  0
LINE
  8
0
 62
     0
 10
232.92
 20
114.098
 30
0.0
 11
232.92
 21
110.997
 31
0.0
  0
LINE
  8
0
 62
     0
 10
232.92
 20
110.997
 30
0.0
 11
233.721
 21
110.997
 31
0.0
  0
LINE
  8
0
 62
     0
 10
233.721
 20
110.997
 30
0.0
 11
233.721
 21
109.996
 31
0.0
  0
LINE
  8
0
 62
     0
 10
233.721
 20
109.996
 30
0.0
 11
247.72
 21
109.996
 31
0.0
  0
LINE
  8
0
 62
     0
 10
247.72
 20
109.996
 30
0.0
 11
247.72
 21
110.997
 31
0.0
  0
LINE
  8
0
 62
     0
 10
247.72
 20
110.997
 30
0.0
 11
248.521
 21
110.997
 31
0.0
  0
LINE
  8
0
 62
     0
 10
248.521
 20
110.997
 30
0.0
 11
248.521
 21
114.098
 31
0.0
  0
LINE
  8
0
 62
     0
 10
248.521
 20
114.098
 30
0.0
 11
247.72
 21
114.098
 31
0.0
  0
LINE
  8
0
 62
     0
 10
247.72
 20
114.098
 30
0.0
 11
247.72
 21
119.898
 31
0.0
  0
LINE
  8
0
 62
     0
 10
247.72
 20
119.898
 30
0.0
 11
248.521
 21
119.898
 31
0.0
  0
LINE
  8
0
 62
     0
 10
248.521
 20
119.898
 30
0.0
 11
248.521
 21
122.997
 31
0.0
  0
LINE
  8
0
 62
     0
 10
248.521
 20
122.997
 30
0.0
 11
247.72
 21
122.997
 31
0.0
  0
LINE
  8
0
 62
     0
 10
247.72
 20
122.997
 30
0.0
 11
247.72
 21
123.997
 31
0.0
  0
LINE
  8
0
 62
     0
 10
247.72
 20
123.997
 30
0.0
 11
233.721
 21
123.997
 31
0.0
  0
LINE
  8
0
 62
     0
 10
252.771
 20
123.997
 30
0.0
 11
252.771
 21
122.997
 31
0.0
  0
LINE
  8
0
 62
     0
 10
252.771
 20
122.997
 30
0.0
 11
251.97
 21
122.997
 31
0.0
  0
LINE
  8
0
 62
     0
 10
251.97
 20
122.997
 30
0.0
 11
251.97
 21
119.898
 31
0.0
  0
LINE
  8
0
 62
     0
 10
251.97
 20
119.898
 30
0.0
 11
252.771
 21
119.898
 31
0.0
  0
LINE
  8
0
 62
     0
 10
252.771
 20
119.898
 30
0.0
 11
252.771
 21
114.098
 31
0.0
  0
LINE
  8
0
 62
     0
 10
252.771
 20
114.098
 30
0.0
 11
251.97
 21
114.098
 31
0.0
  0
LINE
  8
0
 62
     0
 10
251.97
 20
114.098
 30
0.0
 11
251.97
 21
110.997
 31
0.0
  0
LINE
  8
0
 62
     0
 10
251.97
 20
110.997
 30
0.0
 11
252.771
 21
110.997
 31
0.0
  0
LINE
  8
0
 62
     0
 10
252.771
 20
110.997
 30
0.0
 11
252.771
 21
109.996
 31
0.0
  0
LINE
  8
0
 62
     0
 10
252.771
 20
109.996
 30
0.0
 11
266.77
 21
109.996
 31
0.0
  0
LINE
  8
0
 62
     0
 10
266.77
 20
109.996
 30
0.0
 11
266.77
 21
110.997
 31
0.0
  0
LINE
  8
0
 62
     0
 10
266.77
 20
110.997
 30
0.0
 11
267.571
 21
110.997
 31
0.0
  0
LINE
  8
0
 62
     0
 10
267.571
 20
110.997
 30
0.0
 11
267.571
 21
114.098
 31
0.0
  0
LINE
  8
0
 62
     0
 10
267.571
 20
114.098
 30
0.0
 11
266.77
 21
114.098
 31
0.0
  0
LINE
  8
0
 62
     0
 10
266.77
 20
114.098
 30
0.0
 11
266.77
 21
119.898
 31
0.0
  0
LINE
  8
0
 62
     0
 10
266.77
 20
119.898
 30
0.0
 11
267.571
 21
119.898
 31
0.0
  0
LINE
  8
0
 62
     0
 10
267.571
 20
119.898
 30
0.0
 11
267.571
 21
122.997
 31
0.0
  0
LINE
  8
0
 62
     0
 10
267.571
 20
122.997
 30
0.0
 11
266.77
 21
122.997
 31
0.0
  0
LINE
  8
0
 62
     0
 10
266.77
 20
122.997
 30
0.0
 11
266.77
 21
123.997
 31
0.0
  0
LINE
  8
0
 62
     0
 10
266.77
 20
123.997
 30
0.0
 11
252.771
 21
123.997
 31
0.0
  0
LINE
  8
0
 62
     0
 10
271.821
 20
123.997
 30
0.0
 11
271.821
 21
122.997
 31
0.0
  0
LINE
  8
0
 62
     0
 10
271.821
 20
122.997
 30
0.0
 11
271.02
 21
122.997
 31
0.0
  0
LINE
  8
0
 62
     0
 10
271.02
 20
122.997
 30
0.0
 11
271.02
 21
119.898
 31
0.0
  0
LINE
  8
0
 62
     0
 10
271.02
 20
119.898
 30
0.0
 11
271.821
 21
119.898
 31
0.0
  0
LINE
  8
0
 62
     0
 10
271.821
 20
119.898
 30
0.0
 11
271.821
 21
114.098
 31
0.0
  0
LINE
  8
0
 62
     0
 10
271.821
 20
114.098
 30
0.0
 11
271.02
 21
114.098
 31
0.0
  0
LINE
  8
0
 62
     0
 10
271.02
 20
114.098
 30
0.0
 11
271.02
 21
110.997
 31
0.0
  0
LINE
  8
0
 62
     0
 10
271.02
 20
110.997
 30
0.0
 11
271.821
 21
110.997
 31
0.0
  0
LINE
  8
0
 62
     0
 10
271.821
 20
110.997
 30
0.0
 11
271.821
 21
109.996
 31
0.0
  0
LINE
  8
0
 62
     0
 10
271.821
 20
109.996
 30
0.0
 11
285.82
 21
109.996
 31
0.0
  0
LINE
  8
0
 62
     0
 10
285.82
 20
109.996
 30
0.0
 11
285.82
 21
110.997
 31
0.0
  0
LINE
  8
0
 62
     0
 10
285.82
 20
110.997
 30
0.0
 11
286.621
 21
110.997
 31
0.0
  0
LINE
  8
0
 62
     0
 10
286.621
 20
110.997
 30
0.0
 11
286.621
 21
114.098
 31
0.0
  0
LINE
  8
0
 62
     0
 10
286.621
 20
114.098
 30
0.0
 11
285.82
 21
114.098
 31
0.0
  0
LINE
  8
0
 62
     0
 10
285.82
 20
114.098
 30
0.0
 11
285.82
 21
119.898
 31
0.0
  0
LINE
  8
0
 62
     0
 10
285.82
 20
119.898
 30
0.0
 11
286.621
 21
119.898
 31
0.0
  0
LINE
  8
0
 62
     0
 10
286.621
 20
119.898
 30
0.0
 11
286.621
 21
122.997
 31
0.0
  0
LINE
  8
0
 62
     0
 10
286.621
 20
122.997
 30
0.0
 11
285.82
 21
122.997
 31
0.0
  0
LINE
  8
0
 62
     0
 10
285.82
 20
122.997
 30
0.0
 11
285.82
 21
123.997
 31
0.0
  0
LINE
  8
0
 62
     0
 10
285.82
 20
123.997
 30
0.0
 11
271.821
 21
123.997
 31
0.0
  0
LINE
  8
0
 62
     0
 10
295.632
 20
123.997
 30
0.0
 11
295.632
 21
122.997
 31
0.0
  0
LINE
  8
0
 62
     0
 10
295.632
 20
122.997
 30
0.0
 11
294.833
 21
122.997
 31
0.0
  0
LINE
  8
0
 62
     0
 10
294.833
 20
122.997
 30
0.0
 11
294.833
 21
119.898
 31
0.0
  0
LINE
  8
0
 62
     0
 10
294.833
 20
119.898
 30
0.0
 11
295.632
 21
119.898
 31
0.0
  0
LINE
  8
0
 62
     0
 10
295.632
 20
119.898
 30
0.0
 11
295.632
 21
114.098
 31
0.0
  0
LINE
  8
0
 62
     0
 10
295.632
 20
114.098
 30
0.0
 11
294.833
 21
114.098
 31
0.0
  0
LINE
  8
0
 62
     0
 10
294.833
 20
114.098
 30
0.0
 11
294.833
 21
110.997
 31
0.0
  0
LINE
  8
0
 62
     0
 10
294.833
 20
110.997
 30
0.0
 11
295.632
 21
110.997
 31
0.0
  0
LINE
  8
0
 62
     0
 10
295.632
 20
110.997
 30
0.0
 11
295.632
 21
109.996
 31
0.0
  0
LINE
  8
0
 62
     0
 10
295.632
 20
109.996
 30
0.0
 11
309.633
 21
109.996
 31
0.0
  0
LINE
  8
0
 62
     0
 10
309.633
 20
109.996
 30
0.0
 11
309.633
 21
110.997
 31
0.0
  0
LINE
  8
0
 62
     0
 10
309.633
 20
110.997
 30
0.0
 11
310.432
 21
110.997
 31
0.0
  0
LINE
  8
0
 62
     0
 10
310.432
 20
110.997
 30
0.0
 11
310.432
 21
114.098
 31
0.0
  0
LINE
  8
0
 62
     0
 10
310.432
 20
114.098
 30
0.0
 11
309.633
 21
114.098
 31
0.0
  0
LINE
  8
0
 62
     0
 10
309.633
 20
114.098
 30
0.0
 11
309.633
 21
119.898
 31
0.0
  0
LINE
  8
0
 62
     0
 10
309.633
 20
119.898
 30
0.0
 11
310.432
 21
119.898
 31
0.0
  0
LINE
  8
0
 62
     0
 10
310.432
 20
119.898
 30
0.0
 11
310.432
 21
122.997
 31
0.0
  0
LINE
  8
0
 62
     0
 10
310.432
 20
122.997
 30
0.0
 11
309.633
 21
122.997
 31
0.0
  0
LINE
  8
0
 62
     0
 10
309.633
 20
122.997
 30
0.0
 11
309.633
 21
123.997
 31
0.0
  0
LINE
  8
0
 62
     0
 10
309.633
 20
123.997
 30
0.0
 11
295.632
 21
123.997
 31
0.0
  0
LINE
  8
0
 62
     0
 10
324.207
 20
123.997
 30
0.0
 11
324.207
 21
122.997
 31
0.0
  0
LINE
  8
0
 62
     0
 10
324.207
 20
122.997
 30
0.0
 11
323.408
 21
122.997
 31
0.0
  0
LINE
  8
0
 62
     0
 10
323.408
 20
122.997
 30
0.0
 11
323.408
 21
119.898
 31
0.0
  0
LINE
  8
0
 62
     0
 10
323.408
 20
119.898
 30
0.0
 11
324.207
 21
119.898
 31
0.0
  0
LINE
  8
0
 62
     0
 10
324.207
 20
119.898
 30
0.0
 11
324.207
 21
114.098
 31
0.0
  0
LINE
  8
0
 62
     0
 10
324.207
 20
114.098
 30
0.0
 11
323.408
 21
114.098
 31
0.0
  0
LINE
  8
0
 62
     0
 10
323.408
 20
114.098
 30
0.0
 11
323.408
 21
110.997
 31
0.0
  0
LINE
  8
0
 62
     0
 10
323.408
 20
110.997
 30
0.0
 11
324.207
 21
110.997
 31
0.0
  0
LINE
  8
0
 62
     0
 10
324.207
 20
110.997
 30
0.0
 11
324.207
 21
109.996
 31
0.0
  0
LINE
  8
0
 62
     0
 10
324.207
 20
109.996
 30
0.0
 11
338.208
 21
109.996
 31
0.0
  0
LINE
  8
0
 62
     0
 10
338.208
 20
109.996
 30
0.0
 11
338.208
 21
110.997
 31
0.0
  0
LINE
  8
0
 62
     0
 10
338.208
 20
110.997
 30
0.0
 11
339.007
 21
110.997
 31
0.0
  0
LINE
  8
0
 62
     0
 10
339.007
 20
110.997
 30
0.0
 11
339.007
 21
114.098
 31
0.0
  0
LINE
  8
0
 62
     0
 10
339.007
 20
114.098
 30
0.0
 11
338.208
 21
114.098
 31
0.0
  0
LINE
  8
0
 62
     0
 10
338.208
 20
114.098
 30
0.0
 11
338.208
 21
119.898
 31
0.0
  0
LINE
  8
0
 62
     0
 10
338.208
 20
119.898
 30
0.0
 11
339.007
 21
119.898
 31
0.0
  0
LINE
  8
0
 62
     0
 10
339.007
 20
119.898
 30
0.0
 11
339.007
 21
122.997
 31
0.0
  0
LINE
  8
0
 62
     0
 10
339.007
 20
122.997
 30
0.0
 11
338.208
 21
122.997
 31
0.0
  0
LINE
  8
0
 62
     0
 10
338.208
 20
122.997
 30
0.0
 11
338.208
 21
123.997
 31
0.0
  0
LINE
  8
0
 62
     0
 10
338.208
 20
123.997
 30
0.0
 11
324.207
 21
123.997
 31
0.0
  0
ENDSEC
  0
EOF
