  0
SECTION
  2
HEADER
  9
$ACADVER
  1
AC1009
  9
$FILLMODE
 70
 0
  9
$SPLFRAME
 70
 1
  9
$EXTMIN
 10
0
 20
0
 30
0.0
  9
$EXTMAX
 10
1058.33
 20
1058.33
 30
0.0
  0
ENDSEC
  0
SECTION
  2
TABLES
  0
TABLE
  2
LAYER
 70
1
  0
LAYER
  2
0
 70
     0
 62
     7
  6
CONTINUOUS
  0
ENDTAB
  0
ENDSEC
  0
SECTION
  2
ENTITIES
  0
LINE
  8
0
 62
     0
 10
340.734
 20
129.021
 30
0.0
 11
340.929
 21
129.015
 31
0.0
  0
LINE
  8
0
 62
     0
 10
340.929
 20
129.015
 30
0.0
 11
341.125
 21
128.991
 31
0.0
  0
LINE
  8
0
 62
     0
 10
341.125
 20
128.991
 30
0.0
 11
341.318
 21
128.953
 31
0.0
  0
LINE
  8
0
 62
     0
 10
341.318
 20
128.953
 30
0.0
 11
341.507
 21
128.899
 31
0.0
  0
LINE
  8
0
 62
     0
 10
341.507
 20
128.899
 30
0.0
 11
341.69
 21
128.831
 31
0.0
  0
LINE
  8
0
 62
     0
 10
341.69
 20
128.831
 30
0.0
 11
341.868
 21
128.749
 31
0.0
  0
LINE
  8
0
 62
     0
 10
341.868
 20
128.749
 30
0.0
 11
342.04
 21
128.654
 31
0.0
  0
LINE
  8
0
 62
     0
 10
342.04
 20
128.654
 30
0.0
 11
342.203
 21
128.545
 31
0.0
  0
LINE
  8
0
 62
     0
 10
342.203
 20
128.545
 30
0.0
 11
342.357
 21
128.423
 31
0.0
  0
LINE
  8
0
 62
     0
 10
342.357
 20
128.423
 30
0.0
 11
342.502
 21
128.29
 31
0.0
  0
LINE
  8
0
 62
     0
 10
342.502
 20
128.29
 30
0.0
 11
342.634
 21
128.145
 31
0.0
  0
LINE
  8
0
 62
     0
 10
342.634
 20
128.145
 30
0.0
 11
342.757
 21
127.991
 31
0.0
  0
LINE
  8
0
 62
     0
 10
342.757
 20
127.991
 30
0.0
 11
342.865
 21
127.828
 31
0.0
  0
LINE
  8
0
 62
     0
 10
342.865
 20
127.828
 30
0.0
 11
342.962
 21
127.656
 31
0.0
  0
LINE
  8
0
 62
     0
 10
342.962
 20
127.656
 30
0.0
 11
343.043
 21
127.478
 31
0.0
  0
LINE
  8
0
 62
     0
 10
343.043
 20
127.478
 30
0.0
 11
343.111
 21
127.294
 31
0.0
  0
LINE
  8
0
 62
     0
 10
343.111
 20
127.294
 30
0.0
 11
343.165
 21
127.105
 31
0.0
  0
LINE
  8
0
 62
     0
 10
343.165
 20
127.105
 30
0.0
 11
343.203
 21
126.913
 31
0.0
  0
LINE
  8
0
 62
     0
 10
343.203
 20
126.913
 30
0.0
 11
343.225
 21
126.717
 31
0.0
  0
LINE
  8
0
 62
     0
 10
343.225
 20
126.717
 30
0.0
 11
343.233
 21
126.522
 31
0.0
  0
LINE
  8
0
 62
     0
 10
343.233
 20
126.522
 30
0.0
 11
343.233
 21
2.69544
 31
0.0
  0
LINE
  8
0
 62
     0
 10
343.233
 20
2.69544
 30
0.0
 11
343.225
 21
2.49976
 31
0.0
  0
LINE
  8
0
 62
     0
 10
343.225
 20
2.49976
 30
0.0
 11
343.203
 21
2.30408
 31
0.0
  0
LINE
  8
0
 62
     0
 10
343.203
 20
2.30408
 30
0.0
 11
343.165
 21
2.11253
 31
0.0
  0
LINE
  8
0
 62
     0
 10
343.165
 20
2.11253
 30
0.0
 11
343.111
 21
1.92374
 31
0.0
  0
LINE
  8
0
 62
     0
 10
343.111
 20
1.92374
 30
0.0
 11
343.043
 21
1.73909
 31
0.0
  0
LINE
  8
0
 62
     0
 10
343.043
 20
1.73909
 30
0.0
 11
342.962
 21
1.56132
 31
0.0
  0
LINE
  8
0
 62
     0
 10
342.962
 20
1.56132
 30
0.0
 11
342.865
 21
1.38906
 31
0.0
  0
LINE
  8
0
 62
     0
 10
342.865
 20
1.38906
 30
0.0
 11
342.757
 21
1.22645
 31
0.0
  0
LINE
  8
0
 62
     0
 10
342.757
 20
1.22645
 30
0.0
 11
342.634
 21
1.07211
 31
0.0
  0
LINE
  8
0
 62
     0
 10
342.634
 20
1.07211
 30
0.0
 11
342.502
 21
0.928797
 31
0.0
  0
LINE
  8
0
 62
     0
 10
342.502
 20
0.928797
 30
0.0
 11
342.357
 21
0.79375
 31
0.0
  0
LINE
  8
0
 62
     0
 10
342.357
 20
0.79375
 30
0.0
 11
342.203
 21
0.673862
 31
0.0
  0
LINE
  8
0
 62
     0
 10
342.203
 20
0.673862
 30
0.0
 11
342.04
 21
0.563619
 31
0.0
  0
LINE
  8
0
 62
     0
 10
342.04
 20
0.563619
 30
0.0
 11
341.868
 21
0.468535
 31
0.0
  0
LINE
  8
0
 62
     0
 10
341.868
 20
0.468535
 30
0.0
 11
341.69
 21
0.385851
 31
0.0
  0
LINE
  8
0
 62
     0
 10
341.69
 20
0.385851
 30
0.0
 11
341.507
 21
0.318327
 31
0.0
  0
LINE
  8
0
 62
     0
 10
341.507
 20
0.318327
 30
0.0
 11
341.318
 21
0.264583
 31
0.0
  0
LINE
  8
0
 62
     0
 10
341.318
 20
0.264583
 30
0.0
 11
341.125
 21
0.225998
 31
0.0
  0
LINE
  8
0
 62
     0
 10
341.125
 20
0.225998
 30
0.0
 11
340.929
 21
0.202572
 31
0.0
  0
LINE
  8
0
 62
     0
 10
340.929
 20
0.202572
 30
0.0
 11
340.734
 21
0.195682
 31
0.0
  0
LINE
  8
0
 62
     0
 10
340.734
 20
0.195682
 30
0.0
 11
2.59485
 21
0.195682
 31
0.0
  0
LINE
  8
0
 62
     0
 10
2.59485
 20
0.195682
 30
0.0
 11
2.39916
 21
0.202572
 31
0.0
  0
LINE
  8
0
 62
     0
 10
2.39916
 20
0.202572
 30
0.0
 11
2.20348
 21
0.225998
 31
0.0
  0
LINE
  8
0
 62
     0
 10
2.20348
 20
0.225998
 30
0.0
 11
2.01194
 21
0.264583
 31
0.0
  0
LINE
  8
0
 62
     0
 10
2.01194
 20
0.264583
 30
0.0
 11
1.82315
 21
0.318327
 31
0.0
  0
LINE
  8
0
 62
     0
 10
1.82315
 20
0.318327
 30
0.0
 11
1.63849
 21
0.385851
 31
0.0
  0
LINE
  8
0
 62
     0
 10
1.63849
 20
0.385851
 30
0.0
 11
1.46072
 21
0.468535
 31
0.0
  0
LINE
  8
0
 62
     0
 10
1.46072
 20
0.468535
 30
0.0
 11
1.28846
 21
0.563619
 31
0.0
  0
LINE
  8
0
 62
     0
 10
1.28846
 20
0.563619
 30
0.0
 11
1.12586
 21
0.673862
 31
0.0
  0
LINE
  8
0
 62
     0
 10
1.12586
 20
0.673862
 30
0.0
 11
0.971518
 21
0.79375
 31
0.0
  0
LINE
  8
0
 62
     0
 10
0.971518
 20
0.79375
 30
0.0
 11
0.826823
 21
0.928797
 31
0.0
  0
LINE
  8
0
 62
     0
 10
0.826823
 20
0.928797
 30
0.0
 11
0.693152
 21
1.07211
 31
0.0
  0
LINE
  8
0
 62
     0
 10
0.693152
 20
1.07211
 30
0.0
 11
0.571885
 21
1.22645
 31
0.0
  0
LINE
  8
0
 62
     0
 10
0.571885
 20
1.22645
 30
0.0
 11
0.463021
 21
1.38906
 31
0.0
  0
LINE
  8
0
 62
     0
 10
0.463021
 20
1.38906
 30
0.0
 11
0.367937
 21
1.56132
 31
0.0
  0
LINE
  8
0
 62
     0
 10
0.367937
 20
1.56132
 30
0.0
 11
0.285254
 21
1.73909
 31
0.0
  0
LINE
  8
0
 62
     0
 10
0.285254
 20
1.73909
 30
0.0
 11
0.21773
 21
1.92374
 31
0.0
  0
LINE
  8
0
 62
     0
 10
0.21773
 20
1.92374
 30
0.0
 11
0.163987
 21
2.11253
 31
0.0
  0
LINE
  8
0
 62
     0
 10
0.163987
 20
2.11253
 30
0.0
 11
0.125402
 21
2.30408
 31
0.0
  0
LINE
  8
0
 62
     0
 10
0.125402
 20
2.30408
 30
0.0
 11
0.101975
 21
2.49976
 31
0.0
  0
LINE
  8
0
 62
     0
 10
0.101975
 20
2.49976
 30
0.0
 11
0.0950846
 21
2.69544
 31
0.0
  0
LINE
  8
0
 62
     0
 10
0.0950846
 20
2.69544
 30
0.0
 11
0.0950846
 21
126.522
 31
0.0
  0
LINE
  8
0
 62
     0
 10
0.0950846
 20
126.522
 30
0.0
 11
0.101975
 21
126.717
 31
0.0
  0
LINE
  8
0
 62
     0
 10
0.101975
 20
126.717
 30
0.0
 11
0.125402
 21
126.913
 31
0.0
  0
LINE
  8
0
 62
     0
 10
0.125402
 20
126.913
 30
0.0
 11
0.163987
 21
127.105
 31
0.0
  0
LINE
  8
0
 62
     0
 10
0.163987
 20
127.105
 30
0.0
 11
0.21773
 21
127.294
 31
0.0
  0
LINE
  8
0
 62
     0
 10
0.21773
 20
127.294
 30
0.0
 11
0.285254
 21
127.478
 31
0.0
  0
LINE
  8
0
 62
     0
 10
0.285254
 20
127.478
 30
0.0
 11
0.367937
 21
127.656
 31
0.0
  0
LINE
  8
0
 62
     0
 10
0.367937
 20
127.656
 30
0.0
 11
0.463021
 21
127.828
 31
0.0
  0
LINE
  8
0
 62
     0
 10
0.463021
 20
127.828
 30
0.0
 11
0.571885
 21
127.991
 31
0.0
  0
LINE
  8
0
 62
     0
 10
0.571885
 20
127.991
 30
0.0
 11
0.693152
 21
128.145
 31
0.0
  0
LINE
  8
0
 62
     0
 10
0.693152
 20
128.145
 30
0.0
 11
0.826823
 21
128.29
 31
0.0
  0
LINE
  8
0
 62
     0
 10
0.826823
 20
128.29
 30
0.0
 11
0.971518
 21
128.423
 31
0.0
  0
LINE
  8
0
 62
     0
 10
0.971518
 20
128.423
 30
0.0
 11
1.12586
 21
128.545
 31
0.0
  0
LINE
  8
0
 62
     0
 10
1.12586
 20
128.545
 30
0.0
 11
1.28846
 21
128.654
 31
0.0
  0
LINE
  8
0
 62
     0
 10
1.28846
 20
128.654
 30
0.0
 11
1.46072
 21
128.749
 31
0.0
  0
LINE
  8
0
 62
     0
 10
1.46072
 20
128.749
 30
0.0
 11
1.63849
 21
128.831
 31
0.0
  0
LINE
  8
0
 62
     0
 10
1.63849
 20
128.831
 30
0.0
 11
1.82315
 21
128.899
 31
0.0
  0
LINE
  8
0
 62
     0
 10
1.82315
 20
128.899
 30
0.0
 11
2.01194
 21
128.953
 31
0.0
  0
LINE
  8
0
 62
     0
 10
2.01194
 20
128.953
 30
0.0
 11
2.20348
 21
128.991
 31
0.0
  0
LINE
  8
0
 62
     0
 10
2.20348
 20
128.991
 30
0.0
 11
2.39916
 21
129.015
 31
0.0
  0
LINE
  8
0
 62
     0
 10
2.39916
 20
129.015
 30
0.0
 11
2.59485
 21
129.021
 31
0.0
  0
LINE
  8
0
 62
     0
 10
2.59485
 20
129.021
 30
0.0
 11
340.734
 21
129.021
 31
0.0
  0
LINE
  8
0
 62
     0
 10
281.346
 20
19.2209
 30
0.0
 11
295.345
 21
19.2209
 31
0.0
  0
LINE
  8
0
 62
     0
 10
295.345
 20
19.2209
 30
0.0
 11
295.345
 21
5.22139
 31
0.0
  0
LINE
  8
0
 62
     0
 10
295.345
 20
5.22139
 30
0.0
 11
281.346
 21
5.22139
 31
0.0
  0
LINE
  8
0
 62
     0
 10
281.346
 20
5.22139
 30
0.0
 11
281.346
 21
19.2209
 31
0.0
  0
LINE
  8
0
 62
     0
 10
300.396
 20
19.2209
 30
0.0
 11
314.395
 21
19.2209
 31
0.0
  0
LINE
  8
0
 62
     0
 10
314.395
 20
19.2209
 30
0.0
 11
314.395
 21
5.22139
 31
0.0
  0
LINE
  8
0
 62
     0
 10
314.395
 20
5.22139
 30
0.0
 11
300.396
 21
5.22139
 31
0.0
  0
LINE
  8
0
 62
     0
 10
300.396
 20
5.22139
 30
0.0
 11
300.396
 21
19.2209
 31
0.0
  0
LINE
  8
0
 62
     0
 10
319.446
 20
19.2209
 30
0.0
 11
333.445
 21
19.2209
 31
0.0
  0
LINE
  8
0
 62
     0
 10
333.445
 20
19.2209
 30
0.0
 11
333.445
 21
5.22139
 31
0.0
  0
LINE
  8
0
 62
     0
 10
333.445
 20
5.22139
 30
0.0
 11
319.446
 21
5.22139
 31
0.0
  0
LINE
  8
0
 62
     0
 10
319.446
 20
5.22139
 30
0.0
 11
319.446
 21
19.2209
 31
0.0
  0
LINE
  8
0
 62
     0
 10
150.377
 20
23.9848
 30
0.0
 11
150.377
 21
19.2843
 31
0.0
  0
LINE
  8
0
 62
     0
 10
150.377
 20
19.2843
 30
0.0
 11
110.751
 21
19.2843
 31
0.0
  0
LINE
  8
0
 62
     0
 10
110.751
 20
19.2843
 30
0.0
 11
110.751
 21
22.5144
 31
0.0
  0
LINE
  8
0
 62
     0
 10
110.751
 20
22.5144
 30
0.0
 11
109.026
 21
22.5144
 31
0.0
  0
LINE
  8
0
 62
     0
 10
109.026
 20
22.5144
 30
0.0
 11
109.026
 21
23.4335
 31
0.0
  0
LINE
  8
0
 62
     0
 10
109.026
 20
23.4335
 30
0.0
 11
105.726
 21
23.4335
 31
0.0
  0
LINE
  8
0
 62
     0
 10
105.726
 20
23.4335
 30
0.0
 11
105.726
 21
22.5144
 31
0.0
  0
LINE
  8
0
 62
     0
 10
105.726
 20
22.5144
 30
0.0
 11
104.002
 21
22.5144
 31
0.0
  0
LINE
  8
0
 62
     0
 10
104.002
 20
22.5144
 30
0.0
 11
104.002
 21
19.2843
 31
0.0
  0
LINE
  8
0
 62
     0
 10
104.002
 20
19.2843
 30
0.0
 11
103.177
 21
19.2843
 31
0.0
  0
LINE
  8
0
 62
     0
 10
103.177
 20
19.2843
 30
0.0
 11
103.177
 21
16.4841
 31
0.0
  0
LINE
  8
0
 62
     0
 10
103.177
 20
16.4841
 30
0.0
 11
104.002
 21
16.4841
 31
0.0
  0
LINE
  8
0
 62
     0
 10
104.002
 20
16.4841
 30
0.0
 11
104.002
 21
10.214
 31
0.0
  0
LINE
  8
0
 62
     0
 10
104.002
 20
10.214
 30
0.0
 11
105.726
 21
10.214
 31
0.0
  0
LINE
  8
0
 62
     0
 10
105.726
 20
10.214
 30
0.0
 11
105.726
 21
9.23424
 31
0.0
  0
LINE
  8
0
 62
     0
 10
105.726
 20
9.23424
 30
0.0
 11
109.026
 21
9.23424
 31
0.0
  0
LINE
  8
0
 62
     0
 10
109.026
 20
9.23424
 30
0.0
 11
109.026
 21
10.214
 31
0.0
  0
LINE
  8
0
 62
     0
 10
109.026
 20
10.214
 30
0.0
 11
110.751
 21
10.214
 31
0.0
  0
LINE
  8
0
 62
     0
 10
110.751
 20
10.214
 30
0.0
 11
110.751
 21
14.6844
 31
0.0
  0
LINE
  8
0
 62
     0
 10
110.751
 20
14.6844
 30
0.0
 11
150.377
 21
14.6844
 31
0.0
  0
LINE
  8
0
 62
     0
 10
150.377
 20
14.6844
 30
0.0
 11
150.377
 21
9.98389
 31
0.0
  0
LINE
  8
0
 62
     0
 10
150.377
 20
9.98389
 30
0.0
 11
164.376
 21
9.98389
 31
0.0
  0
LINE
  8
0
 62
     0
 10
164.376
 20
9.98389
 30
0.0
 11
164.376
 21
14.6844
 31
0.0
  0
LINE
  8
0
 62
     0
 10
164.376
 20
14.6844
 30
0.0
 11
204.002
 21
14.6844
 31
0.0
  0
LINE
  8
0
 62
     0
 10
204.002
 20
14.6844
 30
0.0
 11
204.002
 21
10.214
 31
0.0
  0
LINE
  8
0
 62
     0
 10
204.002
 20
10.214
 30
0.0
 11
205.726
 21
10.214
 31
0.0
  0
LINE
  8
0
 62
     0
 10
205.726
 20
10.214
 30
0.0
 11
205.726
 21
9.23424
 31
0.0
  0
LINE
  8
0
 62
     0
 10
205.726
 20
9.23424
 30
0.0
 11
209.026
 21
9.23424
 31
0.0
  0
LINE
  8
0
 62
     0
 10
209.026
 20
9.23424
 30
0.0
 11
209.026
 21
10.214
 31
0.0
  0
LINE
  8
0
 62
     0
 10
209.026
 20
10.214
 30
0.0
 11
210.752
 21
10.214
 31
0.0
  0
LINE
  8
0
 62
     0
 10
210.752
 20
10.214
 30
0.0
 11
210.752
 21
16.4841
 31
0.0
  0
LINE
  8
0
 62
     0
 10
210.752
 20
16.4841
 30
0.0
 11
211.577
 21
16.4841
 31
0.0
  0
LINE
  8
0
 62
     0
 10
211.577
 20
16.4841
 30
0.0
 11
211.577
 21
19.2843
 31
0.0
  0
LINE
  8
0
 62
     0
 10
211.577
 20
19.2843
 30
0.0
 11
210.752
 21
19.2843
 31
0.0
  0
LINE
  8
0
 62
     0
 10
210.752
 20
19.2843
 30
0.0
 11
210.752
 21
22.5144
 31
0.0
  0
LINE
  8
0
 62
     0
 10
210.752
 20
22.5144
 30
0.0
 11
209.026
 21
22.5144
 31
0.0
  0
LINE
  8
0
 62
     0
 10
209.026
 20
22.5144
 30
0.0
 11
209.026
 21
23.4335
 31
0.0
  0
LINE
  8
0
 62
     0
 10
209.026
 20
23.4335
 30
0.0
 11
205.726
 21
23.4335
 31
0.0
  0
LINE
  8
0
 62
     0
 10
205.726
 20
23.4335
 30
0.0
 11
205.726
 21
22.5144
 31
0.0
  0
LINE
  8
0
 62
     0
 10
205.726
 20
22.5144
 30
0.0
 11
204.002
 21
22.5144
 31
0.0
  0
LINE
  8
0
 62
     0
 10
204.002
 20
22.5144
 30
0.0
 11
204.002
 21
19.2843
 31
0.0
  0
LINE
  8
0
 62
     0
 10
204.002
 20
19.2843
 30
0.0
 11
164.376
 21
19.2843
 31
0.0
  0
LINE
  8
0
 62
     0
 10
164.376
 20
19.2843
 30
0.0
 11
164.376
 21
23.9848
 31
0.0
  0
LINE
  8
0
 62
     0
 10
164.376
 20
23.9848
 30
0.0
 11
150.377
 21
23.9848
 31
0.0
  0
LINE
  8
0
 62
     0
 10
5.11941
 20
23.9848
 30
0.0
 11
19.1203
 21
23.9848
 31
0.0
  0
LINE
  8
0
 62
     0
 10
19.1203
 20
23.9848
 30
0.0
 11
19.1203
 21
9.98389
 31
0.0
  0
LINE
  8
0
 62
     0
 10
19.1203
 20
9.98389
 30
0.0
 11
5.11941
 21
9.98389
 31
0.0
  0
LINE
  8
0
 62
     0
 10
5.11941
 20
9.98389
 30
0.0
 11
5.11941
 21
23.9848
 31
0.0
  0
LINE
  8
0
 62
     0
 10
31.3132
 20
23.9848
 30
0.0
 11
45.314
 21
23.9848
 31
0.0
  0
LINE
  8
0
 62
     0
 10
45.314
 20
23.9848
 30
0.0
 11
45.314
 21
9.98389
 31
0.0
  0
LINE
  8
0
 62
     0
 10
45.314
 20
9.98389
 30
0.0
 11
31.3132
 21
9.98389
 31
0.0
  0
LINE
  8
0
 62
     0
 10
31.3132
 20
9.98389
 30
0.0
 11
31.3132
 21
23.9848
 31
0.0
  0
LINE
  8
0
 62
     0
 10
55.1272
 20
23.9848
 30
0.0
 11
69.1265
 21
23.9848
 31
0.0
  0
LINE
  8
0
 62
     0
 10
69.1265
 20
23.9848
 30
0.0
 11
69.1265
 21
9.98389
 31
0.0
  0
LINE
  8
0
 62
     0
 10
69.1265
 20
9.98389
 30
0.0
 11
55.1272
 21
9.98389
 31
0.0
  0
LINE
  8
0
 62
     0
 10
55.1272
 20
9.98389
 30
0.0
 11
55.1272
 21
23.9848
 31
0.0
  0
LINE
  8
0
 62
     0
 10
78.9383
 20
23.9848
 30
0.0
 11
92.939
 21
23.9848
 31
0.0
  0
LINE
  8
0
 62
     0
 10
92.939
 20
23.9848
 30
0.0
 11
92.939
 21
9.98389
 31
0.0
  0
LINE
  8
0
 62
     0
 10
92.939
 20
9.98389
 30
0.0
 11
78.9383
 21
9.98389
 31
0.0
  0
LINE
  8
0
 62
     0
 10
78.9383
 20
9.98389
 30
0.0
 11
78.9383
 21
23.9848
 31
0.0
  0
LINE
  8
0
 62
     0
 10
219.432
 20
23.9848
 30
0.0
 11
233.433
 21
23.9848
 31
0.0
  0
LINE
  8
0
 62
     0
 10
233.433
 20
23.9848
 30
0.0
 11
233.433
 21
9.98389
 31
0.0
  0
LINE
  8
0
 62
     0
 10
233.433
 20
9.98389
 30
0.0
 11
219.432
 21
9.98389
 31
0.0
  0
LINE
  8
0
 62
     0
 10
219.432
 20
9.98389
 30
0.0
 11
219.432
 21
23.9848
 31
0.0
  0
LINE
  8
0
 62
     0
 10
238.482
 20
23.9848
 30
0.0
 11
252.483
 21
23.9848
 31
0.0
  0
LINE
  8
0
 62
     0
 10
252.483
 20
23.9848
 30
0.0
 11
252.483
 21
9.98389
 31
0.0
  0
LINE
  8
0
 62
     0
 10
252.483
 20
9.98389
 30
0.0
 11
238.482
 21
9.98389
 31
0.0
  0
LINE
  8
0
 62
     0
 10
238.482
 20
9.98389
 30
0.0
 11
238.482
 21
23.9848
 31
0.0
  0
LINE
  8
0
 62
     0
 10
257.532
 20
23.9848
 30
0.0
 11
271.533
 21
23.9848
 31
0.0
  0
LINE
  8
0
 62
     0
 10
271.533
 20
23.9848
 30
0.0
 11
271.533
 21
9.98389
 31
0.0
  0
LINE
  8
0
 62
     0
 10
271.533
 20
9.98389
 30
0.0
 11
257.532
 21
9.98389
 31
0.0
  0
LINE
  8
0
 62
     0
 10
257.532
 20
9.98389
 30
0.0
 11
257.532
 21
23.9848
 31
0.0
  0
LINE
  8
0
 62
     0
 10
300.396
 20
38.2707
 30
0.0
 11
314.395
 21
38.2707
 31
0.0
  0
LINE
  8
0
 62
     0
 10
314.395
 20
38.2707
 30
0.0
 11
314.395
 21
24.2714
 31
0.0
  0
LINE
  8
0
 62
     0
 10
314.395
 20
24.2714
 30
0.0
 11
300.396
 21
24.2714
 31
0.0
  0
LINE
  8
0
 62
     0
 10
300.396
 20
24.2714
 30
0.0
 11
300.396
 21
38.2707
 31
0.0
  0
LINE
  8
0
 62
     0
 10
38.457
 20
43.0347
 30
0.0
 11
38.457
 21
38.3342
 31
0.0
  0
LINE
  8
0
 62
     0
 10
38.457
 20
38.3342
 30
0.0
 11
36.9327
 21
38.3342
 31
0.0
  0
LINE
  8
0
 62
     0
 10
36.9327
 20
38.3342
 30
0.0
 11
36.9327
 21
41.5643
 31
0.0
  0
LINE
  8
0
 62
     0
 10
36.9327
 20
41.5643
 30
0.0
 11
35.2075
 21
41.5643
 31
0.0
  0
LINE
  8
0
 62
     0
 10
35.2075
 20
41.5643
 30
0.0
 11
35.2075
 21
42.4836
 31
0.0
  0
LINE
  8
0
 62
     0
 10
35.2075
 20
42.4836
 30
0.0
 11
31.9071
 21
42.4836
 31
0.0
  0
LINE
  8
0
 62
     0
 10
31.9071
 20
42.4836
 30
0.0
 11
31.9071
 21
41.5643
 31
0.0
  0
LINE
  8
0
 62
     0
 10
31.9071
 20
41.5643
 30
0.0
 11
30.1832
 21
41.5643
 31
0.0
  0
LINE
  8
0
 62
     0
 10
30.1832
 20
41.5643
 30
0.0
 11
30.1832
 21
38.3342
 31
0.0
  0
LINE
  8
0
 62
     0
 10
30.1832
 20
38.3342
 30
0.0
 11
29.3577
 21
38.3342
 31
0.0
  0
LINE
  8
0
 62
     0
 10
29.3577
 20
38.3342
 30
0.0
 11
29.3577
 21
35.5342
 31
0.0
  0
LINE
  8
0
 62
     0
 10
29.3577
 20
35.5342
 30
0.0
 11
30.1832
 21
35.5342
 31
0.0
  0
LINE
  8
0
 62
     0
 10
30.1832
 20
35.5342
 30
0.0
 11
30.1832
 21
29.264
 31
0.0
  0
LINE
  8
0
 62
     0
 10
30.1832
 20
29.264
 30
0.0
 11
31.9071
 21
29.264
 31
0.0
  0
LINE
  8
0
 62
     0
 10
31.9071
 20
29.264
 30
0.0
 11
31.9071
 21
28.2842
 31
0.0
  0
LINE
  8
0
 62
     0
 10
31.9071
 20
28.2842
 30
0.0
 11
35.2075
 21
28.2842
 31
0.0
  0
LINE
  8
0
 62
     0
 10
35.2075
 20
28.2842
 30
0.0
 11
35.2075
 21
29.264
 31
0.0
  0
LINE
  8
0
 62
     0
 10
35.2075
 20
29.264
 30
0.0
 11
36.9327
 21
29.264
 31
0.0
  0
LINE
  8
0
 62
     0
 10
36.9327
 20
29.264
 30
0.0
 11
36.9327
 21
33.7344
 31
0.0
  0
LINE
  8
0
 62
     0
 10
36.9327
 20
33.7344
 30
0.0
 11
38.457
 21
33.7344
 31
0.0
  0
LINE
  8
0
 62
     0
 10
38.457
 20
33.7344
 30
0.0
 11
38.457
 21
29.0339
 31
0.0
  0
LINE
  8
0
 62
     0
 10
38.457
 20
29.0339
 30
0.0
 11
52.4577
 21
29.0339
 31
0.0
  0
LINE
  8
0
 62
     0
 10
52.4577
 20
29.0339
 30
0.0
 11
52.4577
 21
33.7344
 31
0.0
  0
LINE
  8
0
 62
     0
 10
52.4577
 20
33.7344
 30
0.0
 11
53.9821
 21
33.7344
 31
0.0
  0
LINE
  8
0
 62
     0
 10
53.9821
 20
33.7344
 30
0.0
 11
53.9821
 21
29.264
 31
0.0
  0
LINE
  8
0
 62
     0
 10
53.9821
 20
29.264
 30
0.0
 11
55.7071
 21
29.264
 31
0.0
  0
LINE
  8
0
 62
     0
 10
55.7071
 20
29.264
 30
0.0
 11
55.7071
 21
28.2842
 31
0.0
  0
LINE
  8
0
 62
     0
 10
55.7071
 20
28.2842
 30
0.0
 11
59.0077
 21
28.2842
 31
0.0
  0
LINE
  8
0
 62
     0
 10
59.0077
 20
28.2842
 30
0.0
 11
59.0077
 21
29.264
 31
0.0
  0
LINE
  8
0
 62
     0
 10
59.0077
 20
29.264
 30
0.0
 11
60.7328
 21
29.264
 31
0.0
  0
LINE
  8
0
 62
     0
 10
60.7328
 20
29.264
 30
0.0
 11
60.7328
 21
35.5342
 31
0.0
  0
LINE
  8
0
 62
     0
 10
60.7328
 20
35.5342
 30
0.0
 11
61.5569
 21
35.5342
 31
0.0
  0
LINE
  8
0
 62
     0
 10
61.5569
 20
35.5342
 30
0.0
 11
61.5569
 21
38.3342
 31
0.0
  0
LINE
  8
0
 62
     0
 10
61.5569
 20
38.3342
 30
0.0
 11
60.7328
 21
38.3342
 31
0.0
  0
LINE
  8
0
 62
     0
 10
60.7328
 20
38.3342
 30
0.0
 11
60.7328
 21
41.5643
 31
0.0
  0
LINE
  8
0
 62
     0
 10
60.7328
 20
41.5643
 30
0.0
 11
59.0077
 21
41.5643
 31
0.0
  0
LINE
  8
0
 62
     0
 10
59.0077
 20
41.5643
 30
0.0
 11
59.0077
 21
42.4836
 31
0.0
  0
LINE
  8
0
 62
     0
 10
59.0077
 20
42.4836
 30
0.0
 11
55.7071
 21
42.4836
 31
0.0
  0
LINE
  8
0
 62
     0
 10
55.7071
 20
42.4836
 30
0.0
 11
55.7071
 21
41.5643
 31
0.0
  0
LINE
  8
0
 62
     0
 10
55.7071
 20
41.5643
 30
0.0
 11
53.9821
 21
41.5643
 31
0.0
  0
LINE
  8
0
 62
     0
 10
53.9821
 20
41.5643
 30
0.0
 11
53.9821
 21
38.3342
 31
0.0
  0
LINE
  8
0
 62
     0
 10
53.9821
 20
38.3342
 30
0.0
 11
52.4577
 21
38.3342
 31
0.0
  0
LINE
  8
0
 62
     0
 10
52.4577
 20
38.3342
 30
0.0
 11
52.4577
 21
43.0347
 31
0.0
  0
LINE
  8
0
 62
     0
 10
52.4577
 20
43.0347
 30
0.0
 11
38.457
 21
43.0347
 31
0.0
  0
LINE
  8
0
 62
     0
 10
267.057
 20
43.0347
 30
0.0
 11
267.057
 21
38.3342
 31
0.0
  0
LINE
  8
0
 62
     0
 10
267.057
 20
38.3342
 30
0.0
 11
265.533
 21
38.3342
 31
0.0
  0
LINE
  8
0
 62
     0
 10
265.533
 20
38.3342
 30
0.0
 11
265.533
 21
41.5643
 31
0.0
  0
LINE
  8
0
 62
     0
 10
265.533
 20
41.5643
 30
0.0
 11
263.808
 21
41.5643
 31
0.0
  0
LINE
  8
0
 62
     0
 10
263.808
 20
41.5643
 30
0.0
 11
263.808
 21
42.4836
 31
0.0
  0
LINE
  8
0
 62
     0
 10
263.808
 20
42.4836
 30
0.0
 11
260.507
 21
42.4836
 31
0.0
  0
LINE
  8
0
 62
     0
 10
260.507
 20
42.4836
 30
0.0
 11
260.507
 21
41.5643
 31
0.0
  0
LINE
  8
0
 62
     0
 10
260.507
 20
41.5643
 30
0.0
 11
258.783
 21
41.5643
 31
0.0
  0
LINE
  8
0
 62
     0
 10
258.783
 20
41.5643
 30
0.0
 11
258.783
 21
38.3342
 31
0.0
  0
LINE
  8
0
 62
     0
 10
258.783
 20
38.3342
 30
0.0
 11
257.958
 21
38.3342
 31
0.0
  0
LINE
  8
0
 62
     0
 10
257.958
 20
38.3342
 30
0.0
 11
257.958
 21
35.5342
 31
0.0
  0
LINE
  8
0
 62
     0
 10
257.958
 20
35.5342
 30
0.0
 11
258.783
 21
35.5342
 31
0.0
  0
LINE
  8
0
 62
     0
 10
258.783
 20
35.5342
 30
0.0
 11
258.783
 21
29.264
 31
0.0
  0
LINE
  8
0
 62
     0
 10
258.783
 20
29.264
 30
0.0
 11
260.507
 21
29.264
 31
0.0
  0
LINE
  8
0
 62
     0
 10
260.507
 20
29.264
 30
0.0
 11
260.507
 21
28.2842
 31
0.0
  0
LINE
  8
0
 62
     0
 10
260.507
 20
28.2842
 30
0.0
 11
263.808
 21
28.2842
 31
0.0
  0
LINE
  8
0
 62
     0
 10
263.808
 20
28.2842
 30
0.0
 11
263.808
 21
29.264
 31
0.0
  0
LINE
  8
0
 62
     0
 10
263.808
 20
29.264
 30
0.0
 11
265.533
 21
29.264
 31
0.0
  0
LINE
  8
0
 62
     0
 10
265.533
 20
29.264
 30
0.0
 11
265.533
 21
33.7344
 31
0.0
  0
LINE
  8
0
 62
     0
 10
265.533
 20
33.7344
 30
0.0
 11
267.057
 21
33.7344
 31
0.0
  0
LINE
  8
0
 62
     0
 10
267.057
 20
33.7344
 30
0.0
 11
267.057
 21
29.0339
 31
0.0
  0
LINE
  8
0
 62
     0
 10
267.057
 20
29.0339
 30
0.0
 11
281.058
 21
29.0339
 31
0.0
  0
LINE
  8
0
 62
     0
 10
281.058
 20
29.0339
 30
0.0
 11
281.058
 21
33.7344
 31
0.0
  0
LINE
  8
0
 62
     0
 10
281.058
 20
33.7344
 30
0.0
 11
282.582
 21
33.7344
 31
0.0
  0
LINE
  8
0
 62
     0
 10
282.582
 20
33.7344
 30
0.0
 11
282.582
 21
29.264
 31
0.0
  0
LINE
  8
0
 62
     0
 10
282.582
 20
29.264
 30
0.0
 11
284.307
 21
29.264
 31
0.0
  0
LINE
  8
0
 62
     0
 10
284.307
 20
29.264
 30
0.0
 11
284.307
 21
28.2842
 31
0.0
  0
LINE
  8
0
 62
     0
 10
284.307
 20
28.2842
 30
0.0
 11
287.608
 21
28.2842
 31
0.0
  0
LINE
  8
0
 62
     0
 10
287.608
 20
28.2842
 30
0.0
 11
287.608
 21
29.264
 31
0.0
  0
LINE
  8
0
 62
     0
 10
287.608
 20
29.264
 30
0.0
 11
289.333
 21
29.264
 31
0.0
  0
LINE
  8
0
 62
     0
 10
289.333
 20
29.264
 30
0.0
 11
289.333
 21
35.5342
 31
0.0
  0
LINE
  8
0
 62
     0
 10
289.333
 20
35.5342
 30
0.0
 11
290.157
 21
35.5342
 31
0.0
  0
LINE
  8
0
 62
     0
 10
290.157
 20
35.5342
 30
0.0
 11
290.157
 21
38.3342
 31
0.0
  0
LINE
  8
0
 62
     0
 10
290.157
 20
38.3342
 30
0.0
 11
289.333
 21
38.3342
 31
0.0
  0
LINE
  8
0
 62
     0
 10
289.333
 20
38.3342
 30
0.0
 11
289.333
 21
41.5643
 31
0.0
  0
LINE
  8
0
 62
     0
 10
289.333
 20
41.5643
 30
0.0
 11
287.608
 21
41.5643
 31
0.0
  0
LINE
  8
0
 62
     0
 10
287.608
 20
41.5643
 30
0.0
 11
287.608
 21
42.4836
 31
0.0
  0
LINE
  8
0
 62
     0
 10
287.608
 20
42.4836
 30
0.0
 11
284.307
 21
42.4836
 31
0.0
  0
LINE
  8
0
 62
     0
 10
284.307
 20
42.4836
 30
0.0
 11
284.307
 21
41.5643
 31
0.0
  0
LINE
  8
0
 62
     0
 10
284.307
 20
41.5643
 30
0.0
 11
282.582
 21
41.5643
 31
0.0
  0
LINE
  8
0
 62
     0
 10
282.582
 20
41.5643
 30
0.0
 11
282.582
 21
38.3342
 31
0.0
  0
LINE
  8
0
 62
     0
 10
282.582
 20
38.3342
 30
0.0
 11
281.058
 21
38.3342
 31
0.0
  0
LINE
  8
0
 62
     0
 10
281.058
 20
38.3342
 30
0.0
 11
281.058
 21
43.0347
 31
0.0
  0
LINE
  8
0
 62
     0
 10
281.058
 20
43.0347
 30
0.0
 11
267.057
 21
43.0347
 31
0.0
  0
LINE
  8
0
 62
     0
 10
5.11941
 20
43.0347
 30
0.0
 11
19.1203
 21
43.0347
 31
0.0
  0
LINE
  8
0
 62
     0
 10
19.1203
 20
43.0347
 30
0.0
 11
19.1203
 21
29.0339
 31
0.0
  0
LINE
  8
0
 62
     0
 10
19.1203
 20
29.0339
 30
0.0
 11
5.11941
 21
29.0339
 31
0.0
  0
LINE
  8
0
 62
     0
 10
5.11941
 20
29.0339
 30
0.0
 11
5.11941
 21
43.0347
 31
0.0
  0
LINE
  8
0
 62
     0
 10
67.032
 20
43.0347
 30
0.0
 11
81.0327
 21
43.0347
 31
0.0
  0
LINE
  8
0
 62
     0
 10
81.0327
 20
43.0347
 30
0.0
 11
81.0327
 21
29.0339
 31
0.0
  0
LINE
  8
0
 62
     0
 10
81.0327
 20
29.0339
 30
0.0
 11
67.032
 21
29.0339
 31
0.0
  0
LINE
  8
0
 62
     0
 10
67.032
 20
29.0339
 30
0.0
 11
67.032
 21
43.0347
 31
0.0
  0
LINE
  8
0
 62
     0
 10
86.082
 20
43.0347
 30
0.0
 11
100.083
 21
43.0347
 31
0.0
  0
LINE
  8
0
 62
     0
 10
100.083
 20
43.0347
 30
0.0
 11
100.083
 21
29.0339
 31
0.0
  0
LINE
  8
0
 62
     0
 10
100.083
 20
29.0339
 30
0.0
 11
86.082
 21
29.0339
 31
0.0
  0
LINE
  8
0
 62
     0
 10
86.082
 20
29.0339
 30
0.0
 11
86.082
 21
43.0347
 31
0.0
  0
LINE
  8
0
 62
     0
 10
105.132
 20
43.0347
 30
0.0
 11
119.133
 21
43.0347
 31
0.0
  0
LINE
  8
0
 62
     0
 10
119.133
 20
43.0347
 30
0.0
 11
119.133
 21
29.0339
 31
0.0
  0
LINE
  8
0
 62
     0
 10
119.133
 20
29.0339
 30
0.0
 11
105.132
 21
29.0339
 31
0.0
  0
LINE
  8
0
 62
     0
 10
105.132
 20
29.0339
 30
0.0
 11
105.132
 21
43.0347
 31
0.0
  0
LINE
  8
0
 62
     0
 10
124.182
 20
43.0347
 30
0.0
 11
138.183
 21
43.0347
 31
0.0
  0
LINE
  8
0
 62
     0
 10
138.183
 20
43.0347
 30
0.0
 11
138.183
 21
29.0339
 31
0.0
  0
LINE
  8
0
 62
     0
 10
138.183
 20
29.0339
 30
0.0
 11
124.182
 21
29.0339
 31
0.0
  0
LINE
  8
0
 62
     0
 10
124.182
 20
29.0339
 30
0.0
 11
124.182
 21
43.0347
 31
0.0
  0
LINE
  8
0
 62
     0
 10
143.232
 20
43.0347
 30
0.0
 11
157.233
 21
43.0347
 31
0.0
  0
LINE
  8
0
 62
     0
 10
157.233
 20
43.0347
 30
0.0
 11
157.233
 21
29.0339
 31
0.0
  0
LINE
  8
0
 62
     0
 10
157.233
 20
29.0339
 30
0.0
 11
143.232
 21
29.0339
 31
0.0
  0
LINE
  8
0
 62
     0
 10
143.232
 20
29.0339
 30
0.0
 11
143.232
 21
43.0347
 31
0.0
  0
LINE
  8
0
 62
     0
 10
162.282
 20
43.0347
 30
0.0
 11
176.283
 21
43.0347
 31
0.0
  0
LINE
  8
0
 62
     0
 10
176.283
 20
43.0347
 30
0.0
 11
176.283
 21
29.0339
 31
0.0
  0
LINE
  8
0
 62
     0
 10
176.283
 20
29.0339
 30
0.0
 11
162.282
 21
29.0339
 31
0.0
  0
LINE
  8
0
 62
     0
 10
162.282
 20
29.0339
 30
0.0
 11
162.282
 21
43.0347
 31
0.0
  0
LINE
  8
0
 62
     0
 10
181.332
 20
43.0347
 30
0.0
 11
195.333
 21
43.0347
 31
0.0
  0
LINE
  8
0
 62
     0
 10
195.333
 20
43.0347
 30
0.0
 11
195.333
 21
29.0339
 31
0.0
  0
LINE
  8
0
 62
     0
 10
195.333
 20
29.0339
 30
0.0
 11
181.332
 21
29.0339
 31
0.0
  0
LINE
  8
0
 62
     0
 10
181.332
 20
29.0339
 30
0.0
 11
181.332
 21
43.0347
 31
0.0
  0
LINE
  8
0
 62
     0
 10
200.382
 20
43.0347
 30
0.0
 11
214.383
 21
43.0347
 31
0.0
  0
LINE
  8
0
 62
     0
 10
214.383
 20
43.0347
 30
0.0
 11
214.383
 21
29.0339
 31
0.0
  0
LINE
  8
0
 62
     0
 10
214.383
 20
29.0339
 30
0.0
 11
200.382
 21
29.0339
 31
0.0
  0
LINE
  8
0
 62
     0
 10
200.382
 20
29.0339
 30
0.0
 11
200.382
 21
43.0347
 31
0.0
  0
LINE
  8
0
 62
     0
 10
219.432
 20
43.0347
 30
0.0
 11
233.433
 21
43.0347
 31
0.0
  0
LINE
  8
0
 62
     0
 10
233.433
 20
43.0347
 30
0.0
 11
233.433
 21
29.0339
 31
0.0
  0
LINE
  8
0
 62
     0
 10
233.433
 20
29.0339
 30
0.0
 11
219.432
 21
29.0339
 31
0.0
  0
LINE
  8
0
 62
     0
 10
219.432
 20
29.0339
 30
0.0
 11
219.432
 21
43.0347
 31
0.0
  0
LINE
  8
0
 62
     0
 10
238.482
 20
43.0347
 30
0.0
 11
252.483
 21
43.0347
 31
0.0
  0
LINE
  8
0
 62
     0
 10
252.483
 20
43.0347
 30
0.0
 11
252.483
 21
29.0339
 31
0.0
  0
LINE
  8
0
 62
     0
 10
252.483
 20
29.0339
 30
0.0
 11
238.482
 21
29.0339
 31
0.0
  0
LINE
  8
0
 62
     0
 10
238.482
 20
29.0339
 30
0.0
 11
238.482
 21
43.0347
 31
0.0
  0
LINE
  8
0
 62
     0
 10
324.207
 20
43.0347
 30
0.0
 11
338.208
 21
43.0347
 31
0.0
  0
LINE
  8
0
 62
     0
 10
338.208
 20
43.0347
 30
0.0
 11
338.208
 21
29.0339
 31
0.0
  0
LINE
  8
0
 62
     0
 10
338.208
 20
29.0339
 30
0.0
 11
324.207
 21
29.0339
 31
0.0
  0
LINE
  8
0
 62
     0
 10
324.207
 20
29.0339
 30
0.0
 11
324.207
 21
43.0347
 31
0.0
  0
LINE
  8
0
 62
     0
 10
283.727
 20
62.0847
 30
0.0
 11
283.727
 21
57.3842
 31
0.0
  0
LINE
  8
0
 62
     0
 10
283.727
 20
57.3842
 30
0.0
 11
282.201
 21
57.3842
 31
0.0
  0
LINE
  8
0
 62
     0
 10
282.201
 20
57.3842
 30
0.0
 11
282.201
 21
60.6143
 31
0.0
  0
LINE
  8
0
 62
     0
 10
282.201
 20
60.6143
 30
0.0
 11
280.476
 21
60.6143
 31
0.0
  0
LINE
  8
0
 62
     0
 10
280.476
 20
60.6143
 30
0.0
 11
280.476
 21
61.5336
 31
0.0
  0
LINE
  8
0
 62
     0
 10
280.476
 20
61.5336
 30
0.0
 11
277.176
 21
61.5336
 31
0.0
  0
LINE
  8
0
 62
     0
 10
277.176
 20
61.5336
 30
0.0
 11
277.176
 21
60.6143
 31
0.0
  0
LINE
  8
0
 62
     0
 10
277.176
 20
60.6143
 30
0.0
 11
275.452
 21
60.6143
 31
0.0
  0
LINE
  8
0
 62
     0
 10
275.452
 20
60.6143
 30
0.0
 11
275.452
 21
57.3842
 31
0.0
  0
LINE
  8
0
 62
     0
 10
275.452
 20
57.3842
 30
0.0
 11
274.627
 21
57.3842
 31
0.0
  0
LINE
  8
0
 62
     0
 10
274.627
 20
57.3842
 30
0.0
 11
274.627
 21
54.5842
 31
0.0
  0
LINE
  8
0
 62
     0
 10
274.627
 20
54.5842
 30
0.0
 11
275.452
 21
54.5842
 31
0.0
  0
LINE
  8
0
 62
     0
 10
275.452
 20
54.5842
 30
0.0
 11
275.452
 21
48.314
 31
0.0
  0
LINE
  8
0
 62
     0
 10
275.452
 20
48.314
 30
0.0
 11
277.176
 21
48.314
 31
0.0
  0
LINE
  8
0
 62
     0
 10
277.176
 20
48.314
 30
0.0
 11
277.176
 21
47.3343
 31
0.0
  0
LINE
  8
0
 62
     0
 10
277.176
 20
47.3343
 30
0.0
 11
280.476
 21
47.3343
 31
0.0
  0
LINE
  8
0
 62
     0
 10
280.476
 20
47.3343
 30
0.0
 11
280.476
 21
48.314
 31
0.0
  0
LINE
  8
0
 62
     0
 10
280.476
 20
48.314
 30
0.0
 11
282.201
 21
48.314
 31
0.0
  0
LINE
  8
0
 62
     0
 10
282.201
 20
48.314
 30
0.0
 11
282.201
 21
52.7844
 31
0.0
  0
LINE
  8
0
 62
     0
 10
282.201
 20
52.7844
 30
0.0
 11
283.727
 21
52.7844
 31
0.0
  0
LINE
  8
0
 62
     0
 10
283.727
 20
52.7844
 30
0.0
 11
283.727
 21
48.084
 31
0.0
  0
LINE
  8
0
 62
     0
 10
283.727
 20
48.084
 30
0.0
 11
297.726
 21
48.084
 31
0.0
  0
LINE
  8
0
 62
     0
 10
297.726
 20
48.084
 30
0.0
 11
297.726
 21
52.7844
 31
0.0
  0
LINE
  8
0
 62
     0
 10
297.726
 20
52.7844
 30
0.0
 11
299.252
 21
52.7844
 31
0.0
  0
LINE
  8
0
 62
     0
 10
299.252
 20
52.7844
 30
0.0
 11
299.252
 21
48.314
 31
0.0
  0
LINE
  8
0
 62
     0
 10
299.252
 20
48.314
 30
0.0
 11
300.976
 21
48.314
 31
0.0
  0
LINE
  8
0
 62
     0
 10
300.976
 20
48.314
 30
0.0
 11
300.976
 21
47.3343
 31
0.0
  0
LINE
  8
0
 62
     0
 10
300.976
 20
47.3343
 30
0.0
 11
304.276
 21
47.3343
 31
0.0
  0
LINE
  8
0
 62
     0
 10
304.276
 20
47.3343
 30
0.0
 11
304.276
 21
48.314
 31
0.0
  0
LINE
  8
0
 62
     0
 10
304.276
 20
48.314
 30
0.0
 11
306.002
 21
48.314
 31
0.0
  0
LINE
  8
0
 62
     0
 10
306.002
 20
48.314
 30
0.0
 11
306.002
 21
54.5842
 31
0.0
  0
LINE
  8
0
 62
     0
 10
306.002
 20
54.5842
 30
0.0
 11
306.827
 21
54.5842
 31
0.0
  0
LINE
  8
0
 62
     0
 10
306.827
 20
54.5842
 30
0.0
 11
306.827
 21
57.3842
 31
0.0
  0
LINE
  8
0
 62
     0
 10
306.827
 20
57.3842
 30
0.0
 11
306.002
 21
57.3842
 31
0.0
  0
LINE
  8
0
 62
     0
 10
306.002
 20
57.3842
 30
0.0
 11
306.002
 21
60.6143
 31
0.0
  0
LINE
  8
0
 62
     0
 10
306.002
 20
60.6143
 30
0.0
 11
304.276
 21
60.6143
 31
0.0
  0
LINE
  8
0
 62
     0
 10
304.276
 20
60.6143
 30
0.0
 11
304.276
 21
61.5336
 31
0.0
  0
LINE
  8
0
 62
     0
 10
304.276
 20
61.5336
 30
0.0
 11
300.976
 21
61.5336
 31
0.0
  0
LINE
  8
0
 62
     0
 10
300.976
 20
61.5336
 30
0.0
 11
300.976
 21
60.6143
 31
0.0
  0
LINE
  8
0
 62
     0
 10
300.976
 20
60.6143
 30
0.0
 11
299.252
 21
60.6143
 31
0.0
  0
LINE
  8
0
 62
     0
 10
299.252
 20
60.6143
 30
0.0
 11
299.252
 21
57.3842
 31
0.0
  0
LINE
  8
0
 62
     0
 10
299.252
 20
57.3842
 30
0.0
 11
297.726
 21
57.3842
 31
0.0
  0
LINE
  8
0
 62
     0
 10
297.726
 20
57.3842
 30
0.0
 11
297.726
 21
62.0847
 31
0.0
  0
LINE
  8
0
 62
     0
 10
297.726
 20
62.0847
 30
0.0
 11
283.727
 21
62.0847
 31
0.0
  0
LINE
  8
0
 62
     0
 10
5.11941
 20
62.0847
 30
0.0
 11
19.1203
 21
62.0847
 31
0.0
  0
LINE
  8
0
 62
     0
 10
19.1203
 20
62.0847
 30
0.0
 11
19.1203
 21
48.084
 31
0.0
  0
LINE
  8
0
 62
     0
 10
19.1203
 20
48.084
 30
0.0
 11
5.11941
 21
48.084
 31
0.0
  0
LINE
  8
0
 62
     0
 10
5.11941
 20
48.084
 30
0.0
 11
5.11941
 21
62.0847
 31
0.0
  0
LINE
  8
0
 62
     0
 10
36.0772
 20
62.0847
 30
0.0
 11
50.0765
 21
62.0847
 31
0.0
  0
LINE
  8
0
 62
     0
 10
50.0765
 20
62.0847
 30
0.0
 11
50.0765
 21
48.084
 31
0.0
  0
LINE
  8
0
 62
     0
 10
50.0765
 20
48.084
 30
0.0
 11
36.0772
 21
48.084
 31
0.0
  0
LINE
  8
0
 62
     0
 10
36.0772
 20
48.084
 30
0.0
 11
36.0772
 21
62.0847
 31
0.0
  0
LINE
  8
0
 62
     0
 10
62.2709
 20
62.0847
 30
0.0
 11
76.2702
 21
62.0847
 31
0.0
  0
LINE
  8
0
 62
     0
 10
76.2702
 20
62.0847
 30
0.0
 11
76.2702
 21
48.084
 31
0.0
  0
LINE
  8
0
 62
     0
 10
76.2702
 20
48.084
 30
0.0
 11
62.2709
 21
48.084
 31
0.0
  0
LINE
  8
0
 62
     0
 10
62.2709
 20
48.084
 30
0.0
 11
62.2709
 21
62.0847
 31
0.0
  0
LINE
  8
0
 62
     0
 10
81.3209
 20
62.0847
 30
0.0
 11
95.3202
 21
62.0847
 31
0.0
  0
LINE
  8
0
 62
     0
 10
95.3202
 20
62.0847
 30
0.0
 11
95.3202
 21
48.084
 31
0.0
  0
LINE
  8
0
 62
     0
 10
95.3202
 20
48.084
 30
0.0
 11
81.3209
 21
48.084
 31
0.0
  0
LINE
  8
0
 62
     0
 10
81.3209
 20
48.084
 30
0.0
 11
81.3209
 21
62.0847
 31
0.0
  0
LINE
  8
0
 62
     0
 10
100.371
 20
62.0847
 30
0.0
 11
114.37
 21
62.0847
 31
0.0
  0
LINE
  8
0
 62
     0
 10
114.37
 20
62.0847
 30
0.0
 11
114.37
 21
48.084
 31
0.0
  0
LINE
  8
0
 62
     0
 10
114.37
 20
48.084
 30
0.0
 11
100.371
 21
48.084
 31
0.0
  0
LINE
  8
0
 62
     0
 10
100.371
 20
48.084
 30
0.0
 11
100.371
 21
62.0847
 31
0.0
  0
LINE
  8
0
 62
     0
 10
119.421
 20
62.0847
 30
0.0
 11
133.42
 21
62.0847
 31
0.0
  0
LINE
  8
0
 62
     0
 10
133.42
 20
62.0847
 30
0.0
 11
133.42
 21
48.084
 31
0.0
  0
LINE
  8
0
 62
     0
 10
133.42
 20
48.084
 30
0.0
 11
119.421
 21
48.084
 31
0.0
  0
LINE
  8
0
 62
     0
 10
119.421
 20
48.084
 30
0.0
 11
119.421
 21
62.0847
 31
0.0
  0
LINE
  8
0
 62
     0
 10
138.471
 20
62.0847
 30
0.0
 11
152.47
 21
62.0847
 31
0.0
  0
LINE
  8
0
 62
     0
 10
152.47
 20
62.0847
 30
0.0
 11
152.47
 21
48.084
 31
0.0
  0
LINE
  8
0
 62
     0
 10
152.47
 20
48.084
 30
0.0
 11
138.471
 21
48.084
 31
0.0
  0
LINE
  8
0
 62
     0
 10
138.471
 20
48.084
 30
0.0
 11
138.471
 21
62.0847
 31
0.0
  0
LINE
  8
0
 62
     0
 10
157.521
 20
62.0847
 30
0.0
 11
171.52
 21
62.0847
 31
0.0
  0
LINE
  8
0
 62
     0
 10
171.52
 20
62.0847
 30
0.0
 11
171.52
 21
48.084
 31
0.0
  0
LINE
  8
0
 62
     0
 10
171.52
 20
48.084
 30
0.0
 11
157.521
 21
48.084
 31
0.0
  0
LINE
  8
0
 62
     0
 10
157.521
 20
48.084
 30
0.0
 11
157.521
 21
62.0847
 31
0.0
  0
LINE
  8
0
 62
     0
 10
176.571
 20
62.0847
 30
0.0
 11
190.57
 21
62.0847
 31
0.0
  0
LINE
  8
0
 62
     0
 10
190.57
 20
62.0847
 30
0.0
 11
190.57
 21
48.084
 31
0.0
  0
LINE
  8
0
 62
     0
 10
190.57
 20
48.084
 30
0.0
 11
176.571
 21
48.084
 31
0.0
  0
LINE
  8
0
 62
     0
 10
176.571
 20
48.084
 30
0.0
 11
176.571
 21
62.0847
 31
0.0
  0
LINE
  8
0
 62
     0
 10
195.621
 20
62.0847
 30
0.0
 11
209.62
 21
62.0847
 31
0.0
  0
LINE
  8
0
 62
     0
 10
209.62
 20
62.0847
 30
0.0
 11
209.62
 21
48.084
 31
0.0
  0
LINE
  8
0
 62
     0
 10
209.62
 20
48.084
 30
0.0
 11
195.621
 21
48.084
 31
0.0
  0
LINE
  8
0
 62
     0
 10
195.621
 20
48.084
 30
0.0
 11
195.621
 21
62.0847
 31
0.0
  0
LINE
  8
0
 62
     0
 10
214.671
 20
62.0847
 30
0.0
 11
228.67
 21
62.0847
 31
0.0
  0
LINE
  8
0
 62
     0
 10
228.67
 20
62.0847
 30
0.0
 11
228.67
 21
48.084
 31
0.0
  0
LINE
  8
0
 62
     0
 10
228.67
 20
48.084
 30
0.0
 11
214.671
 21
48.084
 31
0.0
  0
LINE
  8
0
 62
     0
 10
214.671
 20
48.084
 30
0.0
 11
214.671
 21
62.0847
 31
0.0
  0
LINE
  8
0
 62
     0
 10
233.721
 20
62.0847
 30
0.0
 11
247.72
 21
62.0847
 31
0.0
  0
LINE
  8
0
 62
     0
 10
247.72
 20
62.0847
 30
0.0
 11
247.72
 21
48.084
 31
0.0
  0
LINE
  8
0
 62
     0
 10
247.72
 20
48.084
 30
0.0
 11
233.721
 21
48.084
 31
0.0
  0
LINE
  8
0
 62
     0
 10
233.721
 20
48.084
 30
0.0
 11
233.721
 21
62.0847
 31
0.0
  0
LINE
  8
0
 62
     0
 10
252.771
 20
62.0847
 30
0.0
 11
266.77
 21
62.0847
 31
0.0
  0
LINE
  8
0
 62
     0
 10
266.77
 20
62.0847
 30
0.0
 11
266.77
 21
48.084
 31
0.0
  0
LINE
  8
0
 62
     0
 10
266.77
 20
48.084
 30
0.0
 11
252.771
 21
48.084
 31
0.0
  0
LINE
  8
0
 62
     0
 10
252.771
 20
48.084
 30
0.0
 11
252.771
 21
62.0847
 31
0.0
  0
LINE
  8
0
 62
     0
 10
324.207
 20
62.0847
 30
0.0
 11
338.208
 21
62.0847
 31
0.0
  0
LINE
  8
0
 62
     0
 10
338.208
 20
62.0847
 30
0.0
 11
338.208
 21
48.084
 31
0.0
  0
LINE
  8
0
 62
     0
 10
338.208
 20
48.084
 30
0.0
 11
324.207
 21
48.084
 31
0.0
  0
LINE
  8
0
 62
     0
 10
324.207
 20
48.084
 30
0.0
 11
324.207
 21
62.0847
 31
0.0
  0
LINE
  8
0
 62
     0
 10
5.11941
 20
81.1347
 30
0.0
 11
19.1203
 21
81.1347
 31
0.0
  0
LINE
  8
0
 62
     0
 10
19.1203
 20
81.1347
 30
0.0
 11
19.1203
 21
67.134
 31
0.0
  0
LINE
  8
0
 62
     0
 10
19.1203
 20
67.134
 30
0.0
 11
5.11941
 21
67.134
 31
0.0
  0
LINE
  8
0
 62
     0
 10
5.11941
 20
67.134
 30
0.0
 11
5.11941
 21
81.1347
 31
0.0
  0
LINE
  8
0
 62
     0
 10
33.6958
 20
81.1347
 30
0.0
 11
47.6952
 21
81.1347
 31
0.0
  0
LINE
  8
0
 62
     0
 10
47.6952
 20
81.1347
 30
0.0
 11
47.6952
 21
67.134
 31
0.0
  0
LINE
  8
0
 62
     0
 10
47.6952
 20
67.134
 30
0.0
 11
33.6958
 21
67.134
 31
0.0
  0
LINE
  8
0
 62
     0
 10
33.6958
 20
67.134
 30
0.0
 11
33.6958
 21
81.1347
 31
0.0
  0
LINE
  8
0
 62
     0
 10
57.507
 20
81.1347
 30
0.0
 11
71.5077
 21
81.1347
 31
0.0
  0
LINE
  8
0
 62
     0
 10
71.5077
 20
81.1347
 30
0.0
 11
71.5077
 21
67.134
 31
0.0
  0
LINE
  8
0
 62
     0
 10
71.5077
 20
67.134
 30
0.0
 11
57.507
 21
67.134
 31
0.0
  0
LINE
  8
0
 62
     0
 10
57.507
 20
67.134
 30
0.0
 11
57.507
 21
81.1347
 31
0.0
  0
LINE
  8
0
 62
     0
 10
76.557
 20
81.1347
 30
0.0
 11
90.5577
 21
81.1347
 31
0.0
  0
LINE
  8
0
 62
     0
 10
90.5577
 20
81.1347
 30
0.0
 11
90.5577
 21
67.134
 31
0.0
  0
LINE
  8
0
 62
     0
 10
90.5577
 20
67.134
 30
0.0
 11
76.557
 21
67.134
 31
0.0
  0
LINE
  8
0
 62
     0
 10
76.557
 20
67.134
 30
0.0
 11
76.557
 21
81.1347
 31
0.0
  0
LINE
  8
0
 62
     0
 10
95.607
 20
81.1347
 30
0.0
 11
109.608
 21
81.1347
 31
0.0
  0
LINE
  8
0
 62
     0
 10
109.608
 20
81.1347
 30
0.0
 11
109.608
 21
67.134
 31
0.0
  0
LINE
  8
0
 62
     0
 10
109.608
 20
67.134
 30
0.0
 11
95.607
 21
67.134
 31
0.0
  0
LINE
  8
0
 62
     0
 10
95.607
 20
67.134
 30
0.0
 11
95.607
 21
81.1347
 31
0.0
  0
LINE
  8
0
 62
     0
 10
114.657
 20
81.1347
 30
0.0
 11
128.658
 21
81.1347
 31
0.0
  0
LINE
  8
0
 62
     0
 10
128.658
 20
81.1347
 30
0.0
 11
128.658
 21
67.134
 31
0.0
  0
LINE
  8
0
 62
     0
 10
128.658
 20
67.134
 30
0.0
 11
114.657
 21
67.134
 31
0.0
  0
LINE
  8
0
 62
     0
 10
114.657
 20
67.134
 30
0.0
 11
114.657
 21
81.1347
 31
0.0
  0
LINE
  8
0
 62
     0
 10
133.707
 20
81.1347
 30
0.0
 11
147.708
 21
81.1347
 31
0.0
  0
LINE
  8
0
 62
     0
 10
147.708
 20
81.1347
 30
0.0
 11
147.708
 21
67.134
 31
0.0
  0
LINE
  8
0
 62
     0
 10
147.708
 20
67.134
 30
0.0
 11
133.707
 21
67.134
 31
0.0
  0
LINE
  8
0
 62
     0
 10
133.707
 20
67.134
 30
0.0
 11
133.707
 21
81.1347
 31
0.0
  0
LINE
  8
0
 62
     0
 10
152.757
 20
81.1347
 30
0.0
 11
166.758
 21
81.1347
 31
0.0
  0
LINE
  8
0
 62
     0
 10
166.758
 20
81.1347
 30
0.0
 11
166.758
 21
67.134
 31
0.0
  0
LINE
  8
0
 62
     0
 10
166.758
 20
67.134
 30
0.0
 11
152.757
 21
67.134
 31
0.0
  0
LINE
  8
0
 62
     0
 10
152.757
 20
67.134
 30
0.0
 11
152.757
 21
81.1347
 31
0.0
  0
LINE
  8
0
 62
     0
 10
171.807
 20
81.1347
 30
0.0
 11
185.808
 21
81.1347
 31
0.0
  0
LINE
  8
0
 62
     0
 10
185.808
 20
81.1347
 30
0.0
 11
185.808
 21
67.134
 31
0.0
  0
LINE
  8
0
 62
     0
 10
185.808
 20
67.134
 30
0.0
 11
171.807
 21
67.134
 31
0.0
  0
LINE
  8
0
 62
     0
 10
171.807
 20
67.134
 30
0.0
 11
171.807
 21
81.1347
 31
0.0
  0
LINE
  8
0
 62
     0
 10
190.857
 20
81.1347
 30
0.0
 11
204.858
 21
81.1347
 31
0.0
  0
LINE
  8
0
 62
     0
 10
204.858
 20
81.1347
 30
0.0
 11
204.858
 21
67.134
 31
0.0
  0
LINE
  8
0
 62
     0
 10
204.858
 20
67.134
 30
0.0
 11
190.857
 21
67.134
 31
0.0
  0
LINE
  8
0
 62
     0
 10
190.857
 20
67.134
 30
0.0
 11
190.857
 21
81.1347
 31
0.0
  0
LINE
  8
0
 62
     0
 10
209.907
 20
81.1347
 30
0.0
 11
223.908
 21
81.1347
 31
0.0
  0
LINE
  8
0
 62
     0
 10
223.908
 20
81.1347
 30
0.0
 11
223.908
 21
67.134
 31
0.0
  0
LINE
  8
0
 62
     0
 10
223.908
 20
67.134
 30
0.0
 11
209.907
 21
67.134
 31
0.0
  0
LINE
  8
0
 62
     0
 10
209.907
 20
67.134
 30
0.0
 11
209.907
 21
81.1347
 31
0.0
  0
LINE
  8
0
 62
     0
 10
228.957
 20
81.1347
 30
0.0
 11
242.958
 21
81.1347
 31
0.0
  0
LINE
  8
0
 62
     0
 10
242.958
 20
81.1347
 30
0.0
 11
242.958
 21
67.134
 31
0.0
  0
LINE
  8
0
 62
     0
 10
242.958
 20
67.134
 30
0.0
 11
228.957
 21
67.134
 31
0.0
  0
LINE
  8
0
 62
     0
 10
228.957
 20
67.134
 30
0.0
 11
228.957
 21
81.1347
 31
0.0
  0
LINE
  8
0
 62
     0
 10
248.007
 20
81.1347
 30
0.0
 11
262.008
 21
81.1347
 31
0.0
  0
LINE
  8
0
 62
     0
 10
262.008
 20
81.1347
 30
0.0
 11
262.008
 21
67.134
 31
0.0
  0
LINE
  8
0
 62
     0
 10
262.008
 20
67.134
 30
0.0
 11
248.007
 21
67.134
 31
0.0
  0
LINE
  8
0
 62
     0
 10
248.007
 20
67.134
 30
0.0
 11
248.007
 21
81.1347
 31
0.0
  0
LINE
  8
0
 62
     0
 10
267.057
 20
81.1347
 30
0.0
 11
281.058
 21
81.1347
 31
0.0
  0
LINE
  8
0
 62
     0
 10
281.058
 20
81.1347
 30
0.0
 11
281.058
 21
67.134
 31
0.0
  0
LINE
  8
0
 62
     0
 10
281.058
 20
67.134
 30
0.0
 11
267.057
 21
67.134
 31
0.0
  0
LINE
  8
0
 62
     0
 10
267.057
 20
67.134
 30
0.0
 11
267.057
 21
81.1347
 31
0.0
  0
LINE
  8
0
 62
     0
 10
290.871
 20
81.1347
 30
0.0
 11
304.87
 21
81.1347
 31
0.0
  0
LINE
  8
0
 62
     0
 10
304.87
 20
81.1347
 30
0.0
 11
304.87
 21
67.134
 31
0.0
  0
LINE
  8
0
 62
     0
 10
304.87
 20
67.134
 30
0.0
 11
290.871
 21
67.134
 31
0.0
  0
LINE
  8
0
 62
     0
 10
290.871
 20
67.134
 30
0.0
 11
290.871
 21
81.1347
 31
0.0
  0
LINE
  8
0
 62
     0
 10
324.207
 20
81.1347
 30
0.0
 11
338.208
 21
81.1347
 31
0.0
  0
LINE
  8
0
 62
     0
 10
338.208
 20
81.1347
 30
0.0
 11
338.208
 21
67.134
 31
0.0
  0
LINE
  8
0
 62
     0
 10
338.208
 20
67.134
 30
0.0
 11
324.207
 21
67.134
 31
0.0
  0
LINE
  8
0
 62
     0
 10
324.207
 20
67.134
 30
0.0
 11
324.207
 21
81.1347
 31
0.0
  0
LINE
  8
0
 62
     0
 10
286.107
 20
100.185
 30
0.0
 11
286.107
 21
95.4842
 31
0.0
  0
LINE
  8
0
 62
     0
 10
286.107
 20
95.4842
 30
0.0
 11
284.583
 21
95.4842
 31
0.0
  0
LINE
  8
0
 62
     0
 10
284.583
 20
95.4842
 30
0.0
 11
284.583
 21
98.7143
 31
0.0
  0
LINE
  8
0
 62
     0
 10
284.583
 20
98.7143
 30
0.0
 11
282.858
 21
98.7143
 31
0.0
  0
LINE
  8
0
 62
     0
 10
282.858
 20
98.7143
 30
0.0
 11
282.858
 21
99.6336
 31
0.0
  0
LINE
  8
0
 62
     0
 10
282.858
 20
99.6336
 30
0.0
 11
279.557
 21
99.6336
 31
0.0
  0
LINE
  8
0
 62
     0
 10
279.557
 20
99.6336
 30
0.0
 11
279.557
 21
98.7143
 31
0.0
  0
LINE
  8
0
 62
     0
 10
279.557
 20
98.7143
 30
0.0
 11
277.833
 21
98.7143
 31
0.0
  0
LINE
  8
0
 62
     0
 10
277.833
 20
98.7143
 30
0.0
 11
277.833
 21
95.4842
 31
0.0
  0
LINE
  8
0
 62
     0
 10
277.833
 20
95.4842
 30
0.0
 11
277.008
 21
95.4842
 31
0.0
  0
LINE
  8
0
 62
     0
 10
277.008
 20
95.4842
 30
0.0
 11
277.008
 21
92.6842
 31
0.0
  0
LINE
  8
0
 62
     0
 10
277.008
 20
92.6842
 30
0.0
 11
277.833
 21
92.6842
 31
0.0
  0
LINE
  8
0
 62
     0
 10
277.833
 20
92.6842
 30
0.0
 11
277.833
 21
86.414
 31
0.0
  0
LINE
  8
0
 62
     0
 10
277.833
 20
86.414
 30
0.0
 11
279.557
 21
86.414
 31
0.0
  0
LINE
  8
0
 62
     0
 10
279.557
 20
86.414
 30
0.0
 11
279.557
 21
85.4343
 31
0.0
  0
LINE
  8
0
 62
     0
 10
279.557
 20
85.4343
 30
0.0
 11
282.858
 21
85.4343
 31
0.0
  0
LINE
  8
0
 62
     0
 10
282.858
 20
85.4343
 30
0.0
 11
282.858
 21
86.414
 31
0.0
  0
LINE
  8
0
 62
     0
 10
282.858
 20
86.414
 30
0.0
 11
284.583
 21
86.414
 31
0.0
  0
LINE
  8
0
 62
     0
 10
284.583
 20
86.414
 30
0.0
 11
284.583
 21
90.8844
 31
0.0
  0
LINE
  8
0
 62
     0
 10
284.583
 20
90.8844
 30
0.0
 11
286.107
 21
90.8844
 31
0.0
  0
LINE
  8
0
 62
     0
 10
286.107
 20
90.8844
 30
0.0
 11
286.107
 21
86.184
 31
0.0
  0
LINE
  8
0
 62
     0
 10
286.107
 20
86.184
 30
0.0
 11
300.108
 21
86.184
 31
0.0
  0
LINE
  8
0
 62
     0
 10
300.108
 20
86.184
 30
0.0
 11
300.108
 21
90.8844
 31
0.0
  0
LINE
  8
0
 62
     0
 10
300.108
 20
90.8844
 30
0.0
 11
301.632
 21
90.8844
 31
0.0
  0
LINE
  8
0
 62
     0
 10
301.632
 20
90.8844
 30
0.0
 11
301.632
 21
86.414
 31
0.0
  0
LINE
  8
0
 62
     0
 10
301.632
 20
86.414
 30
0.0
 11
303.357
 21
86.414
 31
0.0
  0
LINE
  8
0
 62
     0
 10
303.357
 20
86.414
 30
0.0
 11
303.357
 21
85.4343
 31
0.0
  0
LINE
  8
0
 62
     0
 10
303.357
 20
85.4343
 30
0.0
 11
306.658
 21
85.4343
 31
0.0
  0
LINE
  8
0
 62
     0
 10
306.658
 20
85.4343
 30
0.0
 11
306.658
 21
86.414
 31
0.0
  0
LINE
  8
0
 62
     0
 10
306.658
 20
86.414
 30
0.0
 11
308.383
 21
86.414
 31
0.0
  0
LINE
  8
0
 62
     0
 10
308.383
 20
86.414
 30
0.0
 11
308.383
 21
92.6842
 31
0.0
  0
LINE
  8
0
 62
     0
 10
308.383
 20
92.6842
 30
0.0
 11
309.207
 21
92.6842
 31
0.0
  0
LINE
  8
0
 62
     0
 10
309.207
 20
92.6842
 30
0.0
 11
309.207
 21
95.4842
 31
0.0
  0
LINE
  8
0
 62
     0
 10
309.207
 20
95.4842
 30
0.0
 11
308.383
 21
95.4842
 31
0.0
  0
LINE
  8
0
 62
     0
 10
308.383
 20
95.4842
 30
0.0
 11
308.383
 21
98.7143
 31
0.0
  0
LINE
  8
0
 62
     0
 10
308.383
 20
98.7143
 30
0.0
 11
306.658
 21
98.7143
 31
0.0
  0
LINE
  8
0
 62
     0
 10
306.658
 20
98.7143
 30
0.0
 11
306.658
 21
99.6336
 31
0.0
  0
LINE
  8
0
 62
     0
 10
306.658
 20
99.6336
 30
0.0
 11
303.357
 21
99.6336
 31
0.0
  0
LINE
  8
0
 62
     0
 10
303.357
 20
99.6336
 30
0.0
 11
303.357
 21
98.7143
 31
0.0
  0
LINE
  8
0
 62
     0
 10
303.357
 20
98.7143
 30
0.0
 11
301.632
 21
98.7143
 31
0.0
  0
LINE
  8
0
 62
     0
 10
301.632
 20
98.7143
 30
0.0
 11
301.632
 21
95.4842
 31
0.0
  0
LINE
  8
0
 62
     0
 10
301.632
 20
95.4842
 30
0.0
 11
300.108
 21
95.4842
 31
0.0
  0
LINE
  8
0
 62
     0
 10
300.108
 20
95.4842
 30
0.0
 11
300.108
 21
100.185
 31
0.0
  0
LINE
  8
0
 62
     0
 10
300.108
 20
100.185
 30
0.0
 11
286.107
 21
100.185
 31
0.0
  0
LINE
  8
0
 62
     0
 10
5.11941
 20
100.185
 30
0.0
 11
19.1203
 21
100.185
 31
0.0
  0
LINE
  8
0
 62
     0
 10
19.1203
 20
100.185
 30
0.0
 11
19.1203
 21
86.184
 31
0.0
  0
LINE
  8
0
 62
     0
 10
19.1203
 20
86.184
 30
0.0
 11
5.11941
 21
86.184
 31
0.0
  0
LINE
  8
0
 62
     0
 10
5.11941
 20
86.184
 30
0.0
 11
5.11941
 21
100.185
 31
0.0
  0
LINE
  8
0
 62
     0
 10
28.9319
 20
100.185
 30
0.0
 11
42.9327
 21
100.185
 31
0.0
  0
LINE
  8
0
 62
     0
 10
42.9327
 20
100.185
 30
0.0
 11
42.9327
 21
86.184
 31
0.0
  0
LINE
  8
0
 62
     0
 10
42.9327
 20
86.184
 30
0.0
 11
28.9319
 21
86.184
 31
0.0
  0
LINE
  8
0
 62
     0
 10
28.9319
 20
86.184
 30
0.0
 11
28.9319
 21
100.185
 31
0.0
  0
LINE
  8
0
 62
     0
 10
47.982
 20
100.185
 30
0.0
 11
61.9827
 21
100.185
 31
0.0
  0
LINE
  8
0
 62
     0
 10
61.9827
 20
100.185
 30
0.0
 11
61.9827
 21
86.184
 31
0.0
  0
LINE
  8
0
 62
     0
 10
61.9827
 20
86.184
 30
0.0
 11
47.982
 21
86.184
 31
0.0
  0
LINE
  8
0
 62
     0
 10
47.982
 20
86.184
 30
0.0
 11
47.982
 21
100.185
 31
0.0
  0
LINE
  8
0
 62
     0
 10
67.032
 20
100.185
 30
0.0
 11
81.0327
 21
100.185
 31
0.0
  0
LINE
  8
0
 62
     0
 10
81.0327
 20
100.185
 30
0.0
 11
81.0327
 21
86.184
 31
0.0
  0
LINE
  8
0
 62
     0
 10
81.0327
 20
86.184
 30
0.0
 11
67.032
 21
86.184
 31
0.0
  0
LINE
  8
0
 62
     0
 10
67.032
 20
86.184
 30
0.0
 11
67.032
 21
100.185
 31
0.0
  0
LINE
  8
0
 62
     0
 10
86.082
 20
100.185
 30
0.0
 11
100.083
 21
100.185
 31
0.0
  0
LINE
  8
0
 62
     0
 10
100.083
 20
100.185
 30
0.0
 11
100.083
 21
86.184
 31
0.0
  0
LINE
  8
0
 62
     0
 10
100.083
 20
86.184
 30
0.0
 11
86.082
 21
86.184
 31
0.0
  0
LINE
  8
0
 62
     0
 10
86.082
 20
86.184
 30
0.0
 11
86.082
 21
100.185
 31
0.0
  0
LINE
  8
0
 62
     0
 10
105.132
 20
100.185
 30
0.0
 11
119.133
 21
100.185
 31
0.0
  0
LINE
  8
0
 62
     0
 10
119.133
 20
100.185
 30
0.0
 11
119.133
 21
86.184
 31
0.0
  0
LINE
  8
0
 62
     0
 10
119.133
 20
86.184
 30
0.0
 11
105.132
 21
86.184
 31
0.0
  0
LINE
  8
0
 62
     0
 10
105.132
 20
86.184
 30
0.0
 11
105.132
 21
100.185
 31
0.0
  0
LINE
  8
0
 62
     0
 10
124.182
 20
100.185
 30
0.0
 11
138.183
 21
100.185
 31
0.0
  0
LINE
  8
0
 62
     0
 10
138.183
 20
100.185
 30
0.0
 11
138.183
 21
86.184
 31
0.0
  0
LINE
  8
0
 62
     0
 10
138.183
 20
86.184
 30
0.0
 11
124.182
 21
86.184
 31
0.0
  0
LINE
  8
0
 62
     0
 10
124.182
 20
86.184
 30
0.0
 11
124.182
 21
100.185
 31
0.0
  0
LINE
  8
0
 62
     0
 10
143.232
 20
100.185
 30
0.0
 11
157.233
 21
100.185
 31
0.0
  0
LINE
  8
0
 62
     0
 10
157.233
 20
100.185
 30
0.0
 11
157.233
 21
86.184
 31
0.0
  0
LINE
  8
0
 62
     0
 10
157.233
 20
86.184
 30
0.0
 11
143.232
 21
86.184
 31
0.0
  0
LINE
  8
0
 62
     0
 10
143.232
 20
86.184
 30
0.0
 11
143.232
 21
100.185
 31
0.0
  0
LINE
  8
0
 62
     0
 10
162.282
 20
100.185
 30
0.0
 11
176.283
 21
100.185
 31
0.0
  0
LINE
  8
0
 62
     0
 10
176.283
 20
100.185
 30
0.0
 11
176.283
 21
86.184
 31
0.0
  0
LINE
  8
0
 62
     0
 10
176.283
 20
86.184
 30
0.0
 11
162.282
 21
86.184
 31
0.0
  0
LINE
  8
0
 62
     0
 10
162.282
 20
86.184
 30
0.0
 11
162.282
 21
100.185
 31
0.0
  0
LINE
  8
0
 62
     0
 10
181.332
 20
100.185
 30
0.0
 11
195.333
 21
100.185
 31
0.0
  0
LINE
  8
0
 62
     0
 10
195.333
 20
100.185
 30
0.0
 11
195.333
 21
86.184
 31
0.0
  0
LINE
  8
0
 62
     0
 10
195.333
 20
86.184
 30
0.0
 11
181.332
 21
86.184
 31
0.0
  0
LINE
  8
0
 62
     0
 10
181.332
 20
86.184
 30
0.0
 11
181.332
 21
100.185
 31
0.0
  0
LINE
  8
0
 62
     0
 10
200.382
 20
100.185
 30
0.0
 11
214.383
 21
100.185
 31
0.0
  0
LINE
  8
0
 62
     0
 10
214.383
 20
100.185
 30
0.0
 11
214.383
 21
86.184
 31
0.0
  0
LINE
  8
0
 62
     0
 10
214.383
 20
86.184
 30
0.0
 11
200.382
 21
86.184
 31
0.0
  0
LINE
  8
0
 62
     0
 10
200.382
 20
86.184
 30
0.0
 11
200.382
 21
100.185
 31
0.0
  0
LINE
  8
0
 62
     0
 10
219.432
 20
100.185
 30
0.0
 11
233.433
 21
100.185
 31
0.0
  0
LINE
  8
0
 62
     0
 10
233.433
 20
100.185
 30
0.0
 11
233.433
 21
86.184
 31
0.0
  0
LINE
  8
0
 62
     0
 10
233.433
 20
86.184
 30
0.0
 11
219.432
 21
86.184
 31
0.0
  0
LINE
  8
0
 62
     0
 10
219.432
 20
86.184
 30
0.0
 11
219.432
 21
100.185
 31
0.0
  0
LINE
  8
0
 62
     0
 10
238.482
 20
100.185
 30
0.0
 11
252.483
 21
100.185
 31
0.0
  0
LINE
  8
0
 62
     0
 10
252.483
 20
100.185
 30
0.0
 11
252.483
 21
86.184
 31
0.0
  0
LINE
  8
0
 62
     0
 10
252.483
 20
86.184
 30
0.0
 11
238.482
 21
86.184
 31
0.0
  0
LINE
  8
0
 62
     0
 10
238.482
 20
86.184
 30
0.0
 11
238.482
 21
100.185
 31
0.0
  0
LINE
  8
0
 62
     0
 10
257.532
 20
100.185
 30
0.0
 11
271.533
 21
100.185
 31
0.0
  0
LINE
  8
0
 62
     0
 10
271.533
 20
100.185
 30
0.0
 11
271.533
 21
86.184
 31
0.0
  0
LINE
  8
0
 62
     0
 10
271.533
 20
86.184
 30
0.0
 11
257.532
 21
86.184
 31
0.0
  0
LINE
  8
0
 62
     0
 10
257.532
 20
86.184
 30
0.0
 11
257.532
 21
100.185
 31
0.0
  0
LINE
  8
0
 62
     0
 10
324.207
 20
100.185
 30
0.0
 11
338.208
 21
100.185
 31
0.0
  0
LINE
  8
0
 62
     0
 10
338.208
 20
100.185
 30
0.0
 11
338.208
 21
86.184
 31
0.0
  0
LINE
  8
0
 62
     0
 10
338.208
 20
86.184
 30
0.0
 11
324.207
 21
86.184
 31
0.0
  0
LINE
  8
0
 62
     0
 10
324.207
 20
86.184
 30
0.0
 11
324.207
 21
100.185
 31
0.0
  0
LINE
  8
0
 62
     0
 10
5.11941
 20
123.997
 30
0.0
 11
19.1203
 21
123.997
 31
0.0
  0
LINE
  8
0
 62
     0
 10
19.1203
 20
123.997
 30
0.0
 11
19.1203
 21
109.996
 31
0.0
  0
LINE
  8
0
 62
     0
 10
19.1203
 20
109.996
 30
0.0
 11
5.11941
 21
109.996
 31
0.0
  0
LINE
  8
0
 62
     0
 10
5.11941
 20
109.996
 30
0.0
 11
5.11941
 21
123.997
 31
0.0
  0
LINE
  8
0
 62
     0
 10
28.9319
 20
123.997
 30
0.0
 11
42.9327
 21
123.997
 31
0.0
  0
LINE
  8
0
 62
     0
 10
42.9327
 20
123.997
 30
0.0
 11
42.9327
 21
109.996
 31
0.0
  0
LINE
  8
0
 62
     0
 10
42.9327
 20
109.996
 30
0.0
 11
28.9319
 21
109.996
 31
0.0
  0
LINE
  8
0
 62
     0
 10
28.9319
 20
109.996
 30
0.0
 11
28.9319
 21
123.997
 31
0.0
  0
LINE
  8
0
 62
     0
 10
52.7459
 20
123.997
 30
0.0
 11
66.7452
 21
123.997
 31
0.0
  0
LINE
  8
0
 62
     0
 10
66.7452
 20
123.997
 30
0.0
 11
66.7452
 21
109.996
 31
0.0
  0
LINE
  8
0
 62
     0
 10
66.7452
 20
109.996
 30
0.0
 11
52.7459
 21
109.996
 31
0.0
  0
LINE
  8
0
 62
     0
 10
52.7459
 20
109.996
 30
0.0
 11
52.7459
 21
123.997
 31
0.0
  0
LINE
  8
0
 62
     0
 10
71.7959
 20
123.997
 30
0.0
 11
85.7952
 21
123.997
 31
0.0
  0
LINE
  8
0
 62
     0
 10
85.7952
 20
123.997
 30
0.0
 11
85.7952
 21
109.996
 31
0.0
  0
LINE
  8
0
 62
     0
 10
85.7952
 20
109.996
 30
0.0
 11
71.7959
 21
109.996
 31
0.0
  0
LINE
  8
0
 62
     0
 10
71.7959
 20
109.996
 30
0.0
 11
71.7959
 21
123.997
 31
0.0
  0
LINE
  8
0
 62
     0
 10
90.8459
 20
123.997
 30
0.0
 11
104.845
 21
123.997
 31
0.0
  0
LINE
  8
0
 62
     0
 10
104.845
 20
123.997
 30
0.0
 11
104.845
 21
109.996
 31
0.0
  0
LINE
  8
0
 62
     0
 10
104.845
 20
109.996
 30
0.0
 11
90.8459
 21
109.996
 31
0.0
  0
LINE
  8
0
 62
     0
 10
90.8459
 20
109.996
 30
0.0
 11
90.8459
 21
123.997
 31
0.0
  0
LINE
  8
0
 62
     0
 10
109.896
 20
123.997
 30
0.0
 11
123.895
 21
123.997
 31
0.0
  0
LINE
  8
0
 62
     0
 10
123.895
 20
123.997
 30
0.0
 11
123.895
 21
109.996
 31
0.0
  0
LINE
  8
0
 62
     0
 10
123.895
 20
109.996
 30
0.0
 11
109.896
 21
109.996
 31
0.0
  0
LINE
  8
0
 62
     0
 10
109.896
 20
109.996
 30
0.0
 11
109.896
 21
123.997
 31
0.0
  0
LINE
  8
0
 62
     0
 10
133.707
 20
123.997
 30
0.0
 11
147.708
 21
123.997
 31
0.0
  0
LINE
  8
0
 62
     0
 10
147.708
 20
123.997
 30
0.0
 11
147.708
 21
109.996
 31
0.0
  0
LINE
  8
0
 62
     0
 10
147.708
 20
109.996
 30
0.0
 11
133.707
 21
109.996
 31
0.0
  0
LINE
  8
0
 62
     0
 10
133.707
 20
109.996
 30
0.0
 11
133.707
 21
123.997
 31
0.0
  0
LINE
  8
0
 62
     0
 10
152.757
 20
123.997
 30
0.0
 11
166.758
 21
123.997
 31
0.0
  0
LINE
  8
0
 62
     0
 10
166.758
 20
123.997
 30
0.0
 11
166.758
 21
109.996
 31
0.0
  0
LINE
  8
0
 62
     0
 10
166.758
 20
109.996
 30
0.0
 11
152.757
 21
109.996
 31
0.0
  0
LINE
  8
0
 62
     0
 10
152.757
 20
109.996
 30
0.0
 11
152.757
 21
123.997
 31
0.0
  0
LINE
  8
0
 62
     0
 10
171.807
 20
123.997
 30
0.0
 11
185.808
 21
123.997
 31
0.0
  0
LINE
  8
0
 62
     0
 10
185.808
 20
123.997
 30
0.0
 11
185.808
 21
109.996
 31
0.0
  0
LINE
  8
0
 62
     0
 10
185.808
 20
109.996
 30
0.0
 11
171.807
 21
109.996
 31
0.0
  0
LINE
  8
0
 62
     0
 10
171.807
 20
109.996
 30
0.0
 11
171.807
 21
123.997
 31
0.0
  0
LINE
  8
0
 62
     0
 10
190.857
 20
123.997
 30
0.0
 11
204.858
 21
123.997
 31
0.0
  0
LINE
  8
0
 62
     0
 10
204.858
 20
123.997
 30
0.0
 11
204.858
 21
109.996
 31
0.0
  0
LINE
  8
0
 62
     0
 10
204.858
 20
109.996
 30
0.0
 11
190.857
 21
109.996
 31
0.0
  0
LINE
  8
0
 62
     0
 10
190.857
 20
109.996
 30
0.0
 11
190.857
 21
123.997
 31
0.0
  0
LINE
  8
0
 62
     0
 10
214.671
 20
123.997
 30
0.0
 11
228.67
 21
123.997
 31
0.0
  0
LINE
  8
0
 62
     0
 10
228.67
 20
123.997
 30
0.0
 11
228.67
 21
109.996
 31
0.0
  0
LINE
  8
0
 62
     0
 10
228.67
 20
109.996
 30
0.0
 11
214.671
 21
109.996
 31
0.0
  0
LINE
  8
0
 62
     0
 10
214.671
 20
109.996
 30
0.0
 11
214.671
 21
123.997
 31
0.0
  0
LINE
  8
0
 62
     0
 10
233.721
 20
123.997
 30
0.0
 11
247.72
 21
123.997
 31
0.0
  0
LINE
  8
0
 62
     0
 10
247.72
 20
123.997
 30
0.0
 11
247.72
 21
109.996
 31
0.0
  0
LINE
  8
0
 62
     0
 10
247.72
 20
109.996
 30
0.0
 11
233.721
 21
109.996
 31
0.0
  0
LINE
  8
0
 62
     0
 10
233.721
 20
109.996
 30
0.0
 11
233.721
 21
123.997
 31
0.0
  0
LINE
  8
0
 62
     0
 10
252.771
 20
123.997
 30
0.0
 11
266.77
 21
123.997
 31
0.0
  0
LINE
  8
0
 62
     0
 10
266.77
 20
123.997
 30
0.0
 11
266.77
 21
109.996
 31
0.0
  0
LINE
  8
0
 62
     0
 10
266.77
 20
109.996
 30
0.0
 11
252.771
 21
109.996
 31
0.0
  0
LINE
  8
0
 62
     0
 10
252.771
 20
109.996
 30
0.0
 11
252.771
 21
123.997
 31
0.0
  0
LINE
  8
0
 62
     0
 10
271.821
 20
123.997
 30
0.0
 11
285.82
 21
123.997
 31
0.0
  0
LINE
  8
0
 62
     0
 10
285.82
 20
123.997
 30
0.0
 11
285.82
 21
109.996
 31
0.0
  0
LINE
  8
0
 62
     0
 10
285.82
 20
109.996
 30
0.0
 11
271.821
 21
109.996
 31
0.0
  0
LINE
  8
0
 62
     0
 10
271.821
 20
109.996
 30
0.0
 11
271.821
 21
123.997
 31
0.0
  0
LINE
  8
0
 62
     0
 10
295.632
 20
123.997
 30
0.0
 11
309.633
 21
123.997
 31
0.0
  0
LINE
  8
0
 62
     0
 10
309.633
 20
123.997
 30
0.0
 11
309.633
 21
109.996
 31
0.0
  0
LINE
  8
0
 62
     0
 10
309.633
 20
109.996
 30
0.0
 11
295.632
 21
109.996
 31
0.0
  0
LINE
  8
0
 62
     0
 10
295.632
 20
109.996
 30
0.0
 11
295.632
 21
123.997
 31
0.0
  0
LINE
  8
0
 62
     0
 10
324.207
 20
123.997
 30
0.0
 11
338.208
 21
123.997
 31
0.0
  0
LINE
  8
0
 62
     0
 10
338.208
 20
123.997
 30
0.0
 11
338.208
 21
109.996
 31
0.0
  0
LINE
  8
0
 62
     0
 10
338.208
 20
109.996
 30
0.0
 11
324.207
 21
109.996
 31
0.0
  0
LINE
  8
0
 62
     0
 10
324.207
 20
109.996
 30
0.0
 11
324.207
 21
123.997
 31
0.0
  0
ENDSEC
  0
EOF
