  0
SECTION
  2
HEADER
  9
$ACADVER
  1
AC1009
  9
$FILLMODE
 70
 0
  9
$SPLFRAME
 70
 1
  9
$EXTMIN
 10
0
 20
0
 30
0.0
  9
$EXTMAX
 10
1058.33
 20
1058.33
 30
0.0
  0
ENDSEC
  0
SECTION
  2
TABLES
  0
TABLE
  2
LAYER
 70
1
  0
LAYER
  2
0
 70
     0
 62
     7
  6
CONTINUOUS
  0
ENDTAB
  0
ENDSEC
  0
SECTION
  2
ENTITIES
  0
LINE
  8
0
 62
     0
 10
372.572
 20
124.435
 30
0.0
 11
372.964
 21
124.42
 31
0.0
  0
LINE
  8
0
 62
     0
 10
372.964
 20
124.42
 30
0.0
 11
373.352
 21
124.374
 31
0.0
  0
LINE
  8
0
 62
     0
 10
373.352
 20
124.374
 30
0.0
 11
373.74
 21
124.298
 31
0.0
  0
LINE
  8
0
 62
     0
 10
373.74
 20
124.298
 30
0.0
 11
374.117
 21
124.192
 31
0.0
  0
LINE
  8
0
 62
     0
 10
374.117
 20
124.192
 30
0.0
 11
374.484
 21
124.055
 31
0.0
  0
LINE
  8
0
 62
     0
 10
374.484
 20
124.055
 30
0.0
 11
374.841
 21
123.891
 31
0.0
  0
LINE
  8
0
 62
     0
 10
374.841
 20
123.891
 30
0.0
 11
375.183
 21
123.7
 31
0.0
  0
LINE
  8
0
 62
     0
 10
375.183
 20
123.7
 30
0.0
 11
375.511
 21
123.48
 31
0.0
  0
LINE
  8
0
 62
     0
 10
375.511
 20
123.48
 30
0.0
 11
375.818
 21
123.238
 31
0.0
  0
LINE
  8
0
 62
     0
 10
375.818
 20
123.238
 30
0.0
 11
376.107
 21
122.971
 31
0.0
  0
LINE
  8
0
 62
     0
 10
376.107
 20
122.971
 30
0.0
 11
376.375
 21
122.683
 31
0.0
  0
LINE
  8
0
 62
     0
 10
376.375
 20
122.683
 30
0.0
 11
376.615
 21
122.374
 31
0.0
  0
LINE
  8
0
 62
     0
 10
376.615
 20
122.374
 30
0.0
 11
376.834
 21
122.049
 31
0.0
  0
LINE
  8
0
 62
     0
 10
376.834
 20
122.049
 30
0.0
 11
377.028
 21
121.706
 31
0.0
  0
LINE
  8
0
 62
     0
 10
377.028
 20
121.706
 30
0.0
 11
377.19
 21
121.349
 31
0.0
  0
LINE
  8
0
 62
     0
 10
377.19
 20
121.349
 30
0.0
 11
377.328
 21
120.981
 31
0.0
  0
LINE
  8
0
 62
     0
 10
377.328
 20
120.981
 30
0.0
 11
377.433
 21
120.603
 31
0.0
  0
LINE
  8
0
 62
     0
 10
377.433
 20
120.603
 30
0.0
 11
377.511
 21
120.219
 31
0.0
  0
LINE
  8
0
 62
     0
 10
377.511
 20
120.219
 30
0.0
 11
377.553
 21
119.829
 31
0.0
  0
LINE
  8
0
 62
     0
 10
377.553
 20
119.829
 30
0.0
 11
377.571
 21
119.435
 31
0.0
  0
LINE
  8
0
 62
     0
 10
377.571
 20
119.435
 30
0.0
 11
377.571
 21
5.37161
 31
0.0
  0
LINE
  8
0
 62
     0
 10
377.571
 20
5.37161
 30
0.0
 11
377.553
 21
4.98023
 31
0.0
  0
LINE
  8
0
 62
     0
 10
377.553
 20
4.98023
 30
0.0
 11
377.511
 21
4.59024
 31
0.0
  0
LINE
  8
0
 62
     0
 10
377.511
 20
4.59024
 30
0.0
 11
377.433
 21
4.20441
 31
0.0
  0
LINE
  8
0
 62
     0
 10
377.433
 20
4.20441
 30
0.0
 11
377.328
 21
3.82683
 31
0.0
  0
LINE
  8
0
 62
     0
 10
377.328
 20
3.82683
 30
0.0
 11
377.19
 21
3.45888
 31
0.0
  0
LINE
  8
0
 62
     0
 10
377.19
 20
3.45888
 30
0.0
 11
377.028
 21
3.10196
 31
0.0
  0
LINE
  8
0
 62
     0
 10
377.028
 20
3.10196
 30
0.0
 11
376.834
 21
2.76021
 31
0.0
  0
LINE
  8
0
 62
     0
 10
376.834
 20
2.76021
 30
0.0
 11
376.615
 21
2.43362
 31
0.0
  0
LINE
  8
0
 62
     0
 10
376.615
 20
2.43362
 30
0.0
 11
376.375
 21
2.12494
 31
0.0
  0
LINE
  8
0
 62
     0
 10
376.375
 20
2.12494
 30
0.0
 11
376.107
 21
1.83555
 31
0.0
  0
LINE
  8
0
 62
     0
 10
376.107
 20
1.83555
 30
0.0
 11
375.818
 21
1.56959
 31
0.0
  0
LINE
  8
0
 62
     0
 10
375.818
 20
1.56959
 30
0.0
 11
375.511
 21
1.32705
 31
0.0
  0
LINE
  8
0
 62
     0
 10
375.511
 20
1.32705
 30
0.0
 11
375.183
 21
1.10932
 31
0.0
  0
LINE
  8
0
 62
     0
 10
375.183
 20
1.10932
 30
0.0
 11
374.841
 21
0.916397
 31
0.0
  0
LINE
  8
0
 62
     0
 10
374.841
 20
0.916397
 30
0.0
 11
374.484
 21
0.753787
 31
0.0
  0
LINE
  8
0
 62
     0
 10
374.484
 20
0.753787
 30
0.0
 11
374.117
 21
0.617361
 31
0.0
  0
LINE
  8
0
 62
     0
 10
374.117
 20
0.617361
 30
0.0
 11
373.74
 21
0.509873
 31
0.0
  0
LINE
  8
0
 62
     0
 10
373.74
 20
0.509873
 30
0.0
 11
373.352
 21
0.434082
 31
0.0
  0
LINE
  8
0
 62
     0
 10
373.352
 20
0.434082
 30
0.0
 11
372.964
 21
0.38723
 31
0.0
  0
LINE
  8
0
 62
     0
 10
372.964
 20
0.38723
 30
0.0
 11
372.572
 21
0.373447
 31
0.0
  0
LINE
  8
0
 62
     0
 10
372.572
 20
0.373447
 30
0.0
 11
5.09598
 21
0.373447
 31
0.0
  0
LINE
  8
0
 62
     0
 10
5.09598
 20
0.373447
 30
0.0
 11
4.70186
 21
0.38723
 31
0.0
  0
LINE
  8
0
 62
     0
 10
4.70186
 20
0.38723
 30
0.0
 11
4.3119
 21
0.434082
 31
0.0
  0
LINE
  8
0
 62
     0
 10
4.3119
 20
0.434082
 30
0.0
 11
3.9274
 21
0.509873
 31
0.0
  0
LINE
  8
0
 62
     0
 10
3.9274
 20
0.509873
 30
0.0
 11
3.54983
 21
0.617361
 31
0.0
  0
LINE
  8
0
 62
     0
 10
3.54983
 20
0.617361
 30
0.0
 11
3.18189
 21
0.753787
 31
0.0
  0
LINE
  8
0
 62
     0
 10
3.18189
 20
0.753787
 30
0.0
 11
2.82498
 21
0.916397
 31
0.0
  0
LINE
  8
0
 62
     0
 10
2.82498
 20
0.916397
 30
0.0
 11
2.48185
 21
1.10932
 31
0.0
  0
LINE
  8
0
 62
     0
 10
2.48185
 20
1.10932
 30
0.0
 11
2.15663
 21
1.32705
 31
0.0
  0
LINE
  8
0
 62
     0
 10
2.15663
 20
1.32705
 30
0.0
 11
1.84795
 21
1.56959
 31
0.0
  0
LINE
  8
0
 62
     0
 10
1.84795
 20
1.56959
 30
0.0
 11
1.55994
 21
1.83555
 31
0.0
  0
LINE
  8
0
 62
     0
 10
1.55994
 20
1.83555
 30
0.0
 11
1.2926
 21
2.12494
 31
0.0
  0
LINE
  8
0
 62
     0
 10
1.2926
 20
2.12494
 30
0.0
 11
1.05006
 21
2.43362
 31
0.0
  0
LINE
  8
0
 62
     0
 10
1.05006
 20
2.43362
 30
0.0
 11
0.830957
 21
2.76021
 31
0.0
  0
LINE
  8
0
 62
     0
 10
0.830957
 20
2.76021
 30
0.0
 11
0.63941
 21
3.10196
 31
0.0
  0
LINE
  8
0
 62
     0
 10
0.63941
 20
3.10196
 30
0.0
 11
0.475424
 21
3.45888
 31
0.0
  0
LINE
  8
0
 62
     0
 10
0.475424
 20
3.45888
 30
0.0
 11
0.338998
 21
3.82683
 31
0.0
  0
LINE
  8
0
 62
     0
 10
0.338998
 20
3.82683
 30
0.0
 11
0.232888
 21
4.20441
 31
0.0
  0
LINE
  8
0
 62
     0
 10
0.232888
 20
4.20441
 30
0.0
 11
0.157097
 21
4.59024
 31
0.0
  0
LINE
  8
0
 62
     0
 10
0.157097
 20
4.59024
 30
0.0
 11
0.110243
 21
4.98023
 31
0.0
  0
LINE
  8
0
 62
     0
 10
0.110243
 20
4.98023
 30
0.0
 11
0.0950846
 21
5.37161
 31
0.0
  0
LINE
  8
0
 62
     0
 10
0.0950846
 20
5.37161
 30
0.0
 11
0.0950846
 21
119.435
 31
0.0
  0
LINE
  8
0
 62
     0
 10
0.0950846
 20
119.435
 30
0.0
 11
0.110243
 21
119.829
 31
0.0
  0
LINE
  8
0
 62
     0
 10
0.110243
 20
119.829
 30
0.0
 11
0.157097
 21
120.219
 31
0.0
  0
LINE
  8
0
 62
     0
 10
0.157097
 20
120.219
 30
0.0
 11
0.232888
 21
120.603
 31
0.0
  0
LINE
  8
0
 62
     0
 10
0.232888
 20
120.603
 30
0.0
 11
0.338998
 21
120.981
 31
0.0
  0
LINE
  8
0
 62
     0
 10
0.338998
 20
120.981
 30
0.0
 11
0.475424
 21
121.349
 31
0.0
  0
LINE
  8
0
 62
     0
 10
0.475424
 20
121.349
 30
0.0
 11
0.63941
 21
121.706
 31
0.0
  0
LINE
  8
0
 62
     0
 10
0.63941
 20
121.706
 30
0.0
 11
0.830957
 21
122.049
 31
0.0
  0
LINE
  8
0
 62
     0
 10
0.830957
 20
122.049
 30
0.0
 11
1.05006
 21
122.374
 31
0.0
  0
LINE
  8
0
 62
     0
 10
1.05006
 20
122.374
 30
0.0
 11
1.2926
 21
122.683
 31
0.0
  0
LINE
  8
0
 62
     0
 10
1.2926
 20
122.683
 30
0.0
 11
1.55994
 21
122.971
 31
0.0
  0
LINE
  8
0
 62
     0
 10
1.55994
 20
122.971
 30
0.0
 11
1.84795
 21
123.238
 31
0.0
  0
LINE
  8
0
 62
     0
 10
1.84795
 20
123.238
 30
0.0
 11
2.15663
 21
123.48
 31
0.0
  0
LINE
  8
0
 62
     0
 10
2.15663
 20
123.48
 30
0.0
 11
2.48185
 21
123.7
 31
0.0
  0
LINE
  8
0
 62
     0
 10
2.48185
 20
123.7
 30
0.0
 11
2.82498
 21
123.891
 31
0.0
  0
LINE
  8
0
 62
     0
 10
2.82498
 20
123.891
 30
0.0
 11
3.18189
 21
124.055
 31
0.0
  0
LINE
  8
0
 62
     0
 10
3.18189
 20
124.055
 30
0.0
 11
3.54983
 21
124.192
 31
0.0
  0
LINE
  8
0
 62
     0
 10
3.54983
 20
124.192
 30
0.0
 11
3.9274
 21
124.298
 31
0.0
  0
LINE
  8
0
 62
     0
 10
3.9274
 20
124.298
 30
0.0
 11
4.3119
 21
124.374
 31
0.0
  0
LINE
  8
0
 62
     0
 10
4.3119
 20
124.374
 30
0.0
 11
4.70186
 21
124.42
 31
0.0
  0
LINE
  8
0
 62
     0
 10
4.70186
 20
124.42
 30
0.0
 11
5.09598
 21
124.435
 31
0.0
  0
LINE
  8
0
 62
     0
 10
5.09598
 20
124.435
 30
0.0
 11
372.572
 21
124.435
 31
0.0
  0
LINE
  8
0
 62
     0
 10
150.876
 20
18.8984
 30
0.0
 11
150.876
 21
14.1979
 31
0.0
  0
LINE
  8
0
 62
     0
 10
150.876
 20
14.1979
 30
0.0
 11
111.252
 21
14.1979
 31
0.0
  0
LINE
  8
0
 62
     0
 10
111.252
 20
14.1979
 30
0.0
 11
111.252
 21
17.428
 31
0.0
  0
LINE
  8
0
 62
     0
 10
111.252
 20
17.428
 30
0.0
 11
104.502
 21
17.428
 31
0.0
  0
LINE
  8
0
 62
     0
 10
104.502
 20
17.428
 30
0.0
 11
104.502
 21
14.1979
 31
0.0
  0
LINE
  8
0
 62
     0
 10
104.502
 20
14.1979
 30
0.0
 11
103.677
 21
14.1979
 31
0.0
  0
LINE
  8
0
 62
     0
 10
103.677
 20
14.1979
 30
0.0
 11
103.677
 21
11.3978
 31
0.0
  0
LINE
  8
0
 62
     0
 10
103.677
 20
11.3978
 30
0.0
 11
104.502
 21
11.3978
 31
0.0
  0
LINE
  8
0
 62
     0
 10
104.502
 20
11.3978
 30
0.0
 11
104.502
 21
5.1277
 31
0.0
  0
LINE
  8
0
 62
     0
 10
104.502
 20
5.1277
 30
0.0
 11
106.226
 21
5.1277
 31
0.0
  0
LINE
  8
0
 62
     0
 10
106.226
 20
5.1277
 30
0.0
 11
106.226
 21
3.9274
 31
0.0
  0
LINE
  8
0
 62
     0
 10
106.226
 20
3.9274
 30
0.0
 11
109.527
 21
3.9274
 31
0.0
  0
LINE
  8
0
 62
     0
 10
109.527
 20
3.9274
 30
0.0
 11
109.527
 21
5.1277
 31
0.0
  0
LINE
  8
0
 62
     0
 10
109.527
 20
5.1277
 30
0.0
 11
111.252
 21
5.1277
 31
0.0
  0
LINE
  8
0
 62
     0
 10
111.252
 20
5.1277
 30
0.0
 11
111.252
 21
9.59803
 31
0.0
  0
LINE
  8
0
 62
     0
 10
111.252
 20
9.59803
 30
0.0
 11
150.876
 21
9.59803
 31
0.0
  0
LINE
  8
0
 62
     0
 10
150.876
 20
9.59803
 30
0.0
 11
150.876
 21
4.89754
 31
0.0
  0
LINE
  8
0
 62
     0
 10
150.876
 20
4.89754
 30
0.0
 11
164.877
 21
4.89754
 31
0.0
  0
LINE
  8
0
 62
     0
 10
164.877
 20
4.89754
 30
0.0
 11
164.877
 21
9.59803
 31
0.0
  0
LINE
  8
0
 62
     0
 10
164.877
 20
9.59803
 30
0.0
 11
204.501
 21
9.59803
 31
0.0
  0
LINE
  8
0
 62
     0
 10
204.501
 20
9.59803
 30
0.0
 11
204.501
 21
5.1277
 31
0.0
  0
LINE
  8
0
 62
     0
 10
204.501
 20
5.1277
 30
0.0
 11
206.226
 21
5.1277
 31
0.0
  0
LINE
  8
0
 62
     0
 10
206.226
 20
5.1277
 30
0.0
 11
206.226
 21
3.9274
 31
0.0
  0
LINE
  8
0
 62
     0
 10
206.226
 20
3.9274
 30
0.0
 11
209.527
 21
3.9274
 31
0.0
  0
LINE
  8
0
 62
     0
 10
209.527
 20
3.9274
 30
0.0
 11
209.527
 21
5.1277
 31
0.0
  0
LINE
  8
0
 62
     0
 10
209.527
 20
5.1277
 30
0.0
 11
211.252
 21
5.1277
 31
0.0
  0
LINE
  8
0
 62
     0
 10
211.252
 20
5.1277
 30
0.0
 11
211.252
 21
11.3978
 31
0.0
  0
LINE
  8
0
 62
     0
 10
211.252
 20
11.3978
 30
0.0
 11
212.076
 21
11.3978
 31
0.0
  0
LINE
  8
0
 62
     0
 10
212.076
 20
11.3978
 30
0.0
 11
212.076
 21
14.1979
 31
0.0
  0
LINE
  8
0
 62
     0
 10
212.076
 20
14.1979
 30
0.0
 11
211.252
 21
14.1979
 31
0.0
  0
LINE
  8
0
 62
     0
 10
211.252
 20
14.1979
 30
0.0
 11
211.252
 21
17.428
 31
0.0
  0
LINE
  8
0
 62
     0
 10
211.252
 20
17.428
 30
0.0
 11
204.501
 21
17.428
 31
0.0
  0
LINE
  8
0
 62
     0
 10
204.501
 20
17.428
 30
0.0
 11
204.501
 21
14.1979
 31
0.0
  0
LINE
  8
0
 62
     0
 10
204.501
 20
14.1979
 30
0.0
 11
164.877
 21
14.1979
 31
0.0
  0
LINE
  8
0
 62
     0
 10
164.877
 20
14.1979
 30
0.0
 11
164.877
 21
18.8984
 31
0.0
  0
LINE
  8
0
 62
     0
 10
164.877
 20
18.8984
 30
0.0
 11
150.876
 21
18.8984
 31
0.0
  0
LINE
  8
0
 62
     0
 10
5.61964
 20
18.8984
 30
0.0
 11
19.6205
 21
18.8984
 31
0.0
  0
LINE
  8
0
 62
     0
 10
19.6205
 20
18.8984
 30
0.0
 11
19.6205
 21
4.89754
 31
0.0
  0
LINE
  8
0
 62
     0
 10
19.6205
 20
4.89754
 30
0.0
 11
5.61964
 21
4.89754
 31
0.0
  0
LINE
  8
0
 62
     0
 10
5.61964
 20
4.89754
 30
0.0
 11
5.61964
 21
18.8984
 31
0.0
  0
LINE
  8
0
 62
     0
 10
31.8134
 20
18.8984
 30
0.0
 11
45.8128
 21
18.8984
 31
0.0
  0
LINE
  8
0
 62
     0
 10
45.8128
 20
18.8984
 30
0.0
 11
45.8128
 21
4.89754
 31
0.0
  0
LINE
  8
0
 62
     0
 10
45.8128
 20
4.89754
 30
0.0
 11
31.8134
 21
4.89754
 31
0.0
  0
LINE
  8
0
 62
     0
 10
31.8134
 20
4.89754
 30
0.0
 11
31.8134
 21
18.8984
 31
0.0
  0
LINE
  8
0
 62
     0
 10
55.626
 20
18.8984
 30
0.0
 11
69.6267
 21
18.8984
 31
0.0
  0
LINE
  8
0
 62
     0
 10
69.6267
 20
18.8984
 30
0.0
 11
69.6267
 21
4.89754
 31
0.0
  0
LINE
  8
0
 62
     0
 10
69.6267
 20
4.89754
 30
0.0
 11
55.626
 21
4.89754
 31
0.0
  0
LINE
  8
0
 62
     0
 10
55.626
 20
4.89754
 30
0.0
 11
55.626
 21
18.8984
 31
0.0
  0
LINE
  8
0
 62
     0
 10
79.4385
 20
18.8984
 30
0.0
 11
93.4378
 21
18.8984
 31
0.0
  0
LINE
  8
0
 62
     0
 10
93.4378
 20
18.8984
 30
0.0
 11
93.4378
 21
4.89754
 31
0.0
  0
LINE
  8
0
 62
     0
 10
93.4378
 20
4.89754
 30
0.0
 11
79.4385
 21
4.89754
 31
0.0
  0
LINE
  8
0
 62
     0
 10
79.4385
 20
4.89754
 30
0.0
 11
79.4385
 21
18.8984
 31
0.0
  0
LINE
  8
0
 62
     0
 10
222.313
 20
18.8984
 30
0.0
 11
236.313
 21
18.8984
 31
0.0
  0
LINE
  8
0
 62
     0
 10
236.313
 20
18.8984
 30
0.0
 11
236.313
 21
4.89754
 31
0.0
  0
LINE
  8
0
 62
     0
 10
236.313
 20
4.89754
 30
0.0
 11
222.313
 21
4.89754
 31
0.0
  0
LINE
  8
0
 62
     0
 10
222.313
 20
4.89754
 30
0.0
 11
222.313
 21
18.8984
 31
0.0
  0
LINE
  8
0
 62
     0
 10
246.126
 20
18.8984
 30
0.0
 11
260.127
 21
18.8984
 31
0.0
  0
LINE
  8
0
 62
     0
 10
260.127
 20
18.8984
 30
0.0
 11
260.127
 21
4.89754
 31
0.0
  0
LINE
  8
0
 62
     0
 10
260.127
 20
4.89754
 30
0.0
 11
246.126
 21
4.89754
 31
0.0
  0
LINE
  8
0
 62
     0
 10
246.126
 20
4.89754
 30
0.0
 11
246.126
 21
18.8984
 31
0.0
  0
LINE
  8
0
 62
     0
 10
269.938
 20
18.8984
 30
0.0
 11
283.938
 21
18.8984
 31
0.0
  0
LINE
  8
0
 62
     0
 10
283.938
 20
18.8984
 30
0.0
 11
283.938
 21
4.89754
 31
0.0
  0
LINE
  8
0
 62
     0
 10
283.938
 20
4.89754
 30
0.0
 11
269.938
 21
4.89754
 31
0.0
  0
LINE
  8
0
 62
     0
 10
269.938
 20
4.89754
 30
0.0
 11
269.938
 21
18.8984
 31
0.0
  0
LINE
  8
0
 62
     0
 10
293.751
 20
18.8984
 30
0.0
 11
307.752
 21
18.8984
 31
0.0
  0
LINE
  8
0
 62
     0
 10
307.752
 20
18.8984
 30
0.0
 11
307.752
 21
4.89754
 31
0.0
  0
LINE
  8
0
 62
     0
 10
307.752
 20
4.89754
 30
0.0
 11
293.751
 21
4.89754
 31
0.0
  0
LINE
  8
0
 62
     0
 10
293.751
 20
4.89754
 30
0.0
 11
293.751
 21
18.8984
 31
0.0
  0
LINE
  8
0
 62
     0
 10
319.946
 20
18.8984
 30
0.0
 11
333.945
 21
18.8984
 31
0.0
  0
LINE
  8
0
 62
     0
 10
333.945
 20
18.8984
 30
0.0
 11
333.945
 21
4.89754
 31
0.0
  0
LINE
  8
0
 62
     0
 10
333.945
 20
4.89754
 30
0.0
 11
319.946
 21
4.89754
 31
0.0
  0
LINE
  8
0
 62
     0
 10
319.946
 20
4.89754
 30
0.0
 11
319.946
 21
18.8984
 31
0.0
  0
LINE
  8
0
 62
     0
 10
338.996
 20
18.8984
 30
0.0
 11
352.996
 21
18.8984
 31
0.0
  0
LINE
  8
0
 62
     0
 10
352.996
 20
18.8984
 30
0.0
 11
352.996
 21
4.89754
 31
0.0
  0
LINE
  8
0
 62
     0
 10
352.996
 20
4.89754
 30
0.0
 11
338.996
 21
4.89754
 31
0.0
  0
LINE
  8
0
 62
     0
 10
338.996
 20
4.89754
 30
0.0
 11
338.996
 21
18.8984
 31
0.0
  0
LINE
  8
0
 62
     0
 10
358.045
 20
18.8984
 30
0.0
 11
372.046
 21
18.8984
 31
0.0
  0
LINE
  8
0
 62
     0
 10
372.046
 20
18.8984
 30
0.0
 11
372.046
 21
4.89754
 31
0.0
  0
LINE
  8
0
 62
     0
 10
372.046
 20
4.89754
 30
0.0
 11
358.045
 21
4.89754
 31
0.0
  0
LINE
  8
0
 62
     0
 10
358.045
 20
4.89754
 30
0.0
 11
358.045
 21
18.8984
 31
0.0
  0
LINE
  8
0
 62
     0
 10
38.9573
 20
37.9483
 30
0.0
 11
38.9573
 21
33.2479
 31
0.0
  0
LINE
  8
0
 62
     0
 10
38.9573
 20
33.2479
 30
0.0
 11
37.4329
 21
33.2479
 31
0.0
  0
LINE
  8
0
 62
     0
 10
37.4329
 20
33.2479
 30
0.0
 11
37.4329
 21
36.4779
 31
0.0
  0
LINE
  8
0
 62
     0
 10
37.4329
 20
36.4779
 30
0.0
 11
30.682
 21
36.4779
 31
0.0
  0
LINE
  8
0
 62
     0
 10
30.682
 20
36.4779
 30
0.0
 11
30.682
 21
33.2479
 31
0.0
  0
LINE
  8
0
 62
     0
 10
30.682
 20
33.2479
 30
0.0
 11
29.8579
 21
33.2479
 31
0.0
  0
LINE
  8
0
 62
     0
 10
29.8579
 20
33.2479
 30
0.0
 11
29.8579
 21
30.4478
 31
0.0
  0
LINE
  8
0
 62
     0
 10
29.8579
 20
30.4478
 30
0.0
 11
30.682
 21
30.4478
 31
0.0
  0
LINE
  8
0
 62
     0
 10
30.682
 20
30.4478
 30
0.0
 11
30.682
 21
24.1777
 31
0.0
  0
LINE
  8
0
 62
     0
 10
30.682
 20
24.1777
 30
0.0
 11
32.4073
 21
24.1777
 31
0.0
  0
LINE
  8
0
 62
     0
 10
32.4073
 20
24.1777
 30
0.0
 11
32.4073
 21
22.9774
 31
0.0
  0
LINE
  8
0
 62
     0
 10
32.4073
 20
22.9774
 30
0.0
 11
35.7078
 21
22.9774
 31
0.0
  0
LINE
  8
0
 62
     0
 10
35.7078
 20
22.9774
 30
0.0
 11
35.7078
 21
24.1777
 31
0.0
  0
LINE
  8
0
 62
     0
 10
35.7078
 20
24.1777
 30
0.0
 11
37.4329
 21
24.1777
 31
0.0
  0
LINE
  8
0
 62
     0
 10
37.4329
 20
24.1777
 30
0.0
 11
37.4329
 21
28.648
 31
0.0
  0
LINE
  8
0
 62
     0
 10
37.4329
 20
28.648
 30
0.0
 11
38.9573
 21
28.648
 31
0.0
  0
LINE
  8
0
 62
     0
 10
38.9573
 20
28.648
 30
0.0
 11
38.9573
 21
23.9475
 31
0.0
  0
LINE
  8
0
 62
     0
 10
38.9573
 20
23.9475
 30
0.0
 11
52.9579
 21
23.9475
 31
0.0
  0
LINE
  8
0
 62
     0
 10
52.9579
 20
23.9475
 30
0.0
 11
52.9579
 21
28.648
 31
0.0
  0
LINE
  8
0
 62
     0
 10
52.9579
 20
28.648
 30
0.0
 11
54.4823
 21
28.648
 31
0.0
  0
LINE
  8
0
 62
     0
 10
54.4823
 20
28.648
 30
0.0
 11
54.4823
 21
24.1777
 31
0.0
  0
LINE
  8
0
 62
     0
 10
54.4823
 20
24.1777
 30
0.0
 11
56.2074
 21
24.1777
 31
0.0
  0
LINE
  8
0
 62
     0
 10
56.2074
 20
24.1777
 30
0.0
 11
56.2074
 21
22.9774
 31
0.0
  0
LINE
  8
0
 62
     0
 10
56.2074
 20
22.9774
 30
0.0
 11
59.508
 21
22.9774
 31
0.0
  0
LINE
  8
0
 62
     0
 10
59.508
 20
22.9774
 30
0.0
 11
59.508
 21
24.1777
 31
0.0
  0
LINE
  8
0
 62
     0
 10
59.508
 20
24.1777
 30
0.0
 11
61.2331
 21
24.1777
 31
0.0
  0
LINE
  8
0
 62
     0
 10
61.2331
 20
24.1777
 30
0.0
 11
61.2331
 21
30.4478
 31
0.0
  0
LINE
  8
0
 62
     0
 10
61.2331
 20
30.4478
 30
0.0
 11
62.0571
 21
30.4478
 31
0.0
  0
LINE
  8
0
 62
     0
 10
62.0571
 20
30.4478
 30
0.0
 11
62.0571
 21
33.2479
 31
0.0
  0
LINE
  8
0
 62
     0
 10
62.0571
 20
33.2479
 30
0.0
 11
61.2331
 21
33.2479
 31
0.0
  0
LINE
  8
0
 62
     0
 10
61.2331
 20
33.2479
 30
0.0
 11
61.2331
 21
36.4779
 31
0.0
  0
LINE
  8
0
 62
     0
 10
61.2331
 20
36.4779
 30
0.0
 11
54.4823
 21
36.4779
 31
0.0
  0
LINE
  8
0
 62
     0
 10
54.4823
 20
36.4779
 30
0.0
 11
54.4823
 21
33.2479
 31
0.0
  0
LINE
  8
0
 62
     0
 10
54.4823
 20
33.2479
 30
0.0
 11
52.9579
 21
33.2479
 31
0.0
  0
LINE
  8
0
 62
     0
 10
52.9579
 20
33.2479
 30
0.0
 11
52.9579
 21
37.9483
 31
0.0
  0
LINE
  8
0
 62
     0
 10
52.9579
 20
37.9483
 30
0.0
 11
38.9573
 21
37.9483
 31
0.0
  0
LINE
  8
0
 62
     0
 10
286.607
 20
37.9483
 30
0.0
 11
286.607
 21
33.2479
 31
0.0
  0
LINE
  8
0
 62
     0
 10
286.607
 20
33.2479
 30
0.0
 11
285.083
 21
33.2479
 31
0.0
  0
LINE
  8
0
 62
     0
 10
285.083
 20
33.2479
 30
0.0
 11
285.083
 21
36.4779
 31
0.0
  0
LINE
  8
0
 62
     0
 10
285.083
 20
36.4779
 30
0.0
 11
278.332
 21
36.4779
 31
0.0
  0
LINE
  8
0
 62
     0
 10
278.332
 20
36.4779
 30
0.0
 11
278.332
 21
33.2479
 31
0.0
  0
LINE
  8
0
 62
     0
 10
278.332
 20
33.2479
 30
0.0
 11
277.508
 21
33.2479
 31
0.0
  0
LINE
  8
0
 62
     0
 10
277.508
 20
33.2479
 30
0.0
 11
277.508
 21
30.4478
 31
0.0
  0
LINE
  8
0
 62
     0
 10
277.508
 20
30.4478
 30
0.0
 11
278.332
 21
30.4478
 31
0.0
  0
LINE
  8
0
 62
     0
 10
278.332
 20
30.4478
 30
0.0
 11
278.332
 21
24.1777
 31
0.0
  0
LINE
  8
0
 62
     0
 10
278.332
 20
24.1777
 30
0.0
 11
280.057
 21
24.1777
 31
0.0
  0
LINE
  8
0
 62
     0
 10
280.057
 20
24.1777
 30
0.0
 11
280.057
 21
22.9774
 31
0.0
  0
LINE
  8
0
 62
     0
 10
280.057
 20
22.9774
 30
0.0
 11
283.358
 21
22.9774
 31
0.0
  0
LINE
  8
0
 62
     0
 10
283.358
 20
22.9774
 30
0.0
 11
283.358
 21
24.1777
 31
0.0
  0
LINE
  8
0
 62
     0
 10
283.358
 20
24.1777
 30
0.0
 11
285.083
 21
24.1777
 31
0.0
  0
LINE
  8
0
 62
     0
 10
285.083
 20
24.1777
 30
0.0
 11
285.083
 21
28.648
 31
0.0
  0
LINE
  8
0
 62
     0
 10
285.083
 20
28.648
 30
0.0
 11
286.607
 21
28.648
 31
0.0
  0
LINE
  8
0
 62
     0
 10
286.607
 20
28.648
 30
0.0
 11
286.607
 21
23.9475
 31
0.0
  0
LINE
  8
0
 62
     0
 10
286.607
 20
23.9475
 30
0.0
 11
300.608
 21
23.9475
 31
0.0
  0
LINE
  8
0
 62
     0
 10
300.608
 20
23.9475
 30
0.0
 11
300.608
 21
28.648
 31
0.0
  0
LINE
  8
0
 62
     0
 10
300.608
 20
28.648
 30
0.0
 11
302.132
 21
28.648
 31
0.0
  0
LINE
  8
0
 62
     0
 10
302.132
 20
28.648
 30
0.0
 11
302.132
 21
24.1777
 31
0.0
  0
LINE
  8
0
 62
     0
 10
302.132
 20
24.1777
 30
0.0
 11
303.857
 21
24.1777
 31
0.0
  0
LINE
  8
0
 62
     0
 10
303.857
 20
24.1777
 30
0.0
 11
303.857
 21
22.9774
 31
0.0
  0
LINE
  8
0
 62
     0
 10
303.857
 20
22.9774
 30
0.0
 11
307.158
 21
22.9774
 31
0.0
  0
LINE
  8
0
 62
     0
 10
307.158
 20
22.9774
 30
0.0
 11
307.158
 21
24.1777
 31
0.0
  0
LINE
  8
0
 62
     0
 10
307.158
 20
24.1777
 30
0.0
 11
308.883
 21
24.1777
 31
0.0
  0
LINE
  8
0
 62
     0
 10
308.883
 20
24.1777
 30
0.0
 11
308.883
 21
30.4478
 31
0.0
  0
LINE
  8
0
 62
     0
 10
308.883
 20
30.4478
 30
0.0
 11
309.707
 21
30.4478
 31
0.0
  0
LINE
  8
0
 62
     0
 10
309.707
 20
30.4478
 30
0.0
 11
309.707
 21
33.2479
 31
0.0
  0
LINE
  8
0
 62
     0
 10
309.707
 20
33.2479
 30
0.0
 11
308.883
 21
33.2479
 31
0.0
  0
LINE
  8
0
 62
     0
 10
308.883
 20
33.2479
 30
0.0
 11
308.883
 21
36.4779
 31
0.0
  0
LINE
  8
0
 62
     0
 10
308.883
 20
36.4779
 30
0.0
 11
302.132
 21
36.4779
 31
0.0
  0
LINE
  8
0
 62
     0
 10
302.132
 20
36.4779
 30
0.0
 11
302.132
 21
33.2479
 31
0.0
  0
LINE
  8
0
 62
     0
 10
302.132
 20
33.2479
 30
0.0
 11
300.608
 21
33.2479
 31
0.0
  0
LINE
  8
0
 62
     0
 10
300.608
 20
33.2479
 30
0.0
 11
300.608
 21
37.9483
 31
0.0
  0
LINE
  8
0
 62
     0
 10
300.608
 20
37.9483
 30
0.0
 11
286.607
 21
37.9483
 31
0.0
  0
LINE
  8
0
 62
     0
 10
5.61964
 20
37.9483
 30
0.0
 11
19.6205
 21
37.9483
 31
0.0
  0
LINE
  8
0
 62
     0
 10
19.6205
 20
37.9483
 30
0.0
 11
19.6205
 21
23.9475
 31
0.0
  0
LINE
  8
0
 62
     0
 10
19.6205
 20
23.9475
 30
0.0
 11
5.61964
 21
23.9475
 31
0.0
  0
LINE
  8
0
 62
     0
 10
5.61964
 20
23.9475
 30
0.0
 11
5.61964
 21
37.9483
 31
0.0
  0
LINE
  8
0
 62
     0
 10
67.5322
 20
37.9483
 30
0.0
 11
81.5329
 21
37.9483
 31
0.0
  0
LINE
  8
0
 62
     0
 10
81.5329
 20
37.9483
 30
0.0
 11
81.5329
 21
23.9475
 31
0.0
  0
LINE
  8
0
 62
     0
 10
81.5329
 20
23.9475
 30
0.0
 11
67.5322
 21
23.9475
 31
0.0
  0
LINE
  8
0
 62
     0
 10
67.5322
 20
23.9475
 30
0.0
 11
67.5322
 21
37.9483
 31
0.0
  0
LINE
  8
0
 62
     0
 10
86.5822
 20
37.9483
 30
0.0
 11
100.583
 21
37.9483
 31
0.0
  0
LINE
  8
0
 62
     0
 10
100.583
 20
37.9483
 30
0.0
 11
100.583
 21
23.9475
 31
0.0
  0
LINE
  8
0
 62
     0
 10
100.583
 20
23.9475
 30
0.0
 11
86.5822
 21
23.9475
 31
0.0
  0
LINE
  8
0
 62
     0
 10
86.5822
 20
23.9475
 30
0.0
 11
86.5822
 21
37.9483
 31
0.0
  0
LINE
  8
0
 62
     0
 10
105.632
 20
37.9483
 30
0.0
 11
119.633
 21
37.9483
 31
0.0
  0
LINE
  8
0
 62
     0
 10
119.633
 20
37.9483
 30
0.0
 11
119.633
 21
23.9475
 31
0.0
  0
LINE
  8
0
 62
     0
 10
119.633
 20
23.9475
 30
0.0
 11
105.632
 21
23.9475
 31
0.0
  0
LINE
  8
0
 62
     0
 10
105.632
 20
23.9475
 30
0.0
 11
105.632
 21
37.9483
 31
0.0
  0
LINE
  8
0
 62
     0
 10
124.682
 20
37.9483
 30
0.0
 11
138.683
 21
37.9483
 31
0.0
  0
LINE
  8
0
 62
     0
 10
138.683
 20
37.9483
 30
0.0
 11
138.683
 21
23.9475
 31
0.0
  0
LINE
  8
0
 62
     0
 10
138.683
 20
23.9475
 30
0.0
 11
124.682
 21
23.9475
 31
0.0
  0
LINE
  8
0
 62
     0
 10
124.682
 20
23.9475
 30
0.0
 11
124.682
 21
37.9483
 31
0.0
  0
LINE
  8
0
 62
     0
 10
143.732
 20
37.9483
 30
0.0
 11
157.733
 21
37.9483
 31
0.0
  0
LINE
  8
0
 62
     0
 10
157.733
 20
37.9483
 30
0.0
 11
157.733
 21
23.9475
 31
0.0
  0
LINE
  8
0
 62
     0
 10
157.733
 20
23.9475
 30
0.0
 11
143.732
 21
23.9475
 31
0.0
  0
LINE
  8
0
 62
     0
 10
143.732
 20
23.9475
 30
0.0
 11
143.732
 21
37.9483
 31
0.0
  0
LINE
  8
0
 62
     0
 10
162.782
 20
37.9483
 30
0.0
 11
176.783
 21
37.9483
 31
0.0
  0
LINE
  8
0
 62
     0
 10
176.783
 20
37.9483
 30
0.0
 11
176.783
 21
23.9475
 31
0.0
  0
LINE
  8
0
 62
     0
 10
176.783
 20
23.9475
 30
0.0
 11
162.782
 21
23.9475
 31
0.0
  0
LINE
  8
0
 62
     0
 10
162.782
 20
23.9475
 30
0.0
 11
162.782
 21
37.9483
 31
0.0
  0
LINE
  8
0
 62
     0
 10
181.832
 20
37.9483
 30
0.0
 11
195.833
 21
37.9483
 31
0.0
  0
LINE
  8
0
 62
     0
 10
195.833
 20
37.9483
 30
0.0
 11
195.833
 21
23.9475
 31
0.0
  0
LINE
  8
0
 62
     0
 10
195.833
 20
23.9475
 30
0.0
 11
181.832
 21
23.9475
 31
0.0
  0
LINE
  8
0
 62
     0
 10
181.832
 20
23.9475
 30
0.0
 11
181.832
 21
37.9483
 31
0.0
  0
LINE
  8
0
 62
     0
 10
200.882
 20
37.9483
 30
0.0
 11
214.883
 21
37.9483
 31
0.0
  0
LINE
  8
0
 62
     0
 10
214.883
 20
37.9483
 30
0.0
 11
214.883
 21
23.9475
 31
0.0
  0
LINE
  8
0
 62
     0
 10
214.883
 20
23.9475
 30
0.0
 11
200.882
 21
23.9475
 31
0.0
  0
LINE
  8
0
 62
     0
 10
200.882
 20
23.9475
 30
0.0
 11
200.882
 21
37.9483
 31
0.0
  0
LINE
  8
0
 62
     0
 10
219.932
 20
37.9483
 30
0.0
 11
233.933
 21
37.9483
 31
0.0
  0
LINE
  8
0
 62
     0
 10
233.933
 20
37.9483
 30
0.0
 11
233.933
 21
23.9475
 31
0.0
  0
LINE
  8
0
 62
     0
 10
233.933
 20
23.9475
 30
0.0
 11
219.932
 21
23.9475
 31
0.0
  0
LINE
  8
0
 62
     0
 10
219.932
 20
23.9475
 30
0.0
 11
219.932
 21
37.9483
 31
0.0
  0
LINE
  8
0
 62
     0
 10
238.982
 20
37.9483
 30
0.0
 11
252.983
 21
37.9483
 31
0.0
  0
LINE
  8
0
 62
     0
 10
252.983
 20
37.9483
 30
0.0
 11
252.983
 21
23.9475
 31
0.0
  0
LINE
  8
0
 62
     0
 10
252.983
 20
23.9475
 30
0.0
 11
238.982
 21
23.9475
 31
0.0
  0
LINE
  8
0
 62
     0
 10
238.982
 20
23.9475
 30
0.0
 11
238.982
 21
37.9483
 31
0.0
  0
LINE
  8
0
 62
     0
 10
258.032
 20
37.9483
 30
0.0
 11
272.033
 21
37.9483
 31
0.0
  0
LINE
  8
0
 62
     0
 10
272.033
 20
37.9483
 30
0.0
 11
272.033
 21
23.9475
 31
0.0
  0
LINE
  8
0
 62
     0
 10
272.033
 20
23.9475
 30
0.0
 11
258.032
 21
23.9475
 31
0.0
  0
LINE
  8
0
 62
     0
 10
258.032
 20
23.9475
 30
0.0
 11
258.032
 21
37.9483
 31
0.0
  0
LINE
  8
0
 62
     0
 10
319.946
 20
37.9483
 30
0.0
 11
333.945
 21
37.9483
 31
0.0
  0
LINE
  8
0
 62
     0
 10
333.945
 20
37.9483
 30
0.0
 11
333.945
 21
23.9475
 31
0.0
  0
LINE
  8
0
 62
     0
 10
333.945
 20
23.9475
 30
0.0
 11
319.946
 21
23.9475
 31
0.0
  0
LINE
  8
0
 62
     0
 10
319.946
 20
23.9475
 30
0.0
 11
319.946
 21
37.9483
 31
0.0
  0
LINE
  8
0
 62
     0
 10
338.996
 20
37.9483
 30
0.0
 11
352.996
 21
37.9483
 31
0.0
  0
LINE
  8
0
 62
     0
 10
352.996
 20
37.9483
 30
0.0
 11
352.996
 21
23.9475
 31
0.0
  0
LINE
  8
0
 62
     0
 10
352.996
 20
23.9475
 30
0.0
 11
338.996
 21
23.9475
 31
0.0
  0
LINE
  8
0
 62
     0
 10
338.996
 20
23.9475
 30
0.0
 11
338.996
 21
37.9483
 31
0.0
  0
LINE
  8
0
 62
     0
 10
358.045
 20
37.9483
 30
0.0
 11
372.046
 21
37.9483
 31
0.0
  0
LINE
  8
0
 62
     0
 10
372.046
 20
37.9483
 30
0.0
 11
372.046
 21
23.9475
 31
0.0
  0
LINE
  8
0
 62
     0
 10
372.046
 20
23.9475
 30
0.0
 11
358.045
 21
23.9475
 31
0.0
  0
LINE
  8
0
 62
     0
 10
358.045
 20
23.9475
 30
0.0
 11
358.045
 21
37.9483
 31
0.0
  0
LINE
  8
0
 62
     0
 10
5.61964
 20
56.9983
 30
0.0
 11
19.6205
 21
56.9983
 31
0.0
  0
LINE
  8
0
 62
     0
 10
19.6205
 20
56.9983
 30
0.0
 11
19.6205
 21
42.9976
 31
0.0
  0
LINE
  8
0
 62
     0
 10
19.6205
 20
42.9976
 30
0.0
 11
5.61964
 21
42.9976
 31
0.0
  0
LINE
  8
0
 62
     0
 10
5.61964
 20
42.9976
 30
0.0
 11
5.61964
 21
56.9983
 31
0.0
  0
LINE
  8
0
 62
     0
 10
36.576
 20
56.9983
 30
0.0
 11
50.5767
 21
56.9983
 31
0.0
  0
LINE
  8
0
 62
     0
 10
50.5767
 20
56.9983
 30
0.0
 11
50.5767
 21
42.9976
 31
0.0
  0
LINE
  8
0
 62
     0
 10
50.5767
 20
42.9976
 30
0.0
 11
36.576
 21
42.9976
 31
0.0
  0
LINE
  8
0
 62
     0
 10
36.576
 20
42.9976
 30
0.0
 11
36.576
 21
56.9983
 31
0.0
  0
LINE
  8
0
 62
     0
 10
62.7712
 20
56.9983
 30
0.0
 11
76.7704
 21
56.9983
 31
0.0
  0
LINE
  8
0
 62
     0
 10
76.7704
 20
56.9983
 30
0.0
 11
76.7704
 21
42.9976
 31
0.0
  0
LINE
  8
0
 62
     0
 10
76.7704
 20
42.9976
 30
0.0
 11
62.7712
 21
42.9976
 31
0.0
  0
LINE
  8
0
 62
     0
 10
62.7712
 20
42.9976
 30
0.0
 11
62.7712
 21
56.9983
 31
0.0
  0
LINE
  8
0
 62
     0
 10
81.8212
 20
56.9983
 30
0.0
 11
95.8204
 21
56.9983
 31
0.0
  0
LINE
  8
0
 62
     0
 10
95.8204
 20
56.9983
 30
0.0
 11
95.8204
 21
42.9976
 31
0.0
  0
LINE
  8
0
 62
     0
 10
95.8204
 20
42.9976
 30
0.0
 11
81.8212
 21
42.9976
 31
0.0
  0
LINE
  8
0
 62
     0
 10
81.8212
 20
42.9976
 30
0.0
 11
81.8212
 21
56.9983
 31
0.0
  0
LINE
  8
0
 62
     0
 10
100.871
 20
56.9983
 30
0.0
 11
114.87
 21
56.9983
 31
0.0
  0
LINE
  8
0
 62
     0
 10
114.87
 20
56.9983
 30
0.0
 11
114.87
 21
42.9976
 31
0.0
  0
LINE
  8
0
 62
     0
 10
114.87
 20
42.9976
 30
0.0
 11
100.871
 21
42.9976
 31
0.0
  0
LINE
  8
0
 62
     0
 10
100.871
 20
42.9976
 30
0.0
 11
100.871
 21
56.9983
 31
0.0
  0
LINE
  8
0
 62
     0
 10
119.921
 20
56.9983
 30
0.0
 11
133.92
 21
56.9983
 31
0.0
  0
LINE
  8
0
 62
     0
 10
133.92
 20
56.9983
 30
0.0
 11
133.92
 21
42.9976
 31
0.0
  0
LINE
  8
0
 62
     0
 10
133.92
 20
42.9976
 30
0.0
 11
119.921
 21
42.9976
 31
0.0
  0
LINE
  8
0
 62
     0
 10
119.921
 20
42.9976
 30
0.0
 11
119.921
 21
56.9983
 31
0.0
  0
LINE
  8
0
 62
     0
 10
138.971
 20
56.9983
 30
0.0
 11
152.97
 21
56.9983
 31
0.0
  0
LINE
  8
0
 62
     0
 10
152.97
 20
56.9983
 30
0.0
 11
152.97
 21
42.9976
 31
0.0
  0
LINE
  8
0
 62
     0
 10
152.97
 20
42.9976
 30
0.0
 11
138.971
 21
42.9976
 31
0.0
  0
LINE
  8
0
 62
     0
 10
138.971
 20
42.9976
 30
0.0
 11
138.971
 21
56.9983
 31
0.0
  0
LINE
  8
0
 62
     0
 10
158.021
 20
56.9983
 30
0.0
 11
172.02
 21
56.9983
 31
0.0
  0
LINE
  8
0
 62
     0
 10
172.02
 20
56.9983
 30
0.0
 11
172.02
 21
42.9976
 31
0.0
  0
LINE
  8
0
 62
     0
 10
172.02
 20
42.9976
 30
0.0
 11
158.021
 21
42.9976
 31
0.0
  0
LINE
  8
0
 62
     0
 10
158.021
 20
42.9976
 30
0.0
 11
158.021
 21
56.9983
 31
0.0
  0
LINE
  8
0
 62
     0
 10
177.071
 20
56.9983
 30
0.0
 11
191.07
 21
56.9983
 31
0.0
  0
LINE
  8
0
 62
     0
 10
191.07
 20
56.9983
 30
0.0
 11
191.07
 21
42.9976
 31
0.0
  0
LINE
  8
0
 62
     0
 10
191.07
 20
42.9976
 30
0.0
 11
177.071
 21
42.9976
 31
0.0
  0
LINE
  8
0
 62
     0
 10
177.071
 20
42.9976
 30
0.0
 11
177.071
 21
56.9983
 31
0.0
  0
LINE
  8
0
 62
     0
 10
196.121
 20
56.9983
 30
0.0
 11
210.12
 21
56.9983
 31
0.0
  0
LINE
  8
0
 62
     0
 10
210.12
 20
56.9983
 30
0.0
 11
210.12
 21
42.9976
 31
0.0
  0
LINE
  8
0
 62
     0
 10
210.12
 20
42.9976
 30
0.0
 11
196.121
 21
42.9976
 31
0.0
  0
LINE
  8
0
 62
     0
 10
196.121
 20
42.9976
 30
0.0
 11
196.121
 21
56.9983
 31
0.0
  0
LINE
  8
0
 62
     0
 10
215.171
 20
56.9983
 30
0.0
 11
229.17
 21
56.9983
 31
0.0
  0
LINE
  8
0
 62
     0
 10
229.17
 20
56.9983
 30
0.0
 11
229.17
 21
42.9976
 31
0.0
  0
LINE
  8
0
 62
     0
 10
229.17
 20
42.9976
 30
0.0
 11
215.171
 21
42.9976
 31
0.0
  0
LINE
  8
0
 62
     0
 10
215.171
 20
42.9976
 30
0.0
 11
215.171
 21
56.9983
 31
0.0
  0
LINE
  8
0
 62
     0
 10
234.221
 20
56.9983
 30
0.0
 11
248.22
 21
56.9983
 31
0.0
  0
LINE
  8
0
 62
     0
 10
248.22
 20
56.9983
 30
0.0
 11
248.22
 21
42.9976
 31
0.0
  0
LINE
  8
0
 62
     0
 10
248.22
 20
42.9976
 30
0.0
 11
234.221
 21
42.9976
 31
0.0
  0
LINE
  8
0
 62
     0
 10
234.221
 20
42.9976
 30
0.0
 11
234.221
 21
56.9983
 31
0.0
  0
LINE
  8
0
 62
     0
 10
253.271
 20
56.9983
 30
0.0
 11
267.27
 21
56.9983
 31
0.0
  0
LINE
  8
0
 62
     0
 10
267.27
 20
56.9983
 30
0.0
 11
267.27
 21
42.9976
 31
0.0
  0
LINE
  8
0
 62
     0
 10
267.27
 20
42.9976
 30
0.0
 11
253.271
 21
42.9976
 31
0.0
  0
LINE
  8
0
 62
     0
 10
253.271
 20
42.9976
 30
0.0
 11
253.271
 21
56.9983
 31
0.0
  0
LINE
  8
0
 62
     0
 10
272.321
 20
56.9983
 30
0.0
 11
286.32
 21
56.9983
 31
0.0
  0
LINE
  8
0
 62
     0
 10
286.32
 20
56.9983
 30
0.0
 11
286.32
 21
42.9976
 31
0.0
  0
LINE
  8
0
 62
     0
 10
286.32
 20
42.9976
 30
0.0
 11
272.321
 21
42.9976
 31
0.0
  0
LINE
  8
0
 62
     0
 10
272.321
 20
42.9976
 30
0.0
 11
272.321
 21
56.9983
 31
0.0
  0
LINE
  8
0
 62
     0
 10
319.946
 20
56.9983
 30
0.0
 11
333.945
 21
56.9983
 31
0.0
  0
LINE
  8
0
 62
     0
 10
333.945
 20
56.9983
 30
0.0
 11
333.945
 21
42.9976
 31
0.0
  0
LINE
  8
0
 62
     0
 10
333.945
 20
42.9976
 30
0.0
 11
319.946
 21
42.9976
 31
0.0
  0
LINE
  8
0
 62
     0
 10
319.946
 20
42.9976
 30
0.0
 11
319.946
 21
56.9983
 31
0.0
  0
LINE
  8
0
 62
     0
 10
338.996
 20
56.9983
 30
0.0
 11
352.996
 21
56.9983
 31
0.0
  0
LINE
  8
0
 62
     0
 10
352.996
 20
56.9983
 30
0.0
 11
352.996
 21
42.9976
 31
0.0
  0
LINE
  8
0
 62
     0
 10
352.996
 20
42.9976
 30
0.0
 11
338.996
 21
42.9976
 31
0.0
  0
LINE
  8
0
 62
     0
 10
338.996
 20
42.9976
 30
0.0
 11
338.996
 21
56.9983
 31
0.0
  0
LINE
  8
0
 62
     0
 10
358.045
 20
56.9983
 30
0.0
 11
372.046
 21
56.9983
 31
0.0
  0
LINE
  8
0
 62
     0
 10
372.046
 20
56.9983
 30
0.0
 11
372.046
 21
42.9976
 31
0.0
  0
LINE
  8
0
 62
     0
 10
372.046
 20
42.9976
 30
0.0
 11
358.045
 21
42.9976
 31
0.0
  0
LINE
  8
0
 62
     0
 10
358.045
 20
42.9976
 30
0.0
 11
358.045
 21
56.9983
 31
0.0
  0
LINE
  8
0
 62
     0
 10
300.251
 20
75.6225
 30
0.0
 11
300.251
 21
74.7984
 31
0.0
  0
LINE
  8
0
 62
     0
 10
300.251
 20
74.7984
 30
0.0
 11
293.981
 21
74.7984
 31
0.0
  0
LINE
  8
0
 62
     0
 10
293.981
 20
74.7984
 30
0.0
 11
293.981
 21
73.0733
 31
0.0
  0
LINE
  8
0
 62
     0
 10
293.981
 20
73.0733
 30
0.0
 11
292.782
 21
73.0733
 31
0.0
  0
LINE
  8
0
 62
     0
 10
292.782
 20
73.0733
 30
0.0
 11
292.782
 21
69.7727
 31
0.0
  0
LINE
  8
0
 62
     0
 10
292.782
 20
69.7727
 30
0.0
 11
293.981
 21
69.7727
 31
0.0
  0
LINE
  8
0
 62
     0
 10
293.981
 20
69.7727
 30
0.0
 11
293.981
 21
68.0477
 31
0.0
  0
LINE
  8
0
 62
     0
 10
293.981
 20
68.0477
 30
0.0
 11
298.451
 21
68.0477
 31
0.0
  0
LINE
  8
0
 62
     0
 10
298.451
 20
68.0477
 30
0.0
 11
298.451
 21
66.5233
 31
0.0
  0
LINE
  8
0
 62
     0
 10
298.451
 20
66.5233
 30
0.0
 11
293.751
 21
66.5233
 31
0.0
  0
LINE
  8
0
 62
     0
 10
293.751
 20
66.5233
 30
0.0
 11
293.751
 21
52.5226
 31
0.0
  0
LINE
  8
0
 62
     0
 10
293.751
 20
52.5226
 30
0.0
 11
298.451
 21
52.5226
 31
0.0
  0
LINE
  8
0
 62
     0
 10
298.451
 20
52.5226
 30
0.0
 11
298.451
 21
50.9986
 31
0.0
  0
LINE
  8
0
 62
     0
 10
298.451
 20
50.9986
 30
0.0
 11
293.981
 21
50.9986
 31
0.0
  0
LINE
  8
0
 62
     0
 10
293.981
 20
50.9986
 30
0.0
 11
293.981
 21
49.2732
 31
0.0
  0
LINE
  8
0
 62
     0
 10
293.981
 20
49.2732
 30
0.0
 11
292.782
 21
49.2732
 31
0.0
  0
LINE
  8
0
 62
     0
 10
292.782
 20
49.2732
 30
0.0
 11
292.782
 21
45.9726
 31
0.0
  0
LINE
  8
0
 62
     0
 10
292.782
 20
45.9726
 30
0.0
 11
293.981
 21
45.9726
 31
0.0
  0
LINE
  8
0
 62
     0
 10
293.981
 20
45.9726
 30
0.0
 11
293.981
 21
44.2475
 31
0.0
  0
LINE
  8
0
 62
     0
 10
293.981
 20
44.2475
 30
0.0
 11
300.251
 21
44.2475
 31
0.0
  0
LINE
  8
0
 62
     0
 10
300.251
 20
44.2475
 30
0.0
 11
300.251
 21
43.4234
 31
0.0
  0
LINE
  8
0
 62
     0
 10
300.251
 20
43.4234
 30
0.0
 11
303.051
 21
43.4234
 31
0.0
  0
LINE
  8
0
 62
     0
 10
303.051
 20
43.4234
 30
0.0
 11
303.051
 21
44.2475
 31
0.0
  0
LINE
  8
0
 62
     0
 10
303.051
 20
44.2475
 30
0.0
 11
306.281
 21
44.2475
 31
0.0
  0
LINE
  8
0
 62
     0
 10
306.281
 20
44.2475
 30
0.0
 11
306.281
 21
50.9986
 31
0.0
  0
LINE
  8
0
 62
     0
 10
306.281
 20
50.9986
 30
0.0
 11
303.051
 21
50.9986
 31
0.0
  0
LINE
  8
0
 62
     0
 10
303.051
 20
50.9986
 30
0.0
 11
303.051
 21
52.5226
 31
0.0
  0
LINE
  8
0
 62
     0
 10
303.051
 20
52.5226
 30
0.0
 11
307.752
 21
52.5226
 31
0.0
  0
LINE
  8
0
 62
     0
 10
307.752
 20
52.5226
 30
0.0
 11
307.752
 21
66.5233
 31
0.0
  0
LINE
  8
0
 62
     0
 10
307.752
 20
66.5233
 30
0.0
 11
303.051
 21
66.5233
 31
0.0
  0
LINE
  8
0
 62
     0
 10
303.051
 20
66.5233
 30
0.0
 11
303.051
 21
68.0477
 31
0.0
  0
LINE
  8
0
 62
     0
 10
303.051
 20
68.0477
 30
0.0
 11
306.281
 21
68.0477
 31
0.0
  0
LINE
  8
0
 62
     0
 10
306.281
 20
68.0477
 30
0.0
 11
306.281
 21
74.7984
 31
0.0
  0
LINE
  8
0
 62
     0
 10
306.281
 20
74.7984
 30
0.0
 11
303.051
 21
74.7984
 31
0.0
  0
LINE
  8
0
 62
     0
 10
303.051
 20
74.7984
 30
0.0
 11
303.051
 21
75.6225
 31
0.0
  0
LINE
  8
0
 62
     0
 10
303.051
 20
75.6225
 30
0.0
 11
300.251
 21
75.6225
 31
0.0
  0
LINE
  8
0
 62
     0
 10
5.61964
 20
76.0483
 30
0.0
 11
19.6205
 21
76.0483
 31
0.0
  0
LINE
  8
0
 62
     0
 10
19.6205
 20
76.0483
 30
0.0
 11
19.6205
 21
62.0476
 31
0.0
  0
LINE
  8
0
 62
     0
 10
19.6205
 20
62.0476
 30
0.0
 11
5.61964
 21
62.0476
 31
0.0
  0
LINE
  8
0
 62
     0
 10
5.61964
 20
62.0476
 30
0.0
 11
5.61964
 21
76.0483
 31
0.0
  0
LINE
  8
0
 62
     0
 10
34.196
 20
76.0483
 30
0.0
 11
48.1954
 21
76.0483
 31
0.0
  0
LINE
  8
0
 62
     0
 10
48.1954
 20
76.0483
 30
0.0
 11
48.1954
 21
62.0476
 31
0.0
  0
LINE
  8
0
 62
     0
 10
48.1954
 20
62.0476
 30
0.0
 11
34.196
 21
62.0476
 31
0.0
  0
LINE
  8
0
 62
     0
 10
34.196
 20
62.0476
 30
0.0
 11
34.196
 21
76.0483
 31
0.0
  0
LINE
  8
0
 62
     0
 10
58.0072
 20
76.0483
 30
0.0
 11
72.0079
 21
76.0483
 31
0.0
  0
LINE
  8
0
 62
     0
 10
72.0079
 20
76.0483
 30
0.0
 11
72.0079
 21
62.0476
 31
0.0
  0
LINE
  8
0
 62
     0
 10
72.0079
 20
62.0476
 30
0.0
 11
58.0072
 21
62.0476
 31
0.0
  0
LINE
  8
0
 62
     0
 10
58.0072
 20
62.0476
 30
0.0
 11
58.0072
 21
76.0483
 31
0.0
  0
LINE
  8
0
 62
     0
 10
77.0572
 20
76.0483
 30
0.0
 11
91.0579
 21
76.0483
 31
0.0
  0
LINE
  8
0
 62
     0
 10
91.0579
 20
76.0483
 30
0.0
 11
91.0579
 21
62.0476
 31
0.0
  0
LINE
  8
0
 62
     0
 10
91.0579
 20
62.0476
 30
0.0
 11
77.0572
 21
62.0476
 31
0.0
  0
LINE
  8
0
 62
     0
 10
77.0572
 20
62.0476
 30
0.0
 11
77.0572
 21
76.0483
 31
0.0
  0
LINE
  8
0
 62
     0
 10
96.1072
 20
76.0483
 30
0.0
 11
110.108
 21
76.0483
 31
0.0
  0
LINE
  8
0
 62
     0
 10
110.108
 20
76.0483
 30
0.0
 11
110.108
 21
62.0476
 31
0.0
  0
LINE
  8
0
 62
     0
 10
110.108
 20
62.0476
 30
0.0
 11
96.1072
 21
62.0476
 31
0.0
  0
LINE
  8
0
 62
     0
 10
96.1072
 20
62.0476
 30
0.0
 11
96.1072
 21
76.0483
 31
0.0
  0
LINE
  8
0
 62
     0
 10
115.157
 20
76.0483
 30
0.0
 11
129.158
 21
76.0483
 31
0.0
  0
LINE
  8
0
 62
     0
 10
129.158
 20
76.0483
 30
0.0
 11
129.158
 21
62.0476
 31
0.0
  0
LINE
  8
0
 62
     0
 10
129.158
 20
62.0476
 30
0.0
 11
115.157
 21
62.0476
 31
0.0
  0
LINE
  8
0
 62
     0
 10
115.157
 20
62.0476
 30
0.0
 11
115.157
 21
76.0483
 31
0.0
  0
LINE
  8
0
 62
     0
 10
134.207
 20
76.0483
 30
0.0
 11
148.208
 21
76.0483
 31
0.0
  0
LINE
  8
0
 62
     0
 10
148.208
 20
76.0483
 30
0.0
 11
148.208
 21
62.0476
 31
0.0
  0
LINE
  8
0
 62
     0
 10
148.208
 20
62.0476
 30
0.0
 11
134.207
 21
62.0476
 31
0.0
  0
LINE
  8
0
 62
     0
 10
134.207
 20
62.0476
 30
0.0
 11
134.207
 21
76.0483
 31
0.0
  0
LINE
  8
0
 62
     0
 10
153.257
 20
76.0483
 30
0.0
 11
167.258
 21
76.0483
 31
0.0
  0
LINE
  8
0
 62
     0
 10
167.258
 20
76.0483
 30
0.0
 11
167.258
 21
62.0476
 31
0.0
  0
LINE
  8
0
 62
     0
 10
167.258
 20
62.0476
 30
0.0
 11
153.257
 21
62.0476
 31
0.0
  0
LINE
  8
0
 62
     0
 10
153.257
 20
62.0476
 30
0.0
 11
153.257
 21
76.0483
 31
0.0
  0
LINE
  8
0
 62
     0
 10
172.307
 20
76.0483
 30
0.0
 11
186.308
 21
76.0483
 31
0.0
  0
LINE
  8
0
 62
     0
 10
186.308
 20
76.0483
 30
0.0
 11
186.308
 21
62.0476
 31
0.0
  0
LINE
  8
0
 62
     0
 10
186.308
 20
62.0476
 30
0.0
 11
172.307
 21
62.0476
 31
0.0
  0
LINE
  8
0
 62
     0
 10
172.307
 20
62.0476
 30
0.0
 11
172.307
 21
76.0483
 31
0.0
  0
LINE
  8
0
 62
     0
 10
191.357
 20
76.0483
 30
0.0
 11
205.358
 21
76.0483
 31
0.0
  0
LINE
  8
0
 62
     0
 10
205.358
 20
76.0483
 30
0.0
 11
205.358
 21
62.0476
 31
0.0
  0
LINE
  8
0
 62
     0
 10
205.358
 20
62.0476
 30
0.0
 11
191.357
 21
62.0476
 31
0.0
  0
LINE
  8
0
 62
     0
 10
191.357
 20
62.0476
 30
0.0
 11
191.357
 21
76.0483
 31
0.0
  0
LINE
  8
0
 62
     0
 10
210.407
 20
76.0483
 30
0.0
 11
224.408
 21
76.0483
 31
0.0
  0
LINE
  8
0
 62
     0
 10
224.408
 20
76.0483
 30
0.0
 11
224.408
 21
62.0476
 31
0.0
  0
LINE
  8
0
 62
     0
 10
224.408
 20
62.0476
 30
0.0
 11
210.407
 21
62.0476
 31
0.0
  0
LINE
  8
0
 62
     0
 10
210.407
 20
62.0476
 30
0.0
 11
210.407
 21
76.0483
 31
0.0
  0
LINE
  8
0
 62
     0
 10
229.457
 20
76.0483
 30
0.0
 11
243.458
 21
76.0483
 31
0.0
  0
LINE
  8
0
 62
     0
 10
243.458
 20
76.0483
 30
0.0
 11
243.458
 21
62.0476
 31
0.0
  0
LINE
  8
0
 62
     0
 10
243.458
 20
62.0476
 30
0.0
 11
229.457
 21
62.0476
 31
0.0
  0
LINE
  8
0
 62
     0
 10
229.457
 20
62.0476
 30
0.0
 11
229.457
 21
76.0483
 31
0.0
  0
LINE
  8
0
 62
     0
 10
248.507
 20
76.0483
 30
0.0
 11
262.508
 21
76.0483
 31
0.0
  0
LINE
  8
0
 62
     0
 10
262.508
 20
76.0483
 30
0.0
 11
262.508
 21
62.0476
 31
0.0
  0
LINE
  8
0
 62
     0
 10
262.508
 20
62.0476
 30
0.0
 11
248.507
 21
62.0476
 31
0.0
  0
LINE
  8
0
 62
     0
 10
248.507
 20
62.0476
 30
0.0
 11
248.507
 21
76.0483
 31
0.0
  0
LINE
  8
0
 62
     0
 10
267.557
 20
76.0483
 30
0.0
 11
281.558
 21
76.0483
 31
0.0
  0
LINE
  8
0
 62
     0
 10
281.558
 20
76.0483
 30
0.0
 11
281.558
 21
62.0476
 31
0.0
  0
LINE
  8
0
 62
     0
 10
281.558
 20
62.0476
 30
0.0
 11
267.557
 21
62.0476
 31
0.0
  0
LINE
  8
0
 62
     0
 10
267.557
 20
62.0476
 30
0.0
 11
267.557
 21
76.0483
 31
0.0
  0
LINE
  8
0
 62
     0
 10
319.946
 20
76.0483
 30
0.0
 11
333.945
 21
76.0483
 31
0.0
  0
LINE
  8
0
 62
     0
 10
333.945
 20
76.0483
 30
0.0
 11
333.945
 21
62.0476
 31
0.0
  0
LINE
  8
0
 62
     0
 10
333.945
 20
62.0476
 30
0.0
 11
319.946
 21
62.0476
 31
0.0
  0
LINE
  8
0
 62
     0
 10
319.946
 20
62.0476
 30
0.0
 11
319.946
 21
76.0483
 31
0.0
  0
LINE
  8
0
 62
     0
 10
338.996
 20
76.0483
 30
0.0
 11
352.996
 21
76.0483
 31
0.0
  0
LINE
  8
0
 62
     0
 10
352.996
 20
76.0483
 30
0.0
 11
352.996
 21
62.0476
 31
0.0
  0
LINE
  8
0
 62
     0
 10
352.996
 20
62.0476
 30
0.0
 11
338.996
 21
62.0476
 31
0.0
  0
LINE
  8
0
 62
     0
 10
338.996
 20
62.0476
 30
0.0
 11
338.996
 21
76.0483
 31
0.0
  0
LINE
  8
0
 62
     0
 10
358.045
 20
76.0483
 30
0.0
 11
372.046
 21
76.0483
 31
0.0
  0
LINE
  8
0
 62
     0
 10
372.046
 20
76.0483
 30
0.0
 11
372.046
 21
62.0476
 31
0.0
  0
LINE
  8
0
 62
     0
 10
372.046
 20
62.0476
 30
0.0
 11
358.045
 21
62.0476
 31
0.0
  0
LINE
  8
0
 62
     0
 10
358.045
 20
62.0476
 30
0.0
 11
358.045
 21
76.0483
 31
0.0
  0
LINE
  8
0
 62
     0
 10
286.607
 20
95.0983
 30
0.0
 11
286.607
 21
90.3979
 31
0.0
  0
LINE
  8
0
 62
     0
 10
286.607
 20
90.3979
 30
0.0
 11
285.083
 21
90.3979
 31
0.0
  0
LINE
  8
0
 62
     0
 10
285.083
 20
90.3979
 30
0.0
 11
285.083
 21
93.6279
 31
0.0
  0
LINE
  8
0
 62
     0
 10
285.083
 20
93.6279
 30
0.0
 11
278.332
 21
93.6279
 31
0.0
  0
LINE
  8
0
 62
     0
 10
278.332
 20
93.6279
 30
0.0
 11
278.332
 21
90.3979
 31
0.0
  0
LINE
  8
0
 62
     0
 10
278.332
 20
90.3979
 30
0.0
 11
277.508
 21
90.3979
 31
0.0
  0
LINE
  8
0
 62
     0
 10
277.508
 20
90.3979
 30
0.0
 11
277.508
 21
87.5979
 31
0.0
  0
LINE
  8
0
 62
     0
 10
277.508
 20
87.5979
 30
0.0
 11
278.332
 21
87.5979
 31
0.0
  0
LINE
  8
0
 62
     0
 10
278.332
 20
87.5979
 30
0.0
 11
278.332
 21
81.3276
 31
0.0
  0
LINE
  8
0
 62
     0
 10
278.332
 20
81.3276
 30
0.0
 11
280.057
 21
81.3276
 31
0.0
  0
LINE
  8
0
 62
     0
 10
280.057
 20
81.3276
 30
0.0
 11
280.057
 21
80.1275
 31
0.0
  0
LINE
  8
0
 62
     0
 10
280.057
 20
80.1275
 30
0.0
 11
283.358
 21
80.1275
 31
0.0
  0
LINE
  8
0
 62
     0
 10
283.358
 20
80.1275
 30
0.0
 11
283.358
 21
81.3276
 31
0.0
  0
LINE
  8
0
 62
     0
 10
283.358
 20
81.3276
 30
0.0
 11
285.083
 21
81.3276
 31
0.0
  0
LINE
  8
0
 62
     0
 10
285.083
 20
81.3276
 30
0.0
 11
285.083
 21
85.798
 31
0.0
  0
LINE
  8
0
 62
     0
 10
285.083
 20
85.798
 30
0.0
 11
286.607
 21
85.798
 31
0.0
  0
LINE
  8
0
 62
     0
 10
286.607
 20
85.798
 30
0.0
 11
286.607
 21
81.0976
 31
0.0
  0
LINE
  8
0
 62
     0
 10
286.607
 20
81.0976
 30
0.0
 11
300.608
 21
81.0976
 31
0.0
  0
LINE
  8
0
 62
     0
 10
300.608
 20
81.0976
 30
0.0
 11
300.608
 21
85.798
 31
0.0
  0
LINE
  8
0
 62
     0
 10
300.608
 20
85.798
 30
0.0
 11
302.132
 21
85.798
 31
0.0
  0
LINE
  8
0
 62
     0
 10
302.132
 20
85.798
 30
0.0
 11
302.132
 21
81.3276
 31
0.0
  0
LINE
  8
0
 62
     0
 10
302.132
 20
81.3276
 30
0.0
 11
303.857
 21
81.3276
 31
0.0
  0
LINE
  8
0
 62
     0
 10
303.857
 20
81.3276
 30
0.0
 11
303.857
 21
80.1275
 31
0.0
  0
LINE
  8
0
 62
     0
 10
303.857
 20
80.1275
 30
0.0
 11
307.158
 21
80.1275
 31
0.0
  0
LINE
  8
0
 62
     0
 10
307.158
 20
80.1275
 30
0.0
 11
307.158
 21
81.3276
 31
0.0
  0
LINE
  8
0
 62
     0
 10
307.158
 20
81.3276
 30
0.0
 11
308.883
 21
81.3276
 31
0.0
  0
LINE
  8
0
 62
     0
 10
308.883
 20
81.3276
 30
0.0
 11
308.883
 21
87.5979
 31
0.0
  0
LINE
  8
0
 62
     0
 10
308.883
 20
87.5979
 30
0.0
 11
309.707
 21
87.5979
 31
0.0
  0
LINE
  8
0
 62
     0
 10
309.707
 20
87.5979
 30
0.0
 11
309.707
 21
90.3979
 31
0.0
  0
LINE
  8
0
 62
     0
 10
309.707
 20
90.3979
 30
0.0
 11
308.883
 21
90.3979
 31
0.0
  0
LINE
  8
0
 62
     0
 10
308.883
 20
90.3979
 30
0.0
 11
308.883
 21
93.6279
 31
0.0
  0
LINE
  8
0
 62
     0
 10
308.883
 20
93.6279
 30
0.0
 11
302.132
 21
93.6279
 31
0.0
  0
LINE
  8
0
 62
     0
 10
302.132
 20
93.6279
 30
0.0
 11
302.132
 21
90.3979
 31
0.0
  0
LINE
  8
0
 62
     0
 10
302.132
 20
90.3979
 30
0.0
 11
300.608
 21
90.3979
 31
0.0
  0
LINE
  8
0
 62
     0
 10
300.608
 20
90.3979
 30
0.0
 11
300.608
 21
95.0983
 31
0.0
  0
LINE
  8
0
 62
     0
 10
300.608
 20
95.0983
 30
0.0
 11
286.607
 21
95.0983
 31
0.0
  0
LINE
  8
0
 62
     0
 10
5.61964
 20
95.0983
 30
0.0
 11
19.6205
 21
95.0983
 31
0.0
  0
LINE
  8
0
 62
     0
 10
19.6205
 20
95.0983
 30
0.0
 11
19.6205
 21
81.0976
 31
0.0
  0
LINE
  8
0
 62
     0
 10
19.6205
 20
81.0976
 30
0.0
 11
5.61964
 21
81.0976
 31
0.0
  0
LINE
  8
0
 62
     0
 10
5.61964
 20
81.0976
 30
0.0
 11
5.61964
 21
95.0983
 31
0.0
  0
LINE
  8
0
 62
     0
 10
29.4321
 20
95.0983
 30
0.0
 11
43.4329
 21
95.0983
 31
0.0
  0
LINE
  8
0
 62
     0
 10
43.4329
 20
95.0983
 30
0.0
 11
43.4329
 21
81.0976
 31
0.0
  0
LINE
  8
0
 62
     0
 10
43.4329
 20
81.0976
 30
0.0
 11
29.4321
 21
81.0976
 31
0.0
  0
LINE
  8
0
 62
     0
 10
29.4321
 20
81.0976
 30
0.0
 11
29.4321
 21
95.0983
 31
0.0
  0
LINE
  8
0
 62
     0
 10
48.4822
 20
95.0983
 30
0.0
 11
62.4829
 21
95.0983
 31
0.0
  0
LINE
  8
0
 62
     0
 10
62.4829
 20
95.0983
 30
0.0
 11
62.4829
 21
81.0976
 31
0.0
  0
LINE
  8
0
 62
     0
 10
62.4829
 20
81.0976
 30
0.0
 11
48.4822
 21
81.0976
 31
0.0
  0
LINE
  8
0
 62
     0
 10
48.4822
 20
81.0976
 30
0.0
 11
48.4822
 21
95.0983
 31
0.0
  0
LINE
  8
0
 62
     0
 10
67.5322
 20
95.0983
 30
0.0
 11
81.5329
 21
95.0983
 31
0.0
  0
LINE
  8
0
 62
     0
 10
81.5329
 20
95.0983
 30
0.0
 11
81.5329
 21
81.0976
 31
0.0
  0
LINE
  8
0
 62
     0
 10
81.5329
 20
81.0976
 30
0.0
 11
67.5322
 21
81.0976
 31
0.0
  0
LINE
  8
0
 62
     0
 10
67.5322
 20
81.0976
 30
0.0
 11
67.5322
 21
95.0983
 31
0.0
  0
LINE
  8
0
 62
     0
 10
86.5822
 20
95.0983
 30
0.0
 11
100.583
 21
95.0983
 31
0.0
  0
LINE
  8
0
 62
     0
 10
100.583
 20
95.0983
 30
0.0
 11
100.583
 21
81.0976
 31
0.0
  0
LINE
  8
0
 62
     0
 10
100.583
 20
81.0976
 30
0.0
 11
86.5822
 21
81.0976
 31
0.0
  0
LINE
  8
0
 62
     0
 10
86.5822
 20
81.0976
 30
0.0
 11
86.5822
 21
95.0983
 31
0.0
  0
LINE
  8
0
 62
     0
 10
105.632
 20
95.0983
 30
0.0
 11
119.633
 21
95.0983
 31
0.0
  0
LINE
  8
0
 62
     0
 10
119.633
 20
95.0983
 30
0.0
 11
119.633
 21
81.0976
 31
0.0
  0
LINE
  8
0
 62
     0
 10
119.633
 20
81.0976
 30
0.0
 11
105.632
 21
81.0976
 31
0.0
  0
LINE
  8
0
 62
     0
 10
105.632
 20
81.0976
 30
0.0
 11
105.632
 21
95.0983
 31
0.0
  0
LINE
  8
0
 62
     0
 10
124.682
 20
95.0983
 30
0.0
 11
138.683
 21
95.0983
 31
0.0
  0
LINE
  8
0
 62
     0
 10
138.683
 20
95.0983
 30
0.0
 11
138.683
 21
81.0976
 31
0.0
  0
LINE
  8
0
 62
     0
 10
138.683
 20
81.0976
 30
0.0
 11
124.682
 21
81.0976
 31
0.0
  0
LINE
  8
0
 62
     0
 10
124.682
 20
81.0976
 30
0.0
 11
124.682
 21
95.0983
 31
0.0
  0
LINE
  8
0
 62
     0
 10
143.732
 20
95.0983
 30
0.0
 11
157.733
 21
95.0983
 31
0.0
  0
LINE
  8
0
 62
     0
 10
157.733
 20
95.0983
 30
0.0
 11
157.733
 21
81.0976
 31
0.0
  0
LINE
  8
0
 62
     0
 10
157.733
 20
81.0976
 30
0.0
 11
143.732
 21
81.0976
 31
0.0
  0
LINE
  8
0
 62
     0
 10
143.732
 20
81.0976
 30
0.0
 11
143.732
 21
95.0983
 31
0.0
  0
LINE
  8
0
 62
     0
 10
162.782
 20
95.0983
 30
0.0
 11
176.783
 21
95.0983
 31
0.0
  0
LINE
  8
0
 62
     0
 10
176.783
 20
95.0983
 30
0.0
 11
176.783
 21
81.0976
 31
0.0
  0
LINE
  8
0
 62
     0
 10
176.783
 20
81.0976
 30
0.0
 11
162.782
 21
81.0976
 31
0.0
  0
LINE
  8
0
 62
     0
 10
162.782
 20
81.0976
 30
0.0
 11
162.782
 21
95.0983
 31
0.0
  0
LINE
  8
0
 62
     0
 10
181.832
 20
95.0983
 30
0.0
 11
195.833
 21
95.0983
 31
0.0
  0
LINE
  8
0
 62
     0
 10
195.833
 20
95.0983
 30
0.0
 11
195.833
 21
81.0976
 31
0.0
  0
LINE
  8
0
 62
     0
 10
195.833
 20
81.0976
 30
0.0
 11
181.832
 21
81.0976
 31
0.0
  0
LINE
  8
0
 62
     0
 10
181.832
 20
81.0976
 30
0.0
 11
181.832
 21
95.0983
 31
0.0
  0
LINE
  8
0
 62
     0
 10
200.882
 20
95.0983
 30
0.0
 11
214.883
 21
95.0983
 31
0.0
  0
LINE
  8
0
 62
     0
 10
214.883
 20
95.0983
 30
0.0
 11
214.883
 21
81.0976
 31
0.0
  0
LINE
  8
0
 62
     0
 10
214.883
 20
81.0976
 30
0.0
 11
200.882
 21
81.0976
 31
0.0
  0
LINE
  8
0
 62
     0
 10
200.882
 20
81.0976
 30
0.0
 11
200.882
 21
95.0983
 31
0.0
  0
LINE
  8
0
 62
     0
 10
219.932
 20
95.0983
 30
0.0
 11
233.933
 21
95.0983
 31
0.0
  0
LINE
  8
0
 62
     0
 10
233.933
 20
95.0983
 30
0.0
 11
233.933
 21
81.0976
 31
0.0
  0
LINE
  8
0
 62
     0
 10
233.933
 20
81.0976
 30
0.0
 11
219.932
 21
81.0976
 31
0.0
  0
LINE
  8
0
 62
     0
 10
219.932
 20
81.0976
 30
0.0
 11
219.932
 21
95.0983
 31
0.0
  0
LINE
  8
0
 62
     0
 10
238.982
 20
95.0983
 30
0.0
 11
252.983
 21
95.0983
 31
0.0
  0
LINE
  8
0
 62
     0
 10
252.983
 20
95.0983
 30
0.0
 11
252.983
 21
81.0976
 31
0.0
  0
LINE
  8
0
 62
     0
 10
252.983
 20
81.0976
 30
0.0
 11
238.982
 21
81.0976
 31
0.0
  0
LINE
  8
0
 62
     0
 10
238.982
 20
81.0976
 30
0.0
 11
238.982
 21
95.0983
 31
0.0
  0
LINE
  8
0
 62
     0
 10
258.032
 20
95.0983
 30
0.0
 11
272.033
 21
95.0983
 31
0.0
  0
LINE
  8
0
 62
     0
 10
272.033
 20
95.0983
 30
0.0
 11
272.033
 21
81.0976
 31
0.0
  0
LINE
  8
0
 62
     0
 10
272.033
 20
81.0976
 30
0.0
 11
258.032
 21
81.0976
 31
0.0
  0
LINE
  8
0
 62
     0
 10
258.032
 20
81.0976
 30
0.0
 11
258.032
 21
95.0983
 31
0.0
  0
LINE
  8
0
 62
     0
 10
319.946
 20
95.0983
 30
0.0
 11
333.945
 21
95.0983
 31
0.0
  0
LINE
  8
0
 62
     0
 10
333.945
 20
95.0983
 30
0.0
 11
333.945
 21
81.0976
 31
0.0
  0
LINE
  8
0
 62
     0
 10
333.945
 20
81.0976
 30
0.0
 11
319.946
 21
81.0976
 31
0.0
  0
LINE
  8
0
 62
     0
 10
319.946
 20
81.0976
 30
0.0
 11
319.946
 21
95.0983
 31
0.0
  0
LINE
  8
0
 62
     0
 10
338.996
 20
95.0983
 30
0.0
 11
352.996
 21
95.0983
 31
0.0
  0
LINE
  8
0
 62
     0
 10
352.996
 20
95.0983
 30
0.0
 11
352.996
 21
81.0976
 31
0.0
  0
LINE
  8
0
 62
     0
 10
352.996
 20
81.0976
 30
0.0
 11
338.996
 21
81.0976
 31
0.0
  0
LINE
  8
0
 62
     0
 10
338.996
 20
81.0976
 30
0.0
 11
338.996
 21
95.0983
 31
0.0
  0
LINE
  8
0
 62
     0
 10
358.045
 20
95.0983
 30
0.0
 11
372.046
 21
95.0983
 31
0.0
  0
LINE
  8
0
 62
     0
 10
372.046
 20
95.0983
 30
0.0
 11
372.046
 21
81.0976
 31
0.0
  0
LINE
  8
0
 62
     0
 10
372.046
 20
81.0976
 30
0.0
 11
358.045
 21
81.0976
 31
0.0
  0
LINE
  8
0
 62
     0
 10
358.045
 20
81.0976
 30
0.0
 11
358.045
 21
95.0983
 31
0.0
  0
LINE
  8
0
 62
     0
 10
5.61964
 20
118.911
 30
0.0
 11
19.6205
 21
118.911
 31
0.0
  0
LINE
  8
0
 62
     0
 10
19.6205
 20
118.911
 30
0.0
 11
19.6205
 21
104.91
 31
0.0
  0
LINE
  8
0
 62
     0
 10
19.6205
 20
104.91
 30
0.0
 11
5.61964
 21
104.91
 31
0.0
  0
LINE
  8
0
 62
     0
 10
5.61964
 20
104.91
 30
0.0
 11
5.61964
 21
118.911
 31
0.0
  0
LINE
  8
0
 62
     0
 10
29.4321
 20
118.911
 30
0.0
 11
43.4329
 21
118.911
 31
0.0
  0
LINE
  8
0
 62
     0
 10
43.4329
 20
118.911
 30
0.0
 11
43.4329
 21
104.91
 31
0.0
  0
LINE
  8
0
 62
     0
 10
43.4329
 20
104.91
 30
0.0
 11
29.4321
 21
104.91
 31
0.0
  0
LINE
  8
0
 62
     0
 10
29.4321
 20
104.91
 30
0.0
 11
29.4321
 21
118.911
 31
0.0
  0
LINE
  8
0
 62
     0
 10
53.2462
 20
118.911
 30
0.0
 11
67.2454
 21
118.911
 31
0.0
  0
LINE
  8
0
 62
     0
 10
67.2454
 20
118.911
 30
0.0
 11
67.2454
 21
104.91
 31
0.0
  0
LINE
  8
0
 62
     0
 10
67.2454
 20
104.91
 30
0.0
 11
53.2462
 21
104.91
 31
0.0
  0
LINE
  8
0
 62
     0
 10
53.2462
 20
104.91
 30
0.0
 11
53.2462
 21
118.911
 31
0.0
  0
LINE
  8
0
 62
     0
 10
72.2962
 20
118.911
 30
0.0
 11
86.2954
 21
118.911
 31
0.0
  0
LINE
  8
0
 62
     0
 10
86.2954
 20
118.911
 30
0.0
 11
86.2954
 21
104.91
 31
0.0
  0
LINE
  8
0
 62
     0
 10
86.2954
 20
104.91
 30
0.0
 11
72.2962
 21
104.91
 31
0.0
  0
LINE
  8
0
 62
     0
 10
72.2962
 20
104.91
 30
0.0
 11
72.2962
 21
118.911
 31
0.0
  0
LINE
  8
0
 62
     0
 10
91.3462
 20
118.911
 30
0.0
 11
105.345
 21
118.911
 31
0.0
  0
LINE
  8
0
 62
     0
 10
105.345
 20
118.911
 30
0.0
 11
105.345
 21
104.91
 31
0.0
  0
LINE
  8
0
 62
     0
 10
105.345
 20
104.91
 30
0.0
 11
91.3462
 21
104.91
 31
0.0
  0
LINE
  8
0
 62
     0
 10
91.3462
 20
104.91
 30
0.0
 11
91.3462
 21
118.911
 31
0.0
  0
LINE
  8
0
 62
     0
 10
110.396
 20
118.911
 30
0.0
 11
124.395
 21
118.911
 31
0.0
  0
LINE
  8
0
 62
     0
 10
124.395
 20
118.911
 30
0.0
 11
124.395
 21
104.91
 31
0.0
  0
LINE
  8
0
 62
     0
 10
124.395
 20
104.91
 30
0.0
 11
110.396
 21
104.91
 31
0.0
  0
LINE
  8
0
 62
     0
 10
110.396
 20
104.91
 30
0.0
 11
110.396
 21
118.911
 31
0.0
  0
LINE
  8
0
 62
     0
 10
134.207
 20
118.911
 30
0.0
 11
148.208
 21
118.911
 31
0.0
  0
LINE
  8
0
 62
     0
 10
148.208
 20
118.911
 30
0.0
 11
148.208
 21
104.91
 31
0.0
  0
LINE
  8
0
 62
     0
 10
148.208
 20
104.91
 30
0.0
 11
134.207
 21
104.91
 31
0.0
  0
LINE
  8
0
 62
     0
 10
134.207
 20
104.91
 30
0.0
 11
134.207
 21
118.911
 31
0.0
  0
LINE
  8
0
 62
     0
 10
153.257
 20
118.911
 30
0.0
 11
167.258
 21
118.911
 31
0.0
  0
LINE
  8
0
 62
     0
 10
167.258
 20
118.911
 30
0.0
 11
167.258
 21
104.91
 31
0.0
  0
LINE
  8
0
 62
     0
 10
167.258
 20
104.91
 30
0.0
 11
153.257
 21
104.91
 31
0.0
  0
LINE
  8
0
 62
     0
 10
153.257
 20
104.91
 30
0.0
 11
153.257
 21
118.911
 31
0.0
  0
LINE
  8
0
 62
     0
 10
172.307
 20
118.911
 30
0.0
 11
186.308
 21
118.911
 31
0.0
  0
LINE
  8
0
 62
     0
 10
186.308
 20
118.911
 30
0.0
 11
186.308
 21
104.91
 31
0.0
  0
LINE
  8
0
 62
     0
 10
186.308
 20
104.91
 30
0.0
 11
172.307
 21
104.91
 31
0.0
  0
LINE
  8
0
 62
     0
 10
172.307
 20
104.91
 30
0.0
 11
172.307
 21
118.911
 31
0.0
  0
LINE
  8
0
 62
     0
 10
191.357
 20
118.911
 30
0.0
 11
205.358
 21
118.911
 31
0.0
  0
LINE
  8
0
 62
     0
 10
205.358
 20
118.911
 30
0.0
 11
205.358
 21
104.91
 31
0.0
  0
LINE
  8
0
 62
     0
 10
205.358
 20
104.91
 30
0.0
 11
191.357
 21
104.91
 31
0.0
  0
LINE
  8
0
 62
     0
 10
191.357
 20
104.91
 30
0.0
 11
191.357
 21
118.911
 31
0.0
  0
LINE
  8
0
 62
     0
 10
215.171
 20
118.911
 30
0.0
 11
229.17
 21
118.911
 31
0.0
  0
LINE
  8
0
 62
     0
 10
229.17
 20
118.911
 30
0.0
 11
229.17
 21
104.91
 31
0.0
  0
LINE
  8
0
 62
     0
 10
229.17
 20
104.91
 30
0.0
 11
215.171
 21
104.91
 31
0.0
  0
LINE
  8
0
 62
     0
 10
215.171
 20
104.91
 30
0.0
 11
215.171
 21
118.911
 31
0.0
  0
LINE
  8
0
 62
     0
 10
234.221
 20
118.911
 30
0.0
 11
248.22
 21
118.911
 31
0.0
  0
LINE
  8
0
 62
     0
 10
248.22
 20
118.911
 30
0.0
 11
248.22
 21
104.91
 31
0.0
  0
LINE
  8
0
 62
     0
 10
248.22
 20
104.91
 30
0.0
 11
234.221
 21
104.91
 31
0.0
  0
LINE
  8
0
 62
     0
 10
234.221
 20
104.91
 30
0.0
 11
234.221
 21
118.911
 31
0.0
  0
LINE
  8
0
 62
     0
 10
253.271
 20
118.911
 30
0.0
 11
267.27
 21
118.911
 31
0.0
  0
LINE
  8
0
 62
     0
 10
267.27
 20
118.911
 30
0.0
 11
267.27
 21
104.91
 31
0.0
  0
LINE
  8
0
 62
     0
 10
267.27
 20
104.91
 30
0.0
 11
253.271
 21
104.91
 31
0.0
  0
LINE
  8
0
 62
     0
 10
253.271
 20
104.91
 30
0.0
 11
253.271
 21
118.911
 31
0.0
  0
LINE
  8
0
 62
     0
 10
272.321
 20
118.911
 30
0.0
 11
286.32
 21
118.911
 31
0.0
  0
LINE
  8
0
 62
     0
 10
286.32
 20
118.911
 30
0.0
 11
286.32
 21
104.91
 31
0.0
  0
LINE
  8
0
 62
     0
 10
286.32
 20
104.91
 30
0.0
 11
272.321
 21
104.91
 31
0.0
  0
LINE
  8
0
 62
     0
 10
272.321
 20
104.91
 30
0.0
 11
272.321
 21
118.911
 31
0.0
  0
LINE
  8
0
 62
     0
 10
296.132
 20
118.911
 30
0.0
 11
310.133
 21
118.911
 31
0.0
  0
LINE
  8
0
 62
     0
 10
310.133
 20
118.911
 30
0.0
 11
310.133
 21
104.91
 31
0.0
  0
LINE
  8
0
 62
     0
 10
310.133
 20
104.91
 30
0.0
 11
296.132
 21
104.91
 31
0.0
  0
LINE
  8
0
 62
     0
 10
296.132
 20
104.91
 30
0.0
 11
296.132
 21
118.911
 31
0.0
  0
LINE
  8
0
 62
     0
 10
319.946
 20
118.911
 30
0.0
 11
333.945
 21
118.911
 31
0.0
  0
LINE
  8
0
 62
     0
 10
333.945
 20
118.911
 30
0.0
 11
333.945
 21
104.91
 31
0.0
  0
LINE
  8
0
 62
     0
 10
333.945
 20
104.91
 30
0.0
 11
319.946
 21
104.91
 31
0.0
  0
LINE
  8
0
 62
     0
 10
319.946
 20
104.91
 30
0.0
 11
319.946
 21
118.911
 31
0.0
  0
LINE
  8
0
 62
     0
 10
338.996
 20
118.911
 30
0.0
 11
352.996
 21
118.911
 31
0.0
  0
LINE
  8
0
 62
     0
 10
352.996
 20
118.911
 30
0.0
 11
352.996
 21
104.91
 31
0.0
  0
LINE
  8
0
 62
     0
 10
352.996
 20
104.91
 30
0.0
 11
338.996
 21
104.91
 31
0.0
  0
LINE
  8
0
 62
     0
 10
338.996
 20
104.91
 30
0.0
 11
338.996
 21
118.911
 31
0.0
  0
LINE
  8
0
 62
     0
 10
358.045
 20
118.911
 30
0.0
 11
372.046
 21
118.911
 31
0.0
  0
LINE
  8
0
 62
     0
 10
372.046
 20
118.911
 30
0.0
 11
372.046
 21
104.91
 31
0.0
  0
LINE
  8
0
 62
     0
 10
372.046
 20
104.91
 30
0.0
 11
358.045
 21
104.91
 31
0.0
  0
LINE
  8
0
 62
     0
 10
358.045
 20
104.91
 30
0.0
 11
358.045
 21
118.911
 31
0.0
  0
ENDSEC
  0
EOF
